<?xml version="1.0" standalone="no"?>
<!DOCTYPE svg PUBLIC "-//W3C//DTD SVG 1.1//EN" "http://www.w3.org/Graphics/SVG/1.1/DTD/svg11.dtd" >
<svg xmlns="http://www.w3.org/2000/svg" xmlns:xlink="http://www.w3.org/1999/xlink" version="1.1">
<metadata>
Created by FontForge 20141024 at Mon Jul 13 20:21:13 2015
 By Jimmy Warting
Copyright (c) 2012 Natanael Gama (www.ndiscovered.com), with Reserved Font Name "Cinzel"
</metadata>
<defs>
<font id="Cinzel-Regular" horiz-adv-x="577" >
  <font-face 
    font-family="Cinzel"
    font-weight="400"
    font-stretch="normal"
    units-per-em="1000"
    panose-1="0 0 5 0 0 0 0 0 0 0"
    ascent="800"
    descent="-200"
    x-height="600"
    cap-height="700.09"
    bbox="-11.0107 -238.816 1327.76 914.28"
    underline-thickness="50"
    underline-position="-50"
    stemh="30"
    stemv="65"
    unicode-range="U+0020-FB02"
  />
<missing-glyph horiz-adv-x="250" 
 />
    <glyph glyph-name=".notdef" horiz-adv-x="250" 
 />
    <glyph glyph-name="A" unicode="A" horiz-adv-x="712" 
d="M359.41 714l267.328 -641.04c20.2197 -44.5098 57.21 -62.96 87.8398 -62.96h8.36035v-10h-225.18v9.91016h8.79004c25.8203 0 52.6006 22.75 38.001 62.7695l-63.96 170.32h-269.35l-66.9902 -170.92c-14.1104 -39.6396 12.54 -62.1699 38.2305 -62.1699h8.79004
v-9.91016h-201.28v10h9c30.4102 0 67.3799 18.4297 87.5996 62.8896l226.78 538.11s37.0303 81.0098 37.0303 103h9.00977zM222.998 273h246.32l-120.53 320.95z" />
    <glyph glyph-name="Aacute" unicode="&#xc1;" horiz-adv-x="712" 
d="M356.6 763.97l-7 7.01953c42.3203 45.6299 84.6406 90.2598 126.961 130.89c15.6299 -15.54 30.2695 -33.0801 40.8994 -52.6201c-53.6201 -31.4297 -107.24 -58.8594 -160.86 -85.2891zM359.42 714.02l267.328 -641.04c20.2197 -44.5098 57.21 -62.96 87.8398 -62.96
h8.36035v-10h-225.18v9.91016h8.79004c25.8203 0 52.6006 22.75 38.001 62.7695l-63.96 170.32h-269.35l-66.9902 -170.92c-14.1104 -39.6396 12.54 -62.1699 38.2305 -62.1699h8.79004v-9.91016h-201.28v10h9c30.4102 0 67.3799 18.4297 87.5996 62.8896l226.78 538.11
s37.0303 81.0098 37.0303 103h9.00977zM223.008 273.02h246.32l-120.53 320.95z" />
    <glyph glyph-name="Abreve" unicode="&#x102;" horiz-adv-x="712" 
d="M449.88 867.73h9.98047c0 -56.2598 -47.0898 -103.64 -103.01 -103.64s-103.01 47.3799 -103.01 103.64h10c10 -26.8203 46.5098 -53.6406 93.0195 -53.6406s83.0195 26.8203 93.0195 53.6406zM359.4 714l267.328 -641.04c20.2197 -44.5098 57.21 -62.96 87.8398 -62.96
h8.36035v-10h-225.18v9.91016h8.79004c25.8203 0 52.6006 22.75 38.001 62.7695l-63.96 170.32h-269.35l-66.9902 -170.92c-14.1104 -39.6396 12.54 -62.1699 38.2305 -62.1699h8.79004v-9.91016h-201.28v10h9c30.4102 0 67.3799 18.4297 87.5996 62.8896l226.78 538.11
s37.0303 81.0098 37.0303 103h9.00977zM222.988 273h246.32l-120.53 320.95z" />
    <glyph glyph-name="Acircumflex" unicode="&#xc2;" horiz-adv-x="712" 
d="M351.46 889.74l-106.12 -118.75l6 -8l104.66 66l113.64 -66.0996l6 8l-114.18 118.85h-10zM359.43 714.01l267.328 -641.04c20.2197 -44.5098 57.21 -62.96 87.8398 -62.96h8.36035v-10h-225.18v9.91016h8.79004c25.8203 0 52.6006 22.75 38.001 62.7695l-63.96 170.32
h-269.35l-66.9902 -170.92c-14.1104 -39.6396 12.54 -62.1699 38.2305 -62.1699h8.79004v-9.91016h-201.28v10h9c30.4102 0 67.3799 18.4297 87.5996 62.8896l226.78 538.11s37.0303 81.0098 37.0303 103h9.00977zM223.018 273.01h246.32l-120.53 320.95z" />
    <glyph glyph-name="Adieresis" unicode="&#xc4;" horiz-adv-x="712" 
d="M262.46 764.1c-21.5801 0 -39.0801 17.5 -39.0801 39.0801s17.5 39.0801 39.0801 39.0801s39.0801 -17.5 39.0801 -39.0801s-17.5 -39.0801 -39.0801 -39.0801zM450.83 764.1c-21.5801 0 -39.0801 17.5 -39.0801 39.0801s17.5 39.0801 39.0801 39.0801
s39.0801 -17.5 39.0801 -39.0801s-17.5 -39.0801 -39.0801 -39.0801zM359.41 714l267.328 -641.04c20.2197 -44.5098 57.21 -62.96 87.8398 -62.96h8.36035v-10h-225.18v9.91016h8.79004c25.8203 0 52.6006 22.75 38.001 62.7695l-63.96 170.32h-269.35l-66.9902 -170.92
c-14.1104 -39.6396 12.54 -62.1699 38.2305 -62.1699h8.79004v-9.91016h-201.28v10h9c30.4102 0 67.3799 18.4297 87.5996 62.8896l226.78 538.11s37.0303 81.0098 37.0303 103h9.00977zM222.998 273h246.32l-120.53 320.95z" />
    <glyph glyph-name="Agrave" unicode="&#xc0;" horiz-adv-x="712" 
d="M363.66 771l-7 -7.01953c-53.6201 25.4297 -107.24 53.8594 -160.86 85.2891c10.6299 20.54 25.2695 38.0801 40.8994 52.6201c42.3203 -40.6299 84.6406 -84.2598 126.961 -130.89zM359.41 713.98l267.328 -641.04c20.2197 -44.5098 57.21 -62.96 87.8398 -62.96
h8.36035v-10h-225.18v9.91016h8.79004c25.8203 0 52.6006 22.75 38.001 62.7695l-63.96 170.32h-269.35l-66.9902 -170.92c-14.1104 -39.6396 12.54 -62.1699 38.2305 -62.1699h8.79004v-9.91016h-201.28v10h9c30.4102 0 67.3799 18.4297 87.5996 62.8896l226.78 538.11
s37.0303 81.0098 37.0303 103h9.00977zM222.998 272.98h246.32l-120.53 320.95z" />
    <glyph glyph-name="Amacron" unicode="&#x100;" horiz-adv-x="712" 
d="M234.48 795.36v35h250v-35h-250zM359.41 714l267.328 -641.04c20.2197 -44.5098 57.21 -62.96 87.8398 -62.96h8.36035v-10h-225.18v9.91016h8.79004c25.8203 0 52.6006 22.75 38.001 62.7695l-63.96 170.32h-269.35l-66.9902 -170.92
c-14.1104 -39.6396 12.54 -62.1699 38.2305 -62.1699h8.79004v-9.91016h-201.28v10h9c30.4102 0 67.3799 18.4297 87.5996 62.8896l226.78 538.11s37.0303 81.0098 37.0303 103h9.00977zM222.998 273h246.32l-120.53 320.95z" />
    <glyph glyph-name="Aogonek" unicode="&#x104;" horiz-adv-x="737" 
d="M748.03 9.19043l-0.0195312 -9.09863c-83.3496 0 -92.9893 7.23047 -135.709 -0.0996094c-42.3496 -7 -62.7695 -40 -62.7695 -71c0 -57 74.8398 -93 123.97 -42l6 -6c-30.2197 -82 -175.689 -81 -177.01 35c-0.400391 35 24.5498 62 49.3193 76
c28.5703 15.5898 34.1904 37.4102 18.71 78.9004l-68.3896 172.1h-286.91l-70.8701 -170.65c-14.4102 -39.8701 12.3203 -62.2305 38.0898 -62.2305h8.79004v-9.90039h-201.24v10h9c30.4004 0 67.4102 18.1602 87.71 62.71l240.01 538.08s37.0303 81.0098 37.0303 103
h9.00977l283.06 -645.98c18.3701 -40.8203 53.6396 -58.8301 83.4199 -58.8301h8.7998zM227.671 272.992h262.53l-128.37 323.07z" />
    <glyph glyph-name="Aring" unicode="&#xc5;" horiz-adv-x="712" 
d="M364.56 701.67l262.197 -628.711c20.2197 -44.5098 57.21 -62.96 87.8398 -62.96h8.36035v-10h-225.18v9.91016h8.79004c25.8203 0 52.6006 22.75 38.001 62.7695l-63.96 170.32h-269.35l-66.9902 -170.92c-14.1104 -39.6396 12.54 -62.1699 38.2305 -62.1699h8.79004
v-9.91016h-201.28v10h9c30.4102 0 67.3799 18.4297 87.5996 62.8896l226.78 538.11s27.3301 59.79 35.0303 90.5801c-44.6797 2.74023 -77.6396 30.0605 -77.6396 67.7705c0 39.7803 36.6699 68 85.0801 68s85.0801 -25.2197 85.0801 -68
c0 -37.3496 -32.3398 -64.5098 -76.3799 -67.6797zM311.417 769.359c0 -33.75 19.3701 -52.4297 44.4502 -52.4297s44.4502 18.6797 44.4502 52.4297s-19.3701 52.4297 -44.4502 52.4297s-44.4502 -18.6797 -44.4502 -52.4297zM223.027 273.01h246.32l-120.53 320.95z" />
    <glyph glyph-name="Atilde" unicode="&#xc3;" horiz-adv-x="712" 
d="M492.3 842.52l-9.99805 0.00976562c-9.42969 -22.8398 -27.1602 -33.5898 -55.4004 -33.5898c-34.3096 0 -75.1895 42.7998 -120.439 42.7998c-32.3604 0 -56.7607 -32.2002 -64.2012 -84.7305h10c11.1396 27.7002 28.4795 40.7305 54.1992 40.7305
c32.25 0 77.4404 -43.7998 120.44 -43.7998c34.8701 0 59.7197 29.8604 65.3994 78.5801zM359.412 714.01l267.328 -641.04c20.2197 -44.5098 57.21 -62.96 87.8398 -62.96h8.36035v-10h-225.18v9.91016h8.79004c25.8203 0 52.6006 22.75 38.001 62.7695l-63.96 170.32
h-269.35l-66.9902 -170.92c-14.1104 -39.6396 12.54 -62.1699 38.2305 -62.1699h8.79004v-9.91016h-201.28v10h9c30.4102 0 67.3799 18.4297 87.5996 62.8896l226.78 538.11s37.0303 81.0098 37.0303 103h9.00977zM223 273.01h246.32l-120.53 320.95z" />
    <glyph glyph-name="AE" unicode="&#xc6;" horiz-adv-x="902" 
d="M857.68 138.8l-55.6895 -138.793h-1.4502h-394.12l0.120117 10h9.73047c26.9199 0 48.7598 21.5801 49.2695 48.3799v261.86h-163.76l-149.36 -253.07c-16.6904 -28.6104 -3.36035 -58.9404 26.6396 -57.1504h9.4502v-10h-198.52v10h7
c33.1797 0 72.4697 29.6699 92.29 61.3398l373.99 584.09c7.88965 17.2803 -2.9707 34.5605 -21.7207 34.5605h-4v10h243.71c43.0996 0.410156 100.67 10.3701 119.229 18.1904v-112.93l-10 0.120117v14.7305c0 26.9199 -21.5703 48.7598 -48.3701 49.29h-211.55v-319.16
h169c26.7998 0.5 48.3799 22.3398 48.3799 49.2598v14.7305l10 0.129883v-158.26l-10 0.120117v14.7305c0 26.5801 -21.0195 48.21 -47.3291 49.25h-170.04v-289.63h164.43c78.7598 0.860352 126.59 45.8906 152.67 108.211h10zM319.49 350.227h146.06v247.47z" />
    <glyph glyph-name="B" unicode="B" horiz-adv-x="586" 
d="M60.3496 700l198.55 -0.0410156c140.2 0 217.2 -67 217.58 -167.2c-0.379883 -84.7998 -54.3799 -135.8 -110.83 -151.95c106.45 -15.8496 171.45 -93.8496 171.36 -192.909c0 -112.94 -84 -187.94 -233.01 -187.94h-243.65l0.160156 10h12.6504
c34.7803 0 63.04 27.7002 64.04 62.2305v555.79c0 34.4805 -29.2998 62.0801 -64.2002 62.0801h-12.4902zM202.419 36.4287h98.0605c102.63 -0.469727 161.63 57.5303 161.54 158.65c0.0898438 149.88 -128.91 174.88 -225.67 174.689l-0.230469 9.41016
c60.9805 -0.219727 164.98 17.7803 165.36 146.38c-0.379883 90.4004 -51.3799 142.4 -146.2 142.29h-52.8604v-631.42z" />
    <glyph glyph-name="C" unicode="C" horiz-adv-x="760" 
d="M702.01 291.85l8.32129 0.00976562l-12.1904 -156.95c-52.7002 -86.1396 -142.15 -148.939 -281.011 -148.939c-209.13 1 -357.13 144 -357.13 365c0 217 143 363 363 363c98 0 178 -29 236.53 -67.5303l20.1797 -141.24h-8.32031
c-30.3799 116.74 -128.38 178.74 -248.57 178.811c-175.81 0 -287.81 -133 -287.81 -332c0 -201 114 -332 282.13 -336.07c141.99 0.419922 262.13 71.1201 284.87 275.91z" />
    <glyph glyph-name="Cacute" unicode="&#x106;" horiz-adv-x="760" 
d="M417.12 763.97l-7 7.01953c42.3203 45.6299 84.6406 90.2598 126.961 130.89c15.6299 -15.54 30.2695 -33.0801 40.8994 -52.6201c-53.6201 -31.4297 -107.24 -58.8594 -160.86 -85.2891zM702 291.869l8.32129 0.00976562l-12.1904 -156.95
c-52.7002 -86.1396 -142.15 -148.939 -281.011 -148.939c-209.13 1 -357.13 144 -357.13 365c0 217 143 363 363 363c98 0 178 -29 236.53 -67.5303l20.1797 -141.24h-8.32031c-30.3799 116.74 -128.38 178.74 -248.57 178.811c-175.81 0 -287.81 -133 -287.81 -332
c0 -201 114 -332 282.13 -336.07c141.99 0.419922 262.13 71.1201 284.87 275.91z" />
    <glyph glyph-name="Ccaron" unicode="&#x10c;" horiz-adv-x="760" 
d="M422.14 764.15l106.12 118.75l-6 8l-104.66 -66l-113.64 66.0996l-6 -8l114.18 -118.85h10zM701.99 291.841l8.32129 0.00976562l-12.1904 -156.95c-52.7002 -86.1396 -142.15 -148.939 -281.011 -148.939c-209.13 1 -357.13 144 -357.13 365c0 217 143 363 363 363
c98 0 178 -29 236.53 -67.5303l20.1797 -141.24h-8.32031c-30.3799 116.74 -128.38 178.74 -248.57 178.811c-175.81 0 -287.81 -133 -287.81 -332c0 -201 114 -332 282.13 -336.07c141.99 0.419922 262.13 71.1201 284.87 275.91z" />
    <glyph glyph-name="Ccedilla" unicode="&#xc7;" horiz-adv-x="760" 
d="M702.01 291.85h8.31934l-12.1904 -156.95c-50.8398 -83.0996 -135.88 -144.479 -266.49 -148.71l-37.5195 -43.2305c34.9902 12 102.681 11 104.851 -58c2 -63 -73.7402 -94 -140.76 -73l0.730469 10c41.0195 0 91.7695 16 90.0293 64c-1.5 42 -48.1396 48 -83.7695 33
l-5 10l44.25 57.2402c-202.41 6.61035 -344.46 148.261 -344.46 364.771c0 217 143 363 363 363c98 0 178 -29 236.53 -67.5303l20.1797 -141.24h-8.32031c-30.3799 116.74 -128.38 178.74 -248.57 178.811c-175.81 0 -287.81 -133 -287.81 -332
c0 -201 114 -332 282.13 -336.07c141.99 0.419922 262.13 71.1201 284.87 275.91z" />
    <glyph glyph-name="Cdotaccent" unicode="&#x10a;" horiz-adv-x="760" 
d="M415.8 764.6c-23.7998 0 -43.0898 19.29 -43.0898 43.0898s19.29 43.0898 43.0898 43.0898s43.0898 -19.29 43.0898 -43.0898s-19.29 -43.0898 -43.0898 -43.0898zM702.01 291.85l8.32129 0.00976562l-12.1904 -156.95
c-52.7002 -86.1396 -142.15 -148.939 -281.011 -148.939c-209.13 1 -357.13 144 -357.13 365c0 217 143 363 363 363c98 0 178 -29 236.53 -67.5303l20.1797 -141.24h-8.32031c-30.3799 116.74 -128.38 178.74 -248.57 178.811c-175.81 0 -287.81 -133 -287.81 -332
c0 -201 114 -332 282.13 -336.07c141.99 0.419922 262.13 71.1201 284.87 275.91z" />
    <glyph glyph-name="D" unicode="D" horiz-adv-x="807" 
d="M60.3496 699.97l338.18 -0.0898438c213.59 0 359.14 -140.09 359.14 -350.27c0 -209.76 -145.55 -349.66 -359.14 -349.66h-338.54l0.160156 10h12.6504c34.96 0 63.3301 27.9805 64.0605 62.75v560.14c0 32.1602 -30.6201 57.2197 -63.7002 57.2197h-12.6504z
M201.979 669.84v-639.499h196.55c171.4 0 284.141 127.71 284.141 319.27c0 192.14 -113.74 320.229 -284.141 320.229h-196.55z" />
    <glyph glyph-name="Eth" unicode="&#xd0;" horiz-adv-x="807" 
d="M65.2598 699.97l338.18 -0.0898438c213.59 0 354.14 -140.09 354.14 -350.27c0 -209.76 -140.55 -349.66 -354.14 -349.66h-338.54l0.160156 10h12.6504c34.96 0 63.3301 27.9805 64.0605 62.75v262.29h-81.7695v30h81.7695v267.85
c0 32.1602 -30.6201 57.2197 -63.7002 57.2197h-12.6504zM206.89 334.92v-304.579h196.55c170.4 0 284.141 127.71 284.141 319.27c0 192.14 -113.74 320.229 -284.141 320.229h-196.55v-304.92h163.11v-30h-163.11z" />
    <glyph glyph-name="Dcaron" unicode="&#x10e;" horiz-adv-x="807" 
d="M404.2 764.15l106.12 118.75l-6 8l-104.66 -66l-113.64 66.0996l-6 -8l114.18 -118.85h10zM60.3398 699.971l338.18 -0.0898438c213.59 0 359.14 -140.09 359.14 -350.27c0 -209.76 -145.55 -349.66 -359.14 -349.66h-338.54l0.160156 10h12.6504
c34.96 0 63.3301 27.9805 64.0605 62.75v560.14c0 32.1602 -30.6201 57.2197 -63.7002 57.2197h-12.6504zM201.97 669.841v-639.499h196.55c171.4 0 284.141 127.71 284.141 319.27c0 192.14 -113.74 320.229 -284.141 320.229h-196.55z" />
    <glyph glyph-name="Dcroat" unicode="&#x110;" horiz-adv-x="807" 
d="M277.06 795.36v35h250v-35h-250zM60.3496 699.971l338.18 -0.0898438c213.59 0 359.14 -140.09 359.14 -350.27c0 -209.76 -145.55 -349.66 -359.14 -349.66h-338.54l0.160156 10h12.6504c34.96 0 63.3301 27.9805 64.0605 62.75v560.14
c0 32.1602 -30.6201 57.2197 -63.7002 57.2197h-12.6504zM201.979 669.841v-639.499h196.55c171.4 0 284.141 127.71 284.141 319.27c0 192.14 -113.74 320.229 -284.141 320.229h-196.55z" />
    <glyph glyph-name="E" unicode="E" 
d="M532.84 161.54l-58.2129 -161.562h-414.56l0.160156 10h12.6504c35 0 63.4004 28.0498 64.0605 62.8799v559.93c-3.41016 32.1904 -30.6104 57.2803 -63.71 57.2803h-12.6504l-0.160156 9.94043h292.23c43.0996 0.410156 100.67 10.3701 119.21 18.1904v-29.2803
v-16.6904v-80.2998l-10.0996 0.150391v17.8203c0 31.7197 -24.75 57.6201 -55.9902 59.5205h-203.87v-309.16h169c26.79 0.5 48.3701 22.3398 48.3701 49.2598v14.7305l9.76953 0.129883v-158.26l-9.76953 0.120117v14.7305c0 26.5801 -21.0195 48.21 -47.3291 49.25
h-170.04v-299.63h143.42c105.96 0 146.65 54.8096 177.521 130.949h10z" />
    <glyph glyph-name="Eacute" unicode="&#xc9;" 
d="M298.24 763.97l-7 7.01953c42.3203 45.6299 84.6406 90.2598 126.961 130.89c15.6299 -15.54 30.2695 -33.0801 40.8994 -52.6201c-53.6201 -31.4297 -107.24 -58.8594 -160.86 -85.2891zM532.84 161.56l-58.2129 -161.562h-414.56l0.160156 10h12.6504
c35 0 63.4004 28.0498 64.0605 62.8799v559.93c-3.41016 32.1904 -30.6104 57.2803 -63.71 57.2803h-12.6504l-0.160156 9.94043h292.23c43.0996 0.410156 100.67 10.3701 119.21 18.1904v-29.2803v-16.6904v-80.2998l-10.0996 0.150391v17.8203
c0 31.7197 -24.75 57.6201 -55.9902 59.5205h-203.87v-309.16h169c26.79 0.5 48.3701 22.3398 48.3701 49.2598v14.7305l9.76953 0.129883v-158.26l-9.76953 0.120117v14.7305c0 26.5801 -21.0195 48.21 -47.3291 49.25h-170.04v-299.63h143.42
c105.96 0 146.65 54.8096 177.521 130.949h10z" />
    <glyph glyph-name="Ecaron" unicode="&#x11a;" 
d="M303.27 764.15l106.12 118.75l-6 8l-104.66 -66l-113.64 66.0996l-6 -8l114.18 -118.85h10zM532.84 161.53l-58.2129 -161.562h-414.56l0.160156 10h12.6504c35 0 63.4004 28.0498 64.0605 62.8799v559.93c-3.41016 32.1904 -30.6104 57.2803 -63.71 57.2803h-12.6504
l-0.160156 9.94043h292.23c43.0996 0.410156 100.67 10.3701 119.21 18.1904v-29.2803v-16.6904v-80.2998l-10.0996 0.150391v17.8203c0 31.7197 -24.75 57.6201 -55.9902 59.5205h-203.87v-309.16h169c26.79 0.5 48.3701 22.3398 48.3701 49.2598v14.7305l9.76953 0.129883
v-158.26l-9.76953 0.120117v14.7305c0 26.5801 -21.0195 48.21 -47.3291 49.25h-170.04v-299.63h143.42c105.96 0 146.65 54.8096 177.521 130.949h10z" />
    <glyph glyph-name="Ecircumflex" unicode="&#xca;" 
d="M293.11 889.74l-106.12 -118.75l6 -8l104.66 66l113.64 -66.0996l6 8l-114.18 118.85h-10zM532.86 161.55l-58.2129 -161.562h-414.56l0.160156 10h12.6504c35 0 63.4004 28.0498 64.0605 62.8799v559.93c-3.41016 32.1904 -30.6104 57.2803 -63.71 57.2803h-12.6504
l-0.160156 9.94043h292.23c43.0996 0.410156 100.67 10.3701 119.21 18.1904v-29.2803v-16.6904v-80.2998l-10.0996 0.150391v17.8203c0 31.7197 -24.75 57.6201 -55.9902 59.5205h-203.87v-309.16h169c26.79 0.5 48.3701 22.3398 48.3701 49.2598v14.7305l9.76953 0.129883
v-158.26l-9.76953 0.120117v14.7305c0 26.5801 -21.0195 48.21 -47.3291 49.25h-170.04v-299.63h143.42c105.96 0 146.65 54.8096 177.521 130.949h10z" />
    <glyph glyph-name="Edieresis" unicode="&#xcb;" 
d="M204.11 764.1c-21.5801 0 -39.0801 17.5 -39.0801 39.0801s17.5 39.0801 39.0801 39.0801s39.0801 -17.5 39.0801 -39.0801s-17.5 -39.0801 -39.0801 -39.0801zM392.48 764.1c-21.5801 0 -39.0801 17.5 -39.0801 39.0801s17.5 39.0801 39.0801 39.0801
s39.0801 -17.5 39.0801 -39.0801s-17.5 -39.0801 -39.0801 -39.0801zM532.841 161.55l-58.2129 -161.562h-414.56l0.160156 10h12.6504c35 0 63.4004 28.0498 64.0605 62.8799v559.93c-3.41016 32.1904 -30.6104 57.2803 -63.71 57.2803h-12.6504l-0.160156 9.94043h292.23
c43.0996 0.410156 100.67 10.3701 119.21 18.1904v-29.2803v-16.6904v-80.2998l-10.0996 0.150391v17.8203c0 31.7197 -24.75 57.6201 -55.9902 59.5205h-203.87v-309.16h169c26.79 0.5 48.3701 22.3398 48.3701 49.2598v14.7305l9.76953 0.129883v-158.26
l-9.76953 0.120117v14.7305c0 26.5801 -21.0195 48.21 -47.3291 49.25h-170.04v-299.63h143.42c105.96 0 146.65 54.8096 177.521 130.949h10z" />
    <glyph glyph-name="Edotaccent" unicode="&#x116;" 
d="M296.92 764.6c-23.7998 0 -43.0898 19.29 -43.0898 43.0898s19.29 43.0898 43.0898 43.0898s43.0898 -19.29 43.0898 -43.0898s-19.29 -43.0898 -43.0898 -43.0898zM532.84 161.55l-58.2129 -161.562h-414.56l0.160156 10h12.6504c35 0 63.4004 28.0498 64.0605 62.8799
v559.93c-3.41016 32.1904 -30.6104 57.2803 -63.71 57.2803h-12.6504l-0.160156 9.94043h292.23c43.0996 0.410156 100.67 10.3701 119.21 18.1904v-29.2803v-16.6904v-80.2998l-10.0996 0.150391v17.8203c0 31.7197 -24.75 57.6201 -55.9902 59.5205h-203.87v-309.16h169
c26.79 0.5 48.3701 22.3398 48.3701 49.2598v14.7305l9.76953 0.129883v-158.26l-9.76953 0.120117v14.7305c0 26.5801 -21.0195 48.21 -47.3291 49.25h-170.04v-299.63h143.42c105.96 0 146.65 54.8096 177.521 130.949h10z" />
    <glyph glyph-name="Egrave" unicode="&#xc8;" 
d="M305.31 771l-7 -7.01953c-53.6201 25.4297 -107.24 53.8594 -160.86 85.2891c10.6299 20.54 25.2695 38.0801 40.8994 52.6201c42.3203 -40.6299 84.6406 -84.2598 126.961 -130.89zM532.84 161.521l-58.2129 -161.562h-414.56l0.160156 10h12.6504
c35 0 63.4004 28.0498 64.0605 62.8799v559.93c-3.41016 32.1904 -30.6104 57.2803 -63.71 57.2803h-12.6504l-0.160156 9.94043h292.23c43.0996 0.410156 100.67 10.3701 119.21 18.1904v-29.2803v-16.6904v-80.2998l-10.0996 0.150391v17.8203
c0 31.7197 -24.75 57.6201 -55.9902 59.5205h-203.87v-309.16h169c26.79 0.5 48.3701 22.3398 48.3701 49.2598v14.7305l9.76953 0.129883v-158.26l-9.76953 0.120117v14.7305c0 26.5801 -21.0195 48.21 -47.3291 49.25h-170.04v-299.63h143.42
c105.96 0 146.65 54.8096 177.521 130.949h10z" />
    <glyph glyph-name="Emacron" unicode="&#x112;" 
d="M176.13 795.36v35h250v-35h-250zM532.84 161.54l-58.2129 -161.562h-414.56l0.160156 10h12.6504c35 0 63.4004 28.0498 64.0605 62.8799v559.93c-3.41016 32.1904 -30.6104 57.2803 -63.71 57.2803h-12.6504l-0.160156 9.94043h292.23
c43.0996 0.410156 100.67 10.3701 119.21 18.1904v-29.2803v-16.6904v-80.2998l-10.0996 0.150391v17.8203c0 31.7197 -24.75 57.6201 -55.9902 59.5205h-203.87v-309.16h169c26.79 0.5 48.3701 22.3398 48.3701 49.2598v14.7305l9.76953 0.129883v-158.26
l-9.76953 0.120117v14.7305c0 26.5801 -21.0195 48.21 -47.3291 49.25h-170.04v-299.63h143.42c105.96 0 146.65 54.8096 177.521 130.949h10z" />
    <glyph glyph-name="Eogonek" unicode="&#x118;" 
d="M532.85 161.54l-58.6426 -161.561c-55.4004 -13.0098 -75.79 -40.0098 -74.4697 -78c2 -57 72.8398 -93 121.97 -42l6 -6c-30.2197 -82 -172.689 -79 -174.01 37c-0.509766 44.3496 35.0703 78.8994 81.9902 88.999h-375.61l0.160156 10h12.6504
c35 0 63.4004 28.0498 64.0605 62.8799v559.93c-3.41016 32.1904 -30.6104 57.2803 -63.71 57.2803h-12.6504l-0.160156 9.94043h292.23c43.0996 0.410156 100.67 10.3701 119.21 18.1904v-29.2803v-16.6904v-80.2998l-10.0996 0.150391v17.8203
c0 31.7197 -24.75 57.6201 -55.9902 59.5205h-203.87v-309.16h169c26.79 0.5 48.3701 22.3398 48.3701 49.2598v14.7305l9.76953 0.129883v-158.26l-9.76953 0.120117v14.7305c0 26.5801 -21.0195 48.21 -47.3291 49.25h-170.04v-299.63h143.42
c105.96 0 146.65 54.8096 177.521 130.949h10z" />
    <glyph glyph-name="F" unicode="F" horiz-adv-x="541" 
d="M471.8 718.19l0.015625 -29.292v-17.2803v-66.3604l-10 0.120117v14.7305c0 26.9199 -21.5703 48.7598 -48.3701 49.29h-211.55v-309.16h169c26.79 0.5 48.3701 22.3398 48.3701 49.2598v14.7305l9.76953 0.129883v-158.26l-9.76953 0.120117v14.7305
c0 26.5801 -21.0195 48.21 -47.3291 49.25h-170.02v-257.35c0.650391 -34.8301 29.0508 -62.8799 64.0508 -62.8799h12.6504l0.160156 -10h-218.78l0.160156 10h12.6504c35 0 63.4004 28.0498 64.0605 62.8799v559.93c0 32.1904 -30.5996 57.2803 -63.6992 57.2803h-12.6504
l-0.160156 9.94043h292.23c43.0996 0.410156 100.67 10.3701 119.21 18.1904z" />
    <glyph glyph-name="G" unicode="G" horiz-adv-x="798" 
d="M773.74 325.39l-15.0596 -0.0214844c-32.3301 0 -50.5205 -16.3096 -50.0508 -45.2295v-165.37c-45.5996 -60.5996 -139.04 -128.81 -289.21 -128.81c-212.65 1 -359.42 146.36 -359.42 364c0 218.4 146.77 364 359.13 364c109.99 0 183.65 -29.71 242.4 -67.5303
l20.1797 -141.24h-8.32031c-30.3799 114.44 -121.91 178.811 -253.96 178.811c-169.5 0 -284.42 -133.63 -284.42 -334.08c0 -199.55 114.92 -333.18 284.42 -334.069c86.9102 0 167.98 33.4297 225.65 86.7295v177.19c0 29.21 -19.1602 45.6201 -51.4404 45.6201h-15.7695
v10h195.87v-10z" />
    <glyph glyph-name="Gbreve" unicode="&#x11e;" horiz-adv-x="798" 
d="M512.64 867.73h9.98047c0 -56.2598 -47.0898 -103.64 -103.01 -103.64s-103.01 47.3799 -103.01 103.64h10c10 -26.8203 46.5098 -53.6406 93.0195 -53.6406s83.0195 26.8203 93.0195 53.6406zM773.73 325.391l-15.0596 -0.0214844
c-32.3301 0 -50.5205 -16.3096 -50.0508 -45.2295v-165.37c-45.5996 -60.5996 -139.04 -128.81 -289.21 -128.81c-212.65 1 -359.42 146.36 -359.42 364c0 218.4 146.77 364 359.13 364c109.99 0 183.65 -29.71 242.4 -67.5303l20.1797 -141.24h-8.32031
c-30.3799 114.44 -121.91 178.811 -253.96 178.811c-169.5 0 -284.42 -133.63 -284.42 -334.08c0 -199.55 114.92 -333.18 284.42 -334.069c86.9102 0 167.98 33.4297 225.65 86.7295v177.19c0 29.21 -19.1602 45.6201 -51.4404 45.6201h-15.7695v10h195.87v-10z" />
    <glyph glyph-name="Gcommaaccent" unicode="&#x122;" horiz-adv-x="798" 
d="M773.74 325.39l-15.0596 -0.0214844c-32.3301 0 -50.5205 -16.3096 -50.0508 -45.2295v-165.37c-45.5996 -60.5996 -139.04 -128.81 -289.21 -128.81c-212.65 1 -359.42 146.36 -359.42 364c0 218.4 146.77 364 359.13 364c109.99 0 183.65 -29.71 242.4 -67.5303
l20.1797 -141.24h-8.32031c-30.3799 114.44 -121.91 178.811 -253.96 178.811c-169.5 0 -284.42 -133.63 -284.42 -334.08c0 -199.55 114.92 -333.18 284.42 -334.069c86.9102 0 167.98 33.4297 225.65 86.7295v177.19c0 29.21 -19.1602 45.6201 -51.4404 45.6201h-15.7695
v10h195.87v-10zM385.53 -208.042l-1.95117 7c48.6396 15 40.6797 57 27 73c-10.4199 13 -27.3301 27 -18.3701 47c10.1904 23 49.1406 25 62.6709 -8c25.9902 -62 -17.0693 -117 -69.3496 -119z" />
    <glyph glyph-name="Gdotaccent" unicode="&#x120;" horiz-adv-x="798" 
d="M418.03 764.6c-23.7998 0 -43.0898 19.29 -43.0898 43.0898s19.29 43.0898 43.0898 43.0898s43.0898 -19.29 43.0898 -43.0898s-19.29 -43.0898 -43.0898 -43.0898zM773.74 325.39l-15.0596 -0.0214844c-32.3301 0 -50.5205 -16.3096 -50.0508 -45.2295v-165.37
c-45.5996 -60.5996 -139.04 -128.81 -289.21 -128.81c-212.65 1 -359.42 146.36 -359.42 364c0 218.4 146.77 364 359.13 364c109.99 0 183.65 -29.71 242.4 -67.5303l20.1797 -141.24h-8.32031c-30.3799 114.44 -121.91 178.811 -253.96 178.811
c-169.5 0 -284.42 -133.63 -284.42 -334.08c0 -199.55 114.92 -333.18 284.42 -334.069c86.9102 0 167.98 33.4297 225.65 86.7295v177.19c0 29.21 -19.1602 45.6201 -51.4404 45.6201h-15.7695v10h195.87v-10z" />
    <glyph glyph-name="H" unicode="H" horiz-adv-x="813" 
d="M753.08 0l-218.782 -0.0205078l0.160156 10h12.6504c34.7402 0 62.9805 27.6396 64.0303 62.1201v258.96h-409.22v-258.19c0.650391 -34.8301 29.0508 -62.8799 64.0508 -62.8799h12.6504l0.160156 -10h-218.79l0.160156 10h12.6504
c35 0 63.4004 28.0498 64.0605 62.8799v554.74c-0.870117 34.6396 -29.1797 62.4697 -64.04 62.4697h-12.6504l-0.160156 9.96973h218.76l-0.160156 -9.96973h-12.6504c-34.79 0 -63.0596 -27.7197 -64.04 -62.2598v-266.76h409.22v267.4
c-1.30957 34.25 -29.4395 61.6299 -64.0195 61.6299h-12.6504l-0.160156 9.96973h218.76l-0.160156 -9.96973h-12.6504c-35 0 -63.4004 -28.0498 -64.04 -62.8799v-554.33c0.650391 -34.8301 29.0508 -62.8799 64.0508 -62.8799h12.6504z" />
    <glyph glyph-name="Hbar" unicode="&#x126;" horiz-adv-x="778" 
d="M735.78 0l-218.782 -0.0302734l0.160156 10h12.6504c34.7402 0 62.9805 27.6396 64.0303 62.1201v258.96h-409.22v-258.19c0.650391 -34.8301 29.0508 -62.8799 64.0508 -62.8799h12.6504l0.160156 -10h-218.79l0.160156 10h12.6504
c35 0 63.4004 28.0498 64.0605 62.8799v425.25h-63.2998v30h63.2998v99.5c-0.870117 34.6504 -29.1797 62.4805 -64.04 62.4805h-12.6504l-0.160156 10h218.76l-0.160156 -10h-12.6504c-34.79 0 -63.0596 -27.7197 -64.04 -62.2598v-99.71h409.22v100.35
c-1.30957 34.25 -29.4395 61.6299 -64.0195 61.6299h-12.6504l-0.160156 10h218.76l-0.160156 -10h-12.6504c-35 0 -63.4004 -28.0498 -64.0703 -62.8799v-99.0898h66.1299v-30h-66.0996v-425.25c0.650391 -34.8301 29.0508 -62.8799 64.0508 -62.8799h12.6504z
M184.618 361.029h409.22v137.05h-409.22v-137.05z" />
    <glyph glyph-name="I" unicode="I" horiz-adv-x="338" 
d="M278.63 10l0.15918 -10h-218.79l0.160156 10h12.6504c35 0 63.4004 28.0498 64.0605 62.8799v554.74c-0.870117 34.6396 -29.1797 62.4697 -64.04 62.4697h-12.6504l-0.160156 10h218.76l-0.160156 -10h-12.6504c-34.79 0 -63.0596 -27.7197 -64.04 -62.2598v-554.95
c0.650391 -34.8301 29.0508 -62.8799 64.0508 -62.8799h12.6504z" />
    <glyph glyph-name="IJ" unicode="&#x132;" horiz-adv-x="662" 
d="M278.63 10l0.15918 -10h-218.79l0.160156 10h12.6504c35 0 63.4004 28.0498 64.0605 62.8799v554.74c-0.870117 34.6396 -29.1797 62.4697 -64.04 62.4697h-12.6504l-0.160156 10h218.76l-0.160156 -10h-12.6504c-34.79 0 -63.0596 -27.7197 -64.04 -62.2598v-554.95
c0.650391 -34.8301 29.0508 -62.8799 64.0508 -62.8799h12.6504zM398.089 700.06l218.931 0.0205078l-0.160156 -10h-12.6504c-34.9199 0 -63.2695 -27.9297 -64.0391 -62.6602v-627.33c0 -112.1 -80.1504 -200.1 -182.16 -200.1v9c65.5 23 116.96 108 116.95 193.92v624.27
c-0.660156 34.8301 -29.0605 62.8799 -64.0605 62.8799h-12.6504z" />
    <glyph glyph-name="Iacute" unicode="&#xcd;" horiz-adv-x="338" 
d="M169.24 763.97l-7 7.01953c42.3203 45.6299 84.6406 90.2598 126.961 130.89c15.6299 -15.54 30.2695 -33.0801 40.8994 -52.6201c-53.6201 -31.4297 -107.24 -58.8594 -160.86 -85.2891zM278.63 10.0195l0.15918 -10h-218.79l0.160156 10h12.6504
c35 0 63.4004 28.0498 64.0605 62.8799v554.74c-0.870117 34.6396 -29.1797 62.4697 -64.04 62.4697h-12.6504l-0.160156 10h218.76l-0.160156 -10h-12.6504c-34.79 0 -63.0596 -27.7197 -64.04 -62.2598v-554.95c0.650391 -34.8301 29.0508 -62.8799 64.0508 -62.8799
h12.6504z" />
    <glyph glyph-name="Icircumflex" unicode="&#xce;" horiz-adv-x="338" 
d="M164.1 889.74l-106.12 -118.75l6 -8l104.66 66l113.64 -66.0996l6 8l-114.18 118.85h-10zM278.64 10.0098l0.15918 -10h-218.79l0.160156 10h12.6504c35 0 63.4004 28.0498 64.0605 62.8799v554.74c-0.870117 34.6396 -29.1797 62.4697 -64.04 62.4697h-12.6504
l-0.160156 10h218.76l-0.160156 -10h-12.6504c-34.79 0 -63.0596 -27.7197 -64.04 -62.2598v-554.95c0.650391 -34.8301 29.0508 -62.8799 64.0508 -62.8799h12.6504z" />
    <glyph glyph-name="Idieresis" unicode="&#xcf;" horiz-adv-x="338" 
d="M75.0996 764.1c-21.5801 0 -39.0801 17.5 -39.0801 39.0801s17.5 39.0801 39.0801 39.0801s39.0801 -17.5 39.0801 -39.0801s-17.5 -39.0801 -39.0801 -39.0801zM263.47 764.1c-21.5801 0 -39.0801 17.5 -39.0801 39.0801s17.5 39.0801 39.0801 39.0801
s39.0801 -17.5 39.0801 -39.0801s-17.5 -39.0801 -39.0801 -39.0801zM278.62 10l0.15918 -10h-218.79l0.160156 10h12.6504c35 0 63.4004 28.0498 64.0605 62.8799v554.74c-0.870117 34.6396 -29.1797 62.4697 -64.04 62.4697h-12.6504l-0.160156 10h218.76l-0.160156 -10
h-12.6504c-34.79 0 -63.0596 -27.7197 -64.04 -62.2598v-554.95c0.650391 -34.8301 29.0508 -62.8799 64.0508 -62.8799h12.6504z" />
    <glyph glyph-name="Idotaccent" unicode="&#x130;" horiz-adv-x="338" 
d="M167.91 764.6c-23.7998 0 -43.0898 19.29 -43.0898 43.0898s19.29 43.0898 43.0898 43.0898s43.0898 -19.29 43.0898 -43.0898s-19.29 -43.0898 -43.0898 -43.0898zM278.62 10l0.15918 -10h-218.79l0.160156 10h12.6504c35 0 63.4004 28.0498 64.0605 62.8799v554.74
c-0.870117 34.6396 -29.1797 62.4697 -64.04 62.4697h-12.6504l-0.160156 10h218.76l-0.160156 -10h-12.6504c-34.79 0 -63.0596 -27.7197 -64.04 -62.2598v-554.95c0.650391 -34.8301 29.0508 -62.8799 64.0508 -62.8799h12.6504z" />
    <glyph glyph-name="Igrave" unicode="&#xcc;" horiz-adv-x="338" 
d="M176.31 771l-6.99023 -7.01953c-53.6201 25.4297 -107.24 53.8594 -160.86 85.2891c10.6299 20.54 25.2598 38.0801 40.8896 52.6201c42.3203 -40.6299 84.6406 -84.2598 126.961 -130.89zM278.64 9.98047l0.15918 -10h-218.79l0.160156 10h12.6504
c35 0 63.4004 28.0498 64.0605 62.8799v554.74c-0.870117 34.6396 -29.1797 62.4697 -64.04 62.4697h-12.6504l-0.160156 10h218.76l-0.160156 -10h-12.6504c-34.79 0 -63.0596 -27.7197 -64.04 -62.2598v-554.95c0.650391 -34.8301 29.0508 -62.8799 64.0508 -62.8799
h12.6504z" />
    <glyph glyph-name="Imacron" unicode="&#x12a;" horiz-adv-x="338" 
d="M47.1299 795.36v35h250v-35h-250zM278.63 10l0.15918 -10h-218.79l0.160156 10h12.6504c35 0 63.4004 28.0498 64.0605 62.8799v554.74c-0.870117 34.6396 -29.1797 62.4697 -64.04 62.4697h-12.6504l-0.160156 10h218.76l-0.160156 -10h-12.6504
c-34.79 0 -63.0596 -27.7197 -64.04 -62.2598v-554.95c0.650391 -34.8301 29.0508 -62.8799 64.0508 -62.8799h12.6504z" />
    <glyph glyph-name="Iogonek" unicode="&#x12e;" horiz-adv-x="338" 
d="M278.79 0l-90.7812 0.000976562c-55.4004 -13.0098 -75.79 -40.0098 -74.4697 -78c2 -57 72.8398 -93 121.97 -42l6 -6c-30.2197 -82 -172.689 -79 -174.01 37c-0.509766 44.3496 35.0703 78.8994 81.9902 88.999h-89.4902l0.160156 10h12.6504
c35 0 63.4004 28.0498 64.0605 62.8799v554.74c-0.870117 34.6396 -29.1797 62.4697 -64.04 62.4697h-12.6504l-0.160156 10h218.76l-0.160156 -10h-12.6504c-34.79 0 -63.0596 -27.7197 -64.04 -62.2598v-554.95c0.650391 -34.8301 29.0508 -62.8799 64.0508 -62.8799
h12.6504z" />
    <glyph glyph-name="J" unicode="J" horiz-adv-x="324" 
d="M60.0801 700.06l218.931 0.0205078l-0.160156 -10h-12.6504c-34.9199 0 -63.2695 -27.9297 -64.0391 -62.6602v-627.33c0 -112.1 -80.1504 -200.1 -182.16 -200.1v9c65.5 23 116.96 108 116.95 193.92v624.27c-0.660156 34.8301 -29.0605 62.8799 -64.0605 62.8799
h-12.6504z" />
    <glyph glyph-name="K" unicode="K" horiz-adv-x="657" 
d="M201.92 627.82l-0.000976562 -554.94c0.650391 -34.8301 29.0508 -62.8799 64.0508 -62.8799h12.6504l0.160156 -10h-218.79l0.160156 10h12.6504c35 0 63.4004 28.0498 64.0605 62.8799v554.74c-0.870117 34.6396 -29.1797 62.4697 -64.04 62.4697h-12.6504
l-0.160156 10h218.76l-0.160156 -10h-12.6504c-34.79 0 -63.0596 -27.7197 -64.04 -62.2695zM299.699 372.31l273.56 -321.41c27.3604 -27.3604 53.8105 -39.79 94.4609 -40.8203v-9.94043h-42.2803c-28.1396 0.0898438 -104.75 3.05957 -150.68 56.6494l-240.69 291.4
l235.86 295.74c17 22.3096 3.38965 47.2393 -24.0801 47.2393h-9.66016v8.83984h211.23v-9.01953h-4.37988c-42.9004 -0.0996094 -81.9102 -17.8691 -107.73 -46.7891z" />
    <glyph glyph-name="Kcommaaccent" unicode="&#x136;" horiz-adv-x="657" 
d="M201.92 627.82l-0.000976562 -554.94c0.650391 -34.8301 29.0508 -62.8799 64.0508 -62.8799h12.6504l0.160156 -10h-218.79l0.160156 10h12.6504c35 0 63.4004 28.0498 64.0605 62.8799v554.74c-0.870117 34.6396 -29.1797 62.4697 -64.04 62.4697h-12.6504
l-0.160156 10h218.76l-0.160156 -10h-12.6504c-34.79 0 -63.0596 -27.7197 -64.04 -62.2695zM299.699 372.31l273.56 -321.41c27.3604 -27.3604 53.8105 -39.79 94.4609 -40.8203v-9.94043h-42.2803c-28.1396 0.0898438 -104.75 3.05957 -150.68 56.6494l-240.69 291.4
l235.86 295.74c17 22.3096 3.38965 47.2393 -24.0801 47.2393h-9.66016v8.83984h211.23v-9.01953h-4.37988c-42.9004 -0.0996094 -81.9102 -17.8691 -107.73 -46.7891zM352.409 -208.011l-1.95117 7c48.6396 15 40.6797 57 27 73c-10.4199 13 -27.3301 27 -18.3701 47
c10.1904 23 49.1406 25 62.6709 -8c25.9902 -62 -17.0693 -117 -69.3496 -119z" />
    <glyph glyph-name="L" unicode="L" horiz-adv-x="562" 
d="M522.86 161.54l10.0205 -0.0185547l-58.29 -161.54h-414.56l0.160156 10h12.6504c35 0 63.4004 28.0498 64.04 62.8799v554.21c-0.660156 34.8301 -29.0605 62.8799 -64.0605 62.8799h-12.6504l-0.160156 10h218.78l-0.160156 -10h-12.6504
c-35 0 -63.4004 -28.0498 -64.0605 -62.8799v-596.48h143.42c105.96 0 146.65 54.8096 177.521 130.949z" />
    <glyph glyph-name="Lacute" unicode="&#x139;" horiz-adv-x="562" 
d="M169.49 763.97l-7 7.01953c42.3203 45.6299 84.6406 90.2598 126.961 130.89c15.6299 -15.54 30.2695 -33.0801 40.8994 -52.6201c-53.6201 -31.4297 -107.24 -58.8594 -160.86 -85.2891zM522.86 161.56l10.0205 -0.0185547l-58.29 -161.54h-414.56l0.160156 10h12.6504
c35 0 63.4004 28.0498 64.04 62.8799v554.21c-0.660156 34.8301 -29.0605 62.8799 -64.0605 62.8799h-12.6504l-0.160156 10h218.78l-0.160156 -10h-12.6504c-35 0 -63.4004 -28.0498 -64.0605 -62.8799v-596.48h143.42c105.96 0 146.65 54.8096 177.521 130.949z" />
    <glyph glyph-name="Lcaron" unicode="&#x13d;" horiz-adv-x="562" 
d="M363.72 561.54l-1.95117 6.60938c48.6396 15.7002 40.6797 57.0205 27 73.4502c-10.4199 12.4697 -27.3301 26.4697 -18.3701 46.8301c10.1904 23.1602 49.1406 24.8105 62.6709 -7.53906c25.9902 -62.3301 -17.0693 -117.7 -69.3496 -119.351zM522.858 161.539
l10.0205 -0.0185547l-58.29 -161.54h-414.56l0.160156 10h12.6504c35 0 63.4004 28.0498 64.04 62.8799v554.21c-0.660156 34.8301 -29.0605 62.8799 -64.0605 62.8799h-12.6504l-0.160156 10h218.78l-0.160156 -10h-12.6504c-35 0 -63.4004 -28.0498 -64.0605 -62.8799
v-596.48h143.42c105.96 0 146.65 54.8096 177.521 130.949z" />
    <glyph glyph-name="Lcommaaccent" unicode="&#x13b;" horiz-adv-x="562" 
d="M522.86 161.54l10.0205 -0.0185547l-58.29 -161.54h-414.56l0.160156 10h12.6504c35 0 63.4004 28.0498 64.04 62.8799v554.21c-0.660156 34.8301 -29.0605 62.8799 -64.0605 62.8799h-12.6504l-0.160156 10h218.78l-0.160156 -10h-12.6504
c-35 0 -63.4004 -28.0498 -64.0605 -62.8799v-596.48h143.42c105.96 0 146.65 54.8096 177.521 130.949zM273.461 -194.019l-1.95117 7c48.6396 15 40.6797 57 27 73c-10.4199 13 -27.3301 27 -18.3701 47c10.1904 23 49.1406 25 62.6709 -8
c25.9902 -62 -17.0693 -117 -69.3496 -119z" />
    <glyph glyph-name="Ldot" unicode="&#x13f;" horiz-adv-x="562" 
d="M522.86 161.54l10.0205 -0.0185547l-58.29 -161.54h-414.56l0.160156 10h12.6504c35 0 63.4004 28.0498 64.04 62.8799v554.21c-0.660156 34.8301 -29.0605 62.8799 -64.0605 62.8799h-12.6504l-0.160156 10h218.78l-0.160156 -10h-12.6504
c-35 0 -63.4004 -28.0498 -64.0605 -62.8799v-596.48h143.42c105.96 0 146.65 54.8096 177.521 130.949zM334.44 402.981c-24.8496 0 -45 20.1504 -45 45s20.1504 45 45 45s45 -20.1504 45 -45s-20.1504 -45 -45 -45z" />
    <glyph glyph-name="Lslash" unicode="&#x141;" horiz-adv-x="562" 
d="M522.86 161.54l10.0205 -0.0185547l-58.29 -161.54h-414.56l0.160156 10h12.6504c35 0 63.4004 28.0498 64.0605 62.8799v235.15l-104.13 -60.2305l-15.0195 25.9697l119.13 68.9199v284.41c-0.660156 34.8301 -29.0605 62.8799 -64.0605 62.8799h-12.6504l-0.160156 10
h218.78l-0.160156 -10h-12.6504c-35 0 -63.4004 -28.0498 -64.0605 -62.8799v-246.79l124.35 71.9297l15.0195 -25.9697l-139.37 -80.6201v-315.04h143.42c105.96 0 146.65 54.8096 177.521 130.949z" />
    <glyph glyph-name="M" unicode="M" horiz-adv-x="931" 
d="M749.74 713.7l77.6416 -641.039c5.12988 -39.5303 37.1299 -62.6504 72.8799 -62.6504h15.9102v-10h-217.38v9.44043h15.5801c21.54 0.0498047 40.9297 21.1494 38.9893 42.6992l-45.3301 503.2l-210.16 -467.24s-27.8604 -60.7197 -34.3105 -102.109h-9.41992
l-255.74 554.84l-43.8896 -488.7c-1.94043 -21.5498 17.4395 -42.6494 38.9795 -42.6992h15.5801v-9.44043h-193.67v10h15.9102c35.75 0 67.75 23.1201 72.8896 62.6504l75.2197 641.35h9.28027l279.08 -603.4l272.82 603.1h9.13965z" />
    <glyph glyph-name="N" unicode="N" horiz-adv-x="841" 
d="M590.23 700.02l206.08 -0.00976562l-0.150391 -10h-18.46c-33.46 0 -60.6504 -26.5898 -61.71 -59.7803v-516.67c0 -64.4297 9.12012 -127.58 9.12012 -127.58h-9.08008l-545.37 581.72v-497.91c1.04004 -33.21 28.2402 -59.8301 61.71 -59.8301h18.46l0.150391 -10
h-205.99l0.150391 10h18.46c33.7197 0 61.0801 27.0098 61.7305 60.5596v519.53c0 68.2695 -9.20996 124.93 -9.20996 124.93h9.86035l544.58 -581.51v495.94c-0.629883 33.5703 -27.9902 60.6104 -61.7305 60.6104h-18.4502z" />
    <glyph glyph-name="Nacute" unicode="&#x143;" horiz-adv-x="841" 
d="M425.83 763.97l-7 7.01953c42.3203 45.6299 84.6406 90.2598 126.961 130.89c15.6299 -15.54 30.2695 -33.0801 40.8994 -52.6201c-53.6201 -31.4297 -107.24 -58.8594 -160.86 -85.2891zM590.23 700.039l206.08 -0.00976562l-0.150391 -10h-18.46
c-33.46 0 -60.6504 -26.5898 -61.71 -59.7803v-516.67c0 -64.4297 9.12012 -127.58 9.12012 -127.58h-9.08008l-545.37 581.72v-497.91c1.04004 -33.21 28.2402 -59.8301 61.71 -59.8301h18.46l0.150391 -10h-205.99l0.150391 10h18.46
c33.7197 0 61.0801 27.0098 61.7305 60.5596v519.53c0 68.2695 -9.20996 124.93 -9.20996 124.93h9.86035l544.58 -581.51v495.94c-0.629883 33.5703 -27.9902 60.6104 -61.7305 60.6104h-18.4502z" />
    <glyph glyph-name="Ncaron" unicode="&#x147;" horiz-adv-x="841" 
d="M430.85 764.15l106.12 118.75l-6 8l-104.66 -66l-113.64 66.0996l-6 -8l114.18 -118.85h10zM590.22 700.011l206.08 -0.00976562l-0.150391 -10h-18.46c-33.46 0 -60.6504 -26.5898 -61.71 -59.7803v-516.67c0 -64.4297 9.12012 -127.58 9.12012 -127.58h-9.08008
l-545.37 581.72v-497.91c1.04004 -33.21 28.2402 -59.8301 61.71 -59.8301h18.46l0.150391 -10h-205.99l0.150391 10h18.46c33.7197 0 61.0801 27.0098 61.7305 60.5596v519.53c0 68.2695 -9.20996 124.93 -9.20996 124.93h9.86035l544.58 -581.51v495.94
c-0.629883 33.5703 -27.9902 60.6104 -61.7305 60.6104h-18.4502z" />
    <glyph glyph-name="Ncommaaccent" unicode="&#x145;" horiz-adv-x="841" 
d="M590.23 700.02l206.08 -0.00976562l-0.150391 -10h-18.46c-33.46 0 -60.6504 -26.5898 -61.71 -59.7803v-516.67c0 -64.4297 9.12012 -127.58 9.12012 -127.58h-9.08008l-545.37 581.72v-497.91c1.04004 -33.21 28.2402 -59.8301 61.71 -59.8301h18.46l0.150391 -10
h-205.99l0.150391 10h18.46c33.7197 0 61.0801 27.0098 61.7305 60.5596v519.53c0 68.2695 -9.20996 124.93 -9.20996 124.93h9.86035l544.58 -581.51v495.94c-0.629883 33.5703 -27.9902 60.6104 -61.7305 60.6104h-18.4502zM392.011 -208.01l-1.95117 7
c48.6396 15 40.6797 57 27 73c-10.4199 13 -27.3301 27 -18.3701 47c10.1904 23 49.1406 25 62.6709 -8c25.9902 -62 -17.0693 -117 -69.3496 -119z" />
    <glyph glyph-name="Eng" unicode="&#x14a;" horiz-adv-x="819" 
d="M590.23 700l183.918 0.03125l-0.129883 -12.9102h-15.9102c-29.0098 0 -52.5498 -23.1904 -53.1797 -52.0303v-667.09c0 -108 -60.9199 -155 -127.68 -169l-5.30957 8c41.9199 19 87.6104 66 87.6104 163v63.3203l-499.96 534.33v-502.7
c0.549805 -28.9404 24.1396 -52.2607 53.2197 -52.2607h15.9102l0.129883 -12.7197h-183.85l0.129883 12.7197h15.9102c28.9697 0 52.5 23.1396 53.21 51.9297v525.43c0 68.2695 -9.20996 124.93 -9.20996 124.93h9.86035l544.58 -580.57v500.42
c-0.540039 28.9404 -24.1299 52.2607 -53.21 52.2607h-15.9102z" />
    <glyph glyph-name="Ntilde" unicode="&#xd1;" horiz-adv-x="841" 
d="M561.53 842.52l-9.99805 0.00976562c-9.42969 -22.8398 -27.1602 -33.5898 -55.4004 -33.5898c-34.3096 0 -75.1895 42.7998 -120.439 42.7998c-32.3604 0 -56.7607 -32.2002 -64.2012 -84.7305h10c11.1396 27.7002 28.4795 40.7305 54.1992 40.7305
c32.25 0 77.4404 -43.7998 120.44 -43.7998c34.8701 0 59.7197 29.8604 65.3994 78.5801zM590.232 700.029l206.08 -0.00976562l-0.150391 -10h-18.46c-33.46 0 -60.6504 -26.5898 -61.71 -59.7803v-516.67c0 -64.4297 9.12012 -127.58 9.12012 -127.58h-9.08008
l-545.37 581.72v-497.91c1.04004 -33.21 28.2402 -59.8301 61.71 -59.8301h18.46l0.150391 -10h-205.99l0.150391 10h18.46c33.7197 0 61.0801 27.0098 61.7305 60.5596v519.53c0 68.2695 -9.20996 124.93 -9.20996 124.93h9.86035l544.58 -581.51v495.94
c-0.629883 33.5703 -27.9902 60.6104 -61.7305 60.6104h-18.4502z" />
    <glyph glyph-name="O" unicode="O" horiz-adv-x="838" 
d="M429.43 714c212.66 0 359.43 -145.6 359.43 -364s-146.77 -364 -359.43 -364s-359.43 145.6 -359.43 364s146.77 364 359.43 364zM429.43 15.9199c169.66 0 282.771 133.63 282.771 334.07c0 200.45 -113.11 334.08 -282.771 334.08s-282.771 -133.63 -282.771 -334.08
c0 -200.44 113.11 -334.07 282.771 -334.07z" />
    <glyph glyph-name="Oacute" unicode="&#xd3;" horiz-adv-x="838" 
d="M428.93 763.97l-7 7.01953c42.3203 45.6299 84.6406 90.2598 126.961 130.89c15.6299 -15.54 30.2695 -33.0801 40.8994 -52.6201c-53.6201 -31.4297 -107.24 -58.8594 -160.86 -85.2891zM429.43 714.02c212.66 0 359.43 -145.6 359.43 -364s-146.77 -364 -359.43 -364
s-359.43 145.6 -359.43 364s146.77 364 359.43 364zM429.43 15.9395c169.66 0 282.771 133.63 282.771 334.07c0 200.45 -113.11 334.08 -282.771 334.08s-282.771 -133.63 -282.771 -334.08c0 -200.44 113.11 -334.07 282.771 -334.07z" />
    <glyph glyph-name="Ocircumflex" unicode="&#xd4;" horiz-adv-x="838" 
d="M423.79 889.74l-106.12 -118.75l6 -8l104.66 66l113.64 -66.0996l6 8l-114.18 118.85h-10zM429.439 714.01c212.66 0 359.43 -145.6 359.43 -364s-146.77 -364 -359.43 -364s-359.43 145.6 -359.43 364s146.77 364 359.43 364zM429.439 15.9297
c169.66 0 282.771 133.63 282.771 334.07c0 200.45 -113.11 334.08 -282.771 334.08s-282.771 -133.63 -282.771 -334.08c0 -200.44 113.11 -334.07 282.771 -334.07z" />
    <glyph glyph-name="Odieresis" unicode="&#xd6;" horiz-adv-x="838" 
d="M334.8 764.1c-21.5801 0 -39.0801 17.5 -39.0801 39.0801s17.5 39.0801 39.0801 39.0801s39.0801 -17.5 39.0801 -39.0801s-17.5 -39.0801 -39.0801 -39.0801zM523.17 764.1c-21.5801 0 -39.0801 17.5 -39.0801 39.0801s17.5 39.0801 39.0801 39.0801
s39.0801 -17.5 39.0801 -39.0801s-17.5 -39.0801 -39.0801 -39.0801zM429.43 714c212.66 0 359.43 -145.6 359.43 -364s-146.77 -364 -359.43 -364s-359.43 145.6 -359.43 364s146.77 364 359.43 364zM429.43 15.9199c169.66 0 282.771 133.63 282.771 334.07
c0 200.45 -113.11 334.08 -282.771 334.08s-282.771 -133.63 -282.771 -334.08c0 -200.44 113.11 -334.07 282.771 -334.07z" />
    <glyph glyph-name="Ograve" unicode="&#xd2;" horiz-adv-x="838" 
d="M426 771l-7 -7.01953c-53.6201 25.4297 -107.24 53.8594 -160.86 85.2891c10.6299 20.54 25.2695 38.0801 40.8994 52.6201c42.3203 -40.6299 84.6406 -84.2598 126.961 -130.89zM419.43 713.98c212.66 0 359.43 -145.6 359.43 -364s-146.77 -364 -359.43 -364
s-359.43 145.6 -359.43 364s146.77 364 359.43 364zM419.43 15.9004c169.66 0 282.771 133.63 282.771 334.07c0 200.45 -113.11 334.08 -282.771 334.08s-282.771 -133.63 -282.771 -334.08c0 -200.44 113.11 -334.07 282.771 -334.07z" />
    <glyph glyph-name="Ohungarumlaut" unicode="&#x150;" horiz-adv-x="838" 
d="M371.89 768.38l-10.9805 2.00977c20.3203 43.6299 42.6406 87.2598 66.9609 130.89c20.2998 -1.2002 41.5996 -4.40039 60.8994 -12.6006c-35.96 -40.0996 -74.9199 -80.1992 -116.88 -120.299zM494.14 768.39l-10.9805 2.00977
c18.3203 43.6299 39.6406 87.2598 66.9609 130.89c20.2998 -0.200195 42.5996 -5.40039 60.8994 -12.6006c-35.96 -40.0996 -73.9199 -81.1992 -116.88 -120.299zM429.479 714.02c212.66 0 359.43 -145.6 359.43 -364s-146.77 -364 -359.43 -364s-359.43 145.6 -359.43 364
s146.77 364 359.43 364zM429.479 15.9395c169.66 0 282.771 133.63 282.771 334.07c0 200.45 -113.11 334.08 -282.771 334.08s-282.771 -133.63 -282.771 -334.08c0 -200.44 113.11 -334.07 282.771 -334.07z" />
    <glyph glyph-name="Omacron" unicode="&#x14c;" horiz-adv-x="838" 
d="M306.82 795.36v35h250v-35h-250zM429.431 714c212.66 0 359.43 -145.6 359.43 -364s-146.77 -364 -359.43 -364s-359.43 145.6 -359.43 364s146.77 364 359.43 364zM429.431 15.9199c169.66 0 282.771 133.63 282.771 334.07c0 200.45 -113.11 334.08 -282.771 334.08
s-282.771 -133.63 -282.771 -334.08c0 -200.44 113.11 -334.07 282.771 -334.07z" />
    <glyph glyph-name="Oslash" unicode="&#xd8;" horiz-adv-x="828" 
d="M724.7 699.58l-63.2305 -75.9395c68.1602 -64 107.4 -158.75 107.4 -273.65c0 -218.4 -141.77 -364 -354.43 -364c-89.0801 0 -165.72 25.5498 -224.71 71.29l-66.8701 -80.2803l-25.0098 22l66.6299 80.1299c-66.3604 63.9502 -104.48 157.62 -104.48 270.87
c0 218.4 141.77 364 354.43 364c87.25 0 162.57 -24.5098 221.061 -68.5l63.9004 76.8398zM199.109 120.751l405.499 487.58c-48.3496 48.4297 -113.479 75.7295 -190.159 75.7295c-169.66 0 -282.771 -133.63 -282.771 -334.08
c0 -93.0303 24.3604 -171.67 67.4307 -229.229zM627.248 582.541l-406.18 -487.649c48.6699 -50.46 114.99 -78.9902 193.38 -78.9902c169.66 0 282.771 133.63 282.771 334.07c0 94.8398 -25.3203 174.72 -69.9707 232.569z" />
    <glyph glyph-name="Otilde" unicode="&#xd5;" horiz-adv-x="838" 
d="M564.64 842.52l-9.99805 0.00976562c-9.42969 -22.8398 -27.1602 -33.5898 -55.4004 -33.5898c-34.3096 0 -75.1895 42.7998 -120.439 42.7998c-32.3604 0 -56.7607 -32.2002 -64.2012 -84.7305h10c11.1396 27.7002 28.4795 40.7305 54.1992 40.7305
c32.25 0 77.4404 -43.7998 120.44 -43.7998c34.8701 0 59.7197 29.8604 65.3994 78.5801zM429.432 714.01c212.66 0 359.43 -145.6 359.43 -364s-146.77 -364 -359.43 -364s-359.43 145.6 -359.43 364s146.77 364 359.43 364zM429.432 15.9297
c169.66 0 282.771 133.63 282.771 334.07c0 200.45 -113.11 334.08 -282.771 334.08s-282.771 -133.63 -282.771 -334.08c0 -200.44 113.11 -334.07 282.771 -334.07z" />
    <glyph glyph-name="OE" unicode="&#x152;" horiz-adv-x="962" 
d="M932.39 161.54l-58.2627 -161.541h-276.68h-1.78027c-13.0898 0 -25.3398 0 -53.6299 -2c-21.1602 -1 -91.3301 -12 -127.57 -12c-212.66 0 -354.43 145.6 -354.43 364s141.77 364 354.43 364c29.3301 0 77.8203 -3.74023 112.16 -8.66016
c19.7402 -2.83008 36.8701 -5.27051 67.21 -5.33008h158.33c43.0996 0.410156 100.67 10.3701 119.229 18.1904v-18.1904v-108.08l-12.0996 0.150391v17.8203c0 31.7197 -24.75 57.6201 -55.9902 59.5205h-205.89v-309.16h173.03c26.79 0.5 48.3701 22.3398 48.3701 49.2598
v14.7305l9.76953 0.129883v-158.26l-9.76953 0.120117v14.7305c0 26.5801 -21.0195 48.21 -47.3291 49.25h-174.06v-299.63h147.44c105.96 0 146.65 54.8096 177.521 130.949h10zM536.427 64.1992l-0.000976562 571.35c0 37.1602 -69.3799 48.5303 -121.97 48.5303
c-169.66 0 -282.771 -133.63 -282.771 -334.08c0 -200.44 113.11 -334.07 282.771 -334.07c52.7803 0 121.971 15.5703 121.971 48.2705z" />
    <glyph glyph-name="P" unicode="P" 
d="M60.3496 700l260.567 -0.03125c127.85 0 206.21 -73.3896 206.21 -193.13c0 -152.42 -165.44 -233.58 -290.91 -167.45l-0.120117 9.4502s164.51 -35.4902 209.64 107.74c4.44043 14.0801 7 38.21 6.40039 60.3203c-2.5 91.8496 -49.7598 153.08 -134.819 153.08h-115.28
v-597.14c0.650391 -34.8301 29.0508 -62.8799 64.0508 -62.8799h12.6504l0.160156 -10h-218.9l0.160156 10h12.6504c35 0 63.4004 28.0498 64.0908 62.8799v559.59c-3.25 32.3604 -30.5195 57.6299 -63.7393 57.6299h-12.6504z" />
    <glyph glyph-name="Thorn" unicode="&#xde;" horiz-adv-x="554" 
d="M184.61 547.9l119.038 -0.000976562c131.92 0 201.2 -74.8496 201.2 -193.13c0 -152.42 -160.44 -233.58 -285.91 -167.45l-0.120117 9.4502s164.51 -35.4902 209.64 107.74c4.44043 14.0801 7 38.21 6.40039 60.3203c-2.5 91.8496 -49.7598 153.08 -134.819 153.08
h-115.43v-445.04c0.650391 -34.8301 29.0508 -62.8799 64.0508 -62.8799h12.6504l0.160156 -10h-218.79l0.160156 10h12.6504c35 0 63.4004 28.0498 64.0605 62.8799v554.74c-0.870117 34.6396 -29.1797 62.4697 -64.04 62.4697h-12.6504l-0.160156 10h218.76l-0.160156 -10
h-12.6504c-34.79 0 -63.0596 -27.7197 -64.04 -62.2598v-79.9199z" />
    <glyph glyph-name="Q" unicode="Q" horiz-adv-x="837" 
d="M1323.93 -84l3.83105 -5c-23.4004 -63 -213.86 -229 -499.551 -105c-122.2 53 -285.7 156 -420.141 180c-206.51 5 -348.069 149.51 -348.069 363.99c0 218.4 146.77 364 359.43 364c211.66 0 357.771 -145.6 357.771 -364c0 -187.46 -109.13 -321.29 -272.64 -354.99
c79.8203 -24 196 -70 331.47 -128c150.18 -63 364.479 -67 487.899 49zM135.011 349.99c0 -200.44 114.77 -334.07 284.43 -334.07s282.771 133.63 282.771 334.07c0 200.45 -113.11 334.08 -282.771 334.08c-170.66 0 -284.43 -133.63 -284.43 -334.08z" />
    <glyph glyph-name="R" unicode="R" horiz-adv-x="677" 
d="M60 700l269.741 0.0195312c121.18 0 195.449 -71.4199 195.449 -187.939c0 -96.8096 -73.71 -190.67 -169.88 -190.67c21.4502 -9.90039 52.1904 -43 71.5703 -70.3701c0 0 86.21 -123.1 124.92 -165.38c40.2305 -43.9404 77.2402 -75.1504 136 -75.6201v-10.0303
h-54.8604c-93.0596 0 -143.029 50.1299 -174.47 87.6699c-11.3604 13.5703 -124.051 177.53 -131.73 187.181c-26.1396 32.8398 -55.3096 67.4795 -91.8398 67.4795v9.25s22.7402 -0.490234 52.8398 0.330078c51.8701 1.41016 127.7 13.7705 156.08 103.83
c4.41016 14.0098 6.95996 37.96 6.36035 59.8799c-2.45996 90.4404 -49.5996 148.37 -124.05 152.45c-50.9805 2.79004 -111.511 0.30957 -124.491 0.779297v-596.01c0.650391 -34.8301 29.0508 -62.8799 64.0508 -62.8799h12.6504l0.160156 -10h-218.46l0.160156 10
h12.6504c34.8398 0 63.1396 27.79 64.0195 62.4004v554.81c-0.660156 34.8301 -29.0605 62.8799 -64.0605 62.8799h-12.6504z" />
    <glyph glyph-name="Racute" unicode="&#x154;" horiz-adv-x="677" 
d="M323.51 763.97l-7 7.01953c42.3203 45.6299 84.6406 90.2598 126.961 130.89c15.6299 -15.54 30.2695 -33.0801 40.8994 -52.6201c-53.6201 -31.4297 -107.24 -58.8594 -160.86 -85.2891zM60 700.02l269.741 0.0195312c121.18 0 195.449 -71.4199 195.449 -187.939
c0 -96.8096 -73.71 -190.67 -169.88 -190.67c21.4502 -9.90039 52.1904 -43 71.5703 -70.3701c0 0 86.21 -123.1 124.92 -165.38c40.2305 -43.9404 77.2402 -75.1504 136 -75.6201v-10.0303h-54.8604c-93.0596 0 -143.029 50.1299 -174.47 87.6699
c-11.3604 13.5703 -124.051 177.53 -131.73 187.181c-26.1396 32.8398 -55.3096 67.4795 -91.8398 67.4795v9.25s22.7402 -0.490234 52.8398 0.330078c51.8701 1.41016 127.7 13.7705 156.08 103.83c4.41016 14.0098 6.95996 37.96 6.36035 59.8799
c-2.45996 90.4404 -49.5996 148.37 -124.05 152.45c-50.9805 2.79004 -111.511 0.30957 -124.491 0.779297v-596.01c0.650391 -34.8301 29.0508 -62.8799 64.0508 -62.8799h12.6504l0.160156 -10h-218.46l0.160156 10h12.6504c34.8398 0 63.1396 27.79 64.0195 62.4004
v554.81c-0.660156 34.8301 -29.0605 62.8799 -64.0605 62.8799h-12.6504z" />
    <glyph glyph-name="Rcaron" unicode="&#x158;" horiz-adv-x="677" 
d="M328.53 764.15l106.12 118.75l-6 8l-104.66 -66l-113.64 66.0996l-6 -8l114.18 -118.85h10zM59.9902 699.99l269.741 0.0195312c121.18 0 195.449 -71.4199 195.449 -187.939c0 -96.8096 -73.71 -190.67 -169.88 -190.67c21.4502 -9.90039 52.1904 -43 71.5703 -70.3701
c0 0 86.21 -123.1 124.92 -165.38c40.2305 -43.9404 77.2402 -75.1504 136 -75.6201v-10.0303h-54.8604c-93.0596 -0 -143.029 50.1299 -174.47 87.6699c-11.3604 13.5703 -124.051 177.53 -131.73 187.181c-26.1396 32.8398 -55.3096 67.4795 -91.8398 67.4795v9.25
s22.7402 -0.490234 52.8398 0.330078c51.8701 1.41016 127.7 13.7705 156.08 103.83c4.41016 14.0098 6.95996 37.96 6.36035 59.8799c-2.45996 90.4404 -49.5996 148.37 -124.05 152.45c-50.9805 2.79004 -111.511 0.30957 -124.491 0.779297v-596.01
c0.650391 -34.8301 29.0508 -62.8799 64.0508 -62.8799h12.6504l0.160156 -10h-218.46l0.160156 10h12.6504c34.8398 0 63.1396 27.79 64.0195 62.4004v554.81c-0.660156 34.8301 -29.0605 62.8799 -64.0605 62.8799h-12.6504z" />
    <glyph glyph-name="Rcommaaccent" unicode="&#x156;" horiz-adv-x="677" 
d="M60 700l269.741 0.0195312c121.18 0 195.449 -71.4199 195.449 -187.939c0 -96.8096 -73.71 -190.67 -169.88 -190.67c21.4502 -9.90039 52.1904 -43 71.5703 -70.3701c0 0 86.21 -123.1 124.92 -165.38c40.2305 -43.9404 77.2402 -75.1504 136 -75.6201v-10.0303
h-54.8604c-93.0596 0 -143.029 50.1299 -174.47 87.6699c-11.3604 13.5703 -124.051 177.53 -131.73 187.181c-26.1396 32.8398 -55.3096 67.4795 -91.8398 67.4795v9.25s22.7402 -0.490234 52.8398 0.330078c51.8701 1.41016 127.7 13.7705 156.08 103.83
c4.41016 14.0098 6.95996 37.96 6.36035 59.8799c-2.45996 90.4404 -49.5996 148.37 -124.05 152.45c-50.9805 2.79004 -111.511 0.30957 -124.491 0.779297v-596.01c0.650391 -34.8301 29.0508 -62.8799 64.0508 -62.8799h12.6504l0.160156 -10h-218.46l0.160156 10
h12.6504c34.8398 0 63.1396 27.79 64.0195 62.4004v554.81c-0.660156 34.8301 -29.0605 62.8799 -64.0605 62.8799h-12.6504zM343.701 -193.98l-1.95117 7c48.6396 15 40.6797 57 27 73c-10.4199 13 -27.3301 27 -18.3701 47c10.1904 23 49.1406 25 62.6709 -8
c25.9902 -62 -17.0693 -117 -69.3496 -119z" />
    <glyph glyph-name="S" unicode="S" horiz-adv-x="475" 
d="M171.27 476.81l196.508 -181.919c39.9805 -36.9102 50.2305 -81.5205 50.2305 -121.91c0 -110.61 -72.25 -187 -187.25 -187c-49 0 -130 14 -169.3 54.6396c-7.4502 30.8701 -3.66992 94.5703 11.5605 139.41h8.79004c-10.0498 -103.05 55.1904 -168.99 144.19 -164.05
c73 4.05957 134 54.0898 134 134.01c0 39.0801 -14.25 70 -39.2402 93.1904l-191.55 177.9c-40.4502 36.9199 -54.2002 85.21 -54.2002 123.92c0 84.29 61.75 169 175.75 169c26.25 0 59.2002 -4.46973 85.7598 -10.2598h39.6201v-11.8701v-110.83h-9.62988
c0.240234 63.9697 -50.2002 102.97 -112.51 102.97c-73.6797 0 -122.989 -54.0596 -122.989 -115c0 -26.0703 8.75 -63.0107 40.2598 -92.2012z" />
    <glyph glyph-name="Sacute" unicode="&#x15a;" horiz-adv-x="475" 
d="M239.36 763.97l-7 7.01953c42.3203 45.6299 84.6406 90.2598 126.961 130.89c15.6299 -15.54 30.2695 -33.0801 40.8994 -52.6201c-53.6201 -31.4297 -107.24 -58.8594 -160.86 -85.2891zM171.271 476.829l196.508 -181.919
c39.9805 -36.9102 50.2305 -81.5205 50.2305 -121.91c0 -110.61 -72.25 -187 -187.25 -187c-49 0 -130 14 -169.3 54.6396c-7.4502 30.8701 -3.66992 94.5703 11.5605 139.41h8.79004c-10.0498 -103.05 55.1904 -168.99 144.19 -164.05c73 4.05957 134 54.0898 134 134.01
c0 39.0801 -14.25 70 -39.2402 93.1904l-191.55 177.9c-40.4502 36.9199 -54.2002 85.21 -54.2002 123.92c0 84.29 61.75 169 175.75 169c26.25 0 59.2002 -4.46973 85.7598 -10.2598h39.6201v-11.8701v-110.83h-9.62988c0.240234 63.9697 -50.2002 102.97 -112.51 102.97
c-73.6797 0 -122.989 -54.0596 -122.989 -115c0 -26.0703 8.75 -63.0107 40.2598 -92.2012z" />
    <glyph glyph-name="Scaron" unicode="&#x160;" horiz-adv-x="475" 
d="M244.38 764.15l106.12 118.75l-6 8l-104.66 -66l-113.64 66.0996l-6 -8l114.18 -118.85h10zM171.26 476.801l196.508 -181.919c39.9805 -36.9102 50.2305 -81.5205 50.2305 -121.91c0 -110.61 -72.25 -187 -187.25 -187c-49 0 -130 14 -169.3 54.6396
c-7.4502 30.8701 -3.66992 94.5703 11.5605 139.41h8.79004c-10.0498 -103.05 55.1904 -168.99 144.19 -164.05c73 4.05957 134 54.0898 134 134.01c0 39.0801 -14.25 70 -39.2402 93.1904l-191.55 177.9c-40.4502 36.9199 -54.2002 85.21 -54.2002 123.92
c0 84.29 61.75 169 175.75 169c26.25 0 59.2002 -4.46973 85.7598 -10.2598h39.6201v-11.8701v-110.83h-9.62988c0.240234 63.9697 -50.2002 102.97 -112.51 102.97c-73.6797 0 -122.989 -54.0596 -122.989 -115c0 -26.0703 8.75 -63.0107 40.2598 -92.2012z" />
    <glyph glyph-name="Scedilla" unicode="&#x15e;" horiz-adv-x="475" 
d="M171.27 476.81l196.506 -181.909c39.9805 -36.9102 50.2305 -81.5205 50.2305 -121.91c0 -103.35 -63.0801 -176.83 -165.17 -186.03l-40.7695 -46.9805c34.9902 12 102.681 11 104.851 -58c2 -63 -73.7402 -94 -140.76 -73l0.730469 10c41.0195 0 91.7695 16 90.0293 64
c-1.5 42 -48.1396 48 -83.7695 33l-5 10l46.4404 60.0703c-49.3896 1.12012 -125.439 15.5898 -163.13 54.5703c-7.4502 30.8701 -3.66992 94.5703 11.5605 139.41h8.79004c-10.0498 -103.05 55.1904 -168.99 144.19 -164.05c73 4.05957 134 54.0898 134 134.01
c0 39.0801 -14.25 70 -39.2402 93.1904l-191.55 177.9c-40.4502 36.9199 -54.2002 85.21 -54.2002 123.92c0 84.29 61.75 169 175.75 169c26.25 0 59.2002 -4.46973 85.7598 -10.2598h39.6201v-11.8701v-110.83h-9.62988c0.240234 63.9697 -50.2002 102.97 -112.51 102.97
c-73.6797 0 -122.989 -54.0596 -122.989 -115c0 -26.0703 8.75 -63.0107 40.2598 -92.2012z" />
    <glyph glyph-name="Scommaaccent" unicode="&#x218;" horiz-adv-x="472" 
d="M168.57 475.81l196.511 -181.901c36.0898 -36.0898 50.8994 -78.1201 50.8994 -120.18c0 -111.63 -72.8398 -186.729 -182.109 -187.729c-64.2402 0 -137.05 16.7598 -174.12 54.6396c-3.99023 35.0898 -2.70996 75.9795 9.55957 119.399h8.79004
c0 -86.1602 62.3604 -143.601 155.9 -143.601c74.54 3.36035 124.23 56.3408 124.23 132.451c0 36.1201 -10.9004 68.0098 -38.1807 95.29l-191.55 177.9c-39.7598 39.7598 -54.96 83.3301 -54.96 123.59c0 90.7305 74.3203 168.32 164.061 168.32
c38.0996 0 71.6699 -2.62988 101.83 -10.2598h35.0098v-11.8701v-95.8301h-9.62988c0 19.2598 -18.7305 49.6797 -46.3408 69.21c-20.7695 14.6904 -49.1396 18.3604 -74.71 18.3604c-65.6104 0 -114.75 -53.4697 -114.75 -113.6
c0 -29.8203 10.6797 -65.3203 39.5596 -94.1904zM200.281 -207.002l-1.95117 6c48.6396 16 40.6797 57 27 74c-10.4199 12 -27.3301 26 -18.3701 47c10.1904 23 49.1406 24 62.6709 -8c25.9902 -62 -17.0693 -118 -69.3496 -119z" />
    <glyph glyph-name="T" unicode="T" horiz-adv-x="618" 
d="M140.44 701h337.765c43.2197 0.230469 101.7 10.3008 120.431 18.1904v-125.72l-10.0596 0.150391v17.8203c0 32.0703 -25.2998 58.1807 -57.0195 59.5605h-189.54v-598.96c1.07031 -34.46 29.3008 -62.0801 64.0312 -62.0801h12.6504l0.160156 -10h-218.92l0.160156 10
h12.6504c34.4502 0 62.5098 27.1797 64 61.2598v599.78h-189.66c-31.7197 -1.37988 -57.0195 -27.4902 -57.0195 -59.5605v-17.8203l-10.0596 -0.150391v125.72c18.7305 -7.88965 77.2109 -17.96 120.431 -18.1904z" />
    <glyph glyph-name="Tbar" unicode="&#x166;" horiz-adv-x="618" 
d="M140.44 701l337.765 -0.00976562c43.2197 0.230469 101.7 10.3008 120.431 18.1904v-125.72l-10.0596 0.150391v17.8203c0 32.0703 -25.2998 58.1807 -57.0195 59.5605h-189.54v-269.96h162.02v-30h-162.02v-298.99c1.07031 -34.46 29.3008 -62.0801 64.0312 -62.0801
h12.6504l0.160156 -10h-218.92l0.160156 10h12.6504c34.4502 0 62.5098 27.1797 64 61.2598v299.82h-160.46v30h160.46v269.96h-189.66c-31.7197 -1.37988 -57.0195 -27.4902 -57.0195 -59.5605v-17.8203l-10.0596 -0.150391v125.72
c18.7305 -7.88965 77.2109 -17.96 120.431 -18.1904z" />
    <glyph glyph-name="Tcaron" unicode="&#x164;" horiz-adv-x="618" 
d="M314.01 764.15l106.12 118.75l-6 8l-104.66 -66l-113.64 66.0996l-6 -8l114.18 -118.85h10zM140.43 700.99h337.765c43.2197 0.230469 101.7 10.3008 120.431 18.1904v-125.72l-10.0596 0.150391v17.8203c0 32.0703 -25.2998 58.1807 -57.0195 59.5605h-189.54v-598.96
c1.07031 -34.46 29.3008 -62.0801 64.0312 -62.0801h12.6504l0.160156 -10h-218.92l0.160156 10h12.6504c34.4502 0 62.5098 27.1797 64 61.2598v599.78h-189.66c-31.7197 -1.37988 -57.0195 -27.4902 -57.0195 -59.5605v-17.8203l-10.0596 -0.150391v125.72
c18.7305 -7.88965 77.2109 -17.96 120.431 -18.1904z" />
    <glyph glyph-name="Tcedilla" unicode="&#x162;" horiz-adv-x="618" 
d="M140.44 701h337.754c43.2197 0.230469 101.7 10.3008 120.431 18.1904v-125.72l-10.0596 0.150391v17.8203c0 32.0703 -25.2998 58.1807 -57.0195 59.5605h-189.54v-598.96c1.07031 -34.46 29.3008 -62.0801 64.0312 -62.0801h12.6504l0.160156 -10h-92.7197
l-40.9902 -48c34.9902 12 102.681 11 104.851 -58c2 -63 -73.7402 -94 -140.76 -73l0.730469 10c41.0195 0 91.7695 16 90.0293 64c-1.5 42 -48.1396 48 -83.7695 33l-5 10l47.3398 62h-98.6201l0.160156 10h12.6504c34.4502 0 62.5098 27.1797 64 61.2598v599.78h-189.66
c-31.7197 -1.37988 -57.0195 -27.4902 -57.0195 -59.5605v-17.8203l-10.0596 -0.150391v125.72c18.7305 -7.88965 77.2109 -17.96 120.431 -18.1904z" />
    <glyph glyph-name="uni021A" unicode="&#x21a;" horiz-adv-x="618" 
d="M140.44 701h337.765c43.2197 0.230469 101.7 10.3008 120.431 18.1904v-125.72l-10.0596 0.150391v17.8203c0 32.0703 -25.2998 58.1807 -57.0195 59.5605h-189.54v-598.96c1.07031 -34.46 29.3008 -62.0801 64.0312 -62.0801h12.6504l0.160156 -10h-218.92l0.160156 10
h12.6504c34.4502 0 62.5098 27.1797 64 61.2598v599.78h-189.66c-31.7197 -1.37988 -57.0195 -27.4902 -57.0195 -59.5605v-17.8203l-10.0596 -0.150391v125.72c18.7305 -7.88965 77.2109 -17.96 120.431 -18.1904zM275.146 -208l-1.95117 7c48.6396 15 40.6797 57 27 73
c-10.4199 13 -27.3301 27 -18.3701 47c10.1904 23 49.1406 25 62.6709 -8c25.9902 -62 -17.0693 -117 -69.3496 -119z" />
    <glyph glyph-name="U" unicode="U" horiz-adv-x="785" 
d="M550.18 700l184.961 0.00976562v-10h-16.2998c-28.1104 0 -51.0605 -19.6699 -52.8008 -47.2295v-395.45c0 -156.8 -107.82 -261.34 -269.551 -261.34c-166.4 0 -277.33 103.84 -277.33 259.6v394.9c-0.540039 28.7598 -23.9805 49.5195 -52.8701 49.5195h-16.29v10
h203.11v-10h-16.2998c-28.3799 0 -51.5 -20.04 -52.7197 -48.0205v-381.71c0 -145.68 84.9297 -242.8 212.33 -242.8c133.59 0 222.649 91.96 222.88 229.9v394.48c-1.25 28.04 -24.4004 48.1396 -52.8203 48.1396h-16.2998v10z" />
    <glyph glyph-name="Uacute" unicode="&#xda;" horiz-adv-x="785" 
d="M401.57 763.97l-7 7.01953c42.3203 45.6299 84.6406 90.2598 126.961 130.89c15.6299 -15.54 30.2695 -33.0801 40.8994 -52.6201c-53.6201 -31.4297 -107.24 -58.8594 -160.86 -85.2891zM550.181 700.02l184.961 0.00976562v-10h-16.2998
c-28.1104 0 -51.0605 -19.6699 -52.8008 -47.2295v-395.45c0 -156.8 -107.82 -261.34 -269.551 -261.34c-166.4 0 -277.33 103.84 -277.33 259.6v394.9c-0.540039 28.7598 -23.9805 49.5195 -52.8701 49.5195h-16.29v10h203.11v-10h-16.2998
c-28.3799 0 -51.5 -20.04 -52.7197 -48.0205v-381.71c0 -145.68 84.9297 -242.8 212.33 -242.8c133.59 0 222.649 91.96 222.88 229.9v394.48c-1.25 28.04 -24.4004 48.1396 -52.8203 48.1396h-16.2998v10z" />
    <glyph glyph-name="Ucircumflex" unicode="&#xdb;" horiz-adv-x="785" 
d="M396.43 889.74l-106.12 -118.75l6 -8l104.66 66l113.64 -66.0996l6 8l-114.18 118.85h-10zM550.189 700.01l184.961 0.00976562v-10h-16.2998c-28.1104 0 -51.0605 -19.6699 -52.8008 -47.2295v-395.45c0 -156.8 -107.82 -261.34 -269.551 -261.34
c-166.4 0 -277.33 103.84 -277.33 259.6v394.9c-0.540039 28.7598 -23.9805 49.5195 -52.8701 49.5195h-16.29v10h203.11v-10h-16.2998c-28.3799 0 -51.5 -20.04 -52.7197 -48.0205v-381.71c0 -145.68 84.9297 -242.8 212.33 -242.8c133.59 0 222.649 91.96 222.88 229.9
v394.48c-1.25 28.04 -24.4004 48.1396 -52.8203 48.1396h-16.2998v10z" />
    <glyph glyph-name="Udieresis" unicode="&#xdc;" horiz-adv-x="785" 
d="M307.44 764.1c-21.5801 0 -39.0801 17.5 -39.0801 39.0801s17.5 39.0801 39.0801 39.0801s39.0801 -17.5 39.0801 -39.0801s-17.5 -39.0801 -39.0801 -39.0801zM495.811 764.1c-21.5801 0 -39.0801 17.5 -39.0801 39.0801s17.5 39.0801 39.0801 39.0801
s39.0801 -17.5 39.0801 -39.0801s-17.5 -39.0801 -39.0801 -39.0801zM550.181 700l184.961 0.00976562v-10h-16.2998c-28.1104 0 -51.0605 -19.6699 -52.8008 -47.2295v-395.45c0 -156.8 -107.82 -261.34 -269.551 -261.34c-166.4 0 -277.33 103.84 -277.33 259.6v394.9
c-0.540039 28.7598 -23.9805 49.5195 -52.8701 49.5195h-16.29v10h203.11v-10h-16.2998c-28.3799 0 -51.5 -20.04 -52.7197 -48.0205v-381.71c0 -145.68 84.9297 -242.8 212.33 -242.8c133.59 0 222.649 91.96 222.88 229.9v394.48
c-1.25 28.04 -24.4004 48.1396 -52.8203 48.1396h-16.2998v10z" />
    <glyph glyph-name="Ugrave" unicode="&#xd9;" horiz-adv-x="785" 
d="M408.64 771l-7 -7.01953c-53.6201 25.4297 -107.24 53.8594 -160.86 85.2891c10.6299 20.54 25.2695 38.0801 40.8994 52.6201c42.3203 -40.6299 84.6406 -84.2598 126.961 -130.89zM550.18 699.98l184.961 0.00976562v-10h-16.2998
c-28.1104 0 -51.0605 -19.6699 -52.8008 -47.2295v-395.45c0 -156.8 -107.82 -261.34 -269.551 -261.34c-166.4 0 -277.33 103.84 -277.33 259.6v394.9c-0.540039 28.7598 -23.9805 49.5195 -52.8701 49.5195h-16.29v10h203.11v-10h-16.2998
c-28.3799 0 -51.5 -20.04 -52.7197 -48.0205v-381.71c0 -145.68 84.9297 -242.8 212.33 -242.8c133.59 0 222.649 91.96 222.88 229.9v394.48c-1.25 28.04 -24.4004 48.1396 -52.8203 48.1396h-16.2998v10z" />
    <glyph glyph-name="Uhungarumlaut" unicode="&#x170;" horiz-adv-x="785" 
d="M344.53 768.38l-10.9805 2.00977c20.3203 43.6299 42.6406 87.2598 66.9609 130.89c20.2998 -1.2002 41.5996 -4.40039 60.8994 -12.6006c-35.96 -40.0996 -74.9199 -80.1992 -116.88 -120.299zM466.78 768.39l-10.9805 2.00977
c18.3203 43.6299 39.6406 87.2598 66.9609 130.89c20.2998 -0.200195 42.5996 -5.40039 60.8994 -12.6006c-35.96 -40.0996 -73.9199 -81.1992 -116.88 -120.299zM550.229 700.02l184.961 0.00976562v-10h-16.2998c-28.1104 0 -51.0605 -19.6699 -52.8008 -47.2295v-395.45
c0 -156.8 -107.82 -261.34 -269.551 -261.34c-166.4 0 -277.33 103.84 -277.33 259.6v394.9c-0.540039 28.7598 -23.9805 49.5195 -52.8701 49.5195h-16.29v10h203.11v-10h-16.2998c-28.3799 0 -51.5 -20.04 -52.7197 -48.0205v-381.71
c0 -145.68 84.9297 -242.8 212.33 -242.8c133.59 0 222.649 91.96 222.88 229.9v394.48c-1.25 28.04 -24.4004 48.1396 -52.8203 48.1396h-16.2998v10z" />
    <glyph glyph-name="Umacron" unicode="&#x16a;" horiz-adv-x="785" 
d="M279.46 795.36v35h250v-35h-250zM550.18 700l184.961 0.00976562v-10h-16.2998c-28.1104 0 -51.0605 -19.6699 -52.8008 -47.2295v-395.45c0 -156.8 -107.82 -261.34 -269.551 -261.34c-166.4 0 -277.33 103.84 -277.33 259.6v394.9
c-0.540039 28.7598 -23.9805 49.5195 -52.8701 49.5195h-16.29v10h203.11v-10h-16.2998c-28.3799 0 -51.5 -20.04 -52.7197 -48.0205v-381.71c0 -145.68 84.9297 -242.8 212.33 -242.8c133.59 0 222.649 91.96 222.88 229.9v394.48
c-1.25 28.04 -24.4004 48.1396 -52.8203 48.1396h-16.2998v10z" />
    <glyph glyph-name="Uogonek" unicode="&#x172;" horiz-adv-x="785" 
d="M550.18 700l184.899 -0.00195312v-10h-16.2998c-28.1104 0 -51.0605 -19.6699 -52.8008 -47.2295v-395.45c0 -141.56 -87.8799 -240.52 -223.97 -258.42c-52.0996 -13.3799 -71.3691 -39.9395 -70.0889 -76.9092c2 -57 72.8398 -93 121.97 -42l6 -6
c-30.2197 -82 -172.689 -79 -174.01 37c-0.459961 39.6797 27.9805 71.5195 67.5801 85.0098c-164.75 1.23047 -274.36 104.761 -274.301 259.591v394.9c-0.540039 28.7598 -23.9805 49.5195 -52.8701 49.5195h-16.29v10h203.11v-10h-16.2998
c-28.3799 0 -51.5 -20.04 -52.7197 -48.0205v-381.71c0 -145.68 84.9297 -242.8 212.33 -242.8c133.59 0 222.649 91.96 222.88 229.9v394.48c-1.25 28.04 -24.4004 48.1396 -52.8203 48.1396h-16.2998v10z" />
    <glyph glyph-name="Uring" unicode="&#x16e;" horiz-adv-x="785" 
d="M401.83 914.28c53.3701 0 93.7998 -27.7998 93.7998 -74.96c0 -43.8496 -40.4297 -74.96 -93.7998 -74.96s-93.7998 31.1104 -93.7998 74.96s40.4297 74.96 93.7998 74.96zM401.83 897.12c-27.6504 0 -49.0107 -20.5996 -49.0107 -57.8096
s21.3604 -57.8096 49.0107 -57.8096s49.0107 20.5996 49.0107 57.8096s-21.3604 57.8096 -49.0107 57.8096zM550.18 699.99l184.961 0.00976562v-10h-16.2998c-28.1104 0 -51.0605 -19.6699 -52.8008 -47.2295v-395.45c0 -156.8 -107.82 -261.34 -269.551 -261.34
c-166.4 0 -277.33 103.84 -277.33 259.6v394.9c-0.540039 28.7598 -23.9805 49.5195 -52.8701 49.5195h-16.29v10h203.11v-10h-16.2998c-28.3799 0 -51.5 -20.04 -52.7197 -48.0205v-381.71c0 -145.68 84.9297 -242.8 212.33 -242.8c133.59 0 222.649 91.96 222.88 229.9
v394.48c-1.25 28.04 -24.4004 48.1396 -52.8203 48.1396h-16.2998v10z" />
    <glyph glyph-name="V" unicode="V" horiz-adv-x="740" 
d="M548.86 700.15l201.271 -0.0107422v-10.0996h-8.79004c-30.4697 0 -67.2998 -17.9502 -87.5898 -61.9502l-240.46 -539.1s-37.0303 -81.0098 -37.0303 -103h-9.00977l-281.03 641.35c-20.21 44.5498 -57.2197 62.71 -88.2295 62.71h-8v10.0996h225.18v-10h-8.79004
c-25.7998 0 -52.3301 -22.4297 -37.7803 -62.3994l209.53 -523.89l217.52 523.82c14.5996 40.0195 -12.1807 62.4697 -38.001 62.4697h-8.79004v10z" />
    <glyph glyph-name="W" unicode="W" horiz-adv-x="982" 
d="M794.8 700l197.634 -0.0195312v-10h-8.79004c-30.5195 0 -72.3799 -17.8096 -87.7402 -61.9697l-165.59 -528.88s-20.3301 -63.5303 -21.8604 -111.15h-9.44043l-204.49 571.83l-151.5 -460.67s-19.3203 -62.0098 -20.9707 -111.16h-9.44043l-226.94 641.02
c-16.5801 43.4502 -57.0098 60.9902 -87.6494 60.9902h-8v10h222.23v-9.91016h-8.79004c-25.5703 0 -50.8203 -22.1299 -39.0508 -61.4395l151.27 -486.7l186.2 573.7l9.30957 -0.320312l197.21 -553.16l133.91 468.27c9.92969 38.3799 -11.5107 59.6602 -38.7207 59.6602
h-8.79004v9.91016z" />
    <glyph glyph-name="Wacute" unicode="&#x1e82;" horiz-adv-x="982" 
d="M506.8 763.97l-7 7.01953c42.3203 45.6299 84.6406 90.2598 126.961 130.89c15.6299 -15.54 30.2695 -33.0801 40.8994 -52.6201c-53.6201 -31.4297 -107.24 -58.8594 -160.86 -85.2891zM794.8 700.02l197.634 -0.0195312v-10h-8.79004
c-30.5195 0 -72.3799 -17.8096 -87.7402 -61.9697l-165.59 -528.88s-20.3301 -63.5303 -21.8604 -111.15h-9.44043l-204.49 571.83l-151.5 -460.67s-19.3203 -62.0098 -20.9707 -111.16h-9.44043l-226.94 641.02c-16.5801 43.4502 -57.0098 60.9902 -87.6494 60.9902h-8v10
h222.23v-9.91016h-8.79004c-25.5703 0 -50.8203 -22.1299 -39.0508 -61.4395l151.27 -486.7l186.2 573.7l9.30957 -0.320312l197.21 -553.16l133.91 468.27c9.92969 38.3799 -11.5107 59.6602 -38.7207 59.6602h-8.79004v9.91016z" />
    <glyph glyph-name="Wcircumflex" unicode="&#x174;" horiz-adv-x="982" 
d="M501.66 889.74l-106.12 -118.75l6 -8l104.66 66l113.64 -66.0996l6 8l-114.18 118.85h-10zM794.81 700.01l197.634 -0.0195312v-10h-8.79004c-30.5195 0 -72.3799 -17.8096 -87.7402 -61.9697l-165.59 -528.88s-20.3301 -63.5303 -21.8604 -111.15h-9.44043
l-204.49 571.83l-151.5 -460.67s-19.3203 -62.0098 -20.9707 -111.16h-9.44043l-226.94 641.02c-16.5801 43.4502 -57.0098 60.9902 -87.6494 60.9902h-8v10h222.23v-9.91016h-8.79004c-25.5703 0 -50.8203 -22.1299 -39.0508 -61.4395l151.27 -486.7l186.2 573.7
l9.30957 -0.320312l197.21 -553.16l133.91 468.27c9.92969 38.3799 -11.5107 59.6602 -38.7207 59.6602h-8.79004v9.91016z" />
    <glyph glyph-name="Wdieresis" unicode="&#x1e84;" horiz-adv-x="982" 
d="M412.67 764.1c-21.5801 0 -39.0801 17.5 -39.0801 39.0801s17.5 39.0801 39.0801 39.0801s39.0801 -17.5 39.0801 -39.0801s-17.5 -39.0801 -39.0801 -39.0801zM601.04 764.1c-21.5801 0 -39.0801 17.5 -39.0801 39.0801s17.5 39.0801 39.0801 39.0801
s39.0801 -17.5 39.0801 -39.0801s-17.5 -39.0801 -39.0801 -39.0801zM794.8 700l197.634 -0.0195312v-10h-8.79004c-30.5195 0 -72.3799 -17.8096 -87.7402 -61.9697l-165.59 -528.88s-20.3301 -63.5303 -21.8604 -111.15h-9.44043l-204.49 571.83l-151.5 -460.67
s-19.3203 -62.0098 -20.9707 -111.16h-9.44043l-226.94 641.02c-16.5801 43.4502 -57.0098 60.9902 -87.6494 60.9902h-8v10h222.23v-9.91016h-8.79004c-25.5703 0 -50.8203 -22.1299 -39.0508 -61.4395l151.27 -486.7l186.2 573.7l9.30957 -0.320312l197.21 -553.16
l133.91 468.27c9.92969 38.3799 -11.5107 59.6602 -38.7207 59.6602h-8.79004v9.91016z" />
    <glyph glyph-name="Wgrave" unicode="&#x1e80;" horiz-adv-x="982" 
d="M513.87 771l-7.00977 -7.01953c-53.6201 25.4297 -107.24 53.8594 -160.86 85.2891c10.6396 20.54 25.2793 38.0801 40.9092 52.6201c42.3203 -40.6299 84.6406 -84.2598 126.961 -130.89zM794.79 699.98l197.634 -0.0195312v-10h-8.79004
c-30.5195 0 -72.3799 -17.8096 -87.7402 -61.9697l-165.59 -528.88s-20.3301 -63.5303 -21.8604 -111.15h-9.44043l-204.49 571.83l-151.5 -460.67s-19.3203 -62.0098 -20.9707 -111.16h-9.44043l-226.94 641.02c-16.5801 43.4502 -57.0098 60.9902 -87.6494 60.9902h-8v10
h222.23v-9.91016h-8.79004c-25.5703 0 -50.8203 -22.1299 -39.0508 -61.4395l151.27 -486.7l186.2 573.7l9.30957 -0.320312l197.21 -553.16l133.91 468.27c9.92969 38.3799 -11.5107 59.6602 -38.7207 59.6602h-8.79004v9.91016z" />
    <glyph glyph-name="X" unicode="X" horiz-adv-x="662" 
d="M658.95 10h13.6377v-10h-243.84v10h12.5996c27.0703 0 51.3701 32.7002 35.3701 60.9404l-154.11 243.17l-153.78 -242.52c-16.9697 -28.25 8.31055 -61.5898 35.3809 -61.5898h12.5996v-9.86035h-226.8v9.86035h13.8496c42 0 80.5195 28.0703 101.81 58.9404
l191.49 285.33l-175.55 276.93c-21.2803 30.8701 -58.7998 58.8301 -100.8 58.8301h-14v9.96973h242.62v-9.96973h-12.5996c-26.9199 0 -51.0898 -32.8203 -35.6396 -60.9707l137.79 -216.44l136.32 215.31c16.7305 28.3896 -6.78906 62.0596 -34.0586 62.0596h-12.5996
v10.0195h225.48v-10.0195h-14c-42 0 -79.5195 -27.9004 -100.8 -58.7705l-175.24 -258.02l194.26 -305.14c21.3096 -30.7598 58.7295 -58.0596 100.609 -58.0596z" />
    <glyph glyph-name="Y" unicode="Y" horiz-adv-x="661" 
d="M449.87 700.02l221.8 -0.00976562v-10.0195h-14c-41.6797 0 -78.9492 -27.4805 -100.31 -58.0703l-197.73 -319.63v-239.43c0.650391 -34.8301 29.0508 -62.8799 64.0508 -62.8799h12.6504l0.160156 -10h-218.75l0.160156 10h12.6504
c34.8096 0 63.0791 27.7402 64.0391 62.2998v241.02l-190.4 318.31c-19.3701 30.71 -58.7305 58.4297 -100.551 58.4297h-13.6299v9.96973h245.92v-9.96973h-12.5996c-29.2695 0 -49.7295 -33.7002 -35.0195 -62.0898l149.84 -279.85l159.37 279.94l0.530273 0.929688
c15.5596 28.1699 -8.63086 61.0303 -35.5811 61.0303h-12.5996v10.0195z" />
    <glyph glyph-name="Yacute" unicode="&#xdd;" horiz-adv-x="661" 
d="M340.04 763.97l-7 7.01953c42.3203 45.6299 84.6406 90.2598 126.961 130.89c15.6299 -15.54 30.2695 -33.0801 40.8994 -52.6201c-53.6201 -31.4297 -107.24 -58.8594 -160.86 -85.2891zM449.86 700.039l221.8 -0.00976562v-10.0195h-14
c-41.6797 0 -78.9492 -27.4805 -100.31 -58.0703l-197.73 -319.63v-239.43c0.650391 -34.8301 29.0508 -62.8799 64.0508 -62.8799h12.6504l0.160156 -10h-218.75l0.160156 10h12.6504c34.8096 0 63.0791 27.7402 64.0391 62.2998v241.02l-190.4 318.31
c-19.3701 30.71 -58.7305 58.4297 -100.551 58.4297h-13.6299v9.96973h245.92v-9.96973h-12.5996c-29.2695 0 -49.7295 -33.7002 -35.0195 -62.0898l149.84 -279.85l159.37 279.94l0.530273 0.929688c15.5596 28.1699 -8.63086 61.0303 -35.5811 61.0303h-12.5996v10.0195z
" />
    <glyph glyph-name="Ycircumflex" unicode="&#x176;" horiz-adv-x="661" 
d="M334.9 889.74l-106.12 -118.75l6 -8l104.66 66l113.64 -66.0996l6 8l-114.18 118.85h-10zM449.87 700.03l221.8 -0.00976562v-10.0195h-14c-41.6797 0 -78.9492 -27.4805 -100.31 -58.0703l-197.73 -319.63v-239.43c0.650391 -34.8301 29.0508 -62.8799 64.0508 -62.8799
h12.6504l0.160156 -10h-218.75l0.160156 10h12.6504c34.8096 0 63.0791 27.7402 64.0391 62.2998v241.02l-190.4 318.31c-19.3701 30.71 -58.7305 58.4297 -100.551 58.4297h-13.6299v9.96973h245.92v-9.96973h-12.5996c-29.2695 0 -49.7295 -33.7002 -35.0195 -62.0898
l149.84 -279.85l159.37 279.94l0.530273 0.929688c15.5596 28.1699 -8.63086 61.0303 -35.5811 61.0303h-12.5996v10.0195z" />
    <glyph glyph-name="Ydieresis" unicode="&#x178;" horiz-adv-x="661" 
d="M245.91 764.1c-21.5801 0 -39.0801 17.5 -39.0801 39.0801s17.5 39.0801 39.0801 39.0801s39.0801 -17.5 39.0801 -39.0801s-17.5 -39.0801 -39.0801 -39.0801zM434.28 764.1c-21.5801 0 -39.0801 17.5 -39.0801 39.0801s17.5 39.0801 39.0801 39.0801
s39.0801 -17.5 39.0801 -39.0801s-17.5 -39.0801 -39.0801 -39.0801zM449.86 700.02l221.8 -0.00976562v-10.0195h-14c-41.6797 0 -78.9492 -27.4805 -100.31 -58.0703l-197.73 -319.63v-239.43c0.650391 -34.8301 29.0508 -62.8799 64.0508 -62.8799h12.6504l0.160156 -10
h-218.75l0.160156 10h12.6504c34.8096 0 63.0791 27.7402 64.0391 62.2998v241.02l-190.4 318.31c-19.3701 30.71 -58.7305 58.4297 -100.551 58.4297h-13.6299v9.96973h245.92v-9.96973h-12.5996c-29.2695 0 -49.7295 -33.7002 -35.0195 -62.0898l149.84 -279.85
l159.37 279.94l0.530273 0.929688c15.5596 28.1699 -8.63086 61.0303 -35.5811 61.0303h-12.5996v10.0195z" />
    <glyph glyph-name="Ygrave" unicode="&#x1ef2;" horiz-adv-x="661" 
d="M347.11 771l-7 -7.01953c-53.6201 25.4297 -107.24 53.8594 -160.86 85.2891c10.6299 20.54 25.2695 38.0801 40.8994 52.6201c42.3203 -40.6299 84.6406 -84.2598 126.961 -130.89zM449.87 700l221.8 -0.00976562v-10.0195h-14
c-41.6797 0 -78.9492 -27.4805 -100.31 -58.0703l-197.73 -319.63v-239.43c0.650391 -34.8301 29.0508 -62.8799 64.0508 -62.8799h12.6504l0.160156 -10h-218.75l0.160156 10h12.6504c34.8096 0 63.0791 27.7402 64.0391 62.2998v241.02l-190.4 318.31
c-19.3701 30.71 -58.7305 58.4297 -100.551 58.4297h-13.6299v9.96973h245.92v-9.96973h-12.5996c-29.2695 0 -49.7295 -33.7002 -35.0195 -62.0898l149.84 -279.85l159.37 279.94l0.530273 0.929688c15.5596 28.1699 -8.63086 61.0303 -35.5811 61.0303h-12.5996v10.0195z
" />
    <glyph glyph-name="Z" unicode="Z" horiz-adv-x="651" 
d="M616.84 154.44l-33.1787 -154.438h-2.5h-521.19l0.179688 9.32031l420.06 661.53h-337.48c-32.3701 -0.669922 -58.4199 -27.0801 -58.4199 -59.6201v-17.8203l-10.0195 -0.150391v80.2998v16.3496v29.2803c18.9502 -7.99023 78.5703 -18.2002 121.931 -18.1006h277.39
c40.2197 0 94.1699 6.71973 105.97 12.8994v-8.66992l-427.21 -675.59h317.77c74.54 0.0498047 117.7 54.8701 136.7 124.71h10z" />
    <glyph glyph-name="Zacute" unicode="&#x179;" horiz-adv-x="651" 
d="M323.93 763.97l-7 7.01953c42.3203 45.6299 84.6406 90.2598 126.961 130.89c15.6299 -15.54 30.2695 -33.0801 40.8994 -52.6201c-53.6201 -31.4297 -107.24 -58.8594 -160.86 -85.2891zM616.84 154.459l-33.1787 -154.438h-2.5h-521.19l0.179688 9.32031l420.06 661.53
h-337.48c-32.3701 -0.669922 -58.4199 -27.0801 -58.4199 -59.6201v-17.8203l-10.0195 -0.150391v80.2998v16.3496v29.2803c18.9502 -7.99023 78.5703 -18.2002 121.931 -18.1006h277.39c40.2197 0 94.1699 6.71973 105.97 12.8994v-8.66992l-427.21 -675.59h317.77
c74.54 0.0498047 117.7 54.8701 136.7 124.71h10z" />
    <glyph glyph-name="Zcaron" unicode="&#x17d;" horiz-adv-x="651" 
d="M328.95 764.15l106.12 118.75l-6 8l-104.66 -66l-113.64 66.0996l-6 -8l114.18 -118.85h10zM616.83 154.431l-33.1787 -154.438h-2.5h-521.19l0.179688 9.32031l420.06 661.53h-337.48c-32.3701 -0.669922 -58.4199 -27.0801 -58.4199 -59.6201v-17.8203
l-10.0195 -0.150391v80.2998v16.3496v29.2803c18.9502 -7.99023 78.5703 -18.2002 121.931 -18.1006h277.39c40.2197 0 94.1699 6.71973 105.97 12.8994v-8.66992l-427.21 -675.59h317.77c74.54 0.0498047 117.7 54.8701 136.7 124.71h10z" />
    <glyph glyph-name="Zdotaccent" unicode="&#x17b;" horiz-adv-x="651" 
d="M322.61 764.6c-23.7998 0 -43.0898 19.29 -43.0898 43.0898s19.29 43.0898 43.0898 43.0898s43.0898 -19.29 43.0898 -43.0898s-19.29 -43.0898 -43.0898 -43.0898zM616.851 154.449l-33.1787 -154.438h-2.5h-521.19l0.179688 9.32031l420.06 661.53h-337.48
c-32.3701 -0.669922 -58.4199 -27.0801 -58.4199 -59.6201v-17.8203l-10.0195 -0.150391v80.2998v16.3496v29.2803c18.9502 -7.99023 78.5703 -18.2002 121.931 -18.1006h277.39c40.2197 0 94.1699 6.71973 105.97 12.8994v-8.66992l-427.21 -675.59h317.77
c74.54 0.0498047 117.7 54.8701 136.7 124.71h10z" />
    <glyph glyph-name="a" unicode="a" horiz-adv-x="663" 
d="M336.34 614l246.931 -545.72c20.3896 -41.1299 50.4795 -58.2803 77.1895 -58.2803h7.55957v-10h-205.42v9.91016h7.9502c22.7998 0 48.4395 21.71 35.3398 60.0195l-54.6299 133.07h-252.97l-55.0498 -130.32c-15.2803 -40.0195 11.0098 -62.7793 34.3496 -62.7793
h7.9502v-9.91016h-190.54v10h7.92969c26.6104 0 57.8906 17.0098 78.4004 57.7598l207.04 443.25c-0.290039 0 36.4297 76.8398 38.4893 103h9.48047zM210.971 232.99h227.979l-112.35 273.66z" />
    <glyph glyph-name="aacute" unicode="&#xe1;" horiz-adv-x="663" 
d="M332.06 663.97l-7 7.01953c42.3203 45.6299 84.6406 90.2598 126.961 130.89c15.6299 -15.54 30.2695 -33.0801 40.8994 -52.6201c-53.6201 -31.4297 -107.24 -58.8594 -160.86 -85.2891zM336.34 614.02l246.931 -545.72
c20.3896 -41.1299 50.4795 -58.2803 77.1895 -58.2803h7.55957v-10h-205.42v9.91016h7.9502c22.7998 0 48.4395 21.71 35.3398 60.0195l-54.6299 133.07h-252.97l-55.0498 -130.32c-15.2803 -40.0195 11.0098 -62.7793 34.3496 -62.7793h7.9502v-9.91016h-190.54v10h7.92969
c26.6104 0 57.8906 17.0098 78.4004 57.7598l207.04 443.25c-0.290039 0 36.4297 76.8398 38.4893 103h9.48047zM210.971 233.01h227.979l-112.35 273.66z" />
    <glyph glyph-name="abreve" unicode="&#x103;" horiz-adv-x="663" 
d="M425.34 767.73h9.98047c0 -56.2598 -47.0898 -103.64 -103.01 -103.64s-103.01 47.3799 -103.01 103.64h10c10 -26.8203 46.5098 -53.6406 93.0195 -53.6406s83.0195 26.8203 93.0195 53.6406zM336.32 614l246.931 -545.72
c20.3896 -41.1299 50.4795 -58.2803 77.1895 -58.2803h7.55957v-10h-205.42v9.91016h7.9502c22.7998 0 48.4395 21.71 35.3398 60.0195l-54.6299 133.07h-252.97l-55.0498 -130.32c-15.2803 -40.0195 11.0098 -62.7793 34.3496 -62.7793h7.9502v-9.91016h-190.54v10h7.92969
c26.6104 0 57.8906 17.0098 78.4004 57.7598l207.04 443.25c-0.290039 0 36.4297 76.8398 38.4893 103h9.48047zM210.951 232.99h227.979l-112.35 273.66z" />
    <glyph glyph-name="acircumflex" unicode="&#xe2;" horiz-adv-x="663" 
d="M326.92 789.74l-106.12 -118.75l6 -8l104.66 66l113.64 -66.0996l6 8l-114.18 118.85h-10zM336.35 614.01l246.931 -545.72c20.3896 -41.1299 50.4795 -58.2803 77.1895 -58.2803h7.55957v-10h-205.42v9.91016h7.9502c22.7998 0 48.4395 21.71 35.3398 60.0195
l-54.6299 133.07h-252.97l-55.0498 -130.32c-15.2803 -40.0195 11.0098 -62.7793 34.3496 -62.7793h7.9502v-9.91016h-190.54v10h7.92969c26.6104 0 57.8906 17.0098 78.4004 57.7598l207.04 443.25c-0.290039 0 36.4297 76.8398 38.4893 103h9.48047zM210.98 233h227.979
l-112.35 273.66z" />
    <glyph glyph-name="adieresis" unicode="&#xe4;" horiz-adv-x="663" 
d="M237.93 664.1c-21.5801 0 -39.0801 17.5 -39.0801 39.0801s17.5 39.0801 39.0801 39.0801s39.0801 -17.5 39.0801 -39.0801s-17.5 -39.0801 -39.0801 -39.0801zM426.3 664.1c-21.5801 0 -39.0801 17.5 -39.0801 39.0801s17.5 39.0801 39.0801 39.0801
s39.0801 -17.5 39.0801 -39.0801s-17.5 -39.0801 -39.0801 -39.0801zM336.34 614l246.931 -545.72c20.3896 -41.1299 50.4795 -58.2803 77.1895 -58.2803h7.55957v-10h-205.42v9.91016h7.9502c22.7998 0 48.4395 21.71 35.3398 60.0195l-54.6299 133.07h-252.97
l-55.0498 -130.32c-15.2803 -40.0195 11.0098 -62.7793 34.3496 -62.7793h7.9502v-9.91016h-190.54v10h7.92969c26.6104 0 57.8906 17.0098 78.4004 57.7598l207.04 443.25c-0.290039 0 36.4297 76.8398 38.4893 103h9.48047zM210.971 232.99h227.979l-112.35 273.66z" />
    <glyph glyph-name="agrave" unicode="&#xe0;" horiz-adv-x="663" 
d="M339.13 671l-7 -7.01953c-53.6201 25.4297 -107.24 53.8594 -160.86 85.2891c10.6299 20.54 25.2695 38.0801 40.8994 52.6201c42.3203 -40.6299 84.6406 -84.2598 126.961 -130.89zM336.34 613.98l246.931 -545.72c20.3896 -41.1299 50.4795 -58.2803 77.1895 -58.2803
h7.55957v-10h-205.42v9.91016h7.9502c22.7998 0 48.4395 21.71 35.3398 60.0195l-54.6299 133.07h-252.97l-55.0498 -130.32c-15.2803 -40.0195 11.0098 -62.7793 34.3496 -62.7793h7.9502v-9.91016h-190.54v10h7.92969c26.6104 0 57.8906 17.0098 78.4004 57.7598
l207.04 443.25c-0.290039 0 36.4297 76.8398 38.4893 103h9.48047zM210.971 232.971h227.979l-112.35 273.66z" />
    <glyph glyph-name="amacron" unicode="&#x101;" horiz-adv-x="663" 
d="M209.95 695.36v35h250v-35h-250zM336.34 614l246.931 -545.72c20.3896 -41.1299 50.4795 -58.2803 77.1895 -58.2803h7.55957v-10h-205.42v9.91016h7.9502c22.7998 0 48.4395 21.71 35.3398 60.0195l-54.6299 133.07h-252.97l-55.0498 -130.32
c-15.2803 -40.0195 11.0098 -62.7793 34.3496 -62.7793h7.9502v-9.91016h-190.54v10h7.92969c26.6104 0 57.8906 17.0098 78.4004 57.7598l207.04 443.25c-0.290039 0 36.4297 76.8398 38.4893 103h9.48047zM210.971 232.99h227.979l-112.35 273.66z" />
    <glyph glyph-name="aogonek" unicode="&#x105;" horiz-adv-x="633" 
d="M663.61 10l0.00195312 -9.99121c-50.9805 0 -129.471 10.4805 -170.871 0c-39.3301 -10 -52.0605 -39 -50.9502 -71c2 -57 72.8398 -93 121.97 -42l6 -6c-30.2197 -82 -172.689 -79 -174.01 37c-0.459961 39 27.4502 75 76.1299 91.9102
c24.3896 8.24023 48.1299 22.6201 32.9697 62.5498l-53.5898 130.53h-252.97l-55.0498 -130.32c-15.2803 -40.0195 11.0098 -62.7793 34.3496 -62.7793h7.9502v-9.91016h-190.54v10h7.92969c26.6104 0 57.9004 17.0098 78.4102 57.7695l207.03 443.23
c-0.290039 0 36.4297 76.8398 38.4893 103h9.48047l250.72 -554.08c19.2197 -35.0996 45.6797 -49.9092 69.3398 -49.9092h7.20996zM210.973 233.009h227.979l-112.35 273.65z" />
    <glyph glyph-name="aring" unicode="&#xe5;" horiz-adv-x="663" 
d="M332.32 814.28c53.3701 0 93.7998 -27.7998 93.7998 -74.96c0 -43.8496 -40.4297 -74.96 -93.7998 -74.96s-93.7998 31.1104 -93.7998 74.96s40.4297 74.96 93.7998 74.96zM332.32 797.12c-27.6504 0 -49.0107 -20.5996 -49.0107 -57.8096
s21.3604 -57.8096 49.0107 -57.8096s49.0107 20.5996 49.0107 57.8096s-21.3604 57.8096 -49.0107 57.8096zM336.34 613.99l246.931 -545.72c20.3896 -41.1299 50.4795 -58.2803 77.1895 -58.2803h7.55957v-10h-205.42v9.91016h7.9502
c22.7998 0 48.4395 21.71 35.3398 60.0195l-54.6299 133.07h-252.97l-55.0498 -130.32c-15.2803 -40.0195 11.0098 -62.7793 34.3496 -62.7793h7.9502v-9.91016h-190.54v10h7.92969c26.6104 0 57.8906 17.0098 78.4004 57.7598l207.04 443.25
c-0.290039 0 36.4297 76.8398 38.4893 103h9.48047zM210.971 232.98h227.979l-112.35 273.66z" />
    <glyph glyph-name="atilde" unicode="&#xe3;" horiz-adv-x="663" 
d="M467.77 742.52l-9.99805 0.00976562c-9.42969 -22.8398 -27.1602 -33.5898 -55.4004 -33.5898c-34.3096 0 -75.1895 42.7998 -120.439 42.7998c-32.3604 0 -56.7607 -32.2002 -64.2012 -84.7305h10c11.1396 27.7002 28.4795 40.7305 54.1992 40.7305
c32.25 0 77.4404 -43.7998 120.44 -43.7998c34.8701 0 59.7197 29.8604 65.3994 78.5801zM336.342 614.01l246.931 -545.72c20.3896 -41.1299 50.4795 -58.2803 77.1895 -58.2803h7.55957v-10h-205.42v9.91016h7.9502c22.7998 0 48.4395 21.71 35.3398 60.0195
l-54.6299 133.07h-252.97l-55.0498 -130.32c-15.2803 -40.0195 11.0098 -62.7793 34.3496 -62.7793h7.9502v-9.91016h-190.54v10h7.92969c26.6104 0 57.8906 17.0098 78.4004 57.7598l207.04 443.25c-0.290039 0 36.4297 76.8398 38.4893 103h9.48047zM210.973 233h227.979
l-112.35 273.66z" />
    <glyph glyph-name="ae" unicode="&#xe6;" horiz-adv-x="834" 
d="M799.72 123.65l-47.9727 -123.745h-370.01l0.110352 10h8.38965c23.21 0 42.04 17.2197 42.4805 40.3193v220.74h-152.59l-140.05 -219.89c-8.84961 -21.9902 2.75 -41.1602 26.2803 -41.1602h8.13965v-10h-179.47v10h6.03027c28.6104 0 62.4805 24.2002 79.4902 51.5098
h1.11035l349.08 500.58c6.7998 14.9004 -2.56055 29.8008 -18.7305 29.8008h-3.4502v8.62012h239.08c37.1602 0 86.8105 8.94043 102.811 15.6807v-103.35l-10 0.110352v12.7002c0 23.21 -19.2197 42.04 -42.3193 42.4902h-200.38v-266.14h165.69
c23.0996 0.44043 41.6992 19.2705 41.6992 42.4805v12.7002l10 0.110352v-138.43l-10 0.110352v9.7002c0.0400391 22.9102 -18.1201 41.5498 -40.7998 42.4502h-166.59v-240.68h161.76c67.8496 0.75 107.109 39.5703 129.59 93.29h10.6201zM299.787 301.815h132.93v208.71z
" />
    <glyph glyph-name="b" unicode="b" horiz-adv-x="570" 
d="M55 599.95l204.001 -0.0410156c71.8496 0 208.06 -16.71 208.06 -149.64c0 -61.7402 -55.1504 -110.76 -109.94 -123.89c96.8799 -11.8096 168.05 -78.1299 168.05 -158.52c0 -130.42 -124.11 -167.9 -222.641 -167.9h-247.54l0.160156 10h11.7998
c33.6504 0 58.9902 24.3301 59.9102 53.9502v472.4c-1.01953 32.4199 -26.3193 53.6895 -59.8994 53.6895h-11.7998zM189.711 29.959l112.149 0.00976562c86.1504 0 151.65 42.5801 151.65 137.9c0 127.72 -124.37 149.12 -232.09 149.12l-0.219727 10
c72.7803 0 175.61 13.4697 175.61 123.35c0 83.75 -51.4805 119.65 -139.091 119.65h-68.0098v-540.03z" />
    <glyph glyph-name="c" unicode="c" horiz-adv-x="705" 
d="M656.87 251.85l8.7793 0.0927734l-10.5996 -136.95c-51.96 -79.9404 -157.21 -128.94 -275.41 -128.94c-202.59 1 -329.979 120.24 -329.979 314c0 194.68 127.53 314 329.98 314c83.3203 0 172.5 -23 234.21 -60.5303l22.0996 -141.24h-8.79004
c-30.6396 122.52 -123.97 171.81 -247.97 171.81c-158.36 0 -257.23 -107.95 -257.23 -284.08c0 -172.92 99.0303 -281.57 258.03 -283.011c149.09 -1.34961 266.13 71 276.88 234.85z" />
    <glyph glyph-name="cacute" unicode="&#x107;" horiz-adv-x="705" 
d="M380.06 663.97l-7 7.01953c42.3203 45.6299 84.6406 90.2598 126.961 130.89c15.6299 -15.54 30.2695 -33.0801 40.8994 -52.6201c-53.6201 -31.4297 -107.24 -58.8594 -160.86 -85.2891zM656.869 251.869l8.7793 0.0927734l-10.5996 -136.95
c-51.96 -79.9404 -157.21 -128.94 -275.41 -128.94c-202.59 1 -329.979 120.24 -329.979 314c0 194.68 127.53 314 329.98 314c83.3203 0 172.5 -23 234.21 -60.5303l22.0996 -141.24h-8.79004c-30.6396 122.52 -123.97 171.81 -247.97 171.81
c-158.36 0 -257.23 -107.95 -257.23 -284.08c0 -172.92 99.0303 -281.57 258.03 -283.011c149.09 -1.34961 266.13 71 276.88 234.85z" />
    <glyph glyph-name="ccaron" unicode="&#x10d;" horiz-adv-x="705" 
d="M385.08 664.15l106.12 118.75l-6 8l-104.66 -66l-113.64 66.0996l-6 -8l114.18 -118.85h10zM656.86 251.841l8.7793 0.0927734l-10.5996 -136.95c-51.96 -79.9404 -157.21 -128.94 -275.41 -128.94c-202.59 1 -329.979 120.24 -329.979 314
c0 194.68 127.53 314 329.98 314c83.3203 0 172.5 -23 234.21 -60.5303l22.0996 -141.24h-8.79004c-30.6396 122.52 -123.97 171.81 -247.97 171.81c-158.36 0 -257.23 -107.95 -257.23 -284.08c0 -172.92 99.0303 -281.57 258.03 -283.011
c149.09 -1.34961 266.13 71 276.88 234.85z" />
    <glyph glyph-name="ccedilla" unicode="&#xe7;" horiz-adv-x="705" 
d="M656.87 251.85l8.79004 0.0830078l-10.5996 -136.95c-49.4805 -76.1396 -147.311 -124.21 -258.631 -128.61l-40.2402 -47.3301c34.9902 12 102.681 11 104.851 -58c2 -63 -73.7402 -94 -140.76 -73l0.730469 10c41.0195 0 91.7695 16 90.0293 64
c-1.5 42 -48.1396 48 -83.7695 33l-5 10l46.54 61.1699c-196.29 5.13965 -319.15 123.55 -319.15 313.84c0 194.68 127.53 314 329.98 314c83.3203 0 172.5 -23 234.21 -60.5303l22.0996 -141.24h-8.79004c-30.6396 122.52 -123.97 171.81 -247.97 171.81
c-158.36 0 -257.23 -107.95 -257.23 -284.08c0 -172.92 99.0303 -281.57 258.03 -283.011c149.09 -1.34961 266.13 71 276.88 234.85z" />
    <glyph glyph-name="cdotaccent" unicode="&#x10b;" horiz-adv-x="705" 
d="M378.74 664.6c-23.7998 0 -43.0898 19.29 -43.0898 43.0898s19.29 43.0898 43.0898 43.0898s43.0898 -19.29 43.0898 -43.0898s-19.29 -43.0898 -43.0898 -43.0898zM656.88 251.85l8.7793 0.0927734l-10.5996 -136.95c-51.96 -79.9404 -157.21 -128.94 -275.41 -128.94
c-202.59 1 -329.979 120.24 -329.979 314c0 194.68 127.53 314 329.98 314c83.3203 0 172.5 -23 234.21 -60.5303l22.0996 -141.24h-8.79004c-30.6396 122.52 -123.97 171.81 -247.97 171.81c-158.36 0 -257.23 -107.95 -257.23 -284.08
c0 -172.92 99.0303 -281.57 258.03 -283.011c149.09 -1.34961 266.13 71 276.88 234.85z" />
    <glyph glyph-name="d" unicode="d" horiz-adv-x="760" 
d="M55 599.97l333.541 -0.0996094c197.23 0 321.511 -114.1 321.511 -300.26c0 -185.78 -124.28 -299.65 -321.511 -299.65h-333.56l0.169922 10h13.3096c31.5195 0 55.2197 24.5 56.0996 54.2803v471.88c-1.03027 31.5596 -25.7607 53.9395 -57.1504 53.9395h-12.2402z
M189.671 569.83v-539.511h199.37c153.55 0 248.71 102.32 248.71 269.271c0 167.55 -95.1904 270.24 -248.71 270.24h-199.37z" />
    <glyph glyph-name="eth" unicode="&#xf0;" horiz-adv-x="760" 
d="M55 599.97l333.541 -0.0996094c197.23 0 321.511 -114.1 321.511 -300.26c0 -185.78 -124.28 -299.65 -321.511 -299.65h-333.56l0.169922 10h13.3096c31.5195 0 55.2197 24.5 56.0996 54.2803v220.75h-62.7402v30h62.7402v221.13
c-1.03027 31.5596 -25.7607 53.9395 -57.1504 53.9395h-12.2402zM189.671 284.91v-254.601h199.37c153.55 0 248.71 102.32 248.71 269.271c0 167.55 -95.1904 270.24 -248.71 270.24h-199.37v-254.91h157.16v-30h-157.16z" />
    <glyph glyph-name="dcaron" unicode="&#x10f;" horiz-adv-x="760" 
d="M392.88 665.15l106.12 118.75l-6 8l-104.66 -66l-113.64 66.0996l-6 -8l114.18 -118.85h10zM55.0303 599.971l333.541 -0.0996094c197.23 0 321.511 -114.1 321.511 -300.26c0 -185.78 -124.28 -299.65 -321.511 -299.65h-333.56l0.169922 10h13.3096
c31.5195 0 55.2197 24.5 56.0996 54.2803v471.88c-1.03027 31.5596 -25.7607 53.9395 -57.1504 53.9395h-12.2402zM189.701 569.831v-539.511h199.37c153.55 0 248.71 102.32 248.71 269.271c0 167.55 -95.1904 270.24 -248.71 270.24h-199.37z" />
    <glyph glyph-name="dcroat" unicode="&#x111;" horiz-adv-x="760" 
d="M265.74 696.36v35h250v-35h-250zM55.0303 599.971l333.541 -0.0996094c197.23 0 321.511 -114.1 321.511 -300.26c0 -185.78 -124.28 -299.65 -321.511 -299.65h-333.56l0.169922 10h13.3096c31.5195 0 55.2197 24.5 56.0996 54.2803v471.88
c-1.03027 31.5596 -25.7607 53.9395 -57.1504 53.9395h-12.2402zM189.701 569.831v-539.511h199.37c153.55 0 248.71 102.32 248.71 269.271c0 167.55 -95.1904 270.24 -248.71 270.24h-199.37z" />
    <glyph glyph-name="e" unicode="e" horiz-adv-x="546" 
d="M516.39 143.45l-55.0908 -143.509h-406.25l0.179688 10h13.7305c32.2598 0 56.5195 23.5801 57.7295 53.0898v474.58c0 29.8096 -25.2598 52.3691 -57.7598 52.3691h-13.7305l-0.179688 10h292.13c40.2305 0.280273 94.3105 8.91016 111.721 15.6797v-113.16
l-10.8799 0.129883v15.3701c0 28.04 -19.7002 50.7998 -50.1406 51.3994h-207.35v-254.41h170.84c27.7305 0.580078 40.5303 19.3496 40.5303 42.46v12.7002l10.8799 0.110352v-140.46l-10.8799 0.110352v12.7002c0 22.46 -12.0801 40.8203 -38.2002 42.3799h-173.17
v-254.41h156.37c96.0703 1.29004 130.28 48.1396 158.681 112.87h10.8398z" />
    <glyph glyph-name="eacute" unicode="&#xe9;" horiz-adv-x="546" 
d="M296.91 663.97l-7 7.01953c42.3203 45.6299 84.6406 90.2598 126.961 130.89c15.6299 -15.54 30.2695 -33.0801 40.8994 -52.6201c-53.6201 -31.4297 -107.24 -58.8594 -160.86 -85.2891zM516.391 143.47l-55.0908 -143.509h-406.25l0.179688 10h13.7305
c32.2598 0 56.5195 23.5801 57.7295 53.0898v474.58c0 29.8096 -25.2598 52.3691 -57.7598 52.3691h-13.7305l-0.179688 10h292.13c40.2305 0.280273 94.3105 8.91016 111.721 15.6797v-113.16l-10.8799 0.129883v15.3701c0 28.04 -19.7002 50.7998 -50.1406 51.3994
h-207.35v-254.41h170.84c27.7305 0.580078 40.5303 19.3496 40.5303 42.46v12.7002l10.8799 0.110352v-140.46l-10.8799 0.110352v12.7002c0 22.46 -12.0801 40.8203 -38.2002 42.3799h-173.17v-254.41h156.37c96.0703 1.29004 130.28 48.1396 158.681 112.87h10.8398z" />
    <glyph glyph-name="ecaron" unicode="&#x11b;" horiz-adv-x="546" 
d="M301.93 664.15l106.12 118.75l-6 8l-104.66 -66l-113.64 66.0996l-6 -8l114.18 -118.85h10zM516.38 143.44l-55.0908 -143.509h-406.25l0.179688 10h13.7305c32.2598 0 56.5195 23.5801 57.7295 53.0898v474.58c0 29.8096 -25.2598 52.3691 -57.7598 52.3691h-13.7305
l-0.179688 10h292.13c40.2305 0.280273 94.3105 8.91016 111.721 15.6797v-113.16l-10.8799 0.129883v15.3701c0 28.04 -19.7002 50.7998 -50.1406 51.3994h-207.35v-254.41h170.84c27.7305 0.580078 40.5303 19.3496 40.5303 42.46v12.7002l10.8799 0.110352v-140.46
l-10.8799 0.110352v12.7002c0 22.46 -12.0801 40.8203 -38.2002 42.3799h-173.17v-254.41h156.37c96.0703 1.29004 130.28 48.1396 158.681 112.87h10.8398z" />
    <glyph glyph-name="ecircumflex" unicode="&#xea;" horiz-adv-x="546" 
d="M291.77 789.74l-106.12 -118.75l6 -8l104.66 66l113.64 -66.0996l6 8l-114.18 118.85h-10zM516.399 143.46l-55.0908 -143.509h-406.25l0.179688 10h13.7305c32.2598 0 56.5195 23.5801 57.7295 53.0898v474.58c0 29.8096 -25.2598 52.3691 -57.7598 52.3691h-13.7305
l-0.179688 10h292.13c40.2305 0.280273 94.3105 8.91016 111.721 15.6797v-113.16l-10.8799 0.129883v15.3701c0 28.04 -19.7002 50.7998 -50.1406 51.3994h-207.35v-254.41h170.84c27.7305 0.580078 40.5303 19.3496 40.5303 42.46v12.7002l10.8799 0.110352v-140.46
l-10.8799 0.110352v12.7002c0 22.46 -12.0801 40.8203 -38.2002 42.3799h-173.17v-254.41h156.37c96.0703 1.29004 130.28 48.1396 158.681 112.87h10.8398z" />
    <glyph glyph-name="edieresis" unicode="&#xeb;" horiz-adv-x="546" 
d="M202.78 664.1c-21.5801 0 -39.0801 17.5 -39.0801 39.0801s17.5 39.0801 39.0801 39.0801s39.0801 -17.5 39.0801 -39.0801s-17.5 -39.0801 -39.0801 -39.0801zM391.15 664.1c-21.5801 0 -39.0801 17.5 -39.0801 39.0801s17.5 39.0801 39.0801 39.0801
s39.0801 -17.5 39.0801 -39.0801s-17.5 -39.0801 -39.0801 -39.0801zM516.391 143.449l-55.0908 -143.509h-406.25l0.179688 10h13.7305c32.2598 0 56.5195 23.5801 57.7295 53.0898v474.58c0 29.8096 -25.2598 52.3691 -57.7598 52.3691h-13.7305l-0.179688 10h292.13
c40.2305 0.280273 94.3105 8.91016 111.721 15.6797v-113.16l-10.8799 0.129883v15.3701c0 28.04 -19.7002 50.7998 -50.1406 51.3994h-207.35v-254.41h170.84c27.7305 0.580078 40.5303 19.3496 40.5303 42.46v12.7002l10.8799 0.110352v-140.46l-10.8799 0.110352v12.7002
c0 22.46 -12.0801 40.8203 -38.2002 42.3799h-173.17v-254.41h156.37c96.0703 1.29004 130.28 48.1396 158.681 112.87h10.8398z" />
    <glyph glyph-name="edotaccent" unicode="&#x117;" horiz-adv-x="546" 
d="M295.59 664.6c-23.7998 0 -43.0898 19.29 -43.0898 43.0898s19.29 43.0898 43.0898 43.0898s43.0898 -19.29 43.0898 -43.0898s-19.29 -43.0898 -43.0898 -43.0898zM516.39 143.449l-55.0908 -143.509h-406.25l0.179688 10h13.7305
c32.2598 0 56.5195 23.5801 57.7295 53.0898v474.58c0 29.8096 -25.2598 52.3691 -57.7598 52.3691h-13.7305l-0.179688 10h292.13c40.2305 0.280273 94.3105 8.91016 111.721 15.6797v-113.16l-10.8799 0.129883v15.3701c0 28.04 -19.7002 50.7998 -50.1406 51.3994
h-207.35v-254.41h170.84c27.7305 0.580078 40.5303 19.3496 40.5303 42.46v12.7002l10.8799 0.110352v-140.46l-10.8799 0.110352v12.7002c0 22.46 -12.0801 40.8203 -38.2002 42.3799h-173.17v-254.41h156.37c96.0703 1.29004 130.28 48.1396 158.681 112.87h10.8398z" />
    <glyph glyph-name="egrave" unicode="&#xe8;" horiz-adv-x="546" 
d="M303.98 671l-7 -7.01953c-53.6201 25.4297 -107.24 53.8594 -160.86 85.2891c10.6299 20.54 25.2695 38.0801 40.8994 52.6201c42.3203 -40.6299 84.6406 -84.2598 126.961 -130.89zM516.391 143.431l-55.0908 -143.509h-406.25l0.179688 10h13.7305
c32.2598 0 56.5195 23.5801 57.7295 53.0898v474.58c0 29.8096 -25.2598 52.3691 -57.7598 52.3691h-13.7305l-0.179688 10h292.13c40.2305 0.280273 94.3105 8.91016 111.721 15.6797v-113.16l-10.8799 0.129883v15.3701c0 28.04 -19.7002 50.7998 -50.1406 51.3994
h-207.35v-254.41h170.84c27.7305 0.580078 40.5303 19.3496 40.5303 42.46v12.7002l10.8799 0.110352v-140.46l-10.8799 0.110352v12.7002c0 22.46 -12.0801 40.8203 -38.2002 42.3799h-173.17v-254.41h156.37c96.0703 1.29004 130.28 48.1396 158.681 112.87h10.8398z" />
    <glyph glyph-name="emacron" unicode="&#x113;" horiz-adv-x="546" 
d="M174.8 695.36v35h250v-35h-250zM516.39 143.45l-55.0908 -143.509h-406.25l0.179688 10h13.7305c32.2598 0 56.5195 23.5801 57.7295 53.0898v474.58c0 29.8096 -25.2598 52.3691 -57.7598 52.3691h-13.7305l-0.179688 10h292.13
c40.2305 0.280273 94.3105 8.91016 111.721 15.6797v-113.16l-10.8799 0.129883v15.3701c0 28.04 -19.7002 50.7998 -50.1406 51.3994h-207.35v-254.41h170.84c27.7305 0.580078 40.5303 19.3496 40.5303 42.46v12.7002l10.8799 0.110352v-140.46l-10.8799 0.110352v12.7002
c0 22.46 -12.0801 40.8203 -38.2002 42.3799h-173.17v-254.41h156.37c96.0703 1.29004 130.28 48.1396 158.681 112.87h10.8398z" />
    <glyph glyph-name="eogonek" unicode="&#x119;" horiz-adv-x="546" 
d="M461.27 0l-8.34082 -0.0585938c-55.3799 -13.0195 -75.7598 -40.0098 -74.4395 -78c2 -57 72.8398 -93 121.97 -42l6 -6c-30.2197 -82 -172.689 -79 -174.01 37c-0.509766 44.3398 35.0498 78.8896 81.96 89h-359.36l0.179688 10h13.7305
c32.2598 0 56.5195 23.5801 57.7295 53.0898v474.58c0 29.8096 -25.2598 52.3691 -57.7598 52.3691h-13.7305l-0.179688 10h292.13c40.2305 0.280273 94.3105 8.91016 111.721 15.6797v-113.16l-10.8799 0.129883v15.3701c0 28.04 -19.7002 50.7998 -50.1406 51.3994
h-207.35v-254.41h170.84c27.7305 0.580078 40.5303 19.3496 40.5303 42.46v12.7002l10.8799 0.110352v-140.46l-10.8799 0.110352v12.7002c0 22.46 -12.0801 40.8203 -38.2002 42.3799h-173.17v-254.41h156.37c96.0703 1.29004 130.28 48.1396 158.681 112.87h10.8398z" />
    <glyph glyph-name="f" unicode="f" horiz-adv-x="523" 
d="M191.38 600l158.67 -0.0292969c40.7402 0.280273 95.5098 8.91016 113.14 15.6797v-113.16l-11.0303 0.129883v15.3701c0 28.04 -19.79 50.7998 -50.2197 51.3994h-210.56v-254.41h173.45c27.8799 0.580078 40.6602 19.3496 40.6602 42.46v12.7002l11.0303 0.110352
v-140.46l-11.0303 0.110352v12.7002c0 22.46 -12.0596 40.8203 -38.3096 42.3799h-175.79v-221.19c0.799805 -29.8496 25.54 -53.8301 58.4404 -53.8301h13.9102l0.179688 -10h-208.89l0.179688 10h13.9102c32.6699 0 57.2197 23.5801 58.46 53.0801v474.61
c-0.900391 29.79 -25.5703 52.3496 -58.4805 52.3496h-13.9102l-0.19043 10h136.38z" />
    <glyph glyph-name="g" unicode="g" horiz-adv-x="742" 
d="M662.83 235.18l0.0205078 -120.331c-46.5703 -58.8496 -144 -128.81 -284.83 -128.81c-197.63 1 -328 120.21 -328 314c0 194.68 130.64 314 327.71 314c92.1396 0 166.02 -19.3701 233.449 -60.5303l22 -141.24h-8.75977
c-29.0596 116.83 -107.76 171.811 -247.609 171.811c-152.75 0 -254.5 -107.95 -254.5 -284.08c0 -175.36 102.28 -284 255.71 -284c83.25 0 157.13 25.6797 219.77 86.6602l1.66016 132.89c0.320312 25.1797 -17.3301 39.3301 -46.5498 39.2803h-14.2402v10.0098h183.41
v-10h-13.6504c-29.25 0 -45.71 -14.0596 -45.5898 -39.6592z" />
    <glyph glyph-name="gbreve" unicode="&#x11f;" horiz-adv-x="742" 
d="M471.34 767.73h9.98047c0 -56.2598 -47.0898 -103.64 -103.01 -103.64s-103.01 47.3799 -103.01 103.64h10c10 -26.8203 46.5098 -53.6406 93.0195 -53.6406s83.0195 26.8203 93.0195 53.6406zM662.811 235.181l0.0205078 -120.331
c-46.5703 -58.8496 -144 -128.81 -284.83 -128.81c-197.63 1 -328 120.21 -328 314c0 194.68 130.64 314 327.71 314c92.1396 0 166.02 -19.3701 233.449 -60.5303l22 -141.24h-8.75977c-29.0596 116.83 -107.76 171.811 -247.609 171.811
c-152.75 0 -254.5 -107.95 -254.5 -284.08c0 -175.36 102.28 -284 255.71 -284c83.25 0 157.13 25.6797 219.77 86.6602l1.66016 132.89c0.320312 25.1797 -17.3301 39.3301 -46.5498 39.2803h-14.2402v10.0098h183.41v-10h-13.6504
c-29.25 0 -45.71 -14.0596 -45.5898 -39.6592z" />
    <glyph glyph-name="gcommaaccent" unicode="&#x123;" horiz-adv-x="742" 
d="M662.83 235.18l0.0205078 -120.331c-46.5703 -58.8496 -144 -128.81 -284.83 -128.81c-197.63 1 -328 120.21 -328 314c0 194.68 130.64 314 327.71 314c92.1396 0 166.02 -19.3701 233.449 -60.5303l22 -141.24h-8.75977
c-29.0596 116.83 -107.76 171.811 -247.609 171.811c-152.75 0 -254.5 -107.95 -254.5 -284.08c0 -175.36 102.28 -284 255.71 -284c83.25 0 157.13 25.6797 219.77 86.6602l1.66016 132.89c0.320312 25.1797 -17.3301 39.3301 -46.5498 39.2803h-14.2402v10.0098h183.41
v-10h-13.6504c-29.25 0 -45.71 -14.0596 -45.5898 -39.6592zM341.551 -207.961l-1.95117 7c48.6396 15 40.6797 57 27 73c-10.4199 13 -27.3301 27 -18.3701 47c10.1904 23 49.1406 25 62.6709 -8c25.9902 -62 -17.0693 -117 -69.3496 -119z" />
    <glyph glyph-name="gdotaccent" unicode="&#x121;" horiz-adv-x="742" 
d="M376.74 664.6c-23.7998 0 -43.0898 19.29 -43.0898 43.0898s19.29 43.0898 43.0898 43.0898s43.0898 -19.29 43.0898 -43.0898s-19.29 -43.0898 -43.0898 -43.0898zM662.83 235.189l0.0205078 -120.331c-46.5703 -58.8496 -144 -128.81 -284.83 -128.81
c-197.63 1 -328 120.21 -328 314c0 194.68 130.64 314 327.71 314c92.1396 0 166.02 -19.3701 233.449 -60.5303l22 -141.24h-8.75977c-29.0596 116.83 -107.76 171.811 -247.609 171.811c-152.75 0 -254.5 -107.95 -254.5 -284.08c0 -175.36 102.28 -284 255.71 -284
c83.25 0 157.13 25.6797 219.77 86.6602l1.66016 132.89c0.320312 25.1797 -17.3301 39.3301 -46.5498 39.2803h-14.2402v10.0098h183.41v-10h-13.6504c-29.25 0 -45.71 -14.0596 -45.5898 -39.6592z" />
    <glyph glyph-name="h" unicode="h" horiz-adv-x="746" 
d="M691.88 0l-203.787 0.0107422l0.150391 10h11.4902c31.5596 0 57.2295 23.75 58.249 53.4102v217.67h-369.07v-217.62c0.990234 -29.6797 26.6699 -53.46 58.25 -53.46h11.4902l0.150391 -10h-203.78l0.150391 10h11.4902c31.8398 0 57.6396 24.1396 58.2598 54.1299
v471.7c-0.610352 30.0303 -26.4307 54.21 -58.3008 54.21h-11.4902l-0.150391 10h203.78l-0.120117 -10h-11.5195c-31.25 0 -56.7305 -23.2998 -58.2109 -52.5596v-226.4h369.06v224.75c-0.580078 30.0303 -26.4297 54.21 -58.2695 54.21h-11.4902l-0.150391 10h203.78
l-0.150391 -10h-11.4902c-31.2002 0 -56.6504 -23.2305 -58.2305 -52.4209v-474.39c1.13965 -29.5801 26.7695 -53.2402 58.2695 -53.2402h11.4902z" />
    <glyph glyph-name="hbar" unicode="&#x127;" horiz-adv-x="748" 
d="M694.32 424.92l-72.3672 0.03125v-361.71c1.13965 -29.5801 26.7695 -53.2402 58.2695 -53.2402h11.4902l0.150391 -10h-203.78l0.150391 10h11.4902c31.5596 0 57.2295 23.75 58.249 53.4102v217.67h-369.07v-217.62c0.990234 -29.6797 26.6699 -53.46 58.25 -53.46
h11.4902l0.150391 -10h-203.78l0.150391 10h11.4902c31.8398 0 57.6396 24.1396 58.2998 54.1299v360.81h-66.4102v30h66.3701v80.8799c-0.610352 30.0303 -26.4307 54.21 -58.3008 54.21h-11.4902l-0.150391 10h203.78l-0.120117 -10h-11.5195
c-31.25 0 -56.7305 -23.2998 -58.2109 -52.5596v-82.54h369.06v80.8799c-0.580078 30.0303 -26.4297 54.21 -58.2695 54.21h-11.4902l-0.150391 10h203.78l-0.150391 -10h-11.4902c-31.2002 0 -56.6504 -23.2305 -58.2305 -52.4209v-82.6797h72.3604v-30zM557.983 311.091
v113.86h-369.07v-113.86h369.07z" />
    <glyph glyph-name="i" unicode="i" horiz-adv-x="336" 
d="M281.59 0l-226.601 0.000976562l0.19043 10h13.3398c37.1904 0 67.21 24.1504 67.9697 54.1504v471.68c-0.759766 30.0303 -30.7998 54.21 -68.0195 54.21h-13.3398l-0.19043 10h226.54v-10h-13.4697c-36.3604 0 -66.0508 -23.2305 -67.8203 -52.4307v-474.24
c1.17969 -29.6396 31.1201 -53.3701 67.8701 -53.3701h13.3398z" />
    <glyph glyph-name="dotlessi" unicode="&#x131;" horiz-adv-x="306" 
d="M251.45 10l0.128906 -9.98926h-196.55l0.139648 10h10.9004c30.1396 0 54.5996 24.1396 55.1797 54.1299v471.7c-0.55957 30.0303 -25.04 54.21 -55.21 54.21h-10.9004l-0.139648 10h196.55l-0.139648 -10h-10.9004c-29.6299 0 -53.7695 -23.3203 -55.1592 -52.6006
v-473.98c0.950195 -29.6797 25.2803 -53.4697 55.2002 -53.4697h10.9004z" />
    <glyph glyph-name="iacute" unicode="&#xed;" horiz-adv-x="306" 
d="M153.51 663.97l-7 7.01953c42.3203 45.6299 84.6406 90.2598 126.961 130.89c15.6299 -15.54 30.2695 -33.0801 40.8994 -52.6201c-53.6201 -31.4297 -107.24 -58.8594 -160.86 -85.2891zM251.45 10.0195l0.128906 -9.98926h-196.55l0.139648 10h10.9004
c30.1396 0 54.5996 24.1396 55.1797 54.1299v471.7c-0.55957 30.0303 -25.04 54.21 -55.21 54.21h-10.9004l-0.139648 10h196.55l-0.139648 -10h-10.9004c-29.6299 0 -53.7695 -23.3203 -55.1592 -52.6006v-473.98c0.950195 -29.6797 25.2803 -53.4697 55.2002 -53.4697
h10.9004z" />
    <glyph glyph-name="icircumflex" unicode="&#xee;" horiz-adv-x="306" 
d="M148.37 789.74l-106.12 -118.75l6 -8l104.66 66l113.64 -66.0996l6 8l-114.18 118.85h-10zM251.46 10.0098l0.128906 -9.98926h-196.55l0.139648 10h10.9004c30.1396 0 54.5996 24.1396 55.1797 54.1299v471.7c-0.55957 30.0303 -25.04 54.21 -55.21 54.21h-10.9004
l-0.139648 10h196.55l-0.139648 -10h-10.9004c-29.6299 0 -53.7695 -23.3203 -55.1592 -52.6006v-473.98c0.950195 -29.6797 25.2803 -53.4697 55.2002 -53.4697h10.9004z" />
    <glyph glyph-name="idieresis" unicode="&#xef;" horiz-adv-x="306" 
d="M59.3701 664.1c-21.5801 0 -39.0801 17.5 -39.0801 39.0801s17.5 39.0801 39.0801 39.0801s39.0801 -17.5 39.0801 -39.0801s-17.5 -39.0801 -39.0801 -39.0801zM247.74 664.1c-21.5801 0 -39.0801 17.5 -39.0801 39.0801s17.5 39.0801 39.0801 39.0801
s39.0801 -17.5 39.0801 -39.0801s-17.5 -39.0801 -39.0801 -39.0801zM251.44 10l0.128906 -9.98926h-196.55l0.139648 10h10.9004c30.1396 0 54.5996 24.1396 55.1797 54.1299v471.7c-0.55957 30.0303 -25.04 54.21 -55.21 54.21h-10.9004l-0.139648 10h196.55
l-0.139648 -10h-10.9004c-29.6299 0 -53.7695 -23.3203 -55.1592 -52.6006v-473.98c0.950195 -29.6797 25.2803 -53.4697 55.2002 -53.4697h10.9004z" />
    <glyph glyph-name="igrave" unicode="&#xec;" horiz-adv-x="306" 
d="M160.57 671l-7 -7.01953c-53.6201 25.4297 -107.24 53.8594 -160.57 85.2891c10.3398 20.54 24.9795 38.0801 40.6094 52.6201c42.3203 -40.6299 84.6406 -84.2598 126.961 -130.89zM251.44 9.98047l0.128906 -9.98926h-196.55l0.139648 10h10.9004
c30.1396 0 54.5996 24.1396 55.1797 54.1299v471.7c-0.55957 30.0303 -25.04 54.21 -55.21 54.21h-10.9004l-0.139648 10h196.55l-0.139648 -10h-10.9004c-29.6299 0 -53.7695 -23.3203 -55.1592 -52.6006v-473.98c0.950195 -29.6797 25.2803 -53.4697 55.2002 -53.4697
h10.9004z" />
    <glyph glyph-name="ij" unicode="&#x133;" horiz-adv-x="645" 
d="M281.59 0l-226.601 0.000976562l0.19043 10h13.3398c37.1904 0 67.21 24.1504 67.9697 54.1504v471.68c-0.759766 30.0303 -30.7998 54.21 -68.0195 54.21h-13.3398l-0.19043 10h226.54v-10h-13.4697c-36.3604 0 -66.0508 -23.2305 -67.8203 -52.4307v-474.24
c1.17969 -29.6396 31.1201 -53.3701 67.8701 -53.3701h13.3398zM390.419 600.001h219.838l-0.160156 -10h-12.8496c-35.5596 0 -64.4092 -24.1797 -65.1191 -54.21v-535.81c0 -97 -84.6797 -178 -183.189 -178v10c63.8799 20 119.3 94 119.31 168v539.54
c-3.00977 28.1504 -30.8496 50.21 -64.8193 50.21h-12.8496z" />
    <glyph glyph-name="imacron" unicode="&#x12b;" horiz-adv-x="306" 
d="M31.4004 695.36v35h250v-35h-250zM251.45 10l0.128906 -9.98926h-196.55l0.139648 10h10.9004c30.1396 0 54.5996 24.1396 55.1797 54.1299v471.7c-0.55957 30.0303 -25.04 54.21 -55.21 54.21h-10.9004l-0.139648 10h196.55l-0.139648 -10h-10.9004
c-29.6299 0 -53.7695 -23.3203 -55.1592 -52.6006v-473.98c0.950195 -29.6797 25.2803 -53.4697 55.2002 -53.4697h10.9004z" />
    <glyph glyph-name="iogonek" unicode="&#x12f;" horiz-adv-x="307" 
d="M253.54 0l-78.0303 0.0107422c-55.4004 -13 -75.79 -40 -74.4697 -78c2 -57 72.8398 -93 121.97 -42l6 -6c-30.2197 -82 -172.689 -79 -174.01 37c-0.509766 44 35.0703 79 81.9902 89h-80l0.139648 10h10.9004c30.1396 0 54.5996 24.1396 55.1797 54.1299v471.7
c-0.55957 30.0303 -25.04 54.21 -55.21 54.21h-10.9004l-0.139648 10h196.55l-0.139648 -10h-10.9004c-29.6299 0 -53.7695 -23.3203 -55.1699 -52.6006v-473.98c0.950195 -29.6797 25.2803 -53.4697 55.2002 -53.4697h10.9004z" />
    <glyph glyph-name="j" unicode="j" horiz-adv-x="309" 
d="M54.4697 600h219.838l-0.160156 -10h-12.8496c-35.5596 0 -64.4092 -24.1797 -65.1191 -54.21v-535.81c0 -97 -84.6797 -178 -183.189 -178v10c63.8799 20 119.3 94 119.31 168v539.54c-3.00977 28.1504 -30.8496 50.21 -64.8193 50.21h-12.8496z" />
    <glyph glyph-name="k" unicode="k" horiz-adv-x="624" 
d="M293.64 321.04l247.952 -270.139c23.7598 -27.3604 44.0098 -39.79 87.5801 -40.8203v-9.94043h-37.5801c-30.1602 0.0996094 -99.8906 3.05957 -146.94 56.6494l-219.41 241.4l215.01 253.15c14.71 17.7305 1.30957 38.8701 -21.8809 38.8701h-8.88965v9.7998h203.24
v-9.7998h-4.03027c-38.3203 -0.0800781 -73.2607 -12.7402 -96.9912 -36.2305zM189.672 537.451l0.00195312 -474.031c1.01953 -29.6699 26.9492 -53.4395 58.8594 -53.4395h11.6396l0.150391 -10h-205.26l0.150391 10h11.6299c32.1396 0 58.2197 24.1201 58.8594 54.0898
v471.74c-0.599609 30.0303 -26.71 54.21 -58.9004 54.21h-11.6299l-0.150391 9.98047h205.26l-0.150391 -9.98047h-11.6396c-31.5898 0 -57.3203 -23.3096 -58.8203 -52.5693z" />
    <glyph glyph-name="kcommaaccent" unicode="&#x137;" horiz-adv-x="624" 
d="M189.65 537.45l0.00195312 -474.031c1.01953 -29.6699 26.9492 -53.4395 58.8594 -53.4395h11.6396l0.150391 -10h-205.26l0.150391 10h11.6299c32.1396 0 58.2197 24.1201 58.8594 54.0898v471.74c-0.599609 30.0303 -26.71 54.21 -58.9004 54.21h-11.6299
l-0.150391 9.98047h205.26l-0.150391 -9.98047h-11.6396c-31.5898 0 -57.3203 -23.3096 -58.8203 -52.5693zM293.643 321.029l247.952 -270.139c23.7598 -27.3604 44.0098 -39.79 87.5801 -40.8203v-9.94043h-37.5801c-30.1602 0.0996094 -99.8906 3.05957 -146.94 56.6494
l-219.41 241.4l215.01 253.15c14.71 17.7305 1.30957 38.8701 -21.8809 38.8701h-8.88965v9.7998h203.24v-9.7998h-4.03027c-38.3203 -0.0800781 -73.2607 -12.7402 -96.9912 -36.2305zM327.245 -208.02l-1.95117 7c48.6396 15 40.6797 57 27 73
c-10.4199 13 -27.3301 27 -18.3701 47c10.1904 23 49.1406 25 62.6709 -8c25.9902 -62 -17.0693 -117 -69.3496 -119z" />
    <glyph glyph-name="l" unicode="l" horiz-adv-x="536" 
d="M505.59 143.45l10.8408 -0.0107422l-55.1201 -143.45h-406.24l0.179688 10h13.7305c32.2598 0 56.5195 23.5801 57.6992 53.0898v472.73c-0.629883 30.0303 -27.0801 54.21 -59.75 54.21h-11.7695l-0.160156 10h207.18l-0.160156 -10h-11.7695
c-32.5801 0 -59.04 -24.1104 -59.71 -54.0801v-505.35h156.47c95.9902 1.32031 130.19 48.1602 158.58 112.86z" />
    <glyph glyph-name="lacute" unicode="&#x13a;" horiz-adv-x="536" 
d="M157.21 663.97l-7 7.01953c42.3203 45.6299 84.6406 90.2598 126.961 130.89c15.6299 -15.54 30.2695 -33.0801 40.8994 -52.6201c-53.6201 -31.4297 -107.24 -58.8594 -160.86 -85.2891zM505.6 143.47l10.8408 -0.0107422l-55.1201 -143.45h-406.24l0.179688 10h13.7305
c32.2598 0 56.5195 23.5801 57.6992 53.0898v472.73c-0.629883 30.0303 -27.0801 54.21 -59.75 54.21h-11.7695l-0.160156 10h207.18l-0.160156 -10h-11.7695c-32.5801 0 -59.04 -24.1104 -59.71 -54.0801v-505.35h156.47c95.9902 1.32031 130.19 48.1602 158.58 112.86z
" />
    <glyph glyph-name="lcaron" unicode="&#x13e;" horiz-adv-x="536" 
d="M355.72 458.54l-1.95117 6.60938c48.6396 15.7002 40.6797 57.0205 27 73.4502c-10.4199 12.4697 -27.3301 26.4697 -18.3701 46.8301c10.1904 23.1602 49.1406 24.8105 62.6709 -7.53906c25.9902 -62.3301 -17.0693 -117.7 -69.3496 -119.351zM505.589 143.449
l10.8408 -0.0107422l-55.1201 -143.45h-406.24l0.179688 10h13.7305c32.2598 0 56.5195 23.5801 57.6992 53.0898v472.73c-0.629883 30.0303 -27.0801 54.21 -59.75 54.21h-11.7695l-0.160156 10h207.18l-0.160156 -10h-11.7695c-32.5801 0 -59.04 -24.1104 -59.71 -54.0801
v-505.35h156.47c95.9902 1.32031 130.19 48.1602 158.58 112.86z" />
    <glyph glyph-name="lcommaaccent" unicode="&#x13c;" horiz-adv-x="536" 
d="M505.59 143.45l10.8408 -0.0107422l-55.1201 -143.45h-406.24l0.179688 10h13.7305c32.2598 0 56.5195 23.5801 57.6992 53.0898v472.73c-0.629883 30.0303 -27.0801 54.21 -59.75 54.21h-11.7695l-0.160156 10h207.18l-0.160156 -10h-11.7695
c-32.5801 0 -59.04 -24.1104 -59.71 -54.0801v-505.35h156.47c95.9902 1.32031 130.19 48.1602 158.58 112.86zM294.061 -208.011l-1.95117 7c48.6396 15 40.6797 57 27 73c-10.4199 13 -27.3301 27 -18.3701 47c10.1904 23 49.1406 25 62.6709 -8
c25.9902 -62 -17.0693 -117 -69.3496 -119z" />
    <glyph glyph-name="ldot" unicode="&#x140;" horiz-adv-x="536" 
d="M505.59 143.45l10.8408 -0.0107422l-55.1201 -143.45h-406.24l0.179688 10h13.7305c32.2598 0 56.5195 23.5801 57.6992 53.0898v472.73c-0.629883 30.0303 -27.0801 54.21 -59.75 54.21h-11.7695l-0.160156 10h207.18l-0.160156 -10h-11.7695
c-32.5801 0 -59.04 -24.1104 -59.71 -54.0801v-505.35h156.47c95.9902 1.32031 130.19 48.1602 158.58 112.86zM314.421 342.989c-24.8496 0 -45 20.1504 -45 45s20.1504 45 45 45s45 -20.1504 45 -45s-20.1504 -45 -45 -45z" />
    <glyph glyph-name="lslash" unicode="&#x142;" horiz-adv-x="536" 
d="M505.59 143.45l10.8311 -0.0400391l-55.1201 -143.45h-406.24l0.179688 10h13.7305c32.2598 0 56.5195 23.5801 57.7295 53.0898v192.51l-62.8096 -36.3496l-14.0195 24.9697l76.7998 44.3604v247.26c-0.629883 30.0303 -27.0801 54.21 -59.75 54.21h-11.7695
l-0.160156 10h207.18l-0.160156 -10h-11.7695c-32.5801 0 -59.04 -24.1104 -59.7002 -54.0801v-210.53l141.72 81.8203l15.0195 -23.9697l-156.74 -90.7197v-261.94h156.47c95.9902 1.32031 130.19 48.1602 158.58 112.86z" />
    <glyph glyph-name="m" unicode="m" horiz-adv-x="878" 
d="M707.41 613.7l80.1406 -548.889c5.58984 -34.6201 35.2197 -54.8105 68.2295 -54.8105h14.96v-9.99023h-207.77v9.44043h14.6396c20.2598 0.0400391 39.3994 17.0996 36.6396 38.6992l-52.5801 411.6l-188.37 -371.64s-28.6797 -60.7197 -35.5596 -102.109h-9.79004
l-240.86 464.65l-44.8896 -402.49c-2.30957 -20.7305 16.3809 -38.6602 36.6406 -38.7002h14.6396v-9.4502h-185.49v10h14.96c33.5898 0 63.6797 20.9297 68.4893 56.71l77.3799 547.29h9.82031l264.04 -507.9l255.23 507.59h9.5z" />
    <glyph glyph-name="n" unicode="n" horiz-adv-x="779" 
d="M555.2 600.02l188.869 -0.00976562l-0.139648 -10h-16.6299c-29.6396 0 -53.8496 -22.1299 -55.5801 -50.04v-426.42c0 -64.4297 9.49023 -127.58 9.49023 -127.58h-9.51953l-520.09 493.49v-417.26c0.55957 -28.9404 25.25 -52.25 55.6699 -52.25h16.6504l0.120117 -10
h-189.03l0.139648 10h16.6504c30.4199 0 55.0898 23.3096 55.6797 52.25v427.84c0 68.2695 -9.58008 124.93 -9.58008 124.93l10.7402 -0.5l518.93 -489.09v414.68c-1.7998 27.8701 -25.9902 49.96 -55.6006 49.96h-16.6299z" />
    <glyph glyph-name="nacute" unicode="&#x144;" horiz-adv-x="779" 
d="M387.95 663.97l-7 7.01953c42.3203 45.6299 84.6406 90.2598 126.961 130.89c15.6299 -15.54 30.2695 -33.0801 40.8994 -52.6201c-53.6201 -31.4297 -107.24 -58.8594 -160.86 -85.2891zM555.2 600.039l188.869 -0.00976562l-0.139648 -10h-16.6299
c-29.6396 0 -53.8496 -22.1299 -55.5801 -50.04v-426.42c0 -64.4297 9.49023 -127.58 9.49023 -127.58h-9.51953l-520.09 493.49v-417.26c0.55957 -28.9404 25.25 -52.25 55.6699 -52.25h16.6504l0.120117 -10h-189.03l0.139648 10h16.6504
c30.4199 0 55.0898 23.3096 55.6797 52.25v427.84c0 68.2695 -9.58008 124.93 -9.58008 124.93l10.7402 -0.5l518.93 -489.09v414.68c-1.7998 27.8701 -25.9902 49.96 -55.6006 49.96h-16.6299z" />
    <glyph glyph-name="ncaron" unicode="&#x148;" horiz-adv-x="779" 
d="M392.97 664.15l106.12 118.75l-6 8l-104.66 -66l-113.64 66.0996l-6 -8l114.18 -118.85h10zM555.189 600.011l188.869 -0.00976562l-0.139648 -10h-16.6299c-29.6396 0 -53.8496 -22.1299 -55.5801 -50.04v-426.42c0 -64.4297 9.49023 -127.58 9.49023 -127.58h-9.51953
l-520.09 493.49v-417.26c0.55957 -28.9404 25.25 -52.25 55.6699 -52.25h16.6504l0.120117 -10h-189.03l0.139648 10h16.6504c30.4199 0 55.0898 23.3096 55.6797 52.25v427.84c0 68.2695 -9.58008 124.93 -9.58008 124.93l10.7402 -0.5l518.93 -489.09v414.68
c-1.7998 27.8701 -25.9902 49.96 -55.6006 49.96h-16.6299z" />
    <glyph glyph-name="ncommaaccent" unicode="&#x146;" horiz-adv-x="779" 
d="M555.2 600.02l188.869 -0.00976562l-0.139648 -10h-16.6299c-29.6396 0 -53.8496 -22.1299 -55.5801 -50.04v-426.42c0 -64.4297 9.49023 -127.58 9.49023 -127.58h-9.51953l-520.09 493.49v-417.26c0.55957 -28.9404 25.25 -52.25 55.6699 -52.25h16.6504l0.120117 -10
h-189.03l0.139648 10h16.6504c30.4199 0 55.0898 23.3096 55.6797 52.25v427.84c0 68.2695 -9.58008 124.93 -9.58008 124.93l10.7402 -0.5l518.93 -489.09v414.68c-1.7998 27.8701 -25.9902 49.96 -55.6006 49.96h-16.6299zM364.119 -208.01l-1.95117 7
c48.6396 15 40.6797 57 27 73c-10.4199 13 -27.3301 27 -18.3701 47c10.1904 23 49.1406 25 62.6709 -8c25.9902 -62 -17.0693 -117 -69.3496 -119z" />
    <glyph glyph-name="eng" unicode="&#x14b;" horiz-adv-x="839" 
d="M560.34 600.02l183.721 -0.0195312l-0.129883 -10h-15.9102c-28.04 0 -50.9805 -21.6699 -53.0703 -49.1699v-557.87c0 -96 -54.5703 -145 -117.681 -158l-5.30957 8c41.7998 19 77.5596 72 77.5596 152v40.9697l-477.92 453.52v-417.26
c0.55957 -28.9404 25.25 -52.25 55.6699 -52.25h16.6504l0.120117 -10h-189.03l0.139648 10h16.6504c30.4199 0 55.0898 23.3096 55.6797 52.25v427.84c0 68.2695 -9.58008 124.93 -9.58008 124.93l10.7402 -0.5l520.87 -490.9v416.53
c0 27.8604 -24.8301 49.9307 -53.1299 49.9307h-15.9102z" />
    <glyph glyph-name="ntilde" unicode="&#xf1;" horiz-adv-x="779" 
d="M523.65 742.52l-9.99805 0.00976562c-9.42969 -22.8398 -27.1602 -33.5898 -55.4004 -33.5898c-34.3096 0 -75.1895 42.7998 -120.439 42.7998c-32.3604 0 -56.7607 -32.2002 -64.2012 -84.7305h10c11.1396 27.7002 28.4795 40.7305 54.1992 40.7305
c32.25 0 77.4404 -43.7998 120.44 -43.7998c34.8701 0 59.7197 29.8604 65.3994 78.5801zM555.192 600.029l188.869 -0.00976562l-0.139648 -10h-16.6299c-29.6396 0 -53.8496 -22.1299 -55.5801 -50.04v-426.42c0 -64.4297 9.49023 -127.58 9.49023 -127.58h-9.51953
l-520.09 493.49v-417.26c0.55957 -28.9404 25.25 -52.25 55.6699 -52.25h16.6504l0.120117 -10h-189.03l0.139648 10h16.6504c30.4199 0 55.0898 23.3096 55.6797 52.25v427.84c0 68.2695 -9.58008 124.93 -9.58008 124.93l10.7402 -0.5l518.93 -489.09v414.68
c-1.7998 27.8701 -25.9902 49.96 -55.6006 49.96h-16.6299z" />
    <glyph glyph-name="o" unicode="o" horiz-adv-x="774" 
d="M387.45 614c186.54 0 337.42 -128.16 337.42 -314s-150.88 -314 -337.42 -314c-186.57 0 -337.45 128.16 -337.45 314s150.88 314 337.45 314zM387.45 15.9199c147.08 0 263.36 114.99 263.36 284.07c0 169.09 -116.28 284.09 -263.36 284.09
c-147.11 0 -263.36 -115 -263.36 -284.09c0 -169.08 116.25 -284.07 263.36 -284.07z" />
    <glyph glyph-name="oacute" unicode="&#xf3;" horiz-adv-x="774" 
d="M387.36 663.97l-7 7.01953c42.3203 45.6299 84.6406 90.2598 126.961 130.89c15.6299 -15.54 30.2695 -33.0801 40.8994 -52.6201c-53.6201 -31.4297 -107.24 -58.8594 -160.86 -85.2891zM387.44 614.02c186.54 0 337.42 -128.16 337.42 -314s-150.88 -314 -337.42 -314
c-186.57 0 -337.45 128.16 -337.45 314s150.88 314 337.45 314zM387.44 15.9395c147.08 0 263.36 114.99 263.36 284.07c0 169.09 -116.28 284.09 -263.36 284.09c-147.11 0 -263.36 -115 -263.36 -284.09c0 -169.08 116.25 -284.07 263.36 -284.07z" />
    <glyph glyph-name="ocircumflex" unicode="&#xf4;" horiz-adv-x="774" 
d="M382.23 789.74l-106.12 -118.75l6 -8l104.66 66l113.64 -66.0996l6 8l-114.18 118.85h-10zM387.46 614.01c186.54 0 337.42 -128.16 337.42 -314s-150.88 -314 -337.42 -314c-186.57 0 -337.45 128.16 -337.45 314s150.88 314 337.45 314zM387.46 15.9297
c147.08 0 263.36 114.99 263.36 284.07c0 169.09 -116.28 284.09 -263.36 284.09c-147.11 0 -263.36 -115 -263.36 -284.09c0 -169.08 116.25 -284.07 263.36 -284.07z" />
    <glyph glyph-name="odieresis" unicode="&#xf6;" horiz-adv-x="774" 
d="M293.23 664.1c-21.5801 0 -39.0801 17.5 -39.0801 39.0801s17.5 39.0801 39.0801 39.0801s39.0801 -17.5 39.0801 -39.0801s-17.5 -39.0801 -39.0801 -39.0801zM481.601 664.1c-21.5801 0 -39.0801 17.5 -39.0801 39.0801s17.5 39.0801 39.0801 39.0801
s39.0801 -17.5 39.0801 -39.0801s-17.5 -39.0801 -39.0801 -39.0801zM387.44 614c186.54 0 337.42 -128.16 337.42 -314s-150.88 -314 -337.42 -314c-186.57 0 -337.45 128.16 -337.45 314s150.88 314 337.45 314zM387.44 15.9199c147.08 0 263.36 114.99 263.36 284.07
c0 169.09 -116.28 284.09 -263.36 284.09c-147.11 0 -263.36 -115 -263.36 -284.09c0 -169.08 116.25 -284.07 263.36 -284.07z" />
    <glyph glyph-name="ograve" unicode="&#xf2;" horiz-adv-x="774" 
d="M394.43 671l-7 -7.01953c-53.6201 25.4297 -107.24 53.8594 -160.86 85.2891c10.6299 20.54 25.2695 38.0801 40.8994 52.6201c42.3203 -40.6299 84.6406 -84.2598 126.961 -130.89zM387.43 613.98c186.54 0 337.42 -128.16 337.42 -314s-150.88 -314 -337.42 -314
c-186.57 0 -337.45 128.16 -337.45 314s150.88 314 337.45 314zM387.43 15.9004c147.08 0 263.36 114.99 263.36 284.07c0 169.09 -116.28 284.09 -263.36 284.09c-147.11 0 -263.36 -115 -263.36 -284.09c0 -169.08 116.25 -284.07 263.36 -284.07z" />
    <glyph glyph-name="ohungarumlaut" unicode="&#x151;" horiz-adv-x="774" 
d="M330.32 668.38l-10.9805 2.00977c20.3203 43.6299 42.6406 87.2598 66.9609 130.89c20.2998 -1.2002 41.5996 -4.40039 60.8994 -12.6006c-35.96 -40.0996 -74.9199 -80.1992 -116.88 -120.299zM452.57 668.39l-10.9805 2.00977
c18.3203 43.6299 39.6406 87.2598 66.9609 130.89c20.2998 -0.200195 42.5996 -5.40039 60.8994 -12.6006c-35.96 -40.0996 -73.9199 -81.1992 -116.88 -120.299zM387.49 614.02c186.54 0 337.42 -128.16 337.42 -314s-150.88 -314 -337.42 -314
c-186.57 0 -337.45 128.16 -337.45 314s150.88 314 337.45 314zM387.49 15.9395c147.08 0 263.36 114.99 263.36 284.07c0 169.09 -116.28 284.09 -263.36 284.09c-147.11 0 -263.36 -115 -263.36 -284.09c0 -169.08 116.25 -284.07 263.36 -284.07z" />
    <glyph glyph-name="omacron" unicode="&#x14d;" horiz-adv-x="774" 
d="M265.25 695.36v35h250v-35h-250zM387.44 614c186.54 0 337.42 -128.16 337.42 -314s-150.88 -314 -337.42 -314c-186.57 0 -337.45 128.16 -337.45 314s150.88 314 337.45 314zM387.44 15.9199c147.08 0 263.36 114.99 263.36 284.07
c0 169.09 -116.28 284.09 -263.36 284.09c-147.11 0 -263.36 -115 -263.36 -284.09c0 -169.08 116.25 -284.07 263.36 -284.07z" />
    <glyph glyph-name="oslash" unicode="&#xf8;" horiz-adv-x="774" 
d="M638.65 608.27l-46.001 -55.1885c80.4102 -55.1104 132.2 -144.19 132.2 -253.07c0 -185.84 -150.88 -314 -337.42 -314c-80.46 0 -154.29 23.8398 -212.24 65.8594l-62.3496 -74.8604l-25.0098 22l61.4102 73.8604c-61.3301 55.29 -99.25 133.96 -99.25 227.13
c0 185.84 150.88 314 337.45 314c64.5 0 124.73 -15.3203 175.94 -43.0508l49.96 60.0801zM183.649 114.271l352.511 423.98c-42.1299 29.4697 -93.2402 45.8398 -148.74 45.8398c-147.11 0 -263.36 -115 -263.36 -284.09c0 -73.96 22.25 -137.57 59.5898 -185.73z
M562.57 516.982l-356.491 -428.021c46.9805 -46.4199 110.601 -73.0195 181.351 -73.0195c147.08 0 263.36 114.99 263.36 284.07c0 91.2803 -33.8896 166.8 -88.2197 216.97z" />
    <glyph glyph-name="otilde" unicode="&#xf5;" horiz-adv-x="774" 
d="M523.07 742.52l-9.99805 0.00976562c-9.42969 -22.8398 -27.1602 -33.5898 -55.4004 -33.5898c-34.3096 0 -75.1895 42.7998 -120.439 42.7998c-32.3604 0 -56.7607 -32.2002 -64.2012 -84.7305h10c11.1396 27.7002 28.4795 40.7305 54.1992 40.7305
c32.25 0 77.4404 -43.7998 120.44 -43.7998c34.8701 0 59.7197 29.8604 65.3994 78.5801zM387.442 614.01c186.54 0 337.42 -128.16 337.42 -314s-150.88 -314 -337.42 -314c-186.57 0 -337.45 128.16 -337.45 314s150.88 314 337.45 314zM387.442 15.9297
c147.08 0 263.36 114.99 263.36 284.07c0 169.09 -116.28 284.09 -263.36 284.09c-147.11 0 -263.36 -115 -263.36 -284.09c0 -169.08 116.25 -284.07 263.36 -284.07z" />
    <glyph glyph-name="oe" unicode="&#x153;" horiz-adv-x="885" 
d="M850.54 143.45l-50.2393 -143.468h-264.87h-1.78027c-13.0898 0 -25.3398 0 -53.6299 -2c-21.1602 -1 -79.3301 -12 -115.57 -12c-188.75 0 -314.43 119.32 -314.43 314s125.68 314 314.43 314c19.6904 0 62.71 -3.29004 100.15 -8.66016
c19.7402 -2.83008 36.8701 -5.27051 67.21 -5.33008h162.26c37.21 0.280273 87.29 8.91016 103.36 15.6797v-113.16l-10.0801 0.129883v15.3701c0 28.04 -19.1504 50.7998 -49.0205 51.3994h-202.9v-255.19h169.45c26.8096 0.620117 39.71 19.3701 39.71 42.46v12.7002
l10.0195 0.110352v-140.54l-10.0195 0.110352v12.7002c0 23.0195 -12.8203 41.7393 -39.4805 42.459h-169.68v-253.63h157.24c88.5 1.29004 121.63 48.1396 147.87 112.859h10zM474.411 65.1826l-0.000976562 470.34c0 37.1602 -57.3799 49.5303 -109.97 49.5303
c-144.31 0 -243.76 -108.95 -243.76 -285.08c0 -176.12 99.4502 -285.061 243.76 -285.061c52.7803 0 109.971 17.5703 109.971 50.2705z" />
    <glyph glyph-name="p" unicode="p" horiz-adv-x="553" 
d="M54.6602 600l233.87 -0.00878906c139.46 0 228.66 -64.9004 228.38 -171c-0.410156 -152.42 -152.01 -220.72 -287.91 -154.59v9.4502c0.0498047 0 159 -42.1201 208.99 101.13c4.91016 14.0596 6.96973 36.8291 7 54.0088c0.150391 81.2695 -59.7393 131 -157.72 131
h-96.7803v-506.4c0.900391 -29.7598 25.2803 -53.6299 57.9902 -53.6299h13.7998l0.179688 -10h-207.79l0.179688 10h13.7998c32.4404 0 56.8906 23.6699 57.9902 53.25v473.96c-0.589844 30.0303 -25.2197 52.8301 -58 52.8301h-13.7998z" />
    <glyph glyph-name="thorn" unicode="&#xfe;" horiz-adv-x="527" 
d="M183.64 475.41l100.011 0.000976562c130.32 0 208.2 -65.0303 208.2 -171.13c0 -152.42 -137.44 -220.58 -262.91 -154.45l-0.120117 9.4502s143.51 -42.4902 188.64 100.74c4.44043 14.0801 6.39062 37.1396 6.39062 54.3193
c0 81.2695 -54.6504 131.079 -143.82 131.079h-96.4004v-381.76c0.830078 -29.7803 23.4502 -53.6699 53.4404 -53.6699h12.6504l0.160156 -10h-196.49l0.160156 10h12.6504c29.8496 0 52.3994 23.6699 53.4297 53.25v474.23
c-0.700195 29.8896 -23.3701 52.5498 -53.4502 52.5498h-12.6504l-0.160156 10h196.47l-0.160156 -10h-12.6504c-29.6201 0 -52.0498 -21.9805 -53.3896 -51.2002v-63.4102z" />
    <glyph glyph-name="q" unicode="q" horiz-adv-x="777" 
d="M1190.78 -74l3.33203 -4.00977c-21.0498 -54 -189.55 -203 -442.12 -96c-106.29 44 -248.94 137 -367.23 160c-187.19 0 -334.79 128.16 -334.79 314s147.6 314 330.729 314c183.11 0 330.71 -128.16 330.71 -314c0 -157.57 -106.11 -273.67 -250.011 -304.99
c70.29 -21 175.13 -61 296.6 -109c132.91 -53 323.16 -60 432.78 40zM123.853 299.98c0 -169.08 113.23 -284.07 256.851 -284.07c143.6 0 256.83 114.99 256.83 284.07c0 169.09 -113.23 284.09 -256.83 284.09c-143.62 0 -256.851 -115 -256.851 -284.09z" />
    <glyph glyph-name="r" unicode="r" horiz-adv-x="627" 
d="M55 600l250.622 -0.0195312c126.07 0 203.311 -60.9199 203.311 -161.939c0 -84.8096 -65.7402 -155.67 -155.49 -164.67c21.8203 -9.90039 55.6104 -48 77.04 -78.3701c-0.160156 0 46.1494 -62.6797 87.499 -109.029c40.7002 -45.6299 68.7002 -75.5 124.16 -75.9697
v-10.0303h-31.5c-110.63 0 -154.29 50.3096 -185.66 88c-11.3096 13.5996 -90.1592 127.189 -97.9893 136.999c-27.0801 33.9297 -61.7705 67.3398 -101.341 67.3398v9.25c-0.0302734 0 24.6494 -0.419922 57.3496 0.410156c55.3096 1.40039 118.319 1.94043 146.999 86
c4.78027 14.0195 7.61035 35.0898 6.99023 57.0098c-2.11035 74.9199 -52.54 118.93 -133 123c-56.2002 2.83984 -105.48 0.349609 -114.99 0.879883v-504.69c0.620117 -30.0303 24.6396 -54.21 56.8096 -54.21h13.5303l0.179688 -10h-204.51l0.179688 10h13.5
c31.6201 0 55.5 23.46 56.7998 52.8604v475.14c-1.01953 29.6396 -25 52.04 -56.8096 52.04h-13.5z" />
    <glyph glyph-name="racute" unicode="&#x155;" horiz-adv-x="627" 
d="M302.28 663.97l-7 7.01953c42.3203 45.6299 84.6406 90.2598 126.961 130.89c15.6299 -15.54 30.2695 -33.0801 40.8994 -52.6201c-53.6201 -31.4297 -107.24 -58.8594 -160.86 -85.2891zM55 600.02l250.622 -0.0195312c126.07 0 203.311 -60.9199 203.311 -161.939
c0 -84.8096 -65.7402 -155.67 -155.49 -164.67c21.8203 -9.90039 55.6104 -48 77.04 -78.3701c-0.160156 0 46.1494 -62.6797 87.499 -109.029c40.7002 -45.6299 68.7002 -75.5 124.16 -75.9697v-10.0303h-31.5c-110.63 0 -154.29 50.3096 -185.66 88
c-11.3096 13.5996 -90.1592 127.189 -97.9893 136.999c-27.0801 33.9297 -61.7705 67.3398 -101.341 67.3398v9.25c-0.0302734 0 24.6494 -0.419922 57.3496 0.410156c55.3096 1.40039 118.319 1.94043 146.999 86c4.78027 14.0195 7.61035 35.0898 6.99023 57.0098
c-2.11035 74.9199 -52.54 118.93 -133 123c-56.2002 2.83984 -105.48 0.349609 -114.99 0.879883v-504.69c0.620117 -30.0303 24.6396 -54.21 56.8096 -54.21h13.5303l0.179688 -10h-204.51l0.179688 10h13.5c31.6201 0 55.5 23.46 56.7998 52.8604v475.14
c-1.01953 29.6396 -25 52.04 -56.8096 52.04h-13.5z" />
    <glyph glyph-name="rcaron" unicode="&#x159;" horiz-adv-x="627" 
d="M307.3 664.15l106.12 118.75l-6 8l-104.66 -66l-113.64 66.0996l-6 -8l114.18 -118.85h10zM54.9902 599.99l250.622 -0.0195312c126.07 0 203.311 -60.9199 203.311 -161.939c0 -84.8096 -65.7402 -155.67 -155.49 -164.67c21.8203 -9.90039 55.6104 -48 77.04 -78.3701
c-0.160156 0 46.1494 -62.6797 87.499 -109.029c40.7002 -45.6299 68.7002 -75.5 124.16 -75.9697v-10.0303h-31.5c-110.63 0 -154.29 50.3096 -185.66 88c-11.3096 13.5996 -90.1592 127.189 -97.9893 136.999c-27.0801 33.9297 -61.7705 67.3398 -101.341 67.3398v9.25
c-0.0302734 0 24.6494 -0.419922 57.3496 0.410156c55.3096 1.40039 118.319 1.94043 146.999 86c4.78027 14.0195 7.61035 35.0898 6.99023 57.0098c-2.11035 74.9199 -52.54 118.93 -133 123c-56.2002 2.83984 -105.48 0.349609 -114.99 0.879883v-504.69
c0.620117 -30.0303 24.6396 -54.21 56.8096 -54.21h13.5303l0.179688 -10h-204.51l0.179688 10h13.5c31.6201 0 55.5 23.46 56.7998 52.8604v475.14c-1.01953 29.6396 -25 52.04 -56.8096 52.04h-13.5z" />
    <glyph glyph-name="rcommaaccent" unicode="&#x157;" horiz-adv-x="627" 
d="M55 600l250.622 -0.0195312c126.07 0 203.311 -60.9199 203.311 -161.939c0 -84.8096 -65.7402 -155.67 -155.49 -164.67c21.8203 -9.90039 55.6104 -48 77.04 -78.3701c-0.160156 0 46.1494 -62.6797 87.499 -109.029c40.7002 -45.6299 68.7002 -75.5 124.16 -75.9697
v-10.0303h-31.5c-110.63 0 -154.29 50.3096 -185.66 88c-11.3096 13.5996 -90.1592 127.189 -97.9893 136.999c-27.0801 33.9297 -61.7705 67.3398 -101.341 67.3398v9.25c-0.0302734 0 24.6494 -0.419922 57.3496 0.410156c55.3096 1.40039 118.319 1.94043 146.999 86
c4.78027 14.0195 7.61035 35.0898 6.99023 57.0098c-2.11035 74.9199 -52.54 118.93 -133 123c-56.2002 2.83984 -105.48 0.349609 -114.99 0.879883v-504.69c0.620117 -30.0303 24.6396 -54.21 56.8096 -54.21h13.5303l0.179688 -10h-204.51l0.179688 10h13.5
c31.6201 0 55.5 23.46 56.7998 52.8604v475.14c-1.01953 29.6396 -25 52.04 -56.8096 52.04h-13.5zM333.422 -208.02l-1.95117 7c48.6396 15 40.6797 57 27 73c-10.4199 13 -27.3301 27 -18.3701 47c10.1904 23 49.1406 25 62.6709 -8
c25.9902 -62 -17.0693 -117 -69.3496 -119z" />
    <glyph glyph-name="s" unicode="s" horiz-adv-x="462" 
d="M160.08 410.25l202.417 -155.82c30.8203 -25.8896 44.9307 -68.5498 45.2705 -107.43c0.790039 -89.2305 -78.3203 -161 -177 -161c-59.2598 0 -136.069 14.4502 -172.499 47.1006c-6.2998 26.6104 -3.72949 85.5205 9.93066 124.171h11.5303
c-8.83984 -90.0898 51.8203 -143.79 140.051 -141.28c82.6699 2.34961 133.25 45.4395 133.25 110.43c0 31.1396 -10.6602 56.5898 -36.4297 79.1494l-200.04 154.36c-37.2305 31.7998 -47.2705 73.3594 -47.7803 108.069c-1.2002 81.25 72.7598 146 165.33 146
c45.7998 0 76.5596 -4.08008 98.9199 -9.25977h33.4297l1.5 -108.78h-11.4502c0 55.4102 -37.0801 88.4199 -115.55 88.4199c-66.79 0 -120.57 -42.2197 -120.19 -95.3799c0.19043 -25.71 7.9502 -53.5596 39.3105 -78.75z" />
    <glyph glyph-name="sacute" unicode="&#x15b;" horiz-adv-x="462" 
d="M232.2 663.97l-7 7.01953c42.3203 45.6299 84.6406 90.2598 126.961 130.89c15.6299 -15.54 30.2695 -33.0801 40.8994 -52.6201c-53.6201 -31.4297 -107.24 -58.8594 -160.86 -85.2891zM160.08 410.27l202.417 -155.82
c30.8203 -25.8896 44.9307 -68.5498 45.2705 -107.43c0.790039 -89.2305 -78.3203 -161 -177 -161c-59.2598 0 -136.069 14.4502 -172.499 47.1006c-6.2998 26.6104 -3.72949 85.5205 9.93066 124.171h11.5303c-8.83984 -90.0898 51.8203 -143.79 140.051 -141.28
c82.6699 2.34961 133.25 45.4395 133.25 110.43c0 31.1396 -10.6602 56.5898 -36.4297 79.1494l-200.04 154.36c-37.2305 31.7998 -47.2705 73.3594 -47.7803 108.069c-1.2002 81.25 72.7598 146 165.33 146c45.7998 0 76.5596 -4.08008 98.9199 -9.25977h33.4297
l1.5 -108.78h-11.4502c0 55.4102 -37.0801 88.4199 -115.55 88.4199c-66.79 0 -120.57 -42.2197 -120.19 -95.3799c0.19043 -25.71 7.9502 -53.5596 39.3105 -78.75z" />
    <glyph glyph-name="scaron" unicode="&#x161;" horiz-adv-x="462" 
d="M237.22 664.15l106.12 118.75l-6 8l-104.66 -66l-113.64 66.0996l-6 -8l114.18 -118.85h10zM160.07 410.24l202.417 -155.82c30.8203 -25.8896 44.9307 -68.5498 45.2705 -107.43c0.790039 -89.2305 -78.3203 -161 -177 -161
c-59.2598 0 -136.069 14.4502 -172.499 47.1006c-6.2998 26.6104 -3.72949 85.5205 9.93066 124.171h11.5303c-8.83984 -90.0898 51.8203 -143.79 140.051 -141.28c82.6699 2.34961 133.25 45.4395 133.25 110.43c0 31.1396 -10.6602 56.5898 -36.4297 79.1494
l-200.04 154.36c-37.2305 31.7998 -47.2705 73.3594 -47.7803 108.069c-1.2002 81.25 72.7598 146 165.33 146c45.7998 0 76.5596 -4.08008 98.9199 -9.25977h33.4297l1.5 -108.78h-11.4502c0 55.4102 -37.0801 88.4199 -115.55 88.4199
c-66.79 0 -120.57 -42.2197 -120.19 -95.3799c0.19043 -25.71 7.9502 -53.5596 39.3105 -78.75z" />
    <glyph glyph-name="scedilla" unicode="&#x15f;" horiz-adv-x="412" 
d="M149.31 410.25l202.418 -155.819c30.8203 -25.8896 44.9307 -68.5498 45.2705 -107.43c0.769531 -86.3896 -73.3701 -156 -167.66 -161l-40.9805 -47c34.9902 12 102.681 11 104.851 -58c2 -63 -73.7402 -94 -140.76 -73l0.730469 10c41.0195 0 91.7695 16 90.0293 64
c-1.5 42 -48.1396 48 -83.7695 33l-5 10l47.4902 61c-56.0098 3 -121.6 17.6797 -154.42 47.0996c-6.2998 26.6104 -3.72949 85.5205 9.93066 124.171h11.5195c-8.83984 -90.0898 51.8203 -143.79 140.051 -141.28c82.6699 2.34961 133.25 45.4395 133.25 110.43
c0 31.1396 -10.6602 56.5898 -36.4297 79.1494l-200.04 154.36c-37.2305 31.7998 -47.2705 73.3594 -47.7803 108.069c-1.2002 81.25 72.7598 146 165.33 146c45.7998 0 76.5596 -4.08008 98.9199 -9.25977h33.4297l1.5 -108.78h-11.4502
c0 55.4102 -37.0801 88.4199 -115.55 88.4199c-66.79 0 -120.57 -42.2197 -120.19 -95.3799c0.19043 -25.71 7.9502 -53.5596 39.3105 -78.75z" />
    <glyph glyph-name="scommaaccent" unicode="&#x219;" horiz-adv-x="462" 
d="M160.08 410.25l202.417 -155.82c30.8203 -25.8896 44.9307 -68.5498 45.2705 -107.43c0.790039 -89.2305 -78.3203 -161 -177 -161c-59.2598 0 -136.069 14.4502 -172.499 47.1006c-6.2998 26.6104 -3.72949 85.5205 9.93066 124.171h11.5303
c-8.83984 -90.0898 51.8203 -143.79 140.051 -141.28c82.6699 2.34961 133.25 45.4395 133.25 110.43c0 31.1396 -10.6602 56.5898 -36.4297 79.1494l-200.04 154.36c-37.2305 31.7998 -47.2705 73.3594 -47.7803 108.069c-1.2002 81.25 72.7598 146 165.33 146
c45.7998 0 76.5596 -4.08008 98.9199 -9.25977h33.4297l1.5 -108.78h-11.4502c0 55.4102 -37.0801 88.4199 -115.55 88.4199c-66.79 0 -120.57 -42.2197 -120.19 -95.3799c0.19043 -25.71 7.9502 -53.5596 39.3105 -78.75zM195.167 -208.011l-1.95117 7
c48.6396 15 40.6797 57 27 73c-10.4199 13 -27.3301 27 -18.3701 47c10.1904 23 49.1406 25 62.6709 -8c25.9902 -62 -17.0693 -117 -69.3496 -119z" />
    <glyph glyph-name="germandbls" unicode="&#xdf;" horiz-adv-x="924" 
d="M160.08 410.25l202.417 -155.82c30.8203 -25.8896 44.9307 -68.5498 45.2705 -107.43c0.790039 -89.2305 -78.3203 -161 -177 -161c-59.2598 0 -136.069 14.4502 -172.499 47.1006c-6.2998 26.6104 -3.72949 85.5205 9.93066 124.171h11.5303
c-8.83984 -90.0898 51.8203 -143.79 140.051 -141.28c82.6699 2.34961 133.25 45.4395 133.25 110.43c0 31.1396 -10.6602 56.5898 -36.4297 79.1494l-200.04 154.36c-37.2305 31.7998 -47.2705 73.3594 -47.7803 108.069c-1.2002 81.25 72.7598 146 165.33 146
c45.7998 0 76.5596 -4.08008 98.9199 -9.25977h33.4297l1.5 -108.78h-11.4502c0 55.4102 -37.0801 88.4199 -115.55 88.4199c-66.79 0 -120.57 -42.2197 -120.19 -95.3799c0.19043 -25.71 7.9502 -53.5596 39.3105 -78.75zM622.087 410.239l202.417 -155.82
c30.8203 -25.8896 44.9307 -68.5498 45.2705 -107.43c0.790039 -89.2305 -78.3203 -161 -177 -161c-59.2598 0 -136.069 14.4502 -172.499 47.1006c-6.2998 26.6104 -3.72949 85.5205 9.93066 124.171h11.5303c-8.83984 -90.0898 51.8203 -143.79 140.051 -141.28
c82.6699 2.34961 133.25 45.4395 133.25 110.43c0 31.1396 -10.6602 56.5898 -36.4297 79.1494l-200.04 154.36c-37.2305 31.7998 -47.2705 73.3594 -47.7803 108.069c-1.2002 81.25 72.7598 146 165.33 146c45.7998 0 76.5596 -4.08008 98.9199 -9.25977h33.4297
l1.5 -108.78h-11.4502c0 55.4102 -37.0801 88.4199 -115.55 88.4199c-66.79 0 -120.57 -42.2197 -120.19 -95.3799c0.19043 -25.71 7.9502 -53.5596 39.3105 -78.75z" />
    <glyph glyph-name="t" unicode="t" horiz-adv-x="578" 
d="M126.29 601.03l325.672 -0.000976562c39.7197 0 94.3496 8.80957 111.699 15.6895v-112.61l-10.6504 0.129883v15.3701c-0.0302734 28.0801 -19.6699 50.8701 -50.0303 51.4102h-180.96v-508.06c1.29004 -29.46 27.0098 -52.9795 58.6299 -52.9795h11.5996l0.150391 -10
h-206.08l0.150391 10h11.5996c32.0596 0 58.0898 24.1797 58.6895 54.21v506.82h-181.09c-30.3604 -0.530273 -50 -23.3203 -50 -51.4004v-15.3701l-10.6797 -0.129883v112.61c17.3496 -6.87988 71.9795 -15.6895 111.3 -15.6895z" />
    <glyph glyph-name="tbar" unicode="&#x167;" horiz-adv-x="578" 
d="M126.29 601.03l325.682 -0.0107422c39.7197 0 94.3496 8.80957 111.699 15.6895v-112.61l-10.6504 0.129883v15.3701c-0.0302734 28.0801 -19.6699 50.8701 -50.0303 51.4102h-180.96v-232.96h148.02v-30h-148.02v-245.1
c1.29004 -29.46 27.0098 -52.9795 58.6299 -52.9795h11.5996l0.150391 -10h-206.08l0.150391 10h11.5996c32.0596 0 58.6797 24.1797 58.6797 54.2197v243.87h-144.47v30h144.47v232.95h-181.09c-30.3604 -0.530273 -50 -23.3203 -50 -51.4004v-15.3701l-10.6797 -0.129883
v112.61c17.3496 -6.87988 71.9795 -15.6895 111.3 -15.6895z" />
    <glyph glyph-name="tcaron" unicode="&#x165;" horiz-adv-x="578" 
d="M294.57 665.18l-9.99023 0.00976562l-114.18 118.85l6 8l113.64 -66.0996l104.66 66l6 -8zM126.3 601.039l325.672 -0.000976562c39.7197 0 94.3496 8.80957 111.699 15.6895v-112.61l-10.6504 0.129883v15.3701c-0.0302734 28.0801 -19.6699 50.8701 -50.0303 51.4102
h-180.96v-508.06c1.29004 -29.46 27.0098 -52.9795 58.6299 -52.9795h11.5996l0.150391 -10h-206.08l0.150391 10h11.5996c32.0596 0 58.0898 24.1797 58.6895 54.21v506.82h-181.09c-30.3604 -0.530273 -50 -23.3203 -50 -51.4004v-15.3701l-10.6797 -0.129883v112.61
c17.3496 -6.87988 71.9795 -15.6895 111.3 -15.6895z" />
    <glyph glyph-name="tcedilla" unicode="&#x163;" horiz-adv-x="578" 
d="M126.29 601.03l325.671 -0.000976562c39.7197 0 94.3496 8.80957 111.699 15.6895v-112.61l-10.6504 0.129883v15.3701c-0.0302734 28.0801 -19.6699 50.8701 -50.0303 51.4102h-180.96v-508.06c1.29004 -29.46 27.0098 -52.9795 58.6299 -52.9795h11.5996l0.150391 -10
h-88.3203l-41 -48c34.9902 12 102.681 11 104.851 -58c2 -63 -73.7402 -94 -140.76 -73l0.730469 10c41.0195 0 91.7695 16 90.0293 64c-1.5 42 -48.1396 48 -83.7695 33l-5 10l47.3398 62h-90.1797l0.150391 10h11.5996c32.0596 0 58.0898 24.1797 58.6895 54.21v506.82
h-181.09c-30.3604 -0.530273 -50 -23.3203 -50 -51.4004v-15.3701l-10.6797 -0.129883v112.61c17.3496 -6.87988 71.9795 -15.6895 111.3 -15.6895z" />
    <glyph glyph-name="uni021B" unicode="&#x21b;" horiz-adv-x="548" 
d="M126.29 601.03l325.672 -0.000976562c39.7197 0 94.3496 8.80957 111.699 15.6895v-112.61l-10.6504 0.129883v15.3701c-0.0302734 28.0801 -19.6699 50.8701 -50.0303 51.4102h-180.96v-508.06c1.29004 -29.46 27.0098 -52.9795 58.6299 -52.9795h11.5996l0.150391 -10
h-206.08l0.150391 10h11.5996c32.0596 0 58.0898 24.1797 58.6895 54.21v506.82h-181.09c-30.3604 -0.530273 -50 -23.3203 -50 -51.4004v-15.3701l-10.6797 -0.129883v112.61c17.3496 -6.87988 71.9795 -15.6895 111.3 -15.6895zM254.152 -208.001l-1.95117 7
c48.6396 15 40.6797 57 27 73c-10.4199 13 -27.3301 27 -18.3701 47c10.1904 23 49.1406 25 62.6709 -8c25.9902 -62 -17.0693 -117 -69.3496 -119z" />
    <glyph glyph-name="u" unicode="u" horiz-adv-x="700" 
d="M493.09 600l172.149 0.00976562v-10h-14.8398c-25.8604 0 -46.9004 -17.9404 -48.0801 -42.1406v-336.59c0 -139.68 -94.9199 -225.29 -249.28 -225.29c-154.43 0 -250.12 85.04 -250.12 223.79v336.92c-0.509766 24.79 -21.8096 43.3096 -48.0898 43.3096h-14.8398v10
h189.8v-10h-14.8096c-26.2695 0 -47.5996 -18.5195 -48.21 -43.3096v-324.25c0 -129.77 70.4805 -209.31 185.33 -209.31c126.13 0 203.59 75.3096 203.89 198.189v336.03c-0.839844 24.4502 -22.0195 42.6406 -48.0596 42.6406h-14.8398v10z" />
    <glyph glyph-name="uacute" unicode="&#xfa;" horiz-adv-x="700" 
d="M350.5 663.97l-7 7.01953c42.3203 45.6299 84.6406 90.2598 126.961 130.89c15.6299 -15.54 30.2695 -33.0801 40.8994 -52.6201c-53.6201 -31.4297 -107.24 -58.8594 -160.86 -85.2891zM493.1 600.02l172.149 0.00976562v-10h-14.8398
c-25.8604 0 -46.9004 -17.9404 -48.0801 -42.1406v-336.59c0 -139.68 -94.9199 -225.29 -249.28 -225.29c-154.43 0 -250.12 85.04 -250.12 223.79v336.92c-0.509766 24.79 -21.8096 43.3096 -48.0898 43.3096h-14.8398v10h189.8v-10h-14.8096
c-26.2695 0 -47.5996 -18.5195 -48.21 -43.3096v-324.25c0 -129.77 70.4805 -209.31 185.33 -209.31c126.13 0 203.59 75.3096 203.89 198.189v336.03c-0.839844 24.4502 -22.0195 42.6406 -48.0596 42.6406h-14.8398v10z" />
    <glyph glyph-name="ucircumflex" unicode="&#xfb;" horiz-adv-x="700" 
d="M345.36 789.74l-106.12 -118.75l6 -8l104.66 66l113.64 -66.0996l6 8l-114.18 118.85h-10zM493.101 600.01l172.149 0.00976562v-10h-14.8398c-25.8604 0 -46.9004 -17.9404 -48.0801 -42.1406v-336.59c0 -139.68 -94.9199 -225.29 -249.28 -225.29
c-154.43 0 -250.12 85.04 -250.12 223.79v336.92c-0.509766 24.79 -21.8096 43.3096 -48.0898 43.3096h-14.8398v10h189.8v-10h-14.8096c-26.2695 0 -47.5996 -18.5195 -48.21 -43.3096v-324.25c0 -129.77 70.4805 -209.31 185.33 -209.31
c126.13 0 203.59 75.3096 203.89 198.189v336.03c-0.839844 24.4502 -22.0195 42.6406 -48.0596 42.6406h-14.8398v10z" />
    <glyph glyph-name="udieresis" unicode="&#xfc;" horiz-adv-x="700" 
d="M256.36 664.1c-21.5801 0 -39.0801 17.5 -39.0801 39.0801s17.5 39.0801 39.0801 39.0801s39.0801 -17.5 39.0801 -39.0801s-17.5 -39.0801 -39.0801 -39.0801zM444.73 664.1c-21.5801 0 -39.0801 17.5 -39.0801 39.0801s17.5 39.0801 39.0801 39.0801
s39.0801 -17.5 39.0801 -39.0801s-17.5 -39.0801 -39.0801 -39.0801zM493.08 600l172.149 0.00976562v-10h-14.8398c-25.8604 0 -46.9004 -17.9404 -48.0801 -42.1406v-336.59c0 -139.68 -94.9199 -225.29 -249.28 -225.29c-154.43 0 -250.12 85.04 -250.12 223.79v336.92
c-0.509766 24.79 -21.8096 43.3096 -48.0898 43.3096h-14.8398v10h189.8v-10h-14.8096c-26.2695 0 -47.5996 -18.5195 -48.21 -43.3096v-324.25c0 -129.77 70.4805 -209.31 185.33 -209.31c126.13 0 203.59 75.3096 203.89 198.189v336.03
c-0.839844 24.4502 -22.0195 42.6406 -48.0596 42.6406h-14.8398v10z" />
    <glyph glyph-name="ugrave" unicode="&#xf9;" horiz-adv-x="700" 
d="M357.57 671l-7 -7.01953c-53.6201 25.4297 -107.24 53.8594 -160.86 85.2891c10.6299 20.54 25.2695 38.0801 40.8994 52.6201c42.3203 -40.6299 84.6406 -84.2598 126.961 -130.89zM493.101 599.98l172.149 0.00976562v-10h-14.8398
c-25.8604 0 -46.9004 -17.9404 -48.0801 -42.1406v-336.59c0 -139.68 -94.9199 -225.29 -249.28 -225.29c-154.43 0 -250.12 85.04 -250.12 223.79v336.92c-0.509766 24.79 -21.8096 43.3096 -48.0898 43.3096h-14.8398v10h189.8v-10h-14.8096
c-26.2695 0 -47.5996 -18.5195 -48.21 -43.3096v-324.25c0 -129.77 70.4805 -209.31 185.33 -209.31c126.13 0 203.59 75.3096 203.89 198.189v336.03c-0.839844 24.4502 -22.0195 42.6406 -48.0596 42.6406h-14.8398v10z" />
    <glyph glyph-name="uhungarumlaut" unicode="&#x171;" horiz-adv-x="700" 
d="M293.45 668.38l-10.9805 2.00977c20.3203 43.6299 42.6406 87.2598 66.9609 130.89c20.2998 -1.2002 41.5996 -4.40039 60.8994 -12.6006c-35.96 -40.0996 -74.9199 -80.1992 -116.88 -120.299zM415.7 668.39l-10.9805 2.00977
c18.3203 43.6299 39.6406 87.2598 66.9609 130.89c20.2998 -0.200195 42.5996 -5.40039 60.8994 -12.6006c-35.96 -40.0996 -73.9199 -81.1992 -116.88 -120.299zM493.13 600.02l172.149 0.00976562v-10h-14.8398c-25.8604 0 -46.9004 -17.9404 -48.0801 -42.1406v-336.59
c0 -139.68 -94.9199 -225.29 -249.28 -225.29c-154.43 0 -250.12 85.04 -250.12 223.79v336.92c-0.509766 24.79 -21.8096 43.3096 -48.0898 43.3096h-14.8398v10h189.8v-10h-14.8096c-26.2695 0 -47.5996 -18.5195 -48.21 -43.3096v-324.25
c0 -129.77 70.4805 -209.31 185.33 -209.31c126.13 0 203.59 75.3096 203.89 198.189v336.03c-0.839844 24.4502 -22.0195 42.6406 -48.0596 42.6406h-14.8398v10z" />
    <glyph glyph-name="umacron" unicode="&#x16b;" horiz-adv-x="700" 
d="M228.38 695.36v35h250v-35h-250zM493.09 600l172.149 0.00976562v-10h-14.8398c-25.8604 0 -46.9004 -17.9404 -48.0801 -42.1406v-336.59c0 -139.68 -94.9199 -225.29 -249.28 -225.29c-154.43 0 -250.12 85.04 -250.12 223.79v336.92
c-0.509766 24.79 -21.8096 43.3096 -48.0898 43.3096h-14.8398v10h189.8v-10h-14.8096c-26.2695 0 -47.5996 -18.5195 -48.21 -43.3096v-324.25c0 -129.77 70.4805 -209.31 185.33 -209.31c126.13 0 203.59 75.3096 203.89 198.189v336.03
c-0.839844 24.4502 -22.0195 42.6406 -48.0596 42.6406h-14.8398v10z" />
    <glyph glyph-name="uogonek" unicode="&#x173;" horiz-adv-x="700" 
d="M493.09 600l172.068 -0.000976562v-10h-14.8398c-25.8604 0 -46.9004 -17.9404 -48.0801 -42.1406v-336.59c-0.00976562 -129.4 -81.4697 -212.4 -216.189 -223.91l1.25977 -0.379883c-55.4297 -14 -75.8301 -41 -74.5098 -79c2 -57 72.8398 -93 121.97 -42l6 -6
c-30.2197 -82 -172.689 -79 -174.01 37c-0.5 43.21 33.25 77.7803 78.3799 89.0801c-149.84 2.83008 -242.31 87.3203 -242.22 223.721v336.92c-0.509766 24.79 -21.8096 43.3096 -48.0898 43.3096h-14.8398v10h189.8v-10h-14.8096
c-26.2695 0 -47.5996 -18.5195 -48.21 -43.3096v-324.25c0 -129.77 70.4805 -209.31 185.33 -209.31c126.13 0 203.59 75.3096 203.89 198.189v336.03c-0.839844 24.4502 -22.0195 42.6406 -48.0596 42.6406h-14.8398v10z" />
    <glyph glyph-name="uring" unicode="&#x16f;" horiz-adv-x="700" 
d="M350.76 814.28c53.3701 0 93.7998 -27.7998 93.7998 -74.96c0 -43.8496 -40.4297 -74.96 -93.7998 -74.96s-93.7998 31.1104 -93.7998 74.96s40.4297 74.96 93.7998 74.96zM350.76 797.12c-27.6504 0 -49.0107 -20.5996 -49.0107 -57.8096
s21.3604 -57.8096 49.0107 -57.8096s49.0107 20.5996 49.0107 57.8096s-21.3604 57.8096 -49.0107 57.8096zM493.1 599.99l172.149 0.00976562v-10h-14.8398c-25.8604 0 -46.9004 -17.9404 -48.0801 -42.1406v-336.59c0 -139.68 -94.9199 -225.29 -249.28 -225.29
c-154.43 0 -250.12 85.04 -250.12 223.79v336.92c-0.509766 24.79 -21.8096 43.3096 -48.0898 43.3096h-14.8398v10h189.8v-10h-14.8096c-26.2695 0 -47.5996 -18.5195 -48.21 -43.3096v-324.25c0 -129.77 70.4805 -209.31 185.33 -209.31
c126.13 0 203.59 75.3096 203.89 198.189v336.03c-0.839844 24.4502 -22.0195 42.6406 -48.0596 42.6406h-14.8398v10z" />
    <glyph glyph-name="v" unicode="v" horiz-adv-x="663" 
d="M477.52 600l190.489 -0.000976562v-10h-7.9502c-26.71 0 -58.1396 -17.1602 -78.6299 -58.2998l-206.8 -442.71c0.280273 0 -36.4102 -76.8398 -38.4805 -103h-9.45996l-246.83 545.5c-20.4004 41.29 -50.5508 58.5 -77.3105 58.5h-7.55957v10h205.38v-9.91016h-7.9502
c-22.9697 0 -47.79 -22.0195 -34.9902 -60.8398l178.98 -435.92l183.42 434.04c15.2305 39.9902 -11.0391 62.7305 -34.3789 62.7305h-7.92969v9.91016z" />
    <glyph glyph-name="w" unicode="w" horiz-adv-x="899" 
d="M721.11 600l183.262 -0.00683594v-10h-7.83984c-41.4404 0 -68.7607 -24.7305 -81.5605 -59.4902l-145.39 -431.36s-21.0801 -63.5303 -22.7998 -111.15h-9.78027l-186.03 476.31l-129.98 -365.15s-19.9004 -62.0098 -21.6309 -111.16h-9.78027l-210.05 547.33
c-13.4502 32.21 -40.1602 54.6797 -79.2402 54.6797h-8.29004v10h205.67v-9.91016h-7.83008c-20.5 0 -44.2002 -15 -33.7598 -54.1602l133.29 -406.63l169.07 486.35l9.66992 -0.320312l178.54 -456.75l112.39 370.93c14.0898 43 -8.74023 60.5801 -30.0801 60.5801
h-7.84961v9.91016z" />
    <glyph glyph-name="wacute" unicode="&#x1e83;" horiz-adv-x="899" 
d="M463.08 665.61l-7 7.01953c42.3203 45.6299 84.6406 90.2598 126.961 130.89c15.6299 -15.54 30.2695 -33.0801 40.8994 -52.6201c-53.6201 -31.4297 -107.24 -58.8594 -160.86 -85.2891zM721.11 600.02l183.262 -0.00683594v-10h-7.83984
c-41.4404 0 -68.7607 -24.7305 -81.5605 -59.4902l-145.39 -431.36s-21.0801 -63.5303 -22.7998 -111.15h-9.78027l-186.03 476.31l-129.98 -365.15s-19.9004 -62.0098 -21.6309 -111.16h-9.78027l-210.05 547.33c-13.4502 32.21 -40.1602 54.6797 -79.2402 54.6797
h-8.29004v10h205.67v-9.91016h-7.83008c-20.5 0 -44.2002 -15 -33.7598 -54.1602l133.29 -406.63l169.07 486.35l9.66992 -0.320312l178.54 -456.75l112.39 370.93c14.0898 43 -8.74023 60.5801 -30.0801 60.5801h-7.84961v9.91016z" />
    <glyph glyph-name="wcircumflex" unicode="&#x175;" horiz-adv-x="899" 
d="M457.94 791.38l-106.12 -118.75l6 -8l104.66 66l113.64 -66.0996l6 8l-114.18 118.85h-10zM721.12 600.01l183.262 -0.00683594v-10h-7.83984c-41.4404 0 -68.7607 -24.7305 -81.5605 -59.4902l-145.39 -431.36s-21.0801 -63.5303 -22.7998 -111.15h-9.78027
l-186.03 476.31l-129.98 -365.15s-19.9004 -62.0098 -21.6309 -111.16h-9.78027l-210.05 547.33c-13.4502 32.21 -40.1602 54.6797 -79.2402 54.6797h-8.29004v10h205.67v-9.91016h-7.83008c-20.5 0 -44.2002 -15 -33.7598 -54.1602l133.29 -406.63l169.07 486.35
l9.66992 -0.320312l178.54 -456.75l112.39 370.93c14.0898 43 -8.74023 60.5801 -30.0801 60.5801h-7.84961v9.91016z" />
    <glyph glyph-name="wdieresis" unicode="&#x1e85;" horiz-adv-x="899" 
d="M368.95 665.74c-21.5801 0 -39.0801 17.5 -39.0801 39.0801s17.5 39.0801 39.0801 39.0801s39.0801 -17.5 39.0801 -39.0801s-17.5 -39.0801 -39.0801 -39.0801zM557.32 665.74c-21.5801 0 -39.0801 17.5 -39.0801 39.0801s17.5 39.0801 39.0801 39.0801
s39.0801 -17.5 39.0801 -39.0801s-17.5 -39.0801 -39.0801 -39.0801zM721.11 600l183.262 -0.00683594v-10h-7.83984c-41.4404 0 -68.7607 -24.7305 -81.5605 -59.4902l-145.39 -431.36s-21.0801 -63.5303 -22.7998 -111.15h-9.78027l-186.03 476.31l-129.98 -365.15
s-19.9004 -62.0098 -21.6309 -111.16h-9.78027l-210.05 547.33c-13.4502 32.21 -40.1602 54.6797 -79.2402 54.6797h-8.29004v10h205.67v-9.91016h-7.83008c-20.5 0 -44.2002 -15 -33.7598 -54.1602l133.29 -406.63l169.07 486.35l9.66992 -0.320312l178.54 -456.75
l112.39 370.93c14.0898 43 -8.74023 60.5801 -30.0801 60.5801h-7.84961v9.91016z" />
    <glyph glyph-name="wgrave" unicode="&#x1e81;" horiz-adv-x="899" 
d="M470.15 672.64l-7 -7.01953c-53.6201 25.4297 -107.24 53.8594 -160.86 85.2891c10.6299 20.54 25.2695 38.0801 40.8994 52.6201c42.3203 -40.6299 84.6406 -84.2598 126.961 -130.89zM721.11 599.98l183.262 -0.00683594v-10h-7.83984
c-41.4404 0 -68.7607 -24.7305 -81.5605 -59.4902l-145.39 -431.36s-21.0801 -63.5303 -22.7998 -111.15h-9.78027l-186.03 476.31l-129.98 -365.15s-19.9004 -62.0098 -21.6309 -111.16h-9.78027l-210.05 547.33c-13.4502 32.21 -40.1602 54.6797 -79.2402 54.6797
h-8.29004v10h205.67v-9.91016h-7.83008c-20.5 0 -44.2002 -15 -33.7598 -54.1602l133.29 -406.63l169.07 486.35l9.66992 -0.320312l178.54 -456.75l112.39 370.93c14.0898 43 -8.74023 60.5801 -30.0801 60.5801h-7.84961v9.91016z" />
    <glyph glyph-name="x" unicode="x" horiz-adv-x="626" 
d="M623.93 10l13.0508 0.0195312v-10h-237.22v10h12.0596c26.0596 0 49.4199 28.4102 33.7197 52.8203l-137.7 198.36l-146.13 -197.54c-17.9404 -24.4697 7.35938 -53.6396 33.5098 -53.6396h12.0596v-10h-218.29v10h12.7197c39.4902 0 73.8701 23.0996 95.29 48.9795
l185.89 238.12l-168.7 243.02c-19.5098 26.4502 -56.2402 49.8701 -96.29 49.8701h-12.9102v10h235.45v-10h-12.0596c-26.1396 0 -49.5693 -28.5996 -33.5596 -53.0693l126.8 -181.74l121.69 181.41c15.5898 24.4199 -7.61035 53.3896 -33.6699 53.3896h-12.0596v10h222.22
v-10h-13.4297c-40.1299 0 -75.7197 -23.0898 -96.0693 -50.6201l-160.95 -223.89l179.03 -256.61c19.6396 -26.04 56.0293 -48.8799 95.5488 -48.8799z" />
    <glyph glyph-name="y" unicode="y" horiz-adv-x="640" 
d="M436.25 600l209.07 0.00976562v-10h-12.6904c-38.1104 0 -72.1006 -24.2002 -91.8203 -50.8506l-191.76 -291.17v-183.79c0.580078 -30.0303 26.3701 -54.21 58.1299 -54.21h11.4902l0.120117 -10h-204.54l0.150391 10h11.4697c31.79 0 57.5498 24.1797 58.1797 54.21
v185.19l-185.18 290.33c-20.4404 30.6104 -53.3809 50.2803 -91.5205 50.2803h-12.3496v10h231.9v-10h-11.4502c-26.9297 0 -42.4795 -24.6201 -34.1592 -47.71l145.34 -259.08l155.2 258.01c10.3398 24.8301 -6.85059 48.7803 -34.1309 48.7803h-11.4502v10z" />
    <glyph glyph-name="yacute" unicode="&#xfd;" horiz-adv-x="640" 
d="M333.41 663.97l-7 7.01953c42.3203 45.6299 84.6406 90.2598 126.961 130.89c15.6299 -15.54 30.2695 -33.0801 40.8994 -52.6201c-53.6201 -31.4297 -107.24 -58.8594 -160.86 -85.2891zM436.25 600.02l209.07 0.00976562v-10h-12.6904
c-38.1104 0 -72.1006 -24.2002 -91.8203 -50.8506l-191.76 -291.17v-183.79c0.580078 -30.0303 26.3701 -54.21 58.1299 -54.21h11.4902l0.120117 -10h-204.54l0.150391 10h11.4697c31.79 0 57.5498 24.1797 58.1797 54.21v185.19l-185.18 290.33
c-20.4404 30.6104 -53.3809 50.2803 -91.5205 50.2803h-12.3496v10h231.9v-10h-11.4502c-26.9297 0 -42.4795 -24.6201 -34.1592 -47.71l145.34 -259.08l155.2 258.01c10.3398 24.8301 -6.85059 48.7803 -34.1309 48.7803h-11.4502v10z" />
    <glyph glyph-name="ycircumflex" unicode="&#x177;" horiz-adv-x="640" 
d="M328.27 789.74l-106.12 -118.75l6 -8l104.66 66l113.64 -66.0996l6 8l-114.18 118.85h-10zM436.26 600.01l209.07 0.00976562v-10h-12.6904c-38.1104 0 -72.1006 -24.2002 -91.8203 -50.8506l-191.76 -291.17v-183.79c0.580078 -30.0303 26.3701 -54.21 58.1299 -54.21
h11.4902l0.120117 -10h-204.54l0.150391 10h11.4697c31.79 0 57.5498 24.1797 58.1797 54.21v185.19l-185.18 290.33c-20.4404 30.6104 -53.3809 50.2803 -91.5205 50.2803h-12.3496v10h231.9v-10h-11.4502c-26.9297 0 -42.4795 -24.6201 -34.1592 -47.71l145.34 -259.08
l155.2 258.01c10.3398 24.8301 -6.85059 48.7803 -34.1309 48.7803h-11.4502v10z" />
    <glyph glyph-name="ydieresis" unicode="&#xff;" horiz-adv-x="640" 
d="M239.28 664.1c-21.5801 0 -39.0801 17.5 -39.0801 39.0801s17.5 39.0801 39.0801 39.0801s39.0801 -17.5 39.0801 -39.0801s-17.5 -39.0801 -39.0801 -39.0801zM427.65 664.1c-21.5801 0 -39.0801 17.5 -39.0801 39.0801s17.5 39.0801 39.0801 39.0801
s39.0801 -17.5 39.0801 -39.0801s-17.5 -39.0801 -39.0801 -39.0801zM436.25 600l209.07 0.00976562v-10h-12.6904c-38.1104 0 -72.1006 -24.2002 -91.8203 -50.8506l-191.76 -291.17v-183.79c0.580078 -30.0303 26.3701 -54.21 58.1299 -54.21h11.4902l0.120117 -10
h-204.54l0.150391 10h11.4697c31.79 0 57.5498 24.1797 58.1797 54.21v185.19l-185.18 290.33c-20.4404 30.6104 -53.3809 50.2803 -91.5205 50.2803h-12.3496v10h231.9v-10h-11.4502c-26.9297 0 -42.4795 -24.6201 -34.1592 -47.71l145.34 -259.08l155.2 258.01
c10.3398 24.8301 -6.85059 48.7803 -34.1309 48.7803h-11.4502v10z" />
    <glyph glyph-name="ygrave" unicode="&#x1ef3;" horiz-adv-x="640" 
d="M340.48 671l-7 -7.01953c-53.6201 25.4297 -107.24 53.8594 -160.86 85.2891c10.6299 20.54 25.2695 38.0801 40.8994 52.6201c42.3203 -40.6299 84.6406 -84.2598 126.961 -130.89zM436.25 599.98l209.07 0.00976562v-10h-12.6904
c-38.1104 0 -72.1006 -24.2002 -91.8203 -50.8506l-191.76 -291.17v-183.79c0.580078 -30.0303 26.3701 -54.21 58.1299 -54.21h11.4902l0.120117 -10h-204.54l0.150391 10h11.4697c31.79 0 57.5498 24.1797 58.1797 54.21v185.19l-185.18 290.33
c-20.4404 30.6104 -53.3809 50.2803 -91.5205 50.2803h-12.3496v10h231.9v-10h-11.4502c-26.9297 0 -42.4795 -24.6201 -34.1592 -47.71l145.34 -259.08l155.2 258.01c10.3398 24.8301 -6.85059 48.7803 -34.1309 48.7803h-11.4502v10z" />
    <glyph glyph-name="z" unicode="z" horiz-adv-x="608" 
d="M572.61 142.87l10.6992 0.0214844l-53.9502 -142.87h-479.34l0.200195 9.32031l372.7 561.53h-297.95c-29.7598 -1.03027 -48.9395 -23.6104 -48.9395 -51.3701v-15.3701l-10.7197 -0.129883v69.2197v18.0801v25.2402c17.3203 -6.86035 71.6504 -14.6406 111.37 -15.4404
h229.83c42.9297 0 100.489 6.71973 113.079 12.8994v-8.66992l-380.06 -575.33h274.71c96 1.50977 130.3 47.6094 158.37 112.869z" />
    <glyph glyph-name="zacute" unicode="&#x17a;" horiz-adv-x="608" 
d="M299.7 663.97l-7 7.01953c42.3203 45.6299 84.6406 90.2598 126.961 130.89c15.6299 -15.54 30.2695 -33.0801 40.8994 -52.6201c-53.6201 -31.4297 -107.24 -58.8594 -160.86 -85.2891zM572.61 142.89l10.6992 0.0214844l-53.9502 -142.87h-479.34l0.200195 9.32031
l372.7 561.53h-297.95c-29.7598 -1.03027 -48.9395 -23.6104 -48.9395 -51.3701v-15.3701l-10.7197 -0.129883v69.2197v18.0801v25.2402c17.3203 -6.86035 71.6504 -14.6406 111.37 -15.4404h229.83c42.9297 0 100.489 6.71973 113.079 12.8994v-8.66992l-380.06 -575.33
h274.71c96 1.50977 130.3 47.6094 158.37 112.869z" />
    <glyph glyph-name="zcaron" unicode="&#x17e;" horiz-adv-x="608" 
d="M304.72 664.15l106.12 118.75l-6 8l-104.66 -66l-113.64 66.0996l-6 -8l114.18 -118.85h10zM572.59 142.86l10.6992 0.0214844l-53.9502 -142.87h-479.34l0.200195 9.32031l372.7 561.53h-297.95c-29.7598 -1.03027 -48.9395 -23.6104 -48.9395 -51.3701v-15.3701
l-10.7197 -0.129883v69.2197v18.0801v25.2402c17.3203 -6.86035 71.6504 -14.6406 111.37 -15.4404h229.83c42.9297 0 100.489 6.71973 113.079 12.8994v-8.66992l-380.06 -575.33h274.71c96 1.50977 130.3 47.6094 158.37 112.869z" />
    <glyph glyph-name="zdotaccent" unicode="&#x17c;" horiz-adv-x="608" 
d="M298.38 664.6c-23.7998 0 -43.0898 19.29 -43.0898 43.0898s19.29 43.0898 43.0898 43.0898s43.0898 -19.29 43.0898 -43.0898s-19.29 -43.0898 -43.0898 -43.0898zM572.61 142.869l10.6992 0.0214844l-53.9502 -142.87h-479.34l0.200195 9.32031l372.7 561.53h-297.95
c-29.7598 -1.03027 -48.9395 -23.6104 -48.9395 -51.3701v-15.3701l-10.7197 -0.129883v69.2197v18.0801v25.2402c17.3203 -6.86035 71.6504 -14.6406 111.37 -15.4404h229.83c42.9297 0 100.489 6.71973 113.079 12.8994v-8.66992l-380.06 -575.33h274.71
c96 1.50977 130.3 47.6094 158.37 112.869z" />
    <glyph glyph-name="fi" unicode="&#xfb01;" horiz-adv-x="859" 
d="M191.38 600l158.67 -0.0292969c40.7402 0.280273 95.5098 8.91016 113.14 15.6797v-113.16l-11.0303 0.129883v15.3701c0 28.04 -19.79 50.7998 -50.2197 51.3994h-210.56v-254.41h173.45c27.8799 0.580078 40.6602 19.3496 40.6602 42.46v12.7002l11.0303 0.110352
v-140.46l-11.0303 0.110352v12.7002c0 22.46 -12.0596 40.8203 -38.3096 42.3799h-175.79v-221.19c0.799805 -29.8496 25.54 -53.8301 58.4404 -53.8301h13.9102l0.179688 -10h-208.89l0.179688 10h13.9102c32.6699 0 57.2197 23.5801 58.46 53.0801v474.61
c-0.900391 29.79 -25.5703 52.3496 -58.4805 52.3496h-13.9102l-0.19043 10h136.38zM804.6 -0.0292969l-226.601 0.000976562l0.19043 10h13.3398c37.1904 0 67.21 24.1504 67.9697 54.1504v471.68c-0.759766 30.0303 -30.7998 54.21 -68.0195 54.21h-13.3398l-0.19043 10
h226.54v-10h-13.4697c-36.3604 0 -66.0508 -23.2305 -67.8203 -52.4307v-474.24c1.17969 -29.6396 31.1201 -53.3701 67.8701 -53.3701h13.3398z" />
    <glyph glyph-name="fl" unicode="&#xfb02;" horiz-adv-x="1059" 
d="M191.38 600l158.67 -0.0292969c40.7402 0.280273 95.5098 8.91016 113.14 15.6797v-113.16l-11.0303 0.129883v15.3701c0 28.04 -19.79 50.7998 -50.2197 51.3994h-210.56v-254.41h173.45c27.8799 0.580078 40.6602 19.3496 40.6602 42.46v12.7002l11.0303 0.110352
v-140.46l-11.0303 0.110352v12.7002c0 22.46 -12.0596 40.8203 -38.3096 42.3799h-175.79v-221.19c0.799805 -29.8496 25.54 -53.8301 58.4404 -53.8301h13.9102l0.179688 -10h-208.89l0.179688 10h13.9102c32.6699 0 57.2197 23.5801 58.46 53.0801v474.61
c-0.900391 29.79 -25.5703 52.3496 -58.4805 52.3496h-13.9102l-0.19043 10h136.38zM1028.6 143.421l10.8408 -0.0107422l-55.1201 -143.45h-406.24l0.179688 10h13.7305c32.2598 0 56.5195 23.5801 57.6992 53.0898v472.73c-0.629883 30.0303 -27.0801 54.21 -59.75 54.21
h-11.7695l-0.160156 10h207.18l-0.160156 -10h-11.7695c-32.5801 0 -59.04 -24.1104 -59.71 -54.0801v-505.35h156.47c95.9902 1.32031 130.19 48.1602 158.58 112.86z" />
    <glyph glyph-name="Delta" unicode="&#x394;" horiz-adv-x="652" 
d="M321 714h10l316 -704v-10h-642v9.58008zM558.22 29.5801l-251.149 582.21l-258.53 -582.21h509.68z" />
    <glyph glyph-name="Omega" unicode="&#x3a9;" horiz-adv-x="808" 
d="M742.89 139.8h9.96094l-47.71 -139.8h-239.76v65c93.8799 54.0303 209.3 168.46 213.04 321.16c4.08984 166.79 -115.96 297.84 -272.84 297.84c-154.27 0 -275.479 -131.05 -275.479 -297.84c0 -152.7 108.2 -263.37 208.08 -321.16v-65h-237.15l-47.71 139.8h10
c35.1797 -63.3799 57.6895 -84.7803 117.119 -84.7998h127.49c-193.19 65.25 -244.78 232.56 -247.82 331.159c-5.66016 183.59 147 327.84 346.95 327.84c191.18 0 341.39 -144.25 341.39 -327.84c0 -98.5996 -90.9502 -277.779 -252.63 -331.14h129.95
c59.4297 0 81.9395 21.4004 117.119 84.7803z" />
    <glyph glyph-name="mu" unicode="&#x3bc;" horiz-adv-x="878" 
d="M707.41 613.7l80.1406 -548.889c5.58984 -34.6201 35.2197 -54.8105 68.2295 -54.8105h14.96v-9.99023h-207.77v9.44043h14.6396c20.2598 0.0400391 39.3994 17.0996 36.6396 38.6992l-52.5801 411.6l-188.37 -371.64s-28.6797 -60.7197 -35.5596 -102.109h-9.79004
l-240.86 464.65l-44.8896 -402.49c-2.30957 -20.7305 16.3809 -38.6602 36.6406 -38.7002h14.6396v-9.4502h-185.49v10h14.96c33.5898 0 63.6797 20.9297 68.4893 56.71l77.3799 547.29h9.82031l264.04 -507.9l255.23 507.59h9.5z" />
    <glyph glyph-name="pi" unicode="&#x3c0;" horiz-adv-x="703" 
d="M648.8 10l0.140625 -9.98926h-196.55l0.139648 10h10.9004c30.1396 0 54.5996 24.1396 55.1797 54.1299v451.7c-0.549805 29.5195 -24.21 54.1895 -53.6904 54.1895h-225.95c-28.9404 0 -52.2705 -23.7695 -53.6406 -52.5693v-453.98
c0.950195 -29.6797 25.2803 -53.4697 55.2002 -53.4697h10.9004l0.139648 -10h-196.55l0.139648 10h10.9102c30.1396 0 54.5996 24.1396 55.1797 54.1299v471.7c-0.55957 30.0303 -25.04 54.21 -55.21 54.21h-10.9004l-0.139648 10h593.91l-0.139648 -10h-10.9004
c-29.6299 0 -53.7695 -23.3203 -55.1699 -52.6006v-473.98c0.950195 -29.6797 25.2803 -53.4697 55.2002 -53.4697h10.9004z" />
    <glyph glyph-name="zero" unicode="0" horiz-adv-x="596" 
d="M298.09 714c145.76 0 235.09 -138.32 235.09 -364s-89.3301 -364 -235.09 -364s-235.09 138.32 -235.09 364s89.3301 364 235.09 364zM298.09 684c-102.36 0 -165.091 -126.92 -165.091 -334s62.7305 -334 165.091 -334s165.091 126.92 165.091 334
s-62.7305 334 -165.091 334z" />
    <glyph glyph-name="one" unicode="1" horiz-adv-x="344" 
d="M67.4902 0l216.549 0.0195312l-0.139648 9.98047h-20.9102c-29.9199 0 -55.1895 23.7998 -55.1895 53.5v650.55h-10c-38.9805 -46.3496 -85.79 -56.9795 -137.8 -63.999v-10h37.7305c30.1299 0 46.0195 -16.7998 46.0195 -49v-526.9
c0 -29.9902 -25.0703 -54.1504 -55.21 -54.1504h-20.9102z" />
    <glyph glyph-name="two" unicode="2" horiz-adv-x="553" 
d="M101.58 535.5l-9.99805 -0.0205078l-17.3496 113.2c38.0898 38.0098 114.68 65.2998 178.51 65.2998c132.64 0 218.93 -75.2598 218.93 -198.06c0 -171.04 -211.91 -358.14 -310.72 -459.58h230.14c59.4297 0 81.9395 21.4004 117.119 84.7803h10l-47.7197 -141.13
h-410.5v10c116.72 107.69 336.68 347.96 336.68 501.94c0 108.45 -54.6904 173.76 -143.931 172.069c-92.9697 -1.75977 -153.16 -52.5996 -151.16 -148.5z" />
    <glyph glyph-name="three" unicode="3" horiz-adv-x="503" 
d="M78.4404 547.77l-17.3594 93.2002c31.9102 36.0303 76.9102 67.0303 155.91 71.0303c121 6 197 -62 197 -149c0 -83.4102 -70.9902 -159.43 -137.311 -166.22c78.6797 -12.7803 156.359 -75.0205 156.68 -180.61c-0.360352 -156.17 -172.36 -283.17 -373.36 -248.17l2 10
c159 -4 296 97 296.36 240.6c-0.360352 113.4 -86.3604 165.4 -205.4 165.771l1.82031 10c89.2197 -0.370117 189.22 61.6299 183.22 170.63c-3 59 -39 117 -123.25 117.26c-82.75 -0.259766 -130.75 -55.2598 -126.31 -134.49h-10z" />
    <glyph glyph-name="four" unicode="4" horiz-adv-x="583" 
d="M502.8 248.76h-87.1406v-185.4c0.360352 -29.7002 25.4902 -53.3604 55.2002 -53.3604h10.9004l0.139648 -10h-197.46l0.139648 10h10.9004c29.4502 0 54.0605 21.9502 55.1807 51.8604v186.9h-310.65v10l366.28 455.24h9.36035v-410.24h43.5098
c36.8398 0 42.6396 6.09961 54.6396 20h10zM114.959 303.76h235.7v292.55z" />
    <glyph glyph-name="five" unicode="5" horiz-adv-x="498" 
d="M422.32 729l-33.4111 -105l-234.77 -15l-46.04 -158.07c166.91 42.4697 321.88 -23.5898 314.729 -197.18c-10 -242.75 -289.64 -299.75 -372.83 -284.75l2 10c84.3604 -2 282.92 83.9805 295.82 267.2c9.48047 134.57 -117.939 197.88 -281.84 142.5l-9 4l78.4502 271.3
l197.49 15c41.7002 0 64.0605 20.0996 79.4004 50h10z" />
    <glyph glyph-name="six" unicode="6" horiz-adv-x="560" 
d="M184.93 315.21l-5.5 8.98926c103.27 124.86 310.899 113.03 325.439 -108.66c7.57031 -115.41 -73.4697 -228.54 -210.1 -230.54c-134.37 -2 -232.19 104.88 -229.74 286.54c2.79004 206.96 107.021 435.59 336.021 462.89l3.70996 -7.41016
c-190.24 -61.04 -264.73 -248.51 -264.73 -455.47c0 -150.69 51.4902 -256.5 154.75 -256.5c95.4902 0 136.66 91.4102 135.11 186.5c-1.63965 100.7 -48.7998 165.521 -135.1 165.15c-41.79 -0.179688 -83.6602 -17.2393 -109.86 -51.4893z" />
    <glyph glyph-name="seven" unicode="7" horiz-adv-x="502" 
d="M63.2197 698.13l-28.2119 -113.109h10c14.7598 39.6602 34.9795 60 74.96 60h282.28l-88.0195 -230.95c-41.8896 -109.91 -122.779 -312.5 -163.539 -414.06h70c26.46 110.42 109.59 344.06 134.28 410.479l107.61 287.64h-399.36z" />
    <glyph glyph-name="eight" unicode="8" horiz-adv-x="552" 
d="M333.23 372.78c73.1299 -36.2305 158.74 -85.1807 158.771 -197.751c0 -112.02 -85 -189.02 -216 -189.02c-132 0 -221 78 -216 195c3.74023 84.2002 52.1201 142.141 144.45 185.24c-64.9404 46.3701 -108.471 104.48 -108.501 180.351
c0.0498047 94.4004 68.0498 165.4 180.05 167.4c103 2 180 -61 179.68 -168.8c0.290039 -79.9805 -43.2695 -143.351 -122.449 -172.421zM273.971 403l22.3896 -12.0703c63.0303 47.0303 84.5303 104.55 84.2402 162.12c0.320312 79.9502 -39.6797 130.95 -103.68 130.95
c-68 0 -106 -57 -106 -124.37c0.0498047 -66.6299 37.0498 -118.63 103.05 -156.63zM276.91 15.9893c97 0 140.04 72.0088 140.04 145.398c-0.0400391 102.61 -83.04 131.61 -146.04 164.61c-12.7998 6.65039 -25.1797 13.5801 -37.0498 20.8203
c-54.6602 -37.1396 -98.0303 -92.8994 -98.9502 -175.829c-1 -95 53 -155 142 -155z" />
    <glyph glyph-name="nine" unicode="9" horiz-adv-x="560" 
d="M375.57 381.79l5.47949 -9c-100.05 -126.79 -319.05 -104.79 -325.05 108.21c-4 141 87 229 210 231c138 2 229 -103 229 -288c0 -199 -105 -441 -335.56 -461l-3.70996 7c188.27 53 264.27 249 264.729 447.72c-0.459961 162.28 -51.46 264.28 -154.36 264.24
c-95.0996 0.0400391 -137.1 -86.96 -135.1 -186.96c2 -97 48 -167 135 -165c41 1 83 17 109.57 51.79z" />
    <glyph glyph-name="fraction" unicode="&#x2044;" horiz-adv-x="542" 
d="M498.35 714l-478.351 -711.92l24.5098 -16.0801l477.98 711.15z" />
    <glyph glyph-name="onehalf" unicode="&#xbd;" horiz-adv-x="805" 
d="M577.35 714l-478.351 -711.92l24.5098 -16.0801l477.98 711.15zM64.9893 308l146.2 0.00976562v6.66992h-13.9404c-19.9502 0 -36.7998 15.8701 -36.7998 35.6699v363.7h-6.66992c-25.9902 -30.9004 -59.2002 -37.9805 -93.8701 -42.6602v-6.66992h25.1602
c20.0898 0 30.6797 -11.2002 30.6797 -32.6699v-281.27c0 -20 -16.7197 -36.1104 -36.8193 -36.1104h-13.9404v-6.66992zM487.55 287.01l-6.64746 0.00976562l-11.5703 75.4697c25.3896 25.3398 71.4492 43.5303 113.999 43.5303c82.5703 0 148.62 -48.8203 148.62 -122.04
c0 -114.03 -122.94 -194.771 -188.811 -242.4h137.43c39.6201 0 54.6299 14.2695 78.0801 56.5195h6.66992l-31.8096 -98.0898h-273.67v6.66992c77.8096 71.79 217.449 171.97 217.449 274.62c0 63.8604 -39.3896 100.92 -93.96 99.71
c-52.9805 -1.17969 -97.1104 -35.0693 -95.7803 -93.999z" />
    <glyph glyph-name="onequarter" unicode="&#xbc;" horiz-adv-x="713" 
d="M578.35 714l-478.351 -711.92l24.5098 -16.0801l477.98 711.15zM197.329 314.65l14.1104 -0.00976562v-6.66992h-146.37v6.66992h13.9404c20.0996 0 36.8193 16.1104 36.8193 36.1104v281.27c0 21.4697 -10.5898 32.6699 -30.6797 32.6699h-25.1602v6.66992
c34.6699 4.67969 67.8799 11.7598 93.8701 42.6602h6.66992v-363.7c0 -19.7998 16.8496 -35.6699 36.7998 -35.6699zM675.34 129.82h-57.9199v-88.4805c0.169922 -19.8604 16.9502 -35.7002 36.7998 -35.7002h7.26953v-6.66992h-132.64v6.66992h7.26953
c19.6299 0 36.0303 14.6299 36.7803 34.5703v89.6104h-182.1v6.66992l220.19 268.49h6.24023v-241.49h29.0098c24.5596 0 28.4297 4.07031 36.4297 13.3301h6.66992zM444.95 163.49h128.13v159.6z" />
    <glyph glyph-name="threequarters" unicode="&#xbe;" horiz-adv-x="713" 
d="M621.35 714l-478.351 -711.92l24.5098 -16.0801l477.98 711.15zM51.2891 612.61l-11.6006 62.1094c18.1104 22.0703 48.2402 36.8799 95.0703 37.5303c70.4697 0.990234 123.45 -36.9902 123.45 -90.9404c0 -42.0801 -43.8604 -81.04 -86.46 -89.0703
c50.1904 -6.76953 99.79 -42.21 99.79 -92.8799c0 -118.77 -106.82 -179.77 -241.57 -153.1l1.33008 6.66992c105.82 -2.66992 187.58 47 187.58 144.44c0 62.4199 -50.2803 85.2998 -129.931 85.2998l1.21973 6.66992c63.1797 0 116.66 34.5703 115.391 93.6807
c-0.860352 39.96 -29.29 65.2598 -70.7803 65.2598c-50.5596 0 -78.7598 -19.4902 -76.8193 -75.6699h-6.66992zM680.129 129.819h-57.9199v-88.4805c0.169922 -19.8604 16.9502 -35.7002 36.7998 -35.7002h7.26953v-6.66992h-132.64v6.66992h7.26953
c19.6299 0 36.0303 14.6299 36.7803 34.5703v89.6104h-182.1v6.66992l220.19 268.49h6.24023v-241.49h29.0098c24.5596 0 28.4297 4.07031 36.4297 13.3301h6.66992zM449.739 163.489h128.13v159.6z" />
    <glyph glyph-name="onesuperior" unicode="&#xb9;" horiz-adv-x="211" 
d="M44.9902 308l146.2 0.00976562v6.66992h-13.9404c-19.9502 0 -36.7998 15.8701 -36.7998 35.6699v363.7h-6.66992c-25.9902 -30.9004 -59.2002 -37.9805 -93.8701 -42.6602v-6.66992h25.1602c20.0898 0 30.6797 -11.2002 30.6797 -32.6699v-281.27
c0 -20 -16.7197 -36.1104 -36.8193 -36.1104h-13.9404v-6.66992z" />
    <glyph glyph-name="twosuperior" unicode="&#xb2;" horiz-adv-x="375" 
d="M57.7197 595l-6.64746 0.00976562l-11.5703 75.4697c25.3896 25.3398 71.4492 43.5303 113.999 43.5303c82.5703 0 148.62 -48.8203 148.62 -122.04c0 -114.03 -122.94 -194.771 -188.811 -242.4h137.43c39.6201 0 54.6299 14.2695 78.0801 56.5195h6.66992
l-31.8096 -98.0898h-273.67v6.66992c77.8096 71.79 217.449 171.97 217.449 274.62c0 63.8604 -39.3896 100.92 -93.96 99.71c-52.9805 -1.17969 -97.1104 -35.0693 -95.7803 -93.999z" />
    <glyph glyph-name="threesuperior" unicode="&#xb3;" horiz-adv-x="310" 
d="M51.29 612.61l-11.6006 62.1094c18.1104 22.0703 48.2402 36.8799 95.0703 37.5303c70.4697 0.990234 123.45 -36.9902 123.45 -90.9404c0 -42.0801 -43.8604 -81.04 -86.46 -89.0703c50.1904 -6.76953 99.79 -42.21 99.79 -92.8799
c0 -118.77 -106.82 -179.77 -241.57 -153.1l1.33008 6.66992c105.82 -2.66992 187.58 47 187.58 144.44c0 62.4199 -50.2803 85.2998 -129.931 85.2998l1.21973 6.66992c63.1797 0 116.66 34.5703 115.391 93.6807c-0.860352 39.96 -29.29 65.2598 -70.7803 65.2598
c-50.5596 0 -78.7598 -19.4902 -76.8193 -75.6699h-6.66992z" />
    <glyph glyph-name="ordfeminine" unicode="&#xaa;" horiz-adv-x="368" 
d="M186.48 714l134.059 -294.248c12.9102 -25.6602 28.4004 -36.29 43.6201 -36.29h4.15039v-5.75977h-122.96v5.70996h4.36035c12.8203 0 27.7705 13.0996 18.9502 36.1494l-25.6904 66.4102h-123.24l-28.5195 -66.9102
c-8.98047 -22.7402 6.16992 -35.6602 18.8896 -35.6602h4.36035v-5.70996h-114.46v5.75977h4.36035c14.9404 0 31.75 10.2598 43.7598 34.9297l111.85 236.31s20.1699 44.25 21.3203 59.3096h5.19043zM130.029 510.112h103.609l-49.2998 127.42z" />
    <glyph glyph-name="ordmasculine" unicode="&#xba;" horiz-adv-x="412" 
d="M206.38 714c97.0898 0 176.38 -75.7695 176.38 -172.199s-79.29 -172.189 -176.38 -172.189s-176.38 75.7598 -176.38 172.189s79.29 172.199 176.38 172.199zM206.38 390.58c70.8701 0 121.55 65.4199 121.55 151.229s-50.6797 151.229 -121.55 151.229
s-121.55 -65.4199 -121.55 -151.229s50.6797 -151.229 121.55 -151.229z" />
    <glyph glyph-name="asterisk" unicode="*" horiz-adv-x="386" 
d="M347.83 623.21l-100.263 -19.3105l-47.0801 1.42969l38.7803 -26.5303l70.4004 -74.0996l-18.4697 -30.7197l-34.9297 -8.07031l-49.3604 89.3799l-13.21 45.2695l-13.2803 -45.1797l-48.7197 -89.8496l-34.9297 8.07031l-18.4697 30.7197l69.75 74.5703l38.9199 26.5
l-47.0098 -1.33008l-100.51 18.5703l-3.12012 35.71l23.5098 27.0596l92.4697 -43.2998l37.3604 -28.8398l-15.7695 44.25l-13.4004 101.33l33 14l33 -14l-12.5996 -101.33l-15.8799 -44.2402l37.1904 28.6602l92.2305 44.0498l23.5098 -27.0596z" />
    <glyph glyph-name="backslash" unicode="\" horiz-adv-x="406" 
d="M7 696.5l31.0908 17.5l360.51 -708.92l-30.6602 -19.0801z" />
    <glyph glyph-name="bullet" unicode="&#x2022;" horiz-adv-x="335" 
d="M181.48 237.21c-9.71973 -3.25977 -17.3398 -3.25977 -27.0596 0c-57.6104 19.1699 -62.8408 24.3896 -82.0107 81.9697c-3.24023 9.83008 -3.24023 17.29 -0.00976562 27.0898c19.1699 57.6104 24.3896 62.8408 81.9697 82.0107
c9.75 3.26953 17.3799 3.26953 27.0996 0.00976562c57.6104 -19.1699 62.8408 -24.3896 82.0107 -81.9697c3.24023 -9.83008 3.08984 -17.7705 -0.570312 -28.8203c-18.71 -56 -24.3896 -61.2998 -81.4297 -80.29z" />
    <glyph glyph-name="colon" unicode=":" horiz-adv-x="170" 
d="M90 378.51c-24.8496 0 -45 20.1504 -45 45s20.1504 45 45 45s45 -20.1504 45 -45s-20.1504 -45 -45 -45zM90 -4c-24.8496 0 -45 20.1504 -45 45s20.1504 45 45 45s45 -20.1504 45 -45s-20.1504 -45 -45 -45z" />
    <glyph glyph-name="comma" unicode="," horiz-adv-x="185" 
d="M47.3604 -89l-2.34961 8.00977c58.8496 19 49.2197 69 32.6602 88.8799c-12.6104 15.0898 -33.0703 32.04 -22.2305 56.6699c12.3398 28.0195 59.4697 30.0098 75.8398 -9.12988c31.4502 -75.4297 -20.6602 -142.43 -83.9199 -144.43z" />
    <glyph glyph-name="ellipsis" unicode="&#x2026;" horiz-adv-x="570" 
d="M90 -4c-24.8496 0 -45 20.1504 -45 45s20.1504 45 45 45s45 -20.1504 45 -45s-20.1504 -45 -45 -45zM290 -4c-24.8496 0 -45 20.1504 -45 45s20.1504 45 45 45s45 -20.1504 45 -45s-20.1504 -45 -45 -45zM480 -4c-24.8496 0 -45 20.1504 -45 45s20.1504 45 45 45
s45 -20.1504 45 -45s-20.1504 -45 -45 -45z" />
    <glyph glyph-name="exclam" unicode="!" horiz-adv-x="230" 
d="M139.87 402.96l-20.9795 -232.96h-10l-20.25 232.96l-11.8701 298.64h75zM114.99 -4c-24.8496 0 -45 20.1504 -45 45s20.1504 45 45 45s45 -20.1504 45 -45s-20.1504 -45 -45 -45z" />
    <glyph glyph-name="exclamdown" unicode="&#xa1;" horiz-adv-x="230" 
d="M115 705.6c24.8496 0 45 -20.1504 45 -45s-20.1504 -45 -45 -45s-45 20.1504 -45 45s20.1504 45 45 45zM90.1299 298.64l20.9697 230.14h10l20.25 -230.14l11.8701 -298.64h-75z" />
    <glyph glyph-name="numbersign" unicode="#" horiz-adv-x="536" 
d="M516 466.88h-112.641l-38.79 -220h107.42v-30h-112.71l-38.2402 -216.88h-32l38.2402 216.88h-168l-38.2402 -216.88h-32l38.2402 216.88h-107.29v30h112.58l38.79 220h-107.37v30h112.66l35.8203 203.12h32l-35.8096 -203.12h168l35.8096 203.12h32l-35.8096 -203.12
h107.34v-30zM332.569 246.88l38.79 220h-168l-38.79 -220h168z" />
    <glyph glyph-name="period" unicode="." horiz-adv-x="179" 
d="M90 -4c-24.8496 0 -45 20.1504 -45 45s20.1504 45 45 45s45 -20.1504 45 -45s-20.1504 -45 -45 -45z" />
    <glyph glyph-name="periodcentered" unicode="&#xb7;" horiz-adv-x="170" 
d="M85 305c-24.8496 0 -45 20.1504 -45 45s20.1504 45 45 45s45 -20.1504 45 -45s-20.1504 -45 -45 -45z" />
    <glyph glyph-name="question" unicode="?" horiz-adv-x="413" 
d="M30 530.23l-9.98828 94.75c30.3496 55.9404 83.4395 89.0508 147.609 89.0508c121.34 0 195.71 -63.7598 195.71 -169.7c0 -135.7 -151.16 -184.38 -176.891 -277.05c-9 -32.4199 -14.8096 -59.8896 9.77051 -92.3096l-6.03027 -4.95996
c-34.8701 31.8496 -44.6006 63.6992 -44.6006 95.5488c0 94.8301 142.74 153.3 142.74 278.74c0 87.3398 -45.8701 139.7 -120.71 139.7c-79.1201 0 -129.61 -57.7002 -127.61 -153.771h-10zM180.361 -3.96973c-24.8496 0 -45 20.1504 -45 45s20.1504 45 45 45
s45 -20.1504 45 -45s-20.1504 -45 -45 -45z" />
    <glyph glyph-name="questiondown" unicode="&#xbf;" horiz-adv-x="433" 
d="M232.98 704c24.8496 0 45 -20.1504 45 -45s-20.1504 -45 -45 -45s-45 20.1504 -45 45s20.1504 45 45 45zM383.33 169.77l9.97852 -94.75c-30.3398 -55.9404 -83.4297 -89.0508 -147.6 -89.0508c-121.35 0 -195.72 63.7598 -195.72 169.7
c0 135.7 151.16 184.38 176.891 277.05c9 32.4199 14.8096 59.8896 -9.77051 92.3096l6.03027 4.95996c34.8701 -31.8496 44.6006 -63.6992 44.6006 -95.5488c0 -94.8301 -142.74 -153.3 -142.74 -278.74c0 -87.3398 45.8701 -139.7 120.72 -139.7
c79.1201 0 129.61 57.7002 127.61 153.771h10z" />
    <glyph glyph-name="quotedbl" unicode="&#x22;" horiz-adv-x="315" 
d="M59.0195 500l-9.01953 5.24023c18.5898 87.6699 21.0596 122.09 15.6494 194.76l70 14c1.67969 -51.54 -13.9902 -178.66 -76.6299 -214zM189.02 499.99l-9.01953 5.24023c18.5898 87.6699 21.0596 122.09 15.6494 194.76l70 14
c1.67969 -51.54 -13.9902 -178.66 -76.6299 -214z" />
    <glyph glyph-name="quotesingle" unicode="'" horiz-adv-x="170" 
d="M44.0195 500l-9.01953 5.24023c18.5898 87.6699 21.0596 122.09 15.6494 194.76l70 14c1.67969 -51.54 -13.9902 -178.66 -76.6299 -214z" />
    <glyph glyph-name="semicolon" unicode=";" horiz-adv-x="600" 
d="M90 407.23c-24.8496 0 -45 20.1504 -45 45s20.1504 45 45 45s45 -20.1504 45 -45s-20.1504 -45 -45 -45zM47.3604 -89l-2.34961 8.00977c58.8496 19 49.2197 69 32.6602 88.8799c-12.6104 15.0898 -33.0703 32.04 -22.2305 56.6699
c12.3398 28.0195 59.4697 30.0098 75.8398 -9.12988c31.4502 -75.4297 -20.6602 -142.43 -83.9199 -144.43z" />
    <glyph glyph-name="slash" unicode="/" horiz-adv-x="406" 
d="M7 5.08008l360.521 708.92l31.0801 -17.5l-360.94 -710.5z" />
    <glyph glyph-name="underscore" unicode="_" horiz-adv-x="500" 
d="M0 -90v30h500v-30h-500z" />
    <glyph glyph-name="braceleft" unicode="{" horiz-adv-x="337" 
d="M85 314.47l-0.0107422 9.98926c17.5801 0.120117 45.1602 0.240234 52.7402 15.3604c10.6201 25.4004 -13.9697 111.44 -13.29 177.11c1.25977 121.24 50.2598 215.84 171.43 215.84l1.67969 -8c-92.75 -24 -107.03 -97.8896 -108.11 -207.83
c-0.870117 -88.6904 17.7002 -181.08 -48.8896 -200.561c68.3604 -15.8398 48.0703 -115.96 48.9004 -200.56c1.08008 -109.94 15.3604 -183.83 108.11 -207.83l-1.67969 -8c-121.17 0 -170.17 95 -171.43 215.83c-0.679688 65.6699 21.2305 150.29 10.6104 175.69
c-7.28027 17.4199 -33.3701 21.3096 -50.0605 22.96z" />
    <glyph glyph-name="braceright" unicode="}" horiz-adv-x="337" 
d="M40 724.78l1.67969 8.01074c121.17 0 170.17 -94.5996 171.43 -215.84c0.679688 -65.6699 -23.9102 -151.71 -13.29 -177.11c7.58008 -15.1201 35.1602 -15.2402 52.7402 -15.3604v-10c-16.6904 -1.65039 -42.7803 -5.54004 -50.0605 -22.96
c-10.6201 -25.4004 11.29 -110.021 10.6104 -175.69c-1.25977 -120.83 -50.2598 -215.83 -171.43 -215.83l-1.69043 8c92.75 24 107.03 97.8896 108.11 207.83c0.830078 84.5996 -19.46 184.72 48.9004 200.56c-66.5898 19.4805 -48.0195 111.87 -48.8896 200.561
c-1.08008 109.94 -15.3604 183.83 -108.11 207.83z" />
    <glyph glyph-name="bracketleft" unicode="[" horiz-adv-x="332" 
d="M120 -90v812h169.18v-10l-104.18 -20v-752l107.49 -20v-10h-172.49z" />
    <glyph glyph-name="bracketright" unicode="]" horiz-adv-x="332" 
d="M43.3096 722h169.18v-812h-172.49v10l107.49 20v752l-104.18 20v10z" />
    <glyph glyph-name="parenleft" unicode="(" horiz-adv-x="338" 
d="M302.54 732l5.98828 -7.99023c-80.8096 -38.5703 -151.06 -200.061 -148.52 -388.49c2.66016 -196.89 72.4102 -374.51 146.73 -426.51l-6 -9c-110.47 58 -208.89 238.92 -210.72 433.71c-1.80957 192.56 97.2002 357.8 212.521 398.28z" />
    <glyph glyph-name="parenright" unicode=")" horiz-adv-x="338" 
d="M37.79 -100l-6.01172 8.99023c74.3203 52 144.07 229.62 146.73 426.51c2.54004 188.43 -67.71 349.92 -148.52 388.49l6 8c115.32 -40.4805 214.33 -205.721 212.521 -398.28c-1.83008 -194.79 -100.25 -375.71 -210.72 -433.71z" />
    <glyph glyph-name="emdash" unicode="&#x2014;" horiz-adv-x="800" 
d="M0 271v40h800v-40h-800z" />
    <glyph glyph-name="endash" unicode="&#x2013;" horiz-adv-x="500" 
d="M0 271v40h500v-40h-500z" />
    <glyph glyph-name="hyphen" unicode="-" horiz-adv-x="380" 
d="M34 291.5l6 22.5h300l6 -22.5l-6 -22.5h-300z" />
    <glyph glyph-name="softhyphen" unicode="&#xad;" horiz-adv-x="380" 
d="M34 291.5l6 22.5h300l6 -22.5l-6 -22.5h-300z" />
    <glyph glyph-name="guillemotleft" unicode="&#xab;" horiz-adv-x="453" 
d="M214.8 489.71l-174.8 -197.96l174.8 -202.04l9 5l-118.8 197.04l117.8 192.96zM384.8 489.71l-174.8 -197.96l174.8 -202.04l9 5l-118.8 197.04l117.8 192.96z" />
    <glyph glyph-name="guillemotright" unicode="&#xbb;" horiz-adv-x="453" 
d="M69 89.71l174.8 202.04l-174.8 197.96l-8 -5l117.8 -192.96l-118.8 -197.04zM239 89.71l174.8 202.04l-174.8 197.96l-8 -5l117.8 -192.96l-118.8 -197.04z" />
    <glyph glyph-name="guilsinglleft" unicode="&#x2039;" horiz-adv-x="283" 
d="M214.8 489.71l-174.8 -197.96l174.8 -202.04l9 5l-118.8 197.04l117.8 192.96z" />
    <glyph glyph-name="guilsinglright" unicode="&#x203a;" horiz-adv-x="283" 
d="M69 89.71l174.8 202.04l-174.8 197.96l-8 -5l117.8 -192.96l-118.8 -197.04z" />
    <glyph glyph-name="quotedblbase" unicode="&#x201e;" horiz-adv-x="340" 
d="M47.7197 -102l-2.71973 8.99902c67.6797 22 56.5996 79 37.5596 102.34c-14.5 17.3604 -38.0303 36.8506 -25.5605 65.1807c14.1904 32.2197 68.3906 34.5098 87.2207 -10.5c36.1699 -87.0195 -23.75 -164.02 -96.5 -166.02zM179.82 -102.001l-2.71973 8.99902
c67.6797 22 56.5996 79 37.5596 102.34c-14.5 17.3604 -38.0303 36.8506 -25.5605 65.1807c14.1904 32.2197 68.3906 34.5098 87.2207 -10.5c36.1699 -87.0195 -23.75 -164.02 -96.5 -166.02z" />
    <glyph glyph-name="quotedblleft" unicode="&#x201c;" horiz-adv-x="340" 
d="M149.86 783.54l2.59961 -8.77148c-64.46 -20.8096 -53.9102 -75.5693 -35.7803 -97.3389c13.8096 -16.5303 36.2197 -35.0898 24.3398 -62.0703c-13.5098 -30.6904 -65.1299 -32.8701 -83.0596 10c-34.4502 82.6104 22.6201 155.99 91.9004 158.181zM289.87 783.528
l2.59961 -8.77148c-64.46 -20.8096 -53.9102 -75.5693 -35.7803 -97.3389c13.8096 -16.5303 36.2197 -35.0898 24.3398 -62.0703c-13.5098 -30.6904 -65.1299 -32.8701 -83.0596 10c-34.4502 82.6104 22.6201 155.99 91.9004 158.181z" />
    <glyph glyph-name="quotedblright" unicode="&#x201d;" horiz-adv-x="340" 
d="M52.5801 597.72l-2.45996 8.36719c61.3896 19.8203 51.3398 71.9707 34.0703 92.7109c-13.1602 15.7402 -34.5 33.4102 -23.1904 59.1006c12.8701 29.2305 62.0303 31.3105 79.1104 -9.51953c32.8096 -78.6797 -21.54 -148.569 -87.5303 -150.659zM192.58 597.737
l-2.46973 8.36719c61.3896 19.8203 51.3398 71.9707 34.0703 92.7109c-13.1504 15.7402 -34.4902 33.4102 -23.1807 59.1006c12.8701 29.2305 62.0303 31.3105 79.1104 -9.51953c32.8096 -78.6797 -21.54 -148.569 -87.5303 -150.659z" />
    <glyph glyph-name="quoteleft" unicode="&#x2018;" horiz-adv-x="200" 
d="M149.86 783.54l2.59961 -8.77148c-64.46 -20.8096 -53.9102 -75.5693 -35.7803 -97.3389c13.8096 -16.5303 36.2197 -35.0898 24.3398 -62.0703c-13.5098 -30.6904 -65.1299 -32.8701 -83.0596 10c-34.4502 82.6104 22.6201 155.99 91.9004 158.181z" />
    <glyph glyph-name="quoteright" unicode="&#x2019;" horiz-adv-x="200" 
d="M52.5801 597.72l-2.45996 8.36719c61.3896 19.8203 51.3398 71.9707 34.0703 92.7109c-13.1602 15.7402 -34.5 33.4102 -23.1904 59.1006c12.8701 29.2305 62.0303 31.3105 79.1104 -9.51953c32.8096 -78.6797 -21.54 -148.569 -87.5303 -150.659z" />
    <glyph glyph-name="quotesinglbase" unicode="&#x201a;" horiz-adv-x="200" 
d="M50.21 -97l-2.59961 8c64.46 21 53.9102 76 35.7803 97.8096c-13.8096 16.5303 -36.2197 35.0898 -24.3398 62.0703c13.5098 30.6904 65.1299 32.8701 83.0596 -10c34.4502 -82.8799 -22.6201 -155.88 -91.9004 -157.88z" />
    <glyph glyph-name="space" unicode=" " horiz-adv-x="250" 
 />
    <glyph glyph-name="florin" unicode="&#x192;" horiz-adv-x="493" 
d="M55 600l274.9 -0.0302734c37.21 0.280273 87.21 8.91016 103.28 15.6797v-113.16l-10 0.129883v15.3701c0 28.04 -19.1504 50.7998 -49.0205 51.3994h-188.93v-254.41h155.38c26.8799 0.580078 39.8096 19.3496 39.8096 42.46v12.7002l10 0.110352v-140.46l-10 0.110352
v12.7002c0 22.46 -12.2002 40.8203 -37.54 42.3799h-157.64v-285c0 -97 -77.0801 -178 -165.021 -178v10c56.46 20 100.81 94 101.01 168v538.29c-1.09961 29.4805 -23.6191 51.7305 -53.4189 51.7305h-12.6504z" />
    <glyph glyph-name="cent" unicode="&#xa2;" horiz-adv-x="602" 
d="M555.44 304.41l7.17188 -0.0302734l-7.94043 -118.3c-43.2402 -70.6797 -126 -111.38 -232.59 -111.28l-6.88965 -83.8496l-29.0195 3l6.63965 82.6299c-146.84 14.6797 -242.83 114.449 -242.83 269.369c0 170.12 110.1 271.24 286.239 271.24l6.70996 83.5498
l30.5195 -1.0498l-6.92969 -84.3203c56.9404 -5.66016 113.49 -23.8105 154.8 -50.4004l17.4297 -122h-7.19043c-22.29 93.2803 -83.9902 134.2 -167.48 142.601l-39.5195 -480.68c126.92 0.230469 221.56 58.0107 230.88 199.521zM295.292 107.56l38.5205 479.62
c-134.26 0 -208.83 -89.1299 -208.83 -241.25c0 -135.82 61.6299 -221.811 170.31 -238.37z" />
    <glyph glyph-name="currency" unicode="&#xa4;" horiz-adv-x="541" 
d="M491.7 153.65l-21.2002 -21.209l-60.0703 60.0703c-79.8701 -70.7695 -200.16 -71.25 -280.58 -1.44043l-58.6299 -58.6299l-21.21 21.21l58.6104 58.5996c-70.0996 80.4199 -69.7197 200.93 1.15039 280.91l-59.7598 59.7598l21.21 21.21l59.9502 -59.9502
c79.96 68.2803 198.5 67.7998 277.93 -1.44043l61.3896 61.3896l21.21 -21.21l-61.4102 -61.4102c68.9404 -79.4199 69.3203 -197.74 1.14062 -277.59zM139.92 222.651c71.4697 -71.4697 187.34 -71.4697 258.81 0s71.4697 187.34 0 258.81s-187.34 71.4697 -258.81 0
s-71.4697 -187.34 0 -258.81z" />
    <glyph glyph-name="dollar" unicode="$" horiz-adv-x="469" 
d="M249.77 401.59l115.269 -106.733c38.4902 -35.6299 49.9004 -79.1201 49.9004 -121.18c0 -117.63 -72.8398 -186.729 -197.09 -187.729l-6.79004 -88l-29.9697 3l6.7002 88c-50.7402 6 -100.53 22.4502 -129.09 51.6406c-7.4502 30.8701 -3.66992 94.5703 11.5605 139.41
h8.79004c-7.78027 -91.6396 36.8496 -150.64 110.989 -161.779l24.5303 320.98l-88.1201 81.8398c-41.1602 38.2305 -53.96 84.3408 -53.96 124.601c0 92.6396 72.4004 168.319 170.73 168.319l5.66016 74.0303l30.5195 -1.0498l-5.70996 -74.3301
c23.25 -1.75977 43.79 -5.0293 60.8604 -8.87891h38.8398v-11.8701v-110.83h-9.62988c0 56.4199 -36.2402 92.8203 -92.4404 100.88zM168.528 476.757l52.8301 -48.9209l19.5303 255.57c-62.9004 -3.0498 -112.92 -55.1094 -112.92 -113.449
c0 -29.8203 10.6299 -65.5 40.5596 -93.2002zM242.958 312.836l-22.79 -296.451h2.7998c74.54 2.36035 134.23 56.3408 134.23 132.451c0 36.1201 -11.4502 68.5303 -39.1807 94.29z" />
    <glyph glyph-name="Euro" unicode="&#x20ac;" horiz-adv-x="733" 
d="M673.48 153.98h10.0186l-1.16992 -104.92c-42.79 -43.6904 -134.98 -62.0703 -219.49 -62.0703c-182.6 0 -330.449 126 -361.229 296.61h-111.58l10.5801 30h96.8496c-1.16016 11.9502 -1.75 24.0898 -1.75 36.3896c0 11.3496 0.5 22.5596 1.48047 33.6191h-107.17
l10.5801 30h100.48c29.5996 172.58 178.1 300.39 361.76 300.39c100.95 0 184.73 -17.6201 219.25 -59.2998l-32.5195 -96.0303h-10c23.6602 108.41 -103.88 125.41 -176.729 125.41c-144.78 0 -262.101 -114.78 -287.171 -270.46h425.29l-10.5801 -30h-418.35
c-0.879883 -10.7197 -1.33008 -21.5996 -1.33008 -32.6191c0 -12.6602 0.589844 -25.1299 1.74023 -37.3896h393.72l-10.5801 -30h-379.16c26.6104 -153.81 143.051 -266.68 286.4 -266.68c123.35 0 191.76 38.8096 210.66 137.05z" />
    <glyph glyph-name="sterling" unicode="&#xa3;" 
d="M537.68 159.4l9.99219 0.0117188l-45.4297 -135.4c-65.5703 -30 -139.57 -39 -192.57 -32c-89 12 -138 45 -201 32c-9 -2 -29 -12 -40.9805 -24h-10v9.98047c50.8604 40.7197 101.74 153.3 101.96 318.77h-109.65l12.2598 35.8604h96.6602
c-9.24023 195.39 39.7598 334.39 200.76 349.39c65 6 115 -22 142.52 -57.2998l-27.3496 -91.2002h-10c11.8301 91.5 -41.1699 124.5 -105.17 118.5c-121.96 -12.2002 -137.07 -129.03 -130.61 -319.391h183.55l-12.2598 -35.8604h-170.98
c-1.83008 -176.57 -54.9297 -227.811 -104.33 -275.07c50.6299 17.3096 111.63 0.30957 186.63 -5.69043c80 -7 177 13 226 111.4z" />
    <glyph glyph-name="yen" unicode="&#xa5;" horiz-adv-x="661" 
d="M449.87 700.02l221.79 -0.000976562v-10.0195h-14c-41.6797 0 -78.9492 -27.4805 -100.31 -58.0703l-134.26 -217.01h126.67v-30h-145.23l-44.8896 -72.5596v-17.4404h190.12v-30h-190.12v-192.91c1.09961 -34.4297 29.3193 -62.0195 64.0293 -62.0195h12.6504
l0.160156 -10h-218.75l0.160156 10h12.6504c35 0 63.4004 28.0498 64.0801 62.8799v192.04h-190.12v30h190.12v18.3301l-42.8701 71.6699h-147.25v30h129.31l-129.62 216.7c-19.3701 30.71 -58.7305 58.4297 -100.551 58.4297h-13.6299v9.96973h245.92v-9.96973h-12.5996
c-29.2695 0 -49.7295 -33.7002 -35.0195 -62.0898l149.84 -279.85l159.37 279.94l0.530273 0.929688c15.5596 28.1699 -8.63086 61.0303 -35.5811 61.0303h-12.5996v10.0195z" />
    <glyph glyph-name="approxequal" unicode="&#x2248;" horiz-adv-x="481" 
d="M66.6797 349.7l-26.6582 24.2002c18.8896 25.04 60.4795 67.4199 114.899 60c64.8301 -8.83984 117.14 -50.9199 163.989 -60.0098c38.2803 -7.41992 73.4102 22.0703 96.5098 39.8398l26.3203 -24.8398c-16.5498 -16.4297 -62.1094 -70.5693 -122.84 -59.9893
c-64.5801 11.25 -110.01 50.4697 -163.99 60c-44.6602 7.88965 -61.54 -13.3008 -88.2305 -39.2012zM66.7012 179.7l-26.6582 24.2002c18.8896 25.04 60.4795 67.4199 114.899 60c64.8301 -8.83984 117.14 -50.9199 163.989 -60.0098
c38.2803 -7.41992 73.4102 22.0703 96.5098 39.8398l26.3203 -24.8398c-16.5498 -16.4297 -62.1094 -70.5693 -122.84 -59.9893c-64.5801 11.25 -110.01 50.4697 -163.99 60c-44.6602 7.88965 -61.54 -13.3008 -88.2305 -39.2012z" />
    <glyph glyph-name="asciitilde" unicode="~" horiz-adv-x="493" 
d="M408.05 352.65l44.9697 -0.0117188c23 -96.4805 -40.7998 -138.94 -107.37 -138.94c-69.2197 0 -145.97 96.1504 -205.37 98.9404c-37.6504 1.76953 -67.3008 -25.4004 -55.3008 -93.9502h-45c-17 93.1904 38.1104 137.771 100.301 138.95
c70.1699 1.33008 153.59 -97.3398 205.39 -98.9395c42.4004 -1.30957 82.3809 32.9707 62.3809 93.9512z" />
    <glyph glyph-name="divide" unicode="&#xf7;" horiz-adv-x="481" 
d="M240.5 432.91c-19.4697 0 -35.2598 15.79 -35.2598 35.2598s15.79 35.2598 35.2598 35.2598s35.2598 -15.79 35.2598 -35.2598s-15.79 -35.2598 -35.2598 -35.2598zM40 287.26v45h401.72v-45h-401.72zM240.5 116.859c-19.4697 0 -35.2598 15.79 -35.2598 35.2598
s15.79 35.25 35.2598 35.25s35.2598 -15.7803 35.2598 -35.25s-15.79 -35.2598 -35.2598 -35.2598z" />
    <glyph glyph-name="equal" unicode="=" horiz-adv-x="481" 
d="M40 363.89v45h401.72v-45h-401.72zM40 188.89v45h401.72v-45h-401.72z" />
    <glyph glyph-name="greater" unicode="&#x3e;" horiz-adv-x="481" 
d="M40 523.25l401.72 -191v-45l-401.72 -191v48l342.42 165.71l-342.42 165.29v48z" />
    <glyph glyph-name="greaterequal" unicode="&#x2265;" horiz-adv-x="481" 
d="M40 589.25l401.72 -191v-45l-401.72 -191v48l342.42 165.71l-342.42 165.29v48zM40 43.25v45h401.72v-45h-401.72z" />
    <glyph glyph-name="infinity" unicode="&#x221e;" horiz-adv-x="593" 
d="M316.22 262.82c-31.5703 -52.5098 -89.6807 -98.291 -154.32 -98.291c-70.2998 0 -122.819 56.3896 -121.899 132.08c0.929688 76.1602 53.4492 132.84 121.899 132.84c58.8398 0 116.67 -44.9102 155.09 -95.5498c36.96 49.5703 95.21 95.5508 154.32 95.5508
c68.4502 0 120.97 -56.6797 121.899 -132.84c0.919922 -75.6904 -51.5996 -132.08 -121.899 -132.08c-66.5195 0 -124.399 48.2998 -155.09 98.29zM161.899 207.528c51.25 0 99.3799 46.9092 127.59 90.0791c-31.6201 42.1104 -76.3398 88.8408 -127.59 88.8408
c-41.4697 0 -76.8896 -40.3398 -76.8896 -89.8398c0 -49.0303 35.4199 -89.0801 76.8896 -89.0801zM471.319 207.527c41.4697 0 76.8896 40.0498 76.8896 89.0801c0 49.5 -35.4199 89.8398 -76.8896 89.8398c-51.25 0 -98.2803 -49.8096 -127.58 -88.8398
c30.54 -46.7402 76.3301 -90.0801 127.58 -90.0801z" />
    <glyph glyph-name="integral" unicode="&#x222b;" horiz-adv-x="440" 
d="M314.09 791.91c30.5303 3 73.9707 -5 90.9707 -32c9.13965 -15 6.71973 -34 -3.69043 -46c-17.4004 -19 -41.9102 -17 -55.5098 -3c-16.8604 16 -18.8408 43 -41.7607 43c-18.5996 0 -31.7998 -21 -35.2598 -90c-2.67969 -53 -28.9102 -577.13 -34.9502 -661.75
c-5.61035 -78.1602 -29.8506 -184.16 -117.261 -193.16c-30.5303 -3 -73.9707 5 -90.9707 32c-9.13965 15 -6.71973 34 3.69043 46c17.4004 19 41.9102 17 55.5098 3c16.8604 -16 18.8408 -43 41.7607 -43c18.5996 0 31.7998 21 35.2598 90
c2.67969 53 28.9102 577.13 34.9502 661.75c5.61035 78.1602 29.8506 184.16 117.261 193.16z" />
    <glyph glyph-name="less" unicode="&#x3c;" horiz-adv-x="481" 
d="M441.72 523.25v-48l-342.42 -165.29l342.42 -165.71v-48l-401.72 191v45z" />
    <glyph glyph-name="lessequal" unicode="&#x2264;" horiz-adv-x="481" 
d="M441.72 589.25v-48l-342.42 -165.29l342.42 -165.71v-48l-401.72 191v45zM40 43.25v45h401.72v-45h-401.72z" />
    <glyph glyph-name="logicalnot" unicode="&#xac;" horiz-adv-x="601" 
d="M40 397.23h521.72v-202.66h-45v157.66h-476.72v45z" />
    <glyph glyph-name="minus" unicode="&#x2212;" horiz-adv-x="481" 
d="M40 287.25v45h401.72v-45h-401.72z" />
    <glyph glyph-name="multiply" unicode="&#xd7;" horiz-adv-x="415" 
d="M365.88 435.87l-126.12 -126.12l126.12 -126.12l-31.8203 -31.8203l-126.12 126.12l-126.12 -126.12l-31.8203 31.8203l126.12 126.12l-126.12 126.12l31.8203 31.8203l126.12 -126.12l126.12 126.12z" />
    <glyph glyph-name="notequal" unicode="&#x2260;" horiz-adv-x="481" 
d="M441.72 363.89h-139.919l-62.7803 -130h202.7v-45h-224.44l-59.0303 -122.23l-41.21 18.5801l50.3701 103.65h-127.41v45h149.28l63.1699 130h-212.45v45h234.31l53.29 109.67l39.9404 -18.5596l-44 -91.1104h118.18v-45z" />
    <glyph glyph-name="partialdiff" unicode="&#x2202;" horiz-adv-x="566" 
d="M78.6904 577.39l-9.04102 6.98926c50.6201 98.1104 117.47 142.261 223.38 129.621c138.85 -16.5801 224.71 -183.11 212.76 -380.91c-13 -215.2 -98.6602 -339.09 -242.75 -347.09c-182.26 -10 -228.279 144.95 -191.18 276.17
c34.5596 122.25 193.64 251.78 363.37 105.91c1.65039 137.93 -44.4492 266.92 -146.169 290.92c-58.79 13.8701 -140.13 15.8896 -210.37 -81.6104zM433.789 333.079l1.11035 21.2305c-178.03 97.8896 -265.931 3.05957 -297.301 -123.15
c-29.3096 -117.89 22.1602 -225.17 125.44 -215.17c83.1602 8.0498 157.75 129.88 170.75 317.09z" />
    <glyph glyph-name="percent" unicode="%" horiz-adv-x="684" 
d="M518.59 709l22.2227 -8.98926l-372.35 -711l-25.7002 11l356.36 676.46c-33.2305 -17.2002 -72.0508 -42.6504 -122.721 -38.6504c-23.7695 1.87988 -45.1797 11.3604 -65.8398 22.0205c15.5898 -30.0996 20.29 -71.7393 11.3496 -122.47
c-19.3301 -109.6 -87.3799 -176.779 -167.66 -176.779s-124.641 67.1797 -105.311 176.779c18.9697 107.6 85.0898 174.399 167.649 176.77c12.6699 0 24.4395 -1.66992 35.209 -4.91992c48.8301 -13.1602 76.2803 -48.4004 125.61 -52.1504
c56.8896 -4.33008 109.439 36.9697 141.18 51.9297zM268.782 537.371c17.0996 97 -4.10059 156.45 -55.791 156.45s-93.8506 -59.4502 -110.95 -156.45s4.10059 -156.45 55.791 -156.45s93.8506 59.4502 110.95 156.45zM530.662 339.251
c80.2803 0 124.641 -67.1797 105.311 -176.779s-87.3799 -176.46 -167.66 -176.46s-124.641 66.8604 -105.311 176.46s87.3799 176.779 167.66 176.779zM582.862 162.471c17.0996 97 -4.10059 156.45 -55.791 156.45s-93.8506 -59.4502 -110.95 -156.45
s4.10059 -156.45 55.791 -156.45s93.8506 59.4502 110.95 156.45z" />
    <glyph glyph-name="perthousand" unicode="&#x2030;" horiz-adv-x="1015" 
d="M518.59 709l22.2227 -8.98926l-372.35 -711l-25.7002 11l356.36 676.46c-33.2305 -17.2002 -72.0508 -42.6504 -122.721 -38.6504c-23.7695 1.87988 -45.1797 11.3604 -65.8398 22.0205c15.5898 -30.0996 20.29 -71.7393 11.3496 -122.47
c-19.3301 -109.6 -87.3799 -176.779 -167.66 -176.779s-124.641 67.1797 -105.311 176.779c18.9697 107.6 85.0898 174.399 167.649 176.77c12.6699 0 24.4395 -1.66992 35.209 -4.91992c48.8301 -13.1602 76.2803 -48.4004 125.61 -52.1504
c56.8896 -4.33008 109.439 36.9697 141.18 51.9297zM268.782 537.371c17.0996 97 -4.10059 156.45 -55.791 156.45s-93.8506 -59.4502 -110.95 -156.45s4.10059 -156.45 55.791 -156.45s93.8506 59.4502 110.95 156.45zM530.662 339.251
c80.2803 0 124.641 -67.1797 105.311 -176.779s-87.3799 -176.46 -167.66 -176.46s-124.641 66.8604 -105.311 176.46s87.3799 176.779 167.66 176.779zM860.662 339.251c80.2803 0 124.641 -67.1797 105.311 -176.779s-87.3799 -176.46 -167.66 -176.46
s-124.641 66.8604 -105.311 176.46s87.3799 176.779 167.66 176.779zM582.862 162.471c17.0996 97 -4.10059 156.45 -55.791 156.45s-93.8506 -59.4502 -110.95 -156.45s4.10059 -156.45 55.791 -156.45s93.8506 59.4502 110.95 156.45zM912.862 162.471
c17.0996 97 -4.10059 156.45 -55.791 156.45s-93.8506 -59.4502 -110.95 -156.45s4.10059 -156.45 55.791 -156.45s93.8506 59.4502 110.95 156.45z" />
    <glyph glyph-name="plus" unicode="+" horiz-adv-x="481" 
d="M441.72 332.25v-45h-178.36v-178.36h-45v178.36h-178.36v45h178.36v178.36h45v-178.36h178.36z" />
    <glyph glyph-name="plusminus" unicode="&#xb1;" horiz-adv-x="481" 
d="M263.36 402.25h178.36v-45h-178.36v-178.36h-45v178.36h-178.36v45h178.36v178.36h45v-178.36zM40.001 60v45h401.72v-45h-401.72z" />
    <glyph glyph-name="product" unicode="&#x220f;" horiz-adv-x="763" 
d="M708.8 -190l0.150391 -9.99902h-196.55l0.139648 10h10.9004c30.1396 0 54.5996 24 55.1797 54v751.81c-0.549805 29.5195 -24.21 54.1895 -53.6904 54.1895h-285.95c-28.9404 0 -52.2705 -23.7695 -53.6406 -52.5693v-754.43c0.950195 -29 25.2803 -53 55.2002 -53
h10.9004l0.139648 -10h-196.55l0.139648 10h10.9004c30.1396 0 54.5996 24 55.1797 54v771.81c-0.55957 30.0303 -25.04 54.21 -55.21 54.21h-10.9004l-0.139648 10h653.91l-0.139648 -10h-10.9004c-29.6299 0 -53.7695 -23.3203 -55.1699 -52.6006v-774.42
c0.950195 -29 25.2803 -53 55.2002 -53h10.9004z" />
    <glyph glyph-name="radical" unicode="&#x221a;" horiz-adv-x="594" 
d="M25 400.46l-5.00098 30.0088l139.28 20l123.14 -441.31l261.8 834.03l30 -2l-307.6 -988.18l-159.31 559.34z" />
    <glyph glyph-name="summation" unicode="&#x2211;" horiz-adv-x="635" 
d="M600.61 8.70996l-32.9209 -188.691h-527.68v10l264.3 422.39l-258.76 437.61v10.0303h402.42c43.3604 0 102.98 10.21 121.931 18.2002v-125.8l-10.0596 0.150391v17.8203c0 32.2402 -25.5801 58.46 -57.54 59.5801h-369.96l227.35 -390.75l-244.59 -395.25h346.79
c69.6602 4 110.41 58 128.72 124.71h10z" />
    <glyph glyph-name="ampersand" unicode="&#x26;" horiz-adv-x="646" 
d="M642.48 374.57l-15.1104 -0.0292969c-29.3301 0.0400391 -42.2305 -18.25 -37.04 -45.2305c15.7598 -81.8896 4.72949 -158.55 -29.4404 -218.21c53.7197 -46.3604 111.859 -96.3105 175.369 -101.15v-10c-38.8203 0 -130.71 -7.75977 -215.27 59.3701
c-44.29 -43.29 -106.79 -69.3701 -184.76 -69.3701c-195.67 0 -306.24 85.25 -306.24 234.34c0 91.0996 51.54 149.64 120.99 184.819c-24.79 40.1504 -37.8604 82.1104 -37.8604 133.591c0 97.9902 78.29 171.721 201.13 171.721
c66.7002 -0.929688 134.2 -28.2998 169.48 -71.29l-17.3496 -113.2h-10c0 95.79 -57.1104 154.5 -142.13 154.5c-76.3398 0 -132.13 -60.0498 -132.13 -141.71c0 -83.8096 55.6699 -147.64 158.71 -239.87c41.8799 -37.4805 97.1201 -89.1807 181.44 -158.98
c26.3096 59.5303 27.7295 129.82 0.539062 185.13c-13.3398 27.1504 -33.1494 45.6104 -64.4297 45.5703h-15.7695v10h199.87v-10zM336.21 20.2715c64.5498 0 115.36 27.1006 150.41 67.2705c-83.7402 69.2598 -139.391 117.56 -191.9 165.77
c-53.79 49.3799 -96.75 90.3896 -127.36 131.67c-46.1797 -42.6602 -64.3896 -99.4902 -64.3896 -160.7c0 -120.49 84.0703 -204.01 233.24 -204.01z" />
    <glyph glyph-name="at" unicode="@" horiz-adv-x="977" 
d="M549.85 234.21l-164.01 0.0107422c-70.75 -98.8096 -124.25 -160.859 -194.53 -161.39c-108.93 -0.820312 -175.17 144.819 -100.5 322.109c85.0195 201.88 286.01 323.81 526.04 292.59c201.52 -26.21 319.699 -185.03 297.839 -378.48
c-32.2998 -285.92 -288.939 -555.05 -720.359 -372.05l-4 10c352.61 -138 622.841 58.3301 659.371 362.05c22.8301 189.78 -70.6504 327.2 -232.841 348.48c-200.61 26.3203 -375.91 -76 -461.05 -267.22c-64.8496 -145.66 -49.8193 -286.34 35.4902 -287.49
c74.96 -1.00977 147.61 118.19 198.99 188.171l127.06 173.05s46.3604 57.3398 54.7402 76.8594h6.71973l41.3301 -403.7c4.05957 -32.5195 21.96 -47.0098 41.0596 -47.0098h5.11035l-1.32031 -7.45996h-158.17l1.2998 7.38965h6.95996
c14.6602 0 40.6104 13.2197 40.6104 36.8594zM538.07 450.851l-136.33 -194.24h146.9z" />
    <glyph glyph-name="bar" unicode="|" horiz-adv-x="245" 
d="M100 -180v880h45v-880h-45z" />
    <glyph glyph-name="brokenbar" unicode="&#xa6;" horiz-adv-x="245" 
d="M100 350v350h45v-350h-45zM100 -180v350h45v-350h-45z" />
    <glyph glyph-name="copyright" unicode="&#xa9;" horiz-adv-x="848" 
d="M424 714c201.03 0 364 -162.97 364 -364s-162.97 -364 -364 -364s-364 162.97 -364 364s162.97 364 364 364zM424 677.42c-180.83 0 -327.42 -146.59 -327.42 -327.42s146.59 -327.42 327.42 -327.42s327.42 146.59 327.42 327.42s-146.59 327.42 -327.42 327.42z
M616.08 315.78l5.91113 0.0507812l-6.53027 -97.3301c-34.7598 -56.8096 -105.25 -91.6299 -185.5 -91.6299c-130.83 0.679688 -228.95 96.3193 -228.95 223.159c0 127.52 98.1201 223.159 228.95 223.159c56.5596 0 116.619 -16.3496 158.049 -43.0195l14.3398 -100.37
h-5.91016c-17.3496 72.5996 -80.6094 117.1 -166.479 117.1c-93.0195 0 -162.789 -84.3799 -162.789 -196.89c0 -110.52 69.7695 -194.899 162.789 -196.89c100.62 0.299805 178.45 46.2197 186.12 162.66z" />
    <glyph glyph-name="dagger" unicode="&#x2020;" horiz-adv-x="517" 
d="M478 438.41l-13.999 -37.3301l-155.75 17.4404l-44.8604 15.1797l15.4902 -42.4805l12.3398 -236.13l-27.5303 -335.08h-10l-27.4697 335.08l12.6602 236.13l15.1201 42.3203l-45.3701 -15.0801l-154.63 -17.3799l-14 37.3398l14 37.6602l154.63 -17.6201
l45.0596 -14.9199l-14.8096 41.9004l-17.6797 214.56l38.6396 14l36.3604 -14l-17.3203 -214.56l-15.1904 -41.9199l44.5596 14.9902l155.75 17.5596z" />
    <glyph glyph-name="daggerdbl" unicode="&#x2021;" horiz-adv-x="518" 
d="M464.64 132.32l14 -37.3398l-14 -37.6602l-154.63 17.6201l-45.0596 14.9199l14.8096 -41.9004l17.6797 -214.95l-38.6396 -14l-36.3604 14l17.3203 214.95l15.1904 41.9199l-44.5596 -14.9902l-155.75 -17.5596l-14 37.6602l14 37.3398l155.75 -17.4404
l44.8604 -15.1797l-15.4902 42.4805l-17.9404 124.52l17.0596 124.52l15.1201 42.3203l-45.3701 -15.0801l-154.63 -17.3799l-14 37.3398l14 37.6602l154.63 -17.6201l45.0596 -14.9199l-14.8096 41.9004l-17.6904 214.56l38.6396 14l36.3604 -14l-17.3096 -214.56
l-15.1904 -41.9199l44.5596 14.9902l155.75 17.5596l14 -37.6602l-14 -37.3398l-155.75 17.4404l-44.8604 15.1797l15.4902 -42.4805l17.9404 -124.52l-17.0596 -124.52l-15.1201 -42.3203l45.3701 15.0801z" />
    <glyph glyph-name="degree" unicode="&#xb0;" horiz-adv-x="257" 
d="M128.54 664.35c54.4199 0 98.54 -44.1201 98.54 -98.54s-44.1201 -98.54 -98.54 -98.54s-98.54 44.1201 -98.54 98.54s44.1201 98.54 98.54 98.54zM128.54 625.02c-33.1504 0 -59.2002 -26.0498 -59.2002 -59.2002s26.0498 -59.2002 59.2002 -59.2002
s59.2002 26.0498 59.2002 59.2002s-26.0498 59.2002 -59.2002 59.2002z" />
    <glyph glyph-name="lozenge" unicode="&#x25ca;" horiz-adv-x="530" 
d="M480.97 349.79l-221.82 364.21l-209.15 -364.21l209.15 -363.79zM92.999 349.79l166.15 295.21l178.82 -295.21l-178.82 -295.19z" />
    <glyph glyph-name="paragraph" unicode="&#xb6;" horiz-adv-x="520" 
d="M503.37 742.62l6.99023 -5.99707c-16.6104 -36.4004 -46.1104 -65.3906 -105.79 -66.4404h-12.5303v-523.11c0 -77.0195 -8.87988 -112.47 -48 -160.08l-9 8c28.7598 49.46 27 83.7598 27 149.63v525.56h-83.46v-670.19c0 -77 -3.48047 -156 -85.9707 -199l-7 9
c56.2402 58 63.6299 93 60.71 190v333.14c-110.55 0 -197.55 69.9297 -196.31 184.029c1.23047 112.96 88.2305 182.51 196.311 183.029h161.18c21.9502 0 54.9404 -4.71973 95.8701 42.4307z" />
    <glyph glyph-name="registered" unicode="&#xae;" horiz-adv-x="245" 
d="M122.86 700.86c62.3301 0 112.86 -50.5303 112.86 -112.86s-50.5303 -112.86 -112.86 -112.86s-112.86 50.5303 -112.86 112.86s50.5303 112.86 112.86 112.86zM122.86 495.141c51.2803 0 92.8506 41.5703 92.8506 92.8506s-41.5703 92.8506 -92.8506 92.8506
s-92.8506 -41.5703 -92.8506 -92.8506s41.5703 -92.8506 92.8506 -92.8506zM104.601 651.7l21.8662 0.0605469c23.5996 0 41.46 -12.1797 41.46 -32.3701c0 -16.9502 -11.5098 -31.1104 -28.5293 -32.9102c8.82031 -1.98047 20.3906 -22.3008 28.1309 -33.5508
c2.90039 -4.21973 8.27051 -15.1602 20.7705 -19.0898v-2h-12.6904c-33.8398 0 -41.2998 25.4805 -52.8799 44.9502c-4.01953 6.75977 -6.91992 13.4795 -11.2197 13.4795v1.84961h10.5596c1.2998 0.280273 12.8594 0.350586 18.1289 17.1504
c0.879883 2.7998 1.41016 6.99023 1.27051 11.3701c-0.410156 12.9697 -7.83008 21.8496 -24.7998 21.6699l-12.0195 0.219727v-97.9297c0.110352 -6 4.65039 -10.8301 10.6807 -10.8301h2.53027v-2h-50.29v2h2.53027c5.94043 0 10.4307 4.69043 10.6709 10.5703v94.9297
c-0.179688 5.94043 -4.69922 10.4307 -10.6895 10.4307h-2.53027v2h37.0498z" />
    <glyph glyph-name="section" unicode="&#xa7;" horiz-adv-x="511" 
d="M278 708c122.23 20.2402 167.858 -65.3701 127.019 -95.9902c-37.9102 -28.4297 -100.99 110.84 -193 43.9902c-66.5098 -48.3203 -51.9902 -111.17 124 -289c222.42 -224.74 69.6797 -491 -93 -518c-122.17 -20 -171.27 64 -128.01 97
c37.5303 28 99.1406 -109 191.99 -44c69.4805 48 40.3906 133.18 -127.999 295c-234 225.21 -57.5498 485.08 99 511zM139.268 582.92c-43.0596 -80.6699 -75.5898 -188.661 84.7402 -334.921c126.89 -115.75 166.42 -197.89 147.38 -262.989
c49.9902 78.6104 66.3301 189.21 -82.3701 332c-128.55 123.44 -157.59 188.11 -149.75 265.91z" />
    </font>
</defs>
</svg>
