<?xml version="1.0" standalone="no"?>
<!DOCTYPE svg PUBLIC "-//W3C//DTD SVG 1.1//EN" "http://www.w3.org/Graphics/SVG/1.1/DTD/svg11.dtd" >
<svg xmlns="http://www.w3.org/2000/svg" xmlns:xlink="http://www.w3.org/1999/xlink" version="1.1">
<metadata>
Created by FontForge 20141024 at Mon Jul 13 20:21:11 2015
 By System Administrator
Copyright (c) 2012 Natanael Gama (www.ndiscovered.com), with Reserved Font Name "Cinzel"
</metadata>
<defs>
<font id="Cinzel-Black" horiz-adv-x="600" >
  <font-face 
    font-family="Cinzel"
    font-weight="900"
    font-stretch="normal"
    units-per-em="1000"
    panose-1="0 0 10 0 0 0 0 0 0 0"
    ascent="800"
    descent="-200"
    x-height="600.07"
    cap-height="700.09"
    bbox="-50.0088 -305.536 1375.74 970.665"
    underline-thickness="50"
    underline-position="-50"
    stemh="50"
    stemv="205"
    unicode-range="U+0020-FB02"
  />
<missing-glyph horiz-adv-x="250" 
 />
    <glyph glyph-name=".notdef" horiz-adv-x="250" 
 />
    <glyph glyph-name="A" unicode="A" horiz-adv-x="720" 
d="M351.41 724l316.8 -658.84c22.2598 -38.8799 54.8896 -55.1602 83.6699 -55.1602h8.36035v-10h-379.06v9.91016h8.79004c25.8203 0 54.75 22.75 38.75 62.7695l-39 93.3203h-213.49l-40.1602 -93.3203c-17.5996 -40.0195 12.5801 -62.7793 38.4004 -62.7793h8.79004
v-9.91016h-223.28v10h9c28 0 61.4102 15.9697 83.0303 54.04l233.34 510.83c11.75 25.0596 53.0498 115.42 57.0498 149.14h9.00977zM198.03 216h170.79l-83.5996 200.01z" />
    <glyph glyph-name="Aacute" unicode="&#xc1;" horiz-adv-x="720" 
d="M331.81 761l-6.99023 7.00293c28.25 65.8896 110.5 147.779 154.75 185.659c48.3799 -20.2402 71.7598 -53.4805 85.1396 -99.7207c-63.2998 -41.9805 -159.6 -83.9609 -232.899 -92.9414zM351.419 724.003l316.8 -658.84
c22.2598 -38.8799 54.8896 -55.1602 83.6699 -55.1602h8.36035v-10h-379.06v9.91016h8.79004c25.8203 0 54.75 22.75 38.75 62.7695l-39 93.3203h-213.49l-40.1602 -93.3203c-17.5996 -40.0195 12.5801 -62.7793 38.4004 -62.7793h8.79004v-9.91016h-223.28v10h9
c28 0 61.4102 15.9697 83.0303 54.04l233.34 510.83c11.75 25.0596 53.0498 115.42 57.0498 149.14h9.00977zM198.039 216.003h170.79l-83.5996 200.01z" />
    <glyph glyph-name="Abreve" unicode="&#x102;" horiz-adv-x="720" 
d="M475.61 927.65h12.71c19.2998 -86.7305 -51.7002 -163.73 -139.5 -163.641c-90.2002 -0.0898438 -158.2 78.9102 -139.51 163.641h12.7197c15.5898 -35.7305 67.5898 -63.7305 126.59 -63.7305c58 0 111 27 126.99 63.7305zM351.42 724l316.8 -658.84
c22.2598 -38.8799 54.8896 -55.1602 83.6699 -55.1602h8.36035v-10h-379.06v9.91016h8.79004c25.8203 0 54.75 22.75 38.75 62.7695l-39 93.3203h-213.49l-40.1602 -93.3203c-17.5996 -40.0195 12.5801 -62.7793 38.4004 -62.7793h8.79004v-9.91016h-223.28v10h9
c28 0 61.4102 15.9697 83.0303 54.04l233.34 510.83c11.75 25.0596 53.0498 115.42 57.0498 149.14h9.00977zM198.04 216h170.79l-83.5996 200.01z" />
    <glyph glyph-name="Acircumflex" unicode="&#xc2;" horiz-adv-x="720" 
d="M341.57 931.76l-168.868 -175.42l7.13965 -8l167.12 64.3301l177.81 -64.4297l7.13965 8l-178.44 175.52h-11.9004zM351.422 724l316.8 -658.84c22.2598 -38.8799 54.8896 -55.1602 83.6699 -55.1602h8.36035v-10h-379.06v9.91016h8.79004
c25.8203 0 54.75 22.75 38.75 62.7695l-39 93.3203h-213.49l-40.1602 -93.3203c-17.5996 -40.0195 12.5801 -62.7793 38.4004 -62.7793h8.79004v-9.91016h-223.28v10h9c28 0 61.4102 15.9697 83.0303 54.04l233.34 510.83c11.75 25.0596 53.0498 115.42 57.0498 149.14
h9.00977zM198.042 216h170.79l-83.5996 200.01z" />
    <glyph glyph-name="Adieresis" unicode="&#xc4;" horiz-adv-x="720" 
d="M213.97 755.49c-40.7002 0 -73.6904 32.9902 -73.6904 73.6904s32.9902 73.6904 73.6904 73.6904s73.6904 -32.9902 73.6904 -73.6904s-32.9902 -73.6904 -73.6904 -73.6904zM476.569 755.49c-40.7002 0 -73.6904 32.9902 -73.6904 73.6904
s32.9902 73.6904 73.6904 73.6904s73.6904 -32.9902 73.6904 -73.6904s-32.9902 -73.6904 -73.6904 -73.6904zM351.419 724l316.8 -658.84c22.2598 -38.8799 54.8896 -55.1602 83.6699 -55.1602h8.36035v-10h-379.06v9.91016h8.79004c25.8203 0 54.75 22.75 38.75 62.7695
l-39 93.3203h-213.49l-40.1602 -93.3203c-17.5996 -40.0195 12.5801 -62.7793 38.4004 -62.7793h8.79004v-9.91016h-223.28v10h9c28 0 61.4102 15.9697 83.0303 54.04l233.34 510.83c11.75 25.0596 53.0498 115.42 57.0498 149.14h9.00977zM198.039 216h170.79
l-83.5996 200.01z" />
    <glyph glyph-name="Agrave" unicode="&#xc0;" horiz-adv-x="720" 
d="M375.72 770.91l-6.99023 -7.00293c-73.2998 8.98047 -169.6 50.9609 -232.899 92.9414c13.3799 46.2402 36.7598 79.4805 85.1396 99.7207c44.25 -37.8799 126.5 -119.77 154.75 -185.659zM351.43 723.997l316.8 -658.84
c22.2598 -38.8799 54.8896 -55.1602 83.6699 -55.1602h8.36035v-10h-379.06v9.91016h8.79004c25.8203 0 54.75 22.75 38.75 62.7695l-39 93.3203h-213.49l-40.1602 -93.3203c-17.5996 -40.0195 12.5801 -62.7793 38.4004 -62.7793h8.79004v-9.91016h-223.28v10h9
c28 0 61.4102 15.9697 83.0303 54.04l233.34 510.83c11.75 25.0596 53.0498 115.42 57.0498 149.14h9.00977zM198.05 215.997h170.79l-83.5996 200.01z" />
    <glyph glyph-name="Amacron" unicode="&#x100;" horiz-adv-x="720" 
d="M206.63 795.36v85h290v-85h-290zM351.41 724l316.8 -658.84c22.2598 -38.8799 54.8896 -55.1602 83.6699 -55.1602h8.36035v-10h-379.06v9.91016h8.79004c25.8203 0 54.75 22.75 38.75 62.7695l-39 93.3203h-213.49l-40.1602 -93.3203
c-17.5996 -40.0195 12.5801 -62.7793 38.4004 -62.7793h8.79004v-9.91016h-223.28v10h9c28 0 61.4102 15.9697 83.0303 54.04l233.34 510.83c11.75 25.0596 53.0498 115.42 57.0498 149.14h9.00977zM198.03 216h170.79l-83.5996 200.01z" />
    <glyph glyph-name="Aogonek" unicode="&#x104;" horiz-adv-x="720" 
d="M351.41 714l312.62 -640.99c22.21 -44.5498 57.2197 -55.0098 87.8701 -61.0098l8.36035 -1.62012v-10.3799c-26.2598 1 -186.26 17 -259.26 0c-53 -12 -67 -42 -64 -73c5 -60 64 -82 112.4 -42l6 -6c-7.40039 -136 -227.4 -99 -204.4 37c8 47 37 62 70 84
c20.2803 13.5195 22.8398 31.71 8.7002 68.9902l-41.4502 97.0098h-210.73l-42.0596 -94.7695c-16.25 -39.1201 13.5098 -61.3301 39.0098 -61.3301h8.79004v-9.91016h-223.28v10h9c30 0 66.2998 18.3701 87.54 62.6699l228.83 492.2
c11.75 25.0596 53.0498 115.42 57.0498 149.14h9.00977zM199.721 216h167.18l-82 191.93z" />
    <glyph glyph-name="Aring" unicode="&#xc5;" horiz-adv-x="720" 
d="M361.14 694.07l302.909 -621.03c22.21 -44.5498 57.2197 -63.0098 87.8701 -63.0098h8.36035v-10h-379.06v9.91016h8.79004c25.6299 0 54.3301 22.4297 38.5 61.9102l-40.2402 94.1797h-210.73l-42.0596 -94.7695c-16.25 -39.1201 13.5098 -61.3301 39.0098 -61.3301
h8.79004v-9.91016h-223.28v10h9c30 0 66.3096 18.3701 87.54 62.6797l228.82 492.18c9.84961 21 40.4395 87.8496 52.4492 128.8c-48.3896 3.17969 -89.3193 32.9697 -89.0693 74.75c-0.269531 44.8701 44.9307 74.6396 99.1006 74.8896
c53.8799 -0.25 97.9795 -28.9199 98.4297 -73.9795c-0.410156 -40.3096 -37.9697 -70.4395 -85.1299 -75.2695zM304.579 768.38c0.110352 -29.6904 18.2607 -52.0996 42.3809 -52.29c25.0498 0.200195 43.6895 22.6104 43.499 52.29
c0.200195 30.2197 -18.4395 52.6299 -43.4893 52.29c-24.1104 0.320312 -42.2803 -22.0898 -42.3906 -52.29zM199.72 216.031h167.18l-82 191.93z" />
    <glyph glyph-name="Atilde" unicode="&#xc3;" horiz-adv-x="720" 
d="M556.2 919.28l-12.3594 -0.00878906c-6.66016 -16.5195 -46.0801 -49.5996 -90.7705 -43.4893c-72.8896 9.96973 -103.89 53.1494 -162.04 53.0791c-97.8496 -0.110352 -131.85 -108.11 -117.17 -161.78h12.3496c8.96973 21.6699 47.54 58.2598 91.9902 51.1201
c64.9805 -10.4502 98.9805 -53.8604 161.311 -54.0801c100.68 -0.360352 138.68 106.64 116.689 155.159zM351.4 723.981l316.8 -658.84c22.2598 -38.8799 54.8896 -55.1602 83.6699 -55.1602h8.36035v-10h-379.06v9.91016h8.79004c25.8203 0 54.75 22.75 38.75 62.7695
l-39 93.3203h-213.49l-40.1602 -93.3203c-17.5996 -40.0195 12.5801 -62.7793 38.4004 -62.7793h8.79004v-9.91016h-223.28v10h9c28 0 61.4102 15.9697 83.0303 54.04l233.34 510.83c11.75 25.0596 53.0498 115.42 57.0498 149.14h9.00977zM198.021 215.981h170.79
l-83.5996 200.01z" />
    <glyph glyph-name="AE" unicode="&#xc6;" horiz-adv-x="1017" 
d="M991.42 231.54l10.0322 0.00878906l-38.29 -231.54h-556.71l0.120117 10h9.73047c26.9199 0 48.7598 21.5801 49.2695 48.3799v258.86h-156.3l-151.47 -244.54c-24.5996 -40.0195 12.5801 -62.7793 38.4004 -62.7793h8.79004v-9.91016h-237.97v10h9
c29.46 0 55.5898 17.9004 86.1797 60.9902l391.04 569.8c17.8398 27.1201 3.5498 49.21 -21.6807 49.21h-5v10h394.6c43.0996 0.410156 100.729 10.3701 119.289 18.1904v-206.27l-10.1201 0.150391v7.82031c0.19043 78.6699 -46.1191 126.63 -124.889 129.51h-134.86
v-282.19h102.35c61.7197 2.75 105.14 47.5098 104.92 109.16v4.73047l9.76953 0.129883v-277.96l-9.76953 0.120117v4.73047c0.209961 61.1396 -42.5303 105.659 -103.351 109.079h-103.9v-266.63h113.3c95.96 0 176.43 66.7695 207.52 180.949zM340.272 367.229h125.32
v202.26z" />
    <glyph glyph-name="B" unicode="B" horiz-adv-x="731" 
d="M30 700l348.49 0.0390625c148.55 0 277.55 -37 277.55 -173.9c-0.0400391 -96.0996 -64.04 -143.1 -130.84 -145.25c97.7998 -4.84961 181.8 -69.8496 181.359 -180.979c0.44043 -138.87 -130.56 -199.87 -312.909 -199.87h-363.65l0.160156 10h12.6504
c34.7803 0 63.04 27.7002 64.04 62.2305v555.79c-1.07031 34.46 -29.3008 62.0801 -63.8506 62h-12.8398zM312.01 51.5088l12.8604 0.00976562c80.1699 -0.469727 147.17 42.5303 146.729 163.92c0.44043 95.6104 -41.5596 154.61 -125.659 154.42l-0.230469 9.41016
c64.3301 -0.219727 95.3301 47.7803 95.3701 130.851c-0.0400391 106.93 -51.04 139.93 -116.21 139.75h-12.8604v-598.36z" />
    <glyph glyph-name="C" unicode="C" horiz-adv-x="793" 
d="M721.01 291.85l8.30078 0.00976562l23.8096 -181.95c-39.7002 -66.1396 -122.15 -123.939 -281.011 -123.939c-269.13 1 -437.13 132 -437.13 365c0 228 162 363 438 363c112 0 201 -22 256.53 -45.5303l-9.82031 -191.24h-8.32031
c-40.3799 140.74 -118.38 186.74 -221.71 186.811c-147.5 0 -234.66 -115.17 -234.66 -310.01c0 -195.99 80.6504 -314.13 217.131 -318.07c161.55 0 212.31 64.5801 248.88 255.92z" />
    <glyph glyph-name="Cacute" unicode="&#x106;" horiz-adv-x="793" 
d="M419 761l-6.99023 7.00293c28.25 65.8896 110.5 147.779 154.75 185.659c48.3799 -20.2402 71.7598 -53.4805 85.1396 -99.7207c-63.2998 -41.9805 -159.6 -83.9609 -232.899 -92.9414zM721.02 291.853l8.30078 0.00976562l23.8096 -181.95
c-39.7002 -66.1396 -122.15 -123.939 -281.011 -123.939c-269.13 1 -437.13 132 -437.13 365c0 228 162 363 438 363c112 0 201 -22 256.53 -45.5303l-9.82031 -191.24h-8.32031c-40.3799 140.74 -118.38 186.74 -221.71 186.811c-147.5 0 -234.66 -115.17 -234.66 -310.01
c0 -195.99 80.6504 -314.13 217.131 -318.07c161.55 0 212.31 64.5801 248.88 255.92z" />
    <glyph glyph-name="Ccaron" unicode="&#x10c;" horiz-adv-x="793" 
d="M442.83 763.97l159.3 175.42l-7.20996 8l-157.54 -64.3301l-168.34 64.4297l-7.20996 -8l168.98 -175.52h12.0195zM721.01 291.84l8.30078 0.00976562l23.8096 -181.95c-39.7002 -66.1396 -122.15 -123.939 -281.011 -123.939c-269.13 1 -437.13 132 -437.13 365
c0 228 162 363 438 363c112 0 201 -22 256.53 -45.5303l-9.82031 -191.24h-8.32031c-40.3799 140.74 -118.38 186.74 -221.71 186.811c-147.5 0 -234.66 -115.17 -234.66 -310.01c0 -195.99 80.6504 -314.13 217.131 -318.07c161.55 0 212.31 64.5801 248.88 255.92z" />
    <glyph glyph-name="Ccedilla" unicode="&#xc7;" horiz-adv-x="793" 
d="M729.33 291.89l23.7578 -181.94c-39.7002 -66.1396 -122.15 -123.939 -281.011 -123.939h-11.7295l-37.7998 -43c35.5898 12 125.189 6 118.84 -63c-6.41016 -70 -105.43 -114 -188.52 -85l0.740234 10c41.7305 0 97.0908 21 103.791 76
c5.15039 42 -61.1494 53 -97.3896 38l-5.08984 10l47.2002 60c-227.95 22.3398 -367.141 149.91 -367.141 362c0 228 162 363 438 363c112 0 201 -22 256.53 -45.5303l-9.82031 -191.24h-8.32031c-40.3799 140.74 -118.38 186.74 -221.71 186.811
c-147.5 0 -234.66 -115.17 -234.66 -310.01c0 -195.99 80.6504 -314.13 217.131 -318.07c161.55 0 212.31 64.5801 248.88 255.92h8.32031z" />
    <glyph glyph-name="Cdotaccent" unicode="&#x10a;" horiz-adv-x="793" 
d="M436 764c-40.7002 0 -73.6904 32.9902 -73.6904 73.6904s32.9902 73.6904 73.6904 73.6904s73.6904 -32.9902 73.6904 -73.6904s-32.9902 -73.6904 -73.6904 -73.6904zM721.01 291.85l8.30078 0.00976562l23.8096 -181.95
c-39.7002 -66.1396 -122.15 -123.939 -281.011 -123.939c-269.13 1 -437.13 132 -437.13 365c0 228 162 363 438 363c112 0 201 -22 256.53 -45.5303l-9.82031 -191.24h-8.32031c-40.3799 140.74 -118.38 186.74 -221.71 186.811c-147.5 0 -234.66 -115.17 -234.66 -310.01
c0 -195.99 80.6504 -314.13 217.131 -318.07c161.55 0 212.31 64.5801 248.88 255.92z" />
    <glyph glyph-name="D" unicode="D" horiz-adv-x="842" 
d="M30.3496 699.97l378.18 -0.0400391c250.89 0 399.14 -130.1 399.14 -350.27c0 -219.78 -148.25 -349.71 -399.14 -349.71h-378.54l0.160156 10h12.6504c34.96 0 63.3301 27.9805 64.0605 62.75v560.14c0 32.1602 -30.6201 57.2197 -63.7002 57.2197h-12.6504z
M311.979 649.89v-599.51h76.5498c125.18 0 199.149 111.16 199.149 299.271c0 188.72 -73.9697 300.239 -199.149 300.239h-76.5498z" />
    <glyph glyph-name="Eth" unicode="&#xd0;" horiz-adv-x="842" 
d="M30.3496 699.97l378.18 -0.0400391c250.89 0 399.14 -130.1 399.14 -350.27c0 -219.78 -148.25 -349.71 -399.14 -349.71h-378.54l0.160156 10h12.6504c34.96 0 63.3301 27.9805 64.0605 62.75v252.29h-76.8604v50h76.8604v257.85
c0 32.1602 -30.6201 57.2197 -63.7002 57.2197h-12.6504zM311.979 324.97v-274.59h76.5498c125.75 0 204.15 111.16 204.15 299.271c0 188.72 -78.4004 300.239 -204.15 300.239h-76.5498v-274.92h108.02v-50h-108.02z" />
    <glyph glyph-name="Dcaron" unicode="&#x10e;" horiz-adv-x="842" 
d="M428.06 763.97l159.3 175.42l-7.20996 8l-157.54 -64.3301l-168.34 64.4297l-7.20996 -8l168.98 -175.52h12.0195zM30.3398 699.97l378.18 -0.0400391c250.89 0 399.14 -130.1 399.14 -350.27c0 -219.78 -148.25 -349.71 -399.14 -349.71h-378.54l0.160156 10h12.6504
c34.96 0 63.3301 27.9805 64.0605 62.75v560.14c0 32.1602 -30.6201 57.2197 -63.7002 57.2197h-12.6504zM311.97 649.89v-599.51h76.5498c125.18 0 199.149 111.16 199.149 299.271c0 188.72 -73.9697 300.239 -199.149 300.239h-76.5498z" />
    <glyph glyph-name="Dcroat" unicode="&#x110;" horiz-adv-x="842" 
d="M279.06 795.36v85h290v-85h-290zM30.3496 699.971l378.18 -0.0400391c250.89 0 399.14 -130.1 399.14 -350.27c0 -219.78 -148.25 -349.71 -399.14 -349.71h-378.54l0.160156 10h12.6504c34.96 0 63.3301 27.9805 64.0605 62.75v560.14
c0 32.1602 -30.6201 57.2197 -63.7002 57.2197h-12.6504zM311.979 649.891v-599.51h76.5498c125.18 0 199.149 111.16 199.149 299.271c0 188.72 -73.9697 300.239 -199.149 300.239h-76.5498z" />
    <glyph glyph-name="E" unicode="E" horiz-adv-x="667" 
d="M642.84 231.54l10.0303 -0.0117188l-38.29 -231.54h-584.56l0.160156 10h12.6504c35 0 63.4004 28.0498 64.0605 62.8799v554.51c-0.75 34.75 -29.1104 62.7002 -64.0508 62.7002h-12.6504l-0.160156 9.94043h442.57c43.0996 0.410156 100.68 10.3701 119.239 18.1904
v-206.27l-10.0801 0.150391v7.82031c0.19043 78.6699 -46.1191 126.63 -124.889 129.51h-144.98v-279.16h109c63.5498 1.2002 108.6 46.4697 108.38 109.27v4.73047l9.76953 0.129883v-278.26l-9.76953 0.120117v4.73047c0.209961 62.3799 -44.2803 107.46 -107.07 109.24
h-110.3v-269.63h123.42c95.96 0 176.43 66.7695 207.52 180.949z" />
    <glyph glyph-name="Eacute" unicode="&#xc9;" horiz-adv-x="667" 
d="M322.04 761l-6.99023 7.00293c28.25 65.8896 110.5 147.779 154.75 185.659c48.3799 -20.2402 71.7598 -53.4805 85.1396 -99.7207c-63.2998 -41.9805 -159.6 -83.9609 -232.899 -92.9414zM642.859 231.543l10.0205 -0.0117188l-38.29 -231.54h-584.56l0.160156 10
h12.6504c35 0 63.4004 28.0498 64.0605 62.8799v554.51c-0.75 34.75 -29.1104 62.7002 -64.0508 62.7002h-12.6504l-0.160156 9.94043h442.58c43.0996 0.410156 100.68 10.3701 119.239 18.1904v-206.27l-10.0801 0.150391v7.82031
c0.19043 78.6699 -46.1191 126.63 -124.889 129.51h-144.98v-279.16h109c63.5498 1.2002 108.6 46.4697 108.38 109.27v4.73047l9.76953 0.129883v-278.26l-9.76953 0.120117v4.73047c0.209961 62.3799 -44.2803 107.46 -107.07 109.24h-110.3v-269.63h123.42
c95.96 0 176.43 66.7695 207.52 180.949z" />
    <glyph glyph-name="Ecaron" unicode="&#x11a;" horiz-adv-x="667" 
d="M345.86 763.97l159.3 175.42l-7.20996 8l-157.54 -64.3301l-168.34 64.4297l-7.20996 -8l168.98 -175.52h12.0195zM642.84 231.54l10.0205 -0.0117188l-38.29 -231.54h-584.56l0.160156 10h12.6504c35 0 63.4004 28.0498 64.0605 62.8799v554.51
c-0.75 34.75 -29.1104 62.7002 -64.0508 62.7002h-12.6504l-0.160156 9.94043h442.58c43.0996 0.410156 100.68 10.3701 119.239 18.1904v-206.27l-10.0801 0.150391v7.82031c0.19043 78.6699 -46.1191 126.63 -124.889 129.51h-144.98v-279.16h109
c63.5498 1.2002 108.6 46.4697 108.38 109.27v4.73047l9.76953 0.129883v-278.26l-9.76953 0.120117v4.73047c0.209961 62.3799 -44.2803 107.46 -107.07 109.24h-110.3v-269.63h123.42c95.96 0 176.43 66.7695 207.52 180.949z" />
    <glyph glyph-name="Ecircumflex" unicode="&#xca;" horiz-adv-x="667" 
d="M331.79 931.76l-168.868 -175.42l7.13965 -8l167.12 64.3301l177.81 -64.4297l7.13965 8l-178.44 175.52h-11.9004zM642.842 231.55l10.0205 -0.0117188l-38.29 -231.54h-584.56l0.160156 10h12.6504c35 0 63.4004 28.0498 64.0605 62.8799v554.51
c-0.75 34.75 -29.1104 62.7002 -64.0508 62.7002h-12.6504l-0.160156 9.94043h442.58c43.0996 0.410156 100.68 10.3701 119.239 18.1904v-206.27l-10.0801 0.150391v7.82031c0.19043 78.6699 -46.1191 126.63 -124.889 129.51h-144.98v-279.16h109
c63.5498 1.2002 108.6 46.4697 108.38 109.27v4.73047l9.76953 0.129883v-278.26l-9.76953 0.120117v4.73047c0.209961 62.3799 -44.2803 107.46 -107.07 109.24h-110.3v-269.63h123.42c95.96 0 176.43 66.7695 207.52 180.949z" />
    <glyph glyph-name="Edieresis" unicode="&#xcb;" horiz-adv-x="667" 
d="M204.2 755.49c-40.7002 0 -73.6904 32.9902 -73.6904 73.6904s32.9902 73.6904 73.6904 73.6904s73.6904 -32.9902 73.6904 -73.6904s-32.9902 -73.6904 -73.6904 -73.6904zM466.8 755.49c-40.7002 0 -73.6904 32.9902 -73.6904 73.6904s32.9902 73.6904 73.6904 73.6904
s73.6904 -32.9902 73.6904 -73.6904s-32.9902 -73.6904 -73.6904 -73.6904zM642.85 231.55l10.0205 -0.0117188l-38.29 -231.54h-584.56l0.160156 10h12.6504c35 0 63.4004 28.0498 64.0605 62.8799v554.51c-0.75 34.75 -29.1104 62.7002 -64.0508 62.7002h-12.6504
l-0.160156 9.94043h442.58c43.0996 0.410156 100.68 10.3701 119.239 18.1904v-206.27l-10.0801 0.150391v7.82031c0.19043 78.6699 -46.1191 126.63 -124.889 129.51h-144.98v-279.16h109c63.5498 1.2002 108.6 46.4697 108.38 109.27v4.73047l9.76953 0.129883v-278.26
l-9.76953 0.120117v4.73047c0.209961 62.3799 -44.2803 107.46 -107.07 109.24h-110.3v-269.63h123.42c95.96 0 176.43 66.7695 207.52 180.949z" />
    <glyph glyph-name="Edotaccent" unicode="&#x116;" horiz-adv-x="667" 
d="M339.04 764c-40.7002 0 -73.6904 32.9902 -73.6904 73.6904s32.9902 73.6904 73.6904 73.6904s73.6904 -32.9902 73.6904 -73.6904s-32.9902 -73.6904 -73.6904 -73.6904zM642.85 231.54l10.0205 -0.0117188l-38.29 -231.54h-584.56l0.160156 10h12.6504
c35 0 63.4004 28.0498 64.0605 62.8799v554.51c-0.75 34.75 -29.1104 62.7002 -64.0508 62.7002h-12.6504l-0.160156 9.94043h442.58c43.0996 0.410156 100.68 10.3701 119.239 18.1904v-206.27l-10.0801 0.150391v7.82031c0.19043 78.6699 -46.1191 126.63 -124.889 129.51
h-144.98v-279.16h109c63.5498 1.2002 108.6 46.4697 108.38 109.27v4.73047l9.76953 0.129883v-278.26l-9.76953 0.120117v4.73047c0.209961 62.3799 -44.2803 107.46 -107.07 109.24h-110.3v-269.63h123.42c95.96 0 176.43 66.7695 207.52 180.949z" />
    <glyph glyph-name="Egrave" unicode="&#xc8;" horiz-adv-x="667" 
d="M392.83 770.91l-7.24902 -7.00293c-72.9805 8.98047 -167.811 50.9609 -229.641 92.9414c14.9902 46.2402 39.5303 79.4805 88.6201 99.7207c42.9297 -37.8799 122.319 -119.77 148.27 -185.659zM642.841 231.547l10.0205 -0.0117188l-38.29 -231.54h-584.56l0.160156 10
h12.6504c35 0 63.4004 28.0498 64.0605 62.8799v554.51c-0.75 34.75 -29.1104 62.7002 -64.0508 62.7002h-12.6504l-0.160156 9.94043h442.58c43.0996 0.410156 100.68 10.3701 119.239 18.1904v-206.27l-10.0801 0.150391v7.82031
c0.19043 78.6699 -46.1191 126.63 -124.889 129.51h-144.98v-279.16h109c63.5498 1.2002 108.6 46.4697 108.38 109.27v4.73047l9.76953 0.129883v-278.26l-9.76953 0.120117v4.73047c0.209961 62.3799 -44.2803 107.46 -107.07 109.24h-110.3v-269.63h123.42
c95.96 0 176.43 66.7695 207.52 180.949z" />
    <glyph glyph-name="Emacron" unicode="&#x112;" horiz-adv-x="667" 
d="M196.86 795.36v85h290v-85h-290zM642.851 231.54l10.0205 -0.0117188l-38.29 -231.54h-584.56l0.160156 10h12.6504c35 0 63.4004 28.0498 64.0605 62.8799v554.51c-0.75 34.75 -29.1104 62.7002 -64.0508 62.7002h-12.6504l-0.160156 9.94043h442.58
c43.0996 0.410156 100.68 10.3701 119.239 18.1904v-206.27l-10.0801 0.150391v7.82031c0.19043 78.6699 -46.1191 126.63 -124.889 129.51h-144.98v-279.16h109c63.5498 1.2002 108.6 46.4697 108.38 109.27v4.73047l9.76953 0.129883v-278.26l-9.76953 0.120117v4.73047
c0.209961 62.3799 -44.2803 107.46 -107.07 109.24h-110.3v-269.63h123.42c95.96 0 176.43 66.7695 207.52 180.949z" />
    <glyph glyph-name="Eogonek" unicode="&#x118;" horiz-adv-x="667" 
d="M661.04 -120l6.01074 -6.01172c-9.0498 -136 -223.689 -102 -204.05 37c7.53027 53 46.5703 80 88.4102 89h-521.4l0.160156 10h12.6504c35 0 63.4004 28.0498 64.0605 62.8799v554.51c-0.75 34.75 -29.1104 62.7002 -64.0508 62.7002h-12.6504l-0.160156 9.94043h442.58
c43.0996 0.410156 100.68 10.3701 119.239 18.1904v-206.27l-10.0801 0.150391v7.82031c0.19043 78.6699 -46.1191 126.63 -124.889 129.51h-144.98v-279.16h109c63.5498 1.2002 108.6 46.4697 108.38 109.27v4.73047l9.76953 0.129883v-278.26l-9.76953 0.120117v4.73047
c0.209961 62.3799 -44.2803 107.46 -107.07 109.24h-110.3v-269.63h123.42c95.96 0 176.43 66.7695 207.52 180.949h10l-38.29 -231.54h-1.12988c-54.46 -13 -67.4297 -44 -64.4297 -78c6 -61 62 -82 112.05 -42z" />
    <glyph glyph-name="F" unicode="F" horiz-adv-x="631" 
d="M591.85 718.19l0.00585938 -206.282l-10.0996 0.150391v7.82031c0.19043 78.6699 -46.1191 126.63 -124.889 129.51h-144.98v-279.16h109c63.5498 1.2002 108.6 46.4697 108.38 109.27v4.73047l9.76953 0.129883v-278.26l-9.76953 0.120117v4.73047
c0.209961 62.3799 -44.2803 107.46 -107.07 109.24h-110.26v-247.35c0.650391 -34.8301 29.0508 -62.8799 64.0508 -62.8799h12.6504l0.160156 -10h-358.8l0.160156 10h12.6504c35 0 63.4004 28.0498 64.0605 62.8799v554.57
c-0.769531 34.7305 -29.1191 62.6602 -64.0391 62.6602h-12.6504l-0.160156 9.92969h442.57c43.0996 0.410156 100.67 10.3701 119.26 18.1904z" />
    <glyph glyph-name="G" unicode="G" horiz-adv-x="861" 
d="M848.74 325.39l-15.0791 0.0273438c-32.3301 0 -50.5205 -16.3096 -49.6709 -45.4092v-165.19c-48 -60.8096 -192 -128.81 -358.65 -128.81c-236.35 0 -390.35 136 -390.35 366c0 226 149 362 400.13 362c109.99 0 238.65 -20.71 297.4 -45.5303l-9.82031 -191.24
h-8.32031c-42.3799 149.74 -139.38 186.74 -229.67 186.811c-159.71 0 -229.71 -117 -229.71 -322c0 -189 59 -306.22 191.88 -306.069c65.1201 0 131.69 37 131.69 106.66l1.50977 137.19c0.320312 29.2002 -19.1602 45.6104 -51.4404 45.5605h-15.7695v10h335.87v-10z" />
    <glyph glyph-name="Gbreve" unicode="&#x11e;" horiz-adv-x="861" 
d="M552.79 927.65h12.71c19.2998 -86.7305 -51.7002 -163.73 -139.5 -163.641c-90.2002 -0.0898438 -158.2 78.9102 -139.51 163.641h12.7197c15.5898 -35.7305 67.5898 -63.7305 126.59 -63.7305c58 0 111 27 126.99 63.7305zM848.74 325.391l-15.0791 0.0273438
c-32.3301 0 -50.5205 -16.3096 -49.6709 -45.4092v-165.19c-48 -60.8096 -192 -128.81 -358.65 -128.81c-236.35 0 -390.35 136 -390.35 366c0 226 149 362 400.13 362c109.99 0 238.65 -20.71 297.4 -45.5303l-9.82031 -191.24h-8.32031
c-42.3799 149.74 -139.38 186.74 -229.67 186.811c-159.71 0 -229.71 -117 -229.71 -322c0 -189 59 -306.22 191.88 -306.069c65.1201 0 131.69 37 131.69 106.66l1.50977 137.19c0.320312 29.2002 -19.1602 45.6104 -51.4404 45.5605h-15.7695v10h335.87v-10z" />
    <glyph glyph-name="Gcommaaccent" unicode="&#x122;" horiz-adv-x="861" 
d="M848.74 325.39l-15.0791 0.0273438c-32.3301 0 -50.5205 -16.3096 -49.6709 -45.4092v-165.19c-48 -60.8096 -192 -128.81 -358.65 -128.81c-236.35 0 -390.35 136 -390.35 366c0 226 149 362 400.13 362c109.99 0 238.65 -20.71 297.4 -45.5303l-9.82031 -191.24
h-8.32031c-42.3799 149.74 -139.38 186.74 -229.67 186.811c-159.71 0 -229.71 -117 -229.71 -322c0 -189 59 -306.22 191.88 -306.069c65.1201 0 131.69 37 131.69 106.66l1.50977 137.19c0.320312 29.2002 -19.1602 45.6104 -51.4404 45.5605h-15.7695v10h335.87v-10z
M385.671 -272.993l-2.73047 9c25.6504 11 50.5205 48 12.8506 90c-25.6396 29 -21.3193 78 6.40039 98c31.9805 24 83.1504 10 100.92 -29c38.3799 -84 -31.9805 -185 -117.44 -168z" />
    <glyph glyph-name="Gdotaccent" unicode="&#x120;" horiz-adv-x="861" 
d="M426 764c-40.7002 0 -73.6904 32.9902 -73.6904 73.6904s32.9902 73.6904 73.6904 73.6904s73.6904 -32.9902 73.6904 -73.6904s-32.9902 -73.6904 -73.6904 -73.6904zM848.74 325.39l-15.0791 0.0273438c-32.3301 0 -50.5205 -16.3096 -49.6709 -45.4092v-165.19
c-48 -60.8096 -192 -128.81 -358.65 -128.81c-236.35 0 -390.35 136 -390.35 366c0 226 149 362 400.13 362c109.99 0 238.65 -20.71 297.4 -45.5303l-9.82031 -191.24h-8.32031c-42.3799 149.74 -139.38 186.74 -229.67 186.811c-159.71 0 -229.71 -117 -229.71 -322
c0 -189 59 -306.22 191.88 -306.069c65.1201 0 131.69 37 131.69 106.66l1.50977 137.19c0.320312 29.2002 -19.1602 45.6104 -51.4404 45.5605h-15.7695v10h335.87v-10z" />
    <glyph glyph-name="H" unicode="H" horiz-adv-x="893" 
d="M862.92 10l0.167969 -10.0107h-358.79l0.160156 10h12.6504c34.7402 0 62.9805 27.6396 64.0303 62.1201v252.9h-269.22v-252.14c0.650391 -34.8301 29.0508 -62.8799 64.0508 -62.8799h12.6504l0.160156 -10h-358.79l0.160156 10h12.6504
c35 0 63.4004 28.0498 64.0605 62.8799v554.74c-0.870117 34.6396 -29.1797 62.4697 -64.04 62.4697h-12.6504l-0.160156 10h358.76l-0.160156 -10h-12.6504c-34.79 0 -63.0596 -27.7197 -64.04 -62.2598v-252.82h269.22v253.46
c-1.30957 34.25 -29.4395 61.6299 -64.0195 61.6299h-12.6504l-0.160156 10h358.76l-0.160156 -10h-12.6504c-35 0 -63.4004 -28.0498 -64.04 -62.8799v-554.33c0.650391 -34.8301 29.0508 -62.8799 64.0508 -62.8799h12.6504z" />
    <glyph glyph-name="Hbar" unicode="&#x126;" horiz-adv-x="893" 
d="M862.92 10l0.167969 -10.0107h-358.79l0.160156 10h12.6504c34.7402 0 62.9805 27.6396 64.0303 62.1201v252.9h-269.22v-252.14c0.650391 -34.8301 29.0508 -62.8799 64.0508 -62.8799h12.6504l0.160156 -10h-358.79l0.160156 10h12.6504
c35 0 63.4004 28.0498 64.0605 62.8799v415.25h-64.6104v50h64.6104v89.5c-0.870117 34.6396 -29.1797 62.4697 -64.04 62.4697h-12.6504l-0.160156 10h358.76l-0.160156 -10h-12.6504c-34.79 0 -63.0596 -27.7197 -64.04 -62.2598v-89.71h269.22v90.3496
c-1.30957 34.25 -29.4395 61.6299 -64.0195 61.6299h-12.6504l-0.160156 10h358.76l-0.160156 -10h-12.6504c-35 0 -63.4004 -28.0498 -64.0703 -62.8799v-89.0898h66.8203v-50h-66.79v-415.25c0.650391 -34.8301 29.0508 -62.8799 64.0508 -62.8799h12.6504z
M311.928 374.989h269.22v113.11h-269.22v-113.11z" />
    <glyph glyph-name="I" unicode="I" horiz-adv-x="418" 
d="M388.63 10l0.15918 -10h-358.79l0.160156 10h12.6504c35 0 63.4004 28.0498 64.0605 62.8799v554.74c-0.870117 34.6396 -29.1797 62.4697 -64.04 62.4697h-12.6504l-0.160156 10h358.76l-0.160156 -10h-12.6504c-34.79 0 -63.0596 -27.7197 -64.04 -62.2598v-554.95
c0.650391 -34.8301 29.0508 -62.8799 64.0508 -62.8799h12.6504z" />
    <glyph glyph-name="IJ" unicode="&#x132;" horiz-adv-x="842" 
d="M453.08 700.06l358.94 0.0107422l-0.160156 -10h-12.6504c-34.9199 0 -63.2695 -27.9297 -64.0391 -62.6602v-577.32c0 -170.1 -159.61 -271.1 -322.17 -250.1v9c97.46 44 116.96 148 116.95 243.92v574.27c-0.660156 34.8301 -29.0605 62.8799 -64.0605 62.8799
h-12.6504zM388.62 10.0107l0.15918 -10h-358.79l0.160156 10h12.6504c35 0 63.4004 28.0498 64.0605 62.8799v554.74c-0.870117 34.6396 -29.1797 62.4697 -64.04 62.4697h-12.6504l-0.160156 10h358.76l-0.160156 -10h-12.6504c-34.79 0 -63.0596 -27.7197 -64.04 -62.2598
v-554.95c0.650391 -34.8301 29.0508 -62.8799 64.0508 -62.8799h12.6504z" />
    <glyph glyph-name="Iacute" unicode="&#xcd;" horiz-adv-x="418" 
d="M191.31 761l-6.99023 7.00293c28.25 65.8896 110.5 147.779 154.75 185.659c48.3799 -20.2402 71.7598 -53.4805 85.1396 -99.7207c-63.2998 -41.9805 -159.6 -83.9609 -232.899 -92.9414zM388.64 10.0029l0.15918 -10h-358.79l0.160156 10h12.6504
c35 0 63.4004 28.0498 64.0605 62.8799v554.74c-0.870117 34.6396 -29.1797 62.4697 -64.04 62.4697h-12.6504l-0.160156 10h358.76l-0.160156 -10h-12.6504c-34.79 0 -63.0596 -27.7197 -64.04 -62.2598v-554.95c0.650391 -34.8301 29.0508 -62.8799 64.0508 -62.8799
h12.6504z" />
    <glyph glyph-name="Icircumflex" unicode="&#xce;" horiz-adv-x="418" 
d="M201.06 931.76l-168.868 -175.42l7.13965 -8l167.12 64.3301l177.81 -64.4297l7.13965 8l-178.44 175.52h-11.9004zM388.621 10l0.15918 -10h-358.79l0.160156 10h12.6504c35 0 63.4004 28.0498 64.0605 62.8799v554.74
c-0.870117 34.6396 -29.1797 62.4697 -64.04 62.4697h-12.6504l-0.160156 10h358.76l-0.160156 -10h-12.6504c-34.79 0 -63.0596 -27.7197 -64.04 -62.2598v-554.95c0.650391 -34.8301 29.0508 -62.8799 64.0508 -62.8799h12.6504z" />
    <glyph glyph-name="Idieresis" unicode="&#xcf;" horiz-adv-x="418" 
d="M73.46 755.48c-40.7002 0 -73.4697 32.9902 -73.4697 73.6904s32.7695 73.6904 73.4697 73.6904s73.6904 -32.9902 73.6904 -73.6904s-32.9902 -73.6904 -73.6904 -73.6904zM336.06 755.48c-40.7002 0 -73.6904 32.9902 -73.6904 73.6904
s32.9902 73.6904 73.6904 73.6904s73.6904 -32.9902 73.6904 -73.6904s-32.9902 -73.6904 -73.6904 -73.6904zM388.619 10l0.15918 -10h-358.79l0.160156 10h12.6504c35 0 63.4004 28.0498 64.0605 62.8799v554.74c-0.870117 34.6396 -29.1797 62.4697 -64.04 62.4697
h-12.6504l-0.160156 10h358.76l-0.160156 -10h-12.6504c-34.79 0 -63.0596 -27.7197 -64.04 -62.2598v-554.95c0.650391 -34.8301 29.0508 -62.8799 64.0508 -62.8799h12.6504z" />
    <glyph glyph-name="Idotaccent" unicode="&#x130;" horiz-adv-x="418" 
d="M208.31 764c-40.7002 0 -73.6904 32.9902 -73.6904 73.6904s32.9902 73.6904 73.6904 73.6904s73.6904 -32.9902 73.6904 -73.6904s-32.9902 -73.6904 -73.6904 -73.6904zM388.63 10l0.15918 -10h-358.79l0.160156 10h12.6504c35 0 63.4004 28.0498 64.0605 62.8799
v554.74c-0.870117 34.6396 -29.1797 62.4697 -64.04 62.4697h-12.6504l-0.160156 10h358.76l-0.160156 -10h-12.6504c-34.79 0 -63.0596 -27.7197 -64.04 -62.2598v-554.95c0.650391 -34.8301 29.0508 -62.8799 64.0508 -62.8799h12.6504z" />
    <glyph glyph-name="Igrave" unicode="&#xcc;" horiz-adv-x="418" 
d="M245.21 770.91l-6.99023 -7.00293c-73.2998 8.98047 -169.6 50.9609 -232.899 92.9414c13.3799 46.2402 36.7598 79.4805 85.1396 99.7207c44.25 -37.8799 126.5 -119.77 154.75 -185.659zM388.63 9.99707l0.15918 -10h-358.79l0.160156 10h12.6504
c35 0 63.4004 28.0498 64.0605 62.8799v554.74c-0.870117 34.6396 -29.1797 62.4697 -64.04 62.4697h-12.6504l-0.160156 10h358.76l-0.160156 -10h-12.6504c-34.79 0 -63.0596 -27.7197 -64.04 -62.2598v-554.95c0.650391 -34.8301 29.0508 -62.8799 64.0508 -62.8799
h12.6504z" />
    <glyph glyph-name="Imacron" unicode="&#x12a;" horiz-adv-x="418" 
d="M66.1299 795.36v85h290v-85h-290zM388.63 10l0.15918 -10h-358.79l0.160156 10h12.6504c35 0 63.4004 28.0498 64.0605 62.8799v554.74c-0.870117 34.6396 -29.1797 62.4697 -64.04 62.4697h-12.6504l-0.160156 10h358.76l-0.160156 -10h-12.6504
c-34.79 0 -63.0596 -27.7197 -64.04 -62.2598v-554.95c0.650391 -34.8301 29.0508 -62.8799 64.0508 -62.8799h12.6504z" />
    <glyph glyph-name="Iogonek" unicode="&#x12e;" horiz-adv-x="418" 
d="M250.35 0l5.33887 -2c-54.5801 -12 -67.5801 -44 -64.5801 -78c6 -61 62 -82 112.05 -42l6 -6c-9.0498 -136 -223.689 -102 -204.05 37c8.04004 57 52.0098 84 96.9502 91h-172.07l0.160156 10h12.6504c35 0 63.4004 28.0498 64.0605 62.8799v554.74
c-0.870117 34.6396 -29.1797 62.4697 -64.04 62.4697h-12.6504l-0.160156 10h358.76l-0.160156 -10h-12.6504c-34.79 0 -63.0596 -27.7197 -64.04 -62.2598v-554.95c0.650391 -34.8301 29.0508 -62.8799 64.0508 -62.8799h12.6504l0.160156 -10h-138.43z" />
    <glyph glyph-name="J" unicode="J" horiz-adv-x="424" 
d="M35.0801 700.06l358.94 0.0205078l-0.160156 -10h-12.6504c-34.9199 0 -63.2695 -27.9297 -64.0391 -62.6602v-577.33c0 -170.1 -159.61 -271.1 -322.17 -250.1v9c97.46 44 116.96 148 116.95 243.92v574.27c-0.660156 34.8301 -29.0605 62.8799 -64.0605 62.8799
h-12.6504z" />
    <glyph glyph-name="K" unicode="K" horiz-adv-x="822" 
d="M311.92 627.82l-0.0107422 -554.89c0.650391 -34.8301 29.0508 -62.8799 64.0811 -62.8604h12.6299l0.160156 -10h-358.79l0.160156 10h12.6504c35 0 63.4004 28.0498 64.0605 62.8799v554.74c-0.870117 34.6396 -29.1797 62.4697 -63.8701 62.3896h-12.8203
l-0.160156 10h358.76l-0.160156 -10h-12.6504c-34.79 0 -63.0596 -27.7197 -64.04 -62.2598zM507.439 437.82l233.472 -352.07c32.3799 -48.8203 66.1396 -74.5801 106.79 -75.6104v-9.94043h-108.19c-28.5303 0.0302734 -178.53 -6.13965 -256.53 99.8604
c-31.2305 42.4404 -138.99 215.99 -138.91 218.181l239.1 325.9c15.8496 22.2695 3.21973 47.0898 -24.1904 47.0898h-9.66016v8.83984h241.1v-9.01953h-4.37988c-44.1201 -0.0996094 -84.1201 -19.8896 -109.89 -49.29z" />
    <glyph glyph-name="Kcommaaccent" unicode="&#x136;" horiz-adv-x="822" 
d="M311.92 627.82l-0.0107422 -554.88c0.650391 -34.8398 29.0508 -62.8896 64.0811 -62.8701h12.6299l0.160156 -10h-358.79l0.160156 10h12.6504c35 0 63.4004 28.0498 64.0605 62.8799v554.74c-0.870117 34.6396 -29.1797 62.4697 -63.8701 62.3896h-12.8203
l-0.160156 10h358.76l-0.160156 -10h-12.6504c-34.79 0 -63.0596 -27.7197 -64.04 -62.2598zM507.439 437.83l233.472 -352.08c32.3799 -48.8203 66.1396 -74.5801 106.79 -75.6104v-9.94043h-108.19c-28.5303 0.0302734 -178.53 -6.12988 -256.53 99.8701
c-31.2305 42.4404 -138.99 215.99 -138.91 218.181l239.1 325.9c15.8496 22.2695 3.21973 47.0898 -24.1904 47.0898h-9.66016v8.83984h241.1v-9.01953h-4.37988c-44.1201 -0.0996094 -84.1201 -19.8896 -109.89 -49.29zM411.301 -208.94l-2.73047 9
c25.6504 11 50.5205 48 12.8506 90c-25.6396 29 -21.3193 78 6.40039 98c31.9805 23.7197 83.1504 10 100.92 -29c38.3799 -84 -31.9805 -185 -117.44 -168z" />
    <glyph glyph-name="L" unicode="L" horiz-adv-x="652" 
d="M642.84 231.54l10.0117 -0.0195312l-38.29 -231.54h-584.56l0.160156 10h12.6504c35 0 63.4004 28.0498 64.0605 62.8799v554.33c-0.660156 34.8301 -29.0605 62.8799 -64.0605 62.8799h-12.6504l-0.160156 10h358.8l-0.160156 -10h-12.6504
c-35 0 -63.4004 -28.0498 -64.0908 -62.8799v-576.6h123.42c95.96 0 176.43 66.7695 207.52 180.949z" />
    <glyph glyph-name="Lacute" unicode="&#x139;" horiz-adv-x="652" 
d="M193 761l-6.99023 7.00293c28.25 65.8896 110.5 147.779 154.75 185.659c48.3799 -20.2402 71.7598 -53.4805 85.1396 -99.7207c-63.2998 -41.9805 -159.6 -83.9609 -232.899 -92.9414zM642.859 231.543l10.0117 -0.0195312l-38.29 -231.54h-584.56l0.160156 10h12.6504
c35 0 63.4004 28.0498 64.0605 62.8799v554.33c-0.660156 34.8301 -29.0605 62.8799 -64.0605 62.8799h-12.6504l-0.160156 10h358.8l-0.160156 -10h-12.6504c-35 0 -63.4004 -28.0498 -64.0908 -62.8799v-576.6h123.42c95.96 0 176.43 66.7695 207.52 180.949z" />
    <glyph glyph-name="Lcaron" unicode="&#x13d;" horiz-adv-x="652" 
d="M434.33 500.27l-2.73047 9c25.6504 11 50.5205 48 12.8506 90c-25.6396 29 -21.3193 78 6.40039 98c31.9805 23.7197 83.1504 10 100.92 -29c38.3799 -84 -31.9805 -185 -117.44 -168zM642.84 231.55l10.0117 -0.0195312l-38.29 -231.54h-584.56l0.160156 10h12.6504
c35 0 63.4004 28.0498 64.0605 62.8799v554.33c-0.660156 34.8301 -29.0605 62.8799 -64.0605 62.8799h-12.6504l-0.160156 10h358.8l-0.160156 -10h-12.6504c-35 0 -63.4004 -28.0498 -64.0908 -62.8799v-576.6h123.42c95.96 0 176.43 66.7695 207.52 180.949z" />
    <glyph glyph-name="Lcommaaccent" unicode="&#x13b;" horiz-adv-x="652" 
d="M642.84 231.54l10.0117 -0.0195312l-38.29 -231.54h-584.56l0.160156 10h12.6504c35 0 63.4004 28.0498 64.0605 62.8799v554.33c-0.660156 34.8301 -29.0605 62.8799 -64.0605 62.8799h-12.6504l-0.160156 10h358.8l-0.160156 -10h-12.6504
c-35 0 -63.4004 -28.0498 -64.0908 -62.8799v-576.6h123.42c95.96 0 176.43 66.7695 207.52 180.949zM295.142 -273.02l-2.73047 9c25.6504 11 50.5205 48 12.8506 90c-25.6396 29 -21.3193 78 6.40039 98c31.9805 24 83.1504 10 100.92 -29
c38.3799 -84 -31.9805 -185 -117.44 -168z" />
    <glyph glyph-name="Ldot" unicode="&#x13f;" horiz-adv-x="652" 
d="M642.84 231.54l10.0117 -0.0195312l-38.29 -231.54h-584.56l0.160156 10h12.6504c35 0 63.4004 28.0498 64.0605 62.8799v554.33c-0.660156 34.8301 -29.0605 62.8799 -64.0605 62.8799h-12.6504l-0.160156 10h358.8l-0.160156 -10h-12.6504
c-35 0 -63.4004 -28.0498 -64.0908 -62.8799v-576.6h123.42c95.96 0 176.43 66.7695 207.52 180.949zM468.771 327.49c-40.7002 0 -73.6904 32.9902 -73.6904 73.6904s32.9902 73.6904 73.6904 73.6904s73.6904 -32.9902 73.6904 -73.6904
s-32.9902 -73.6904 -73.6904 -73.6904z" />
    <glyph glyph-name="Lslash" unicode="&#x141;" horiz-adv-x="652" 
d="M642.84 231.54l10.0127 -0.0185547l-38.29 -231.54h-584.56l0.160156 10h12.6504c35 0 63.4004 28.0498 64.0605 62.8799v191.42l-63.1104 -36.5098l-26.0195 45.9697l89.1299 51.5596v301.89c-0.660156 34.8301 -29.0605 62.8799 -64.0605 62.8799h-12.6504
l-0.160156 10h358.8l-0.160156 -10h-12.6504c-35 0 -63.4004 -28.0498 -64.0908 -62.8799v-183.28l77.5098 44.8398l26.0195 -45.9697l-103.53 -59.8896v-332.3h123.42c95.96 0 176.43 66.7695 207.52 180.949z" />
    <glyph glyph-name="M" unicode="M" horiz-adv-x="968" 
d="M814.44 713.7l90.3477 -641.05c7.12988 -39.5303 37.1299 -62.6504 72.8799 -62.6504h15.9199v-10h-354.21v9.44043h15.5801c21.54 0 38.9805 21.0996 38.9805 42.6592l-38.3604 292.26l-170 -252.29s-43.2598 -62.7197 -41.3193 -116.109h-9.42969l-259.77 359.17
l-35.04 -283.03c0 -21.5596 17.4404 -42.6592 38.9805 -42.6592h15.5801v-9.44043h-219.59v10h16c36.0801 0 68.0801 23.1201 73.3398 62.6504l87.79 641.35h9.28027l335.37 -459.25l308.53 458.95h9.13965z" />
    <glyph glyph-name="N" unicode="N" horiz-adv-x="881" 
d="M495.23 700.02h366.07l-0.150391 -10h-18.46c-33.46 0 -60.6504 -26.5898 -61.71 -59.7803v-516.67c0 -82.4199 13.1201 -127.59 13.1201 -127.59h-9.08008l-479.39 425.9v-341.31c0.639648 -33.5703 28.0098 -60.6104 61.7402 -60.6104h18.46l0.150391 -10h-365.99
l0.160156 10h18.46c33.7197 0 61.0801 27.0098 61.7305 60.5596v519.53c0 78.2695 -13.21 124.93 -13.21 124.93h9.86035l0.889648 -0.929688l477.68 -424.78v340.14c-0.629883 33.5703 -27.9902 60.6104 -61.7305 60.6104h-18.4502z" />
    <glyph glyph-name="Nacute" unicode="&#x143;" horiz-adv-x="881" 
d="M394.8 761l-6.99023 7.00293c28.25 65.8896 110.5 147.779 154.75 185.659c48.3799 -20.2402 71.7598 -53.4805 85.1396 -99.7207c-63.2998 -41.9805 -159.6 -83.9609 -232.899 -92.9414zM495.239 700.022l366.07 -0.00976562l-0.150391 -10h-18.46
c-33.46 0 -60.6504 -26.5898 -61.71 -59.7803v-516.67c0 -82.4199 13.1201 -127.58 13.1201 -127.58h-9.08008l-479.39 425.9v-341.31c0.639648 -33.5703 28.0098 -60.6104 61.7402 -60.6104h18.46l0.150391 -10h-365.99l0.160156 10h18.46
c33.7197 0 61.0801 27.0098 61.7305 60.5596v519.53c0 78.2695 -13.21 124.93 -13.21 124.93h9.86035l0.889648 -0.929688l477.68 -424.78v340.14c-0.629883 33.5703 -27.9902 60.6104 -61.7305 60.6104h-18.4502z" />
    <glyph glyph-name="Ncaron" unicode="&#x147;" horiz-adv-x="881" 
d="M418.63 763.97l159.3 175.42l-7.20996 8l-157.54 -64.3301l-168.34 64.4297l-7.20996 -8l168.98 -175.52h12.0195zM495.229 700.01l366.07 -0.00976562l-0.150391 -10h-18.46c-33.46 0 -60.6504 -26.5898 -61.71 -59.7803v-516.67
c0 -82.4199 13.1201 -127.58 13.1201 -127.58h-9.08008l-479.39 425.9v-341.31c0.639648 -33.5703 28.0098 -60.6104 61.7402 -60.6104h18.46l0.150391 -10h-365.99l0.160156 10h18.46c33.7197 0 61.0801 27.0098 61.7305 60.5596v519.53
c0 78.2695 -13.21 124.93 -13.21 124.93h9.86035l0.889648 -0.929688l477.68 -424.78v340.14c-0.629883 33.5703 -27.9902 60.6104 -61.7305 60.6104h-18.4502z" />
    <glyph glyph-name="Ncommaaccent" unicode="&#x145;" horiz-adv-x="881" 
d="M495.23 700.02l366.07 -0.00976562l-0.150391 -10h-18.46c-33.46 0 -60.6504 -26.5898 -61.71 -59.7803v-516.67c0 -82.4199 13.1201 -127.58 13.1201 -127.58h-9.08008l-479.39 425.9v-341.31c0.639648 -33.5703 28.0098 -60.6104 61.7402 -60.6104h18.46l0.150391 -10
h-365.99l0.160156 10h18.46c33.7197 0 61.0801 27.0098 61.7305 60.5596v519.53c0 78.2695 -13.21 124.93 -13.21 124.93h9.86035l0.889648 -0.929688l477.68 -424.78v340.14c-0.629883 33.5703 -27.9902 60.6104 -61.7305 60.6104h-18.4502zM449.11 -273.01l-2.73047 9
c25.6504 11 50.5205 48 12.8506 90c-25.6396 29 -21.3193 78 6.40039 98c31.9805 24 83.1504 10 100.92 -29c38.3799 -84 -31.9805 -185 -117.44 -168z" />
    <glyph glyph-name="Eng" unicode="&#x14a;" horiz-adv-x="891" 
d="M505.23 700.02l356.02 0.00976562l-0.150391 -10h-18.46c-31.7305 0 -57.8301 -23.9199 -57.8301 -54.7002v-648.35v-1c-5.7998 -142 -137.229 -220 -281.47 -185l-5.30957 8c64.9805 53 87.6104 77 87.6006 233v120.95l-290.01 257.83v-350.2
c0.639648 -33.5703 28.0098 -60.6104 61.7402 -60.6104h18.46l0.150391 -10h-355.99l0.160156 10h18.46c33.7197 0 61.0801 27.0098 61.7305 60.5596v519.53c0 78.2695 -13.21 124.93 -13.21 124.93l10.5195 -0.709961l487.92 -433.88v349.03
c-0.629883 33.5703 -27.9902 60.6104 -61.7305 60.6104h-18.4502z" />
    <glyph glyph-name="Ntilde" unicode="&#xd1;" horiz-adv-x="881" 
d="M619.2 919.28l-12.3594 -0.00878906c-6.66016 -16.5195 -46.0801 -49.5996 -90.7705 -43.4893c-72.8896 9.96973 -103.89 53.1494 -162.04 53.0791c-97.8496 -0.110352 -131.85 -108.11 -117.17 -161.78h12.3496c8.96973 21.6699 47.54 58.2598 91.9902 51.1201
c64.9805 -10.4502 98.9805 -53.8604 161.311 -54.0801c100.68 -0.360352 138.68 106.64 116.689 155.159zM495.23 700.012l366.07 -0.00976562l-0.150391 -10h-18.46c-33.46 0 -60.6504 -26.5898 -61.71 -59.7803v-516.67c0 -82.4199 13.1201 -127.58 13.1201 -127.58
h-9.08008l-479.39 425.9v-341.31c0.639648 -33.5703 28.0098 -60.6104 61.7402 -60.6104h18.46l0.150391 -10h-365.99l0.160156 10h18.46c33.7197 0 61.0801 27.0098 61.7305 60.5596v519.53c0 78.2695 -13.21 124.93 -13.21 124.93h9.86035l0.889648 -0.929688
l477.68 -424.78v340.14c-0.629883 33.5703 -27.9902 60.6104 -61.7305 60.6104h-18.4502z" />
    <glyph glyph-name="O" unicode="O" horiz-adv-x="905" 
d="M450.43 714c257.99 0 415.44 -135.2 415.44 -364c0 -228.79 -157.45 -363.99 -415.44 -363.99s-415.44 135.2 -415.44 363.99c0 228.8 157.45 364 415.44 364zM450.43 35.9199c122.42 0 194.76 116.65 194.76 314.061c0 197.42 -72.3398 314.08 -194.76 314.08
s-194.76 -116.66 -194.76 -314.08c0 -197.41 72.3398 -314.061 194.76 -314.061z" />
    <glyph glyph-name="Oacute" unicode="&#xd3;" horiz-adv-x="905" 
d="M433.43 775l-6.99023 7.00293c28.25 65.8896 110.5 147.779 154.75 185.659c48.3799 -20.2402 71.7598 -53.4805 85.1396 -99.7207c-63.2998 -41.9805 -159.6 -83.9609 -232.899 -92.9414zM450.439 714.003c257.99 0 415.44 -135.2 415.44 -364
c0 -228.79 -157.45 -363.99 -415.44 -363.99s-415.44 135.2 -415.44 363.99c0 228.8 157.45 364 415.44 364zM450.439 35.9229c122.42 0 194.76 116.65 194.76 314.061c0 197.42 -72.3398 314.08 -194.76 314.08s-194.76 -116.66 -194.76 -314.08
c0 -197.41 72.3398 -314.061 194.76 -314.061z" />
    <glyph glyph-name="Ocircumflex" unicode="&#xd4;" horiz-adv-x="905" 
d="M443.18 945.76l-168.868 -175.42l7.13965 -8l167.12 64.3301l177.81 -64.4297l7.13965 8l-178.44 175.52h-11.9004zM450.432 714c257.99 0 415.44 -135.2 415.44 -364c0 -228.79 -157.45 -363.99 -415.44 -363.99s-415.44 135.2 -415.44 363.99
c0 228.8 157.45 364 415.44 364zM450.432 35.9199c122.42 0 194.76 116.65 194.76 314.061c0 197.42 -72.3398 314.08 -194.76 314.08s-194.76 -116.66 -194.76 -314.08c0 -197.41 72.3398 -314.061 194.76 -314.061z" />
    <glyph glyph-name="Odieresis" unicode="&#xd6;" horiz-adv-x="905" 
d="M315.59 769.49c-40.7002 0 -73.6904 32.9902 -73.6904 73.6904s32.9902 73.6904 73.6904 73.6904s73.6904 -32.9902 73.6904 -73.6904s-32.9902 -73.6904 -73.6904 -73.6904zM578.189 769.49c-40.7002 0 -73.6904 32.9902 -73.6904 73.6904
s32.9902 73.6904 73.6904 73.6904s73.6904 -32.9902 73.6904 -73.6904s-32.9902 -73.6904 -73.6904 -73.6904zM450.43 714c257.99 0 415.44 -135.2 415.44 -364c0 -228.79 -157.45 -363.99 -415.44 -363.99s-415.44 135.2 -415.44 363.99c0 228.8 157.45 364 415.44 364z
M450.43 35.9199c122.42 0 194.76 116.65 194.76 314.061c0 197.42 -72.3398 314.08 -194.76 314.08s-194.76 -116.66 -194.76 -314.08c0 -197.41 72.3398 -314.061 194.76 -314.061z" />
    <glyph glyph-name="Ograve" unicode="&#xd2;" horiz-adv-x="905" 
d="M477.34 784.91l-6.99023 -7.00293c-73.2998 8.98047 -169.6 50.9609 -232.899 92.9414c13.3799 46.2402 36.7598 79.4805 85.1396 99.7207c44.25 -37.8799 126.5 -119.77 154.75 -185.659zM450.439 713.997c257.99 0 415.44 -135.2 415.44 -364
c0 -228.79 -157.45 -363.99 -415.44 -363.99s-415.44 135.2 -415.44 363.99c0 228.8 157.45 364 415.44 364zM450.439 35.917c128.71 0 199.77 116.65 199.77 314.061c0 197.42 -71.0596 314.08 -199.77 314.08s-199.77 -116.66 -199.77 -314.08
c0 -197.41 71.0596 -314.061 199.77 -314.061z" />
    <glyph glyph-name="Ohungarumlaut" unicode="&#x150;" horiz-adv-x="905" 
d="M325.95 778l-6.99023 7.00293c28.25 65.8896 110.5 147.779 154.75 185.659c48.3799 -20.2402 71.7598 -53.4805 85.1396 -99.7207c-63.2998 -41.9805 -159.6 -83.9609 -232.899 -92.9414zM535.96 778.003l-6.99023 7.00293c28.25 65.8896 110.5 147.779 154.75 185.659
c48.3799 -20.2402 71.7598 -53.4805 85.1396 -99.7207c-63.2998 -41.9805 -159.6 -83.9609 -232.899 -92.9414zM450.45 714.006c257.99 0 415.44 -135.2 415.44 -364c0 -228.79 -157.45 -363.99 -415.44 -363.99s-415.44 135.2 -415.44 363.99
c0 228.8 157.45 364 415.44 364zM450.45 35.9258c122.42 0 194.76 116.65 194.76 314.061c0 197.42 -72.3398 314.08 -194.76 314.08s-194.76 -116.66 -194.76 -314.08c0 -197.41 72.3398 -314.061 194.76 -314.061z" />
    <glyph glyph-name="Omacron" unicode="&#x14c;" horiz-adv-x="905" 
d="M308.25 809.36v85h290v-85h-290zM450.43 714c257.99 0 415.44 -135.2 415.44 -364c0 -228.79 -157.45 -363.99 -415.44 -363.99s-415.44 135.2 -415.44 363.99c0 228.8 157.45 364 415.44 364zM450.43 35.9199c122.42 0 194.76 116.65 194.76 314.061
c0 197.42 -72.3398 314.08 -194.76 314.08s-194.76 -116.66 -194.76 -314.08c0 -197.41 72.3398 -314.061 194.76 -314.061z" />
    <glyph glyph-name="Oslash" unicode="&#xd8;" horiz-adv-x="905" 
d="M765.7 691.58l-42.4307 -49.4805c91.5703 -61.9102 142.601 -161.84 142.601 -292.109c0 -228.79 -157.45 -363.99 -415.44 -363.99c-96.0801 0 -178.21 18.75 -243.46 54.0996l-54.1201 -63.0996l-44.0098 36l50.2197 58.3896
c-79.8896 62.4902 -124.06 157.42 -124.06 278.61c0 228.8 157.45 364 415.44 364c86.5098 0 161.71 -15.2002 223.46 -44.04l48.4902 56.3799zM268.51 198.63l329.589 383.211c-33.8398 53.3496 -83.6094 82.2393 -147.659 82.2393
c-128.71 0 -199.77 -116.66 -199.77 -314.08c0 -57.6396 6.05957 -108.39 17.8398 -151.37zM624.398 526.821l-333.11 -388.4c33.5996 -66.25 87.4199 -102.48 159.15 -102.48c128.71 0 199.77 116.65 199.77 314.061c0 69.46 -8.7998 128.92 -25.8096 176.82z" />
    <glyph glyph-name="Otilde" unicode="&#xd5;" horiz-adv-x="905" 
d="M657.82 933.28l-12.3594 -0.00878906c-6.66016 -16.5195 -46.0801 -49.5996 -90.7705 -43.4893c-72.8896 9.96973 -103.89 53.1494 -162.04 53.0791c-97.8496 -0.110352 -131.85 -108.11 -117.17 -161.78h12.3496c8.96973 21.6699 47.54 58.2598 91.9902 51.1201
c64.9805 -10.4502 98.9805 -53.8604 161.311 -54.0801c100.68 -0.360352 138.68 106.64 116.689 155.159zM450.421 713.981c257.99 0 415.44 -135.2 415.44 -364c0 -228.79 -157.45 -363.99 -415.44 -363.99s-415.44 135.2 -415.44 363.99c0 228.8 157.45 364 415.44 364z
M450.421 35.9014c122.42 0 194.76 116.65 194.76 314.061c0 197.42 -72.3398 314.08 -194.76 314.08s-194.76 -116.66 -194.76 -314.08c0 -197.41 72.3398 -314.061 194.76 -314.061z" />
    <glyph glyph-name="OE" unicode="&#x152;" horiz-adv-x="1142" 
d="M1117.84 231.54l10.0293 0.0185547l-38.2803 -231.54h-449.43c-10.6396 0 -26.5596 0 -53.1396 -2c-50 -4 -79 -12 -140 -12c-249 0 -412 135 -412 366c0 227 158 362 424 362c46 0 76 -4 113 -9c22 -3 45 -5 68 -5h307.58
c43.0996 0.410156 100.67 10.3701 119.27 18.1904v-206.27l-10.0996 0.150391v7.82031c0.19043 78.6699 -46.1191 126.63 -124.889 129.51h-144.98v-279.16h109c63.5498 1.2002 108.6 46.4697 108.38 109.27v4.73047l9.76953 0.129883v-278.26l-9.76953 0.120117v4.73047
c0.209961 62.3799 -44.29 107.46 -107.08 109.24h-110.3v-269.63h123.42c95.96 0 176.43 66.7695 207.52 180.949zM581.429 104.219v491.35c-0.400391 27.4502 -43.4004 68.4502 -119.4 68.4502c-122 0 -214 -107 -215 -314c-1 -198 86 -314 214 -314
c75 0 120 39 120.4 68.2002z" />
    <glyph glyph-name="P" unicode="P" horiz-adv-x="707" 
d="M35.3496 700l380.589 0.0507812c199.07 0 270.54 -88.1602 276.2 -190.601c10.2402 -185.41 -187.13 -291.41 -340.91 -179.99l-0.120117 9.4502c-1.03027 1.12988 91.9697 3.12988 119.97 118.13c5 20 7 43 6 60c-3 81 -48 133 -124.76 133h-35.2803v-577.14
c0.650391 -34.8301 29.0508 -62.8799 63.9707 -62.8604h12.7402l0.160156 -10h-358.9l0.160156 10h12.6504c35 0 63.4004 28.0498 64.0908 62.8799v559.59c-3.25 32.3604 -30.5303 57.6299 -63.9102 57.5498h-12.4902z" />
    <glyph glyph-name="Thorn" unicode="&#xde;" horiz-adv-x="707" 
d="M324.61 558.03l91.3096 0.0107422c199.07 0 270.54 -88.1602 276.2 -190.601c10.2402 -185.41 -187.13 -291.41 -340.91 -179.99l-0.120117 9.4502c-1.03027 1.12988 91.9697 3.12988 119.97 118.13c5 20 7 43 6 60c-3 81 -48 133 -124.76 133h-27.6904v-435.17
c0.650391 -34.8301 29.0508 -62.8799 64.0508 -62.8799h12.6504l0.160156 -10h-358.79l0.160156 10h12.6504c35 0 63.4004 28.0498 64.0605 62.8799v554.74c-0.870117 34.6396 -29.1797 62.4697 -64.04 62.4697h-12.6504l-0.160156 10h358.76l-0.160156 -10h-12.6504
c-34.79 0 -63.0596 -27.7197 -64.04 -62.2598v-69.7803z" />
    <glyph glyph-name="Q" unicode="Q" horiz-adv-x="912" 
d="M1368.93 -64l6.80957 -3.00098c0.25 -216 -245.75 -324 -551.75 -157c-164 90 -250 206 -370.99 210c-256.55 1 -413.01 135.91 -413.01 363.99c0 228.8 157.45 364 415.44 364s415.44 -135.2 415.44 -364c0 -171.55 -88.5195 -290.479 -241.569 -339.249
c97.2695 -15.7402 159.729 -38.7402 291.699 -86.7402c200 -73 345 -62 447.93 12zM260.659 349.989c0 -197.41 72.3398 -314.061 194.76 -314.061s194.76 116.65 194.76 314.061c0 197.42 -72.3398 314.08 -194.76 314.08s-194.76 -116.66 -194.76 -314.08z" />
    <glyph glyph-name="R" unicode="R" horiz-adv-x="793" 
d="M35 700l390.729 0.0498047c121.28 0 265.28 -35 265.28 -189c0 -76 -35 -171 -159.69 -189.61c55.6904 -16.3896 97.6904 -60.3896 121.69 -100.39c5 -8 48 -85 85 -135c45 -62 68 -75 115.82 -75.9697v-10.0303h-124.86c-119.96 0 -212.96 10 -273.96 114
c-36 61 -39 118 -52 161c-14 48 -33 60 -52.0996 67.3398v9.45996h16.0996c55 0 96 37.2002 107 123.2c1 11 3 22 2 41c-5 99 -54 132 -114 132h-44.3701v-575.14c0.650391 -34.8301 29.0508 -62.8799 64.3604 -62.8604h12.3398l0.160156 -10h-359.46l0.160156 10h12.6504
c34.8398 0 63.1396 27.79 64.0195 62.4004v554.81c-0.660156 34.8301 -29.0605 62.8799 -63.8701 62.7998h-12.8398z" />
    <glyph glyph-name="Racute" unicode="&#x154;" horiz-adv-x="793" 
d="M374 761l-6.99023 7.00293c28.25 65.8896 110.5 147.779 154.75 185.659c48.3799 -20.2402 71.7598 -53.4805 85.1396 -99.7207c-63.2998 -41.9805 -159.6 -83.9609 -232.899 -92.9414zM35.0098 700.003l390.729 0.0498047c121.28 0 265.28 -35 265.28 -189
c0 -76 -35 -171 -159.69 -189.61c55.6904 -16.3896 97.6904 -60.3896 121.69 -100.39c5 -8 48 -85 85 -135c45 -62 68 -75 115.82 -75.9697v-10.0303h-124.86c-119.96 0 -212.96 10 -273.96 114c-36 61 -39 118 -52 161c-14 48 -33 60 -52.0996 67.3398v9.45996h16.0996
c55 0 96 37.2002 107 123.2c1 11 3 22 2 41c-5 99 -54 132 -114 132h-44.3701v-575.14c0.650391 -34.8301 29.0508 -62.8799 64.3604 -62.8604h12.3398l0.160156 -10h-359.46l0.160156 10h12.6504c34.8398 0 63.1396 27.79 64.0195 62.4004v554.81
c-0.660156 34.8301 -29.0605 62.8799 -63.8701 62.7998h-12.8398z" />
    <glyph glyph-name="Rcaron" unicode="&#x158;" horiz-adv-x="793" 
d="M397.83 763.97l159.3 175.42l-7.20996 8l-157.54 -64.3301l-168.34 64.4297l-7.20996 -8l168.98 -175.52h12.0195zM35 699.989l390.729 0.0498047c121.28 0 265.28 -35 265.28 -189c0 -76 -35 -171 -159.69 -189.61c55.6904 -16.3896 97.6904 -60.3896 121.69 -100.39
c5 -8 48 -85 85 -135c45 -62 68 -75 115.82 -75.9697v-10.0303h-124.86c-119.96 0 -212.96 10 -273.96 114c-36 61 -39 118 -52 161c-14 48 -33 60 -52.0996 67.3398v9.45996h16.0996c55 0 96 37.2002 107 123.2c1 11 3 22 2 41c-5 99 -54 132 -114 132h-44.3701v-575.14
c0.650391 -34.8301 29.0508 -62.8799 64.3604 -62.8604h12.3398l0.160156 -10h-359.46l0.160156 10h12.6504c34.8398 0 63.1396 27.79 64.0195 62.4004v554.81c-0.660156 34.8301 -29.0605 62.8799 -63.8701 62.7998h-12.8398z" />
    <glyph glyph-name="Rcommaaccent" unicode="&#x156;" horiz-adv-x="793" 
d="M35 700l390.729 0.0498047c121.28 0 265.28 -35 265.28 -189c0 -76 -35 -171 -159.69 -189.61c55.6904 -16.3896 97.6904 -60.3896 121.69 -100.39c5 -8 48 -85 85 -135c45 -62 68 -75 115.82 -75.9697v-10.0303h-124.86c-119.96 0 -212.96 10 -273.96 114
c-36 61 -39 118 -52 161c-14 48 -33 60 -52.0996 67.3398v9.45996h16.0996c55 0 96 37.2002 107 123.2c1 11 3 22 2 41c-5 99 -54 132 -114 132h-44.3701v-575.14c0.650391 -34.8301 29.0508 -62.8799 64.3604 -62.8604h12.3398l0.160156 -10h-359.46l0.160156 10h12.6504
c34.8398 0 63.1396 27.79 64.0195 62.4004v554.81c-0.660156 34.8301 -29.0605 62.8799 -63.8701 62.7998h-12.8398zM421.34 -272.95l-2.73047 9c25.6504 11 50.5205 48 12.8506 90c-25.6396 29 -21.3193 78 6.40039 98c31.9805 24 83.1504 10 100.92 -29
c38.3799 -84 -31.9805 -185 -117.44 -168z" />
    <glyph glyph-name="S" unicode="S" horiz-adv-x="645" 
d="M302.74 486.53l186.911 -86.3008c74.3896 -34.2197 122.39 -97.2197 115.39 -194.22c-10 -143 -125 -220 -314 -220c-116 0 -202 29 -236.65 64.6396c-22.4502 48.8701 -1.66992 146.57 31.5605 189.41h8.79004c-6.7002 -105.05 77.2998 -204.05 217.3 -204.05
c96 0 141 47 140.9 98.4805c0.0996094 41.5195 -29.9004 74.5195 -106.28 109.8l-163.05 75.3203c-91.5703 42.3896 -134.57 120.39 -122.57 215.39c14 116 99 179 233 179c36.0098 0 110.77 -4.46973 168.8 -10.2598h77.8096l-21.5801 -162.71h-9.62988
c-0.410156 72.9697 -60.4102 122.97 -159.41 122.97c-82 0 -132 -35 -136 -84c-4 -48 39 -71 88.71 -93.4697z" />
    <glyph glyph-name="Sacute" unicode="&#x15a;" horiz-adv-x="645" 
d="M303.04 761l-6.99023 7.00293c28.25 65.8896 110.5 147.779 154.75 185.659c48.3799 -20.2402 71.7598 -53.4805 85.1396 -99.7207c-63.2998 -41.9805 -159.6 -83.9609 -232.899 -92.9414zM302.75 486.533l186.911 -86.3008
c74.3896 -34.2197 122.39 -97.2197 115.39 -194.22c-10 -143 -125 -220 -314 -220c-116 0 -202 29 -236.65 64.6396c-22.4502 48.8701 -1.66992 146.57 31.5605 189.41h8.79004c-6.7002 -105.05 77.2998 -204.05 217.3 -204.05c96 0 141 47 140.9 98.4805
c0.0996094 41.5195 -29.9004 74.5195 -106.28 109.8l-163.05 75.3203c-91.5703 42.3896 -134.57 120.39 -122.57 215.39c14 116 99 179 233 179c36.0098 0 110.77 -4.46973 168.8 -10.2598h77.8096l-21.5801 -162.71h-9.62988
c-0.410156 72.9697 -60.4102 122.97 -159.41 122.97c-82 0 -132 -35 -136 -84c-4 -48 39 -71 88.71 -93.4697z" />
    <glyph glyph-name="Scaron" unicode="&#x160;" horiz-adv-x="645" 
d="M326.86 763.97l159.3 175.42l-7.20996 8l-157.54 -64.3301l-168.34 64.4297l-7.20996 -8l168.98 -175.52h12.0195zM302.73 486.52l186.911 -86.3008c74.3896 -34.2197 122.39 -97.2197 115.39 -194.22c-10 -143 -125 -220 -314 -220c-116 0 -202 29 -236.65 64.6396
c-22.4502 48.8701 -1.66992 146.57 31.5605 189.41h8.79004c-6.7002 -105.05 77.2998 -204.05 217.3 -204.05c96 0 141 47 140.9 98.4805c0.0996094 41.5195 -29.9004 74.5195 -106.28 109.8l-163.05 75.3203c-91.5703 42.3896 -134.57 120.39 -122.57 215.39
c14 116 99 179 233 179c36.0098 0 110.77 -4.46973 168.8 -10.2598h77.8096l-21.5801 -162.71h-9.62988c-0.410156 72.9697 -60.4102 122.97 -159.41 122.97c-82 0 -132 -35 -136 -84c-4 -48 39 -71 88.71 -93.4697z" />
    <glyph glyph-name="Scedilla" unicode="&#x15e;" horiz-adv-x="645" 
d="M302.74 486.53l186.89 -86.3008c74.3896 -34.2197 122.39 -97.2197 115.39 -194.22c-9.23047 -132.07 -108.021 -208 -271.95 -219l-42 -48c35.5898 12 125.189 6 118.84 -63c-6.41016 -70 -105.43 -114 -188.52 -85l0.740234 10c41.7305 0 97.0908 21 103.791 76
c5.15039 42 -61.1494 53 -97.3896 38l-5.08984 10l47.5996 61c-105.86 3 -184.021 31.0801 -216.65 64.6396c-22.4502 48.8701 -1.66992 146.57 31.5605 189.41h8.79004c-6.7002 -105.05 77.2998 -204.05 217.3 -204.05c96 0 141 47 140.9 98.4805
c0.0996094 41.5195 -29.9004 74.5195 -106.28 109.8l-163.05 75.3203c-91.5703 42.3896 -134.57 120.39 -122.57 215.39c14 116 99 179 233 179c36.0098 0 110.77 -4.46973 168.8 -10.2598h77.8096l-21.5801 -162.71h-9.62988
c-0.410156 72.9697 -60.4102 122.97 -159.41 122.97c-82 0 -132 -35 -136 -84c-4 -48 39 -71 88.71 -93.4697z" />
    <glyph glyph-name="Scommaaccent" unicode="&#x218;" horiz-adv-x="615" 
d="M292.74 486.53l186.901 -86.291c74.3896 -34.2197 122.39 -97.2197 115.39 -194.22c-10 -143 -125 -220 -314 -220c-116 0 -202 29 -236.65 64.6396c-22.4502 48.8701 -1.66992 146.57 31.5605 189.41h8.79004c-6.7002 -105.05 77.2998 -204.05 217.3 -204.05
c96 0 141 47 140.9 98.4805c0.0996094 41.5195 -29.9004 74.5195 -106.28 109.8l-163.05 75.3203c-91.5703 42.3896 -134.57 120.39 -122.57 215.39c14 116 99 179 233 179c36.0098 0 110.77 -4.46973 168.8 -10.2598h77.8096l-21.5801 -162.71h-9.62988
c-0.230469 40.9902 -19.2705 74.7305 -53.4609 96.4307c-26.6699 16.9297 -62.5596 26.5293 -105.939 26.5293c-82 0 -131.92 -35.0098 -136 -84c-4 -48 39 -71 88.71 -93.4697zM245.142 -272.98l-2.73047 9c25.6504 11 50.5205 48 12.8506 90
c-25.6396 29 -21.3193 78 6.40039 98c31.9805 24 83.1504 10 100.92 -29c38.3799 -84 -31.9805 -185 -117.44 -168z" />
    <glyph glyph-name="T" unicode="T" horiz-adv-x="698" 
d="M127.65 701h443.347c42.9199 0.629883 99.3301 10.4395 117.66 18.1699v-205.74l-10.0996 0.150391v7.82031c0.19043 79.7998 -47.46 128 -128.3 129.61h-98.2402v-578.96c1.07031 -34.46 29.3008 -62.0801 64.0312 -62.0801h12.6504l0.160156 -10h-358.92l0.160156 10
h12.6504c34.4502 0 62.5098 27.1797 64 61.2598v579.78h-98.3604c-80.8398 -1.61035 -128.49 -49.8105 -128.3 -129.61v-7.82031l-10.0996 -0.150391v205.74c18.3301 -7.73047 74.7402 -17.54 117.66 -18.1699z" />
    <glyph glyph-name="Tbar" unicode="&#x166;" horiz-adv-x="698" 
d="M127.65 701l443.347 -0.00976562c42.9199 0.629883 99.3301 10.4395 117.66 18.1699v-205.74l-10.0996 0.150391v7.82031c0.19043 79.7998 -47.46 128 -128.3 129.61h-98.2402v-247.66h150.02v-50h-150.02v-281.29c1.07031 -34.46 29.3008 -62.0801 64.0312 -62.0801
h12.6504l0.160156 -10h-358.92l0.160156 10h12.6504c34.4502 0 62.5098 27.1797 64 61.2598v282.12h-150.46v50h150.46v247.66h-98.3604c-80.8398 -1.61035 -128.49 -49.8105 -128.3 -129.61v-7.82031l-10.0996 -0.150391v205.74
c18.3301 -7.73047 74.7402 -17.54 117.66 -18.1699z" />
    <glyph glyph-name="Tcaron" unicode="&#x164;" horiz-adv-x="698" 
d="M356.83 763.97l159.3 175.42l-7.20996 8l-157.54 -64.3301l-168.34 64.4297l-7.20996 -8l168.98 -175.52h12.0195zM127.649 700.989l443.347 -0.00976562c42.9199 0.629883 99.3301 10.4395 117.66 18.1699v-205.74l-10.0996 0.150391v7.82031
c0.19043 79.7998 -47.46 128 -128.3 129.61h-98.2402v-578.96c1.07031 -34.46 29.3008 -62.0801 64.0312 -62.0801h12.6504l0.160156 -10h-358.92l0.160156 10h12.6504c34.4502 0 62.5098 27.1797 64 61.2598v579.79h-98.3604
c-80.8398 -1.61035 -128.49 -49.8105 -128.3 -129.61v-7.82031l-10.0996 -0.150391v205.74c18.3301 -7.73047 74.7402 -17.54 117.66 -18.1699z" />
    <glyph glyph-name="Tcedilla" unicode="&#x162;" horiz-adv-x="698" 
d="M127.65 701l443.335 -0.00976562c42.9199 0.629883 99.3301 10.4395 117.66 18.1699v-205.74l-10.0996 0.150391v7.82031c0.19043 79.7998 -47.46 128 -128.3 129.61h-98.2402v-578.96c1.07031 -34.46 29.3008 -62.0801 64.0312 -62.0801h12.6504l0.160156 -10h-159.87
l-41.7002 -48c35.5898 12 125.189 6 118.84 -63c-6.41016 -70 -105.43 -114 -188.52 -85l0.740234 10c41.7305 0 97.0908 21 103.791 76c5.15039 42 -61.1494 53 -97.3896 38l-5.08984 10l48.1504 62h-137.86l0.160156 10h12.6504c34.4502 0 62.5098 27.1797 64 61.2598
v579.79h-98.3604c-80.8398 -1.61035 -128.49 -49.8105 -128.3 -129.61v-7.82031l-10.0996 -0.150391v205.74c18.3301 -7.73047 74.7402 -17.54 117.66 -18.1699z" />
    <glyph glyph-name="uni021A" unicode="&#x21a;" horiz-adv-x="698" 
d="M127.65 701h443.347c42.9199 0.629883 99.3301 10.4395 117.66 18.1699v-205.74l-10.0996 0.150391v7.82031c0.19043 79.7998 -47.46 128 -128.3 129.61h-98.2402v-578.96c1.07031 -34.46 29.3008 -62.0801 64.0312 -62.0801h12.6504l0.160156 -10h-358.92l0.160156 10
h12.6504c34.4502 0 62.5098 27.1797 64 61.2598v579.78h-98.3604c-80.8398 -1.61035 -128.49 -49.8105 -128.3 -129.61v-7.82031l-10.0996 -0.150391v205.74c18.3301 -7.73047 74.7402 -17.54 117.66 -18.1699zM291.377 -273l-2.73047 9c25.6504 11 50.5205 48 12.8506 90
c-25.6396 29 -21.3193 78 6.40039 98c31.9805 24 83.1504 10 100.92 -29c38.3799 -84 -31.9805 -185 -117.44 -168z" />
    <glyph glyph-name="U" unicode="U" horiz-adv-x="845" 
d="M600.18 700l224.899 0.00976562v-10h-16.2998c-28.1104 0 -51.0605 -19.6699 -52.8008 -47.2295v-385.45c0 -169.21 -107.85 -271.35 -299.54 -271.35c-245.06 0 -357.359 101.59 -357.26 269.6v384.9c-0.540039 28.7598 -23.9805 49.5195 -52.8701 49.5195h-16.2998v10
h343.11v-10h-16.2998c-28.3896 0 -51.5098 -20.0498 -52.7295 -48.0303v-381.7c0 -140.04 67.7197 -222.79 182.33 -222.79c114.73 0 182.57 77.96 182.88 209.9v394.48c-1.25 28.04 -24.4004 48.1396 -52.8203 48.1396h-16.2998v10z" />
    <glyph glyph-name="Uacute" unicode="&#xda;" horiz-adv-x="845" 
d="M465.99 761l-6.99023 7.00293c28.25 65.8896 110.5 147.779 154.75 185.659c48.3799 -20.2402 71.7598 -53.4805 85.1396 -99.7207c-63.2998 -41.9805 -159.6 -83.9609 -232.899 -92.9414zM600.19 700.003h224.89v-10h-16.2998
c-28.1104 0 -51.0605 -19.6699 -52.8008 -47.2295v-385.45c0 -169.21 -107.85 -271.34 -299.54 -271.34c-245.06 0 -357.359 101.59 -357.26 269.6v384.9c-0.540039 28.7598 -23.9805 49.5195 -52.8701 49.5195h-16.2998v10h343.11v-10h-16.2998
c-28.3799 0 -51.5 -20.0498 -52.7197 -48.0303v-381.7c0 -140.04 67.7197 -222.79 182.33 -222.79c114.73 0 182.57 77.96 182.88 209.9v394.48c-1.25 28.04 -24.4004 48.1396 -52.8203 48.1396h-16.2998v10z" />
    <glyph glyph-name="Ucircumflex" unicode="&#xdb;" horiz-adv-x="845" 
d="M475.75 931.76l-168.868 -175.42l7.13965 -8l167.12 64.3301l177.81 -64.4297l7.13965 8l-178.44 175.52h-11.9004zM600.182 700h224.89v-10h-16.2998c-28.1104 0 -51.0605 -19.6699 -52.8008 -47.2295v-385.45c0 -169.21 -107.85 -271.34 -299.54 -271.34
c-245.06 0 -357.359 101.59 -357.26 269.6v384.9c-0.540039 28.7598 -23.9805 49.5195 -52.8701 49.5195h-16.2998v10h343.11v-10h-16.2998c-28.3799 0 -51.5 -20.0498 -52.7197 -48.0303v-381.7c0 -140.04 67.7197 -222.79 182.33 -222.79
c114.73 0 182.57 77.96 182.88 209.9v394.48c-1.25 28.04 -24.4004 48.1396 -52.8203 48.1396h-16.2998v10z" />
    <glyph glyph-name="Udieresis" unicode="&#xdc;" horiz-adv-x="845" 
d="M348.15 755.48c-40.7002 0 -73.6904 32.9902 -73.6904 73.6904s32.9902 73.6904 73.6904 73.6904s73.6904 -32.9902 73.6904 -73.6904s-32.9902 -73.6904 -73.6904 -73.6904zM610.75 755.48c-40.7002 0 -73.6904 32.9902 -73.6904 73.6904
s32.9902 73.6904 73.6904 73.6904s73.6904 -32.9902 73.6904 -73.6904s-32.9902 -73.6904 -73.6904 -73.6904zM600.18 699.99h224.89v-10h-16.2998c-28.1104 0 -51.0605 -19.6699 -52.8008 -47.2295v-385.45c0 -169.21 -107.85 -271.34 -299.54 -271.34
c-245.06 0 -357.359 101.59 -357.26 269.6v384.9c-0.540039 28.7598 -23.9805 49.5195 -52.8701 49.5195h-16.2998v10h343.11v-10h-16.2998c-28.3799 0 -51.5 -20.0498 -52.7197 -48.0303v-381.7c0 -140.04 67.7197 -222.79 182.33 -222.79
c114.73 0 182.57 77.96 182.88 209.9v394.48c-1.25 28.04 -24.4004 48.1396 -52.8203 48.1396h-16.2998v10z" />
    <glyph glyph-name="Ugrave" unicode="&#xd9;" horiz-adv-x="845" 
d="M509.9 770.91l-6.99023 -7.00293c-73.2998 8.98047 -169.6 50.9609 -232.899 92.9414c13.3799 46.2402 36.7598 79.4805 85.1396 99.7207c44.25 -37.8799 126.5 -119.77 154.75 -185.659zM600.19 699.997h224.89v-10h-16.2998
c-28.1104 0 -51.0605 -19.6699 -52.8008 -47.2295v-385.45c0 -169.21 -107.85 -271.34 -299.54 -271.34c-245.06 0 -357.359 101.59 -357.26 269.6v384.9c-0.540039 28.7598 -23.9805 49.5195 -52.8701 49.5195h-16.2998v10h343.11v-10h-16.2998
c-28.3799 0 -51.5 -20.0498 -52.7197 -48.0303v-381.7c0 -140.04 67.7197 -222.79 182.33 -222.79c114.73 0 182.57 77.96 182.88 209.9v394.48c-1.25 28.04 -24.4004 48.1396 -52.8203 48.1396h-16.2998v10z" />
    <glyph glyph-name="Uhungarumlaut" unicode="&#x170;" horiz-adv-x="845" 
d="M358.51 764l-6.99023 7.00293c28.25 65.8896 110.5 147.779 154.75 185.659c48.3799 -20.2402 71.7598 -53.4805 85.1396 -99.7207c-63.2998 -41.9805 -159.6 -83.9609 -232.899 -92.9414zM568.52 764.003l-6.99023 7.00293c28.25 65.8896 110.5 147.779 154.75 185.659
c48.3799 -20.2402 71.7598 -53.4805 85.1396 -99.7207c-63.2998 -41.9805 -159.6 -83.9609 -232.899 -92.9414zM600.199 700.006h224.89v-10h-16.2998c-28.1104 0 -51.0605 -19.6699 -52.8008 -47.2295v-385.45c0 -169.21 -107.85 -271.34 -299.54 -271.34
c-245.06 0 -357.359 101.59 -357.26 269.6v384.9c-0.540039 28.7598 -23.9805 49.5195 -52.8701 49.5195h-16.2998v10h343.11v-10h-16.2998c-28.3799 0 -51.5 -20.0498 -52.7197 -48.0303v-381.7c0 -140.04 67.7197 -222.79 182.33 -222.79
c114.73 0 182.57 77.96 182.88 209.9v394.48c-1.25 28.04 -24.4004 48.1396 -52.8203 48.1396h-16.2998v10z" />
    <glyph glyph-name="Umacron" unicode="&#x16a;" horiz-adv-x="845" 
d="M340.81 795.36v85h290v-85h-290zM600.18 700h224.89v-10h-16.2998c-28.1104 0 -51.0605 -19.6699 -52.8008 -47.2295v-385.45c0 -169.21 -107.85 -271.34 -299.54 -271.34c-245.06 0 -357.359 101.59 -357.26 269.6v384.9
c-0.540039 28.7598 -23.9805 49.5195 -52.8701 49.5195h-16.2998v10h343.11v-10h-16.2998c-28.3799 0 -51.5 -20.0498 -52.7197 -48.0303v-381.7c0 -140.04 67.7197 -222.79 182.33 -222.79c114.73 0 182.57 77.96 182.88 209.9v394.48
c-1.25 28.04 -24.4004 48.1396 -52.8203 48.1396h-16.2998v10z" />
    <glyph glyph-name="Uogonek" unicode="&#x172;" horiz-adv-x="845" 
d="M825.07 700v-9.99023h-16.2998c-28.1104 0 -51.0605 -19.6699 -52.8008 -47.2295v-385.45c-0.00976562 -159.99 -96.4297 -260.34 -268.979 -270.34c-52.8203 -13 -65.4502 -45 -62.4902 -78c6 -61 62 -82 112.05 -42l6 -6c-9.0498 -136 -223.689 -102 -204.05 37
c7.33984 52 44.6201 79 85.25 89c-222.38 8 -324.67 108.24 -324.58 268.59v384.9c-0.540039 28.7598 -23.9805 49.5195 -52.8701 49.5195h-16.2998v10h343.11v-10h-16.2998c-28.3799 0 -51.5 -20.0498 -52.7197 -48.0303v-381.7c0 -140.04 67.7197 -222.79 182.33 -222.79
c114.73 0 182.57 77.96 182.88 209.9v394.48c-1.25 28.04 -24.4004 48.1396 -52.8203 48.1396h-16.2998v10h224.89z" />
    <glyph glyph-name="Uring" unicode="&#x16e;" horiz-adv-x="845" 
d="M482.85 941.63c66.7998 0 116.858 -37.3301 116.858 -87.0996c0 -52.2803 -50.5596 -91.5 -117.949 -91.5c-67.4199 0 -117.979 38.2695 -117.979 89.2998s51.0303 89.2998 119.07 89.2998zM481.729 911.86c-28.9805 0 -50.71 -25.5098 -50.71 -59.5195
c0 -33.4004 21.7305 -58.4404 50.7207 -58.4404c29.5996 0 51.8096 25.04 51.8096 58.4199c0 34.0303 -22.21 59.54 -51.8203 59.54zM600.18 700h224.89v-10h-16.2998c-28.1104 0 -51.0605 -19.6699 -52.8008 -47.2295v-385.45c0 -169.21 -107.85 -271.34 -299.54 -271.34
c-245.06 0 -357.359 101.59 -357.26 269.6v384.9c-0.540039 28.7598 -23.9805 49.5195 -52.8701 49.5195h-16.2998v10h343.11v-10h-16.2998c-28.3799 0 -51.5 -20.0498 -52.7197 -48.0303v-381.7c0 -140.04 67.7197 -222.79 182.33 -222.79
c114.73 0 182.57 77.96 182.88 209.9v394.48c-1.25 28.04 -24.4004 48.1396 -52.8203 48.1396h-16.2998v10z" />
    <glyph glyph-name="V" unicode="V" horiz-adv-x="720" 
d="M537.1 700l223.31 -0.0107422v-10h-9c-27.9004 0 -61.4102 -15.9697 -83.0303 -54.0293l-233.34 -510.84c-11.75 -25.0596 -53.0498 -115.42 -57.0498 -149.14h-9.00977l-316.81 658.83c-22.2803 38.8896 -55.1602 55.1797 -84.1602 55.1797h-8v10h379.17v-9.91016
h-8.79004c-25.8203 0 -52.75 -22.75 -38.75 -62.7695l143.5 -343.33l149.15 343.33c17.5996 40.0195 -12.5801 62.7793 -38.4004 62.7793h-8.79004v9.91016z" />
    <glyph glyph-name="W" unicode="W" horiz-adv-x="964" 
d="M785.8 700l218.612 0.00195312v-10h-8.79004c-29.25 0 -69.8398 -16.3604 -85.8203 -56.6006l-169.38 -544.24s-20.3496 -61.3701 -14.8594 -111.16h-9.44043l-230.73 434.8l-158.27 -323.65s-26.3203 -56.0098 -26.9707 -111.16h-9.44043l-247.06 655.29
c-19.1104 40.3301 -55.6602 56.71 -85.6602 56.71h-8v10h359.11v-9.91016h-8.79004c-25.6299 0 -51.6602 -22.2305 -37.75 -61.7002l109.49 -272.52l172.95 359.78l9.30957 -0.320312l199.14 -368.25l79.1396 280.76c10.5996 40.0195 -10.1807 62.2598 -38.001 62.2598
h-8.79004v9.91016z" />
    <glyph glyph-name="Wacute" unicode="&#x1e82;" horiz-adv-x="964" 
d="M526.31 761l-6.99023 7.00293c28.25 65.8896 110.5 147.779 154.75 185.659c48.3799 -20.2402 71.7598 -53.4805 85.1396 -99.7207c-63.2998 -41.9805 -159.6 -83.9609 -232.899 -92.9414zM785.81 700.003l218.612 0.00195312v-10h-8.79004
c-29.25 0 -69.8398 -16.3604 -85.8203 -56.6006l-169.38 -544.24s-20.3496 -61.3701 -14.8594 -111.16h-9.44043l-230.73 434.8l-158.27 -323.65s-26.3203 -56.0098 -26.9707 -111.16h-9.44043l-247.06 655.29c-19.1104 40.3301 -55.6602 56.71 -85.6602 56.71h-8v10h359.11
v-9.91016h-8.79004c-25.6299 0 -51.6602 -22.2305 -37.75 -61.7002l109.49 -272.52l172.95 359.78l9.30957 -0.320312l199.14 -368.25l79.1396 280.76c10.5996 40.0195 -10.1807 62.2598 -38.001 62.2598h-8.79004v9.91016z" />
    <glyph glyph-name="Wcircumflex" unicode="&#x174;" horiz-adv-x="964" 
d="M536.06 931.76l-168.868 -175.42l7.13965 -8l167.12 64.3301l177.81 -64.4297l7.13965 8l-178.44 175.52h-11.9004zM785.802 700l218.612 0.00195312v-10h-8.79004c-29.25 0 -69.8398 -16.3604 -85.8203 -56.6006l-169.38 -544.24s-20.3496 -61.3701 -14.8594 -111.16
h-9.44043l-230.73 434.8l-158.27 -323.65s-26.3203 -56.0098 -26.9707 -111.16h-9.44043l-247.06 655.29c-19.1104 40.3301 -55.6602 56.71 -85.6602 56.71h-8v10h359.11v-9.91016h-8.79004c-25.6299 0 -51.6602 -22.2305 -37.75 -61.7002l109.49 -272.52l172.95 359.78
l9.30957 -0.320312l199.14 -368.25l79.1396 280.76c10.5996 40.0195 -10.1807 62.2598 -38.001 62.2598h-8.79004v9.91016z" />
    <glyph glyph-name="Wdieresis" unicode="&#x1e84;" horiz-adv-x="964" 
d="M408.47 755.48c-40.7002 0 -73.6904 32.9902 -73.6904 73.6904s32.9902 73.6904 73.6904 73.6904s73.6904 -32.9902 73.6904 -73.6904s-32.9902 -73.6904 -73.6904 -73.6904zM671.069 755.48c-40.7002 0 -73.6904 32.9902 -73.6904 73.6904
s32.9902 73.6904 73.6904 73.6904s73.6904 -32.9902 73.6904 -73.6904s-32.9902 -73.6904 -73.6904 -73.6904zM785.81 699.99l218.612 0.00195312v-10h-8.79004c-29.25 0 -69.8398 -16.3604 -85.8203 -56.6006l-169.38 -544.24s-20.3496 -61.3701 -14.8594 -111.16h-9.44043
l-230.73 434.8l-158.27 -323.65s-26.3203 -56.0098 -26.9707 -111.16h-9.44043l-247.06 655.29c-19.1104 40.3301 -55.6602 56.71 -85.6602 56.71h-8v10h359.11v-9.91016h-8.79004c-25.6299 0 -51.6602 -22.2305 -37.75 -61.7002l109.49 -272.52l172.95 359.78
l9.30957 -0.320312l199.14 -368.25l79.1396 280.76c10.5996 40.0195 -10.1807 62.2598 -38.001 62.2598h-8.79004v9.91016z" />
    <glyph glyph-name="Wgrave" unicode="&#x1e80;" horiz-adv-x="964" 
d="M570.22 770.91l-6.99023 -7.00293c-73.2998 8.98047 -169.6 50.9609 -232.899 92.9414c13.3799 46.2402 36.7598 79.4805 85.1396 99.7207c44.25 -37.8799 126.5 -119.77 154.75 -185.659zM785.819 700.007l218.612 0.00195312v-10h-8.79004
c-29.25 0 -69.8398 -16.3604 -85.8203 -56.6006l-169.38 -544.24s-20.3496 -61.3701 -14.8594 -111.16h-9.44043l-230.73 434.8l-158.27 -323.65s-26.3203 -56.0098 -26.9707 -111.16h-9.44043l-247.06 655.29c-19.1104 40.3301 -55.6602 56.71 -85.6602 56.71h-8v10h359.11
v-9.91016h-8.79004c-25.6299 0 -51.6602 -22.2305 -37.75 -61.7002l109.49 -272.52l172.95 359.78l9.30957 -0.320312l199.14 -368.25l79.1396 280.76c10.5996 40.0195 -10.1807 62.2598 -38.001 62.2598h-8.79004v9.91016z" />
    <glyph glyph-name="X" unicode="X" horiz-adv-x="773" 
d="M810.08 10l0.191406 -9.99121h-403.9l-0.169922 10h12.5996c27.2695 0 51.1494 33.1904 33.9297 61.5801l-131.3 201.62l-142.29 -201.12c-19.2402 -28.3896 7.87012 -62.0596 35.1396 -62.0596h12.5996l0.169922 -10.0195h-260.04v10.0195h14
c41.0801 0 74.96 26.7803 98.6396 56.9004l199.09 271.82l-190.67 292.79c-20.8701 30.7402 -59.5498 58.5 -101.06 58.5h-14v9.96973h401.93l0.169922 -9.96973h-12.5996c-27.2197 0 -51.0498 -33.5596 -34.0303 -61.9092l116.17 -177.61l113.79 177.62
c17.0098 28.3398 -8.0498 61.8594 -35.2598 61.8594h-12.5996l-0.169922 10.0195h258.55l0.169922 -10.0195h-14c-41.8203 0 -77.7305 -27.6699 -99.5 -58.3896l-166.73 -248.76l205.73 -314.53c20.8203 -30.8701 59.8203 -58.3203 101.82 -58.3203h13.6299z" />
    <glyph glyph-name="Y" unicode="Y" horiz-adv-x="729" 
d="M525.51 700.02l249.148 -0.0107422v-10.0195h-14c-42 0 -80.5195 -27.9004 -100.81 -58.7705l-196.24 -309.47v-248.89c0.650391 -34.8301 29.0508 -62.8799 64.0508 -62.8799h12.6504l0.160156 -10h-358.75l0.160156 10h12.6504
c34.8096 0 63.0791 27.7402 64.0391 62.2998v250.01l-190.16 310.5c-19.6201 30.2402 -58.5 57.25 -99.4199 57.25h-14v9.96973h386.34v-9.96973h-12.5996c-29.21 0 -49.6396 -33.5498 -35.0996 -61.8994l137.46 -247.38l142.08 247.32
c15.5898 28.3604 -7.83008 61.9199 -35.0605 61.9199h-12.5996v10.0195z" />
    <glyph glyph-name="Yacute" unicode="&#xdd;" horiz-adv-x="729" 
d="M418.01 761l-6.99023 7.00293c28.25 65.8896 110.5 147.779 154.75 185.659c48.3799 -20.2402 71.7598 -53.4805 85.1396 -99.7207c-63.2998 -41.9805 -159.6 -83.9609 -232.899 -92.9414zM525.529 700.022l249.148 -0.0107422v-10.0195h-14
c-42 0 -80.5195 -27.9004 -100.81 -58.7705l-196.24 -309.47v-248.89c0.650391 -34.8301 29.0508 -62.8799 64.0508 -62.8799h12.6504l0.160156 -10h-358.75l0.160156 10h12.6504c34.8096 0 63.0791 27.7402 64.0391 62.2998v250.01l-190.16 310.5
c-19.6201 30.2402 -58.5 57.25 -99.4199 57.25h-14v9.96973h386.34v-9.96973h-12.5996c-29.21 0 -49.6396 -33.5498 -35.0996 -61.8994l137.46 -247.38l142.08 247.32c15.5898 28.3604 -7.83008 61.9199 -35.0605 61.9199h-12.5996v10.0195z" />
    <glyph glyph-name="Ycircumflex" unicode="&#x176;" horiz-adv-x="729" 
d="M427.76 931.76l-168.868 -175.42l7.13965 -8l167.12 64.3301l177.81 -64.4297l7.13965 8l-178.44 175.52h-11.9004zM525.512 700.02l249.148 -0.0107422v-10.0195h-14c-42 0 -80.5195 -27.9004 -100.81 -58.7705l-196.24 -309.47v-248.89
c0.650391 -34.8301 29.0508 -62.8799 64.0508 -62.8799h12.6504l0.160156 -10h-358.75l0.160156 10h12.6504c34.8096 0 63.0791 27.7402 64.0391 62.2998v250.01l-190.16 310.5c-19.6201 30.2402 -58.5 57.25 -99.4199 57.25h-14v9.96973h386.34v-9.96973h-12.5996
c-29.21 0 -49.6396 -33.5498 -35.0996 -61.8994l137.46 -247.38l142.08 247.32c15.5898 28.3604 -7.83008 61.9199 -35.0605 61.9199h-12.5996v10.0195z" />
    <glyph glyph-name="Ydieresis" unicode="&#x178;" horiz-adv-x="729" 
d="M300.17 755.49c-40.7002 0 -73.6904 32.9902 -73.6904 73.6904s32.9902 73.6904 73.6904 73.6904s73.6904 -32.9902 73.6904 -73.6904s-32.9902 -73.6904 -73.6904 -73.6904zM562.77 755.49c-40.7002 0 -73.6904 32.9902 -73.6904 73.6904
s32.9902 73.6904 73.6904 73.6904s73.6904 -32.9902 73.6904 -73.6904s-32.9902 -73.6904 -73.6904 -73.6904zM525.52 700.021l249.148 -0.0107422v-10.0195h-14c-42 0 -80.5195 -27.9004 -100.81 -58.7705l-196.24 -309.47v-248.89
c0.650391 -34.8301 29.0508 -62.8799 64.0508 -62.8799h12.6504l0.160156 -10h-358.75l0.160156 10h12.6504c34.8096 0 63.0791 27.7402 64.0391 62.2998v250.01l-190.16 310.5c-19.6201 30.2402 -58.5 57.25 -99.4199 57.25h-14v9.96973h386.34v-9.96973h-12.5996
c-29.21 0 -49.6396 -33.5498 -35.0996 -61.8994l137.46 -247.38l142.08 247.32c15.5898 28.3604 -7.83008 61.9199 -35.0605 61.9199h-12.5996v10.0195z" />
    <glyph glyph-name="Ygrave" unicode="&#x1ef2;" horiz-adv-x="729" 
d="M461.91 770.91l-6.99023 -7.00293c-73.2998 8.98047 -169.6 50.9609 -232.899 92.9414c13.3799 46.2402 36.7598 79.4805 85.1396 99.7207c44.25 -37.8799 126.5 -119.77 154.75 -185.659zM525.52 700.018l249.148 -0.0107422v-10.0195h-14
c-42 0 -80.5195 -27.9004 -100.81 -58.7705l-196.24 -309.47v-248.89c0.650391 -34.8301 29.0508 -62.8799 64.0508 -62.8799h12.6504l0.160156 -10h-358.75l0.160156 10h12.6504c34.8096 0 63.0791 27.7402 64.0391 62.2998v250.01l-190.16 310.5
c-19.6201 30.2402 -58.5 57.25 -99.4199 57.25h-14v9.96973h386.34v-9.96973h-12.5996c-29.21 0 -49.6396 -33.5498 -35.0996 -61.8994l137.46 -247.38l142.08 247.32c15.5898 28.3604 -7.83008 61.9199 -35.0605 61.9199h-12.5996v10.0195z" />
    <glyph glyph-name="Z" unicode="Z" horiz-adv-x="668" 
d="M633.84 231.54l10.0312 0.0107422l-38.29 -231.54h-570.56l0.179688 9.32031l332.06 641.53h-180.25c-80.4004 -0.900391 -127.761 -50.0508 -127.57 -129.61v-7.82031l-10.0996 -0.150391v205.76c18.7998 -7.92969 77.6494 -18.0498 120.919 -17.9395h344.36
c40.2197 0 94.1699 6.71973 105.97 12.8994v-8.66992l-335.55 -655.52h141.28c95.96 0 176.43 67.5498 207.52 181.729z" />
    <glyph glyph-name="Zacute" unicode="&#x179;" horiz-adv-x="668" 
d="M318 761l-6.99023 7.00293c28.25 65.8896 110.5 147.779 154.75 185.659c48.3799 -20.2402 71.7598 -53.4805 85.1396 -99.7207c-63.2998 -41.9805 -159.6 -83.9609 -232.899 -92.9414zM633.859 231.543l10.0312 0.0107422l-38.29 -231.54h-570.56l0.179688 9.32031
l332.06 641.53h-180.25c-80.4004 -0.900391 -127.761 -50.0508 -127.57 -129.61v-7.82031l-10.0996 -0.150391v205.76c18.7998 -7.92969 77.6494 -18.0498 120.919 -17.9395h344.36c40.2197 0 94.1699 6.71973 105.97 12.8994v-8.66992l-335.55 -655.52h141.28
c95.96 0 176.43 67.5498 207.52 181.729z" />
    <glyph glyph-name="Zcaron" unicode="&#x17d;" horiz-adv-x="668" 
d="M341.83 763.97l159.3 175.42l-7.20996 8l-157.54 -64.3301l-168.34 64.4297l-7.20996 -8l168.98 -175.52h12.0195zM633.84 231.54l10.0312 0.0107422l-38.29 -231.54h-570.56l0.179688 9.32031l332.06 641.53h-180.25
c-80.4004 -0.900391 -127.761 -50.0508 -127.57 -129.61v-7.82031l-10.0996 -0.150391v205.76c18.7998 -7.92969 77.6494 -18.0498 120.919 -17.9395h344.36c40.2197 0 94.1699 6.71973 105.97 12.8994v-8.66992l-335.55 -655.52h141.28
c95.96 0 176.43 67.5498 207.52 181.729z" />
    <glyph glyph-name="Zdotaccent" unicode="&#x17b;" horiz-adv-x="668" 
d="M335 764c-40.7002 0 -73.6904 32.9902 -73.6904 73.6904s32.9902 73.6904 73.6904 73.6904s73.6904 -32.9902 73.6904 -73.6904s-32.9902 -73.6904 -73.6904 -73.6904zM633.85 231.54l10.0312 0.0107422l-38.29 -231.54h-570.56l0.179688 9.32031l332.06 641.53h-180.25
c-80.4004 -0.900391 -127.761 -50.0508 -127.57 -129.61v-7.82031l-10.0996 -0.150391v205.76c18.7998 -7.92969 77.6494 -18.0498 120.919 -17.9395h344.36c40.2197 0 94.1699 6.71973 105.97 12.8994v-8.66992l-335.55 -655.52h141.28
c95.96 0 176.43 67.5498 207.52 181.729z" />
    <glyph glyph-name="a" unicode="a" horiz-adv-x="632" 
d="M307.61 636.41l282.7 -575.44c18.6904 -37.1797 50.7305 -50.9697 77.8809 -50.9697h7.41992v-10h-351.13v9.91016h7.7998c22.9102 0 48.5703 17.4502 33.9102 50.96l-28.9199 66.2305h-185.77l-29.96 -68.6504c-12.4199 -31.9297 12.7598 -48.54 35.1094 -48.54h7.7998
v-9.91016h-206.45v10h8c25 0 58.0303 13.1904 76.0303 48.5303l205.76 444.86c11.5498 25.3896 48.2598 103.449 51.9697 133.02h7.84961zM171.311 172.489h146.13l-73.0801 167.36z" />
    <glyph glyph-name="aacute" unicode="&#xe1;" horiz-adv-x="632" 
d="M287.52 661l-6.99023 7.00293c28.25 65.8896 110.5 147.779 154.75 185.659c48.3799 -20.2402 71.7598 -53.4805 85.1396 -99.7207c-63.2998 -41.9805 -159.6 -83.9609 -232.899 -92.9414zM307.619 636.413l282.7 -575.44
c18.6904 -37.1797 50.7305 -50.9697 77.8809 -50.9697h7.41992v-10h-351.13v9.91016h7.7998c22.9102 0 48.5703 17.4502 33.9102 50.96l-28.9199 66.2305h-185.77l-29.96 -68.6504c-12.4199 -31.9297 12.7598 -48.54 35.1094 -48.54h7.7998v-9.91016h-206.45v10h8
c25 0 58.0303 13.1904 76.0303 48.5303l205.76 444.86c11.5498 25.3896 48.2598 103.449 51.9697 133.02h7.84961zM171.319 172.492h146.13l-73.0801 167.36z" />
    <glyph glyph-name="abreve" unicode="&#x103;" horiz-adv-x="632" 
d="M431.31 827.65h12.71c19.2998 -86.7305 -51.7002 -163.73 -139.5 -163.641c-90.2002 -0.0898438 -158.2 78.9102 -139.51 163.641h12.7197c15.5898 -35.7305 67.5898 -63.7305 126.59 -63.7305c58 0 111 27 126.99 63.7305zM307.609 636.41l282.7 -575.44
c18.6904 -37.1797 50.7305 -50.9697 77.8809 -50.9697h7.41992v-10h-351.13v9.91016h7.7998c22.9102 0 48.5703 17.4502 33.9102 50.96l-28.9199 66.2305h-185.77l-29.96 -68.6504c-12.4199 -31.9297 12.7598 -48.54 35.1094 -48.54h7.7998v-9.91016h-206.45v10h8
c25 0 58.0303 13.1904 76.0303 48.5303l205.76 444.86c11.5498 25.3896 48.2598 103.449 51.9697 133.02h7.84961zM171.31 172.489h146.13l-73.0801 167.36z" />
    <glyph glyph-name="acircumflex" unicode="&#xe2;" horiz-adv-x="632" 
d="M297.27 831.76l-168.868 -175.42l7.13965 -8l167.12 64.3301l177.81 -64.4297l7.13965 8l-178.44 175.52h-11.9004zM307.611 636.41l282.7 -575.44c18.6904 -37.1797 50.7305 -50.9697 77.8809 -50.9697h7.41992v-10h-351.13v9.91016h7.7998
c22.9102 0 48.5703 17.4502 33.9102 50.96l-28.9199 66.2305h-185.77l-29.96 -68.6504c-12.4199 -31.9297 12.7598 -48.54 35.1094 -48.54h7.7998v-9.91016h-206.45v10h8c25 0 58.0303 13.1904 76.0303 48.5303l205.76 444.86
c11.5498 25.3896 48.2598 103.449 51.9697 133.02h7.84961zM171.312 172.489h146.13l-73.0801 167.36z" />
    <glyph glyph-name="adieresis" unicode="&#xe4;" horiz-adv-x="632" 
d="M169.68 655.49c-40.7002 0 -73.6904 32.9902 -73.6904 73.6904s32.9902 73.6904 73.6904 73.6904s73.6904 -32.9902 73.6904 -73.6904s-32.9902 -73.6904 -73.6904 -73.6904zM432.279 655.49c-40.7002 0 -73.6904 32.9902 -73.6904 73.6904
s32.9902 73.6904 73.6904 73.6904s73.6904 -32.9902 73.6904 -73.6904s-32.9902 -73.6904 -73.6904 -73.6904zM307.619 636.41l282.7 -575.44c18.6904 -37.1797 50.7305 -50.9697 77.8809 -50.9697h7.41992v-10h-351.13v9.91016h7.7998
c22.9102 0 48.5703 17.4502 33.9102 50.96l-28.9199 66.2305h-185.77l-29.96 -68.6504c-12.4199 -31.9297 12.7598 -48.54 35.1094 -48.54h7.7998v-9.91016h-206.45v10h8c25 0 58.0303 13.1904 76.0303 48.5303l205.76 444.86
c11.5498 25.3896 48.2598 103.449 51.9697 133.02h7.84961zM171.319 172.489h146.13l-73.0801 167.36z" />
    <glyph glyph-name="agrave" unicode="&#xe0;" horiz-adv-x="632" 
d="M331.43 670.91l-6.99023 -7.00293c-73.2998 8.98047 -169.6 50.9609 -232.899 92.9414c13.3799 46.2402 36.7598 79.4805 85.1396 99.7207c44.25 -37.8799 126.5 -119.77 154.75 -185.659zM307.63 636.407l282.7 -575.44
c18.6904 -37.1797 50.7305 -50.9697 77.8809 -50.9697h7.41992v-10h-351.13v9.91016h7.7998c22.9102 0 48.5703 17.4502 33.9102 50.96l-28.9199 66.2305h-185.77l-29.96 -68.6504c-12.4199 -31.9297 12.7598 -48.54 35.1094 -48.54h7.7998v-9.91016h-206.45v10h8
c25 0 58.0303 13.1904 76.0303 48.5303l205.76 444.86c11.5498 25.3896 48.2598 103.449 51.9697 133.02h7.84961zM171.33 172.486h146.13l-73.0801 167.36z" />
    <glyph glyph-name="amacron" unicode="&#x101;" horiz-adv-x="632" 
d="M162.34 695.36v85h290v-85h-290zM307.609 636.41l282.7 -575.44c18.6904 -37.1797 50.7305 -50.9697 77.8809 -50.9697h7.41992v-10h-351.13v9.91016h7.7998c22.9102 0 48.5703 17.4502 33.9102 50.96l-28.9199 66.2305h-185.77l-29.96 -68.6504
c-12.4199 -31.9297 12.7598 -48.54 35.1094 -48.54h7.7998v-9.91016h-206.45v10h8c25 0 58.0303 13.1904 76.0303 48.5303l205.76 444.86c11.5498 25.3896 48.2598 103.449 51.9697 133.02h7.84961zM171.31 172.489h146.13l-73.0801 167.36z" />
    <glyph glyph-name="aogonek" unicode="&#x105;" horiz-adv-x="632" 
d="M308.01 625.45l277.369 -566.679c23.21 -44.5498 80.8799 -51.7803 80.8799 -51.7803v-10c-26.2598 1 -150.689 12.8301 -223.689 -4c-53 -12 -67 -42 -64 -73c5 -60 64 -82 112.4 -42l6 -6c-7.40039 -136 -227.4 -99 -204.4 37c8 47 37 62 70 84
c20.9697 13.8096 22.9893 32.7793 7.20898 72.6797l-28.9805 67.2598h-190.11l-32.9199 -73.8496c-12.8604 -32.2598 12.7793 -49.1699 34.7695 -49.1699h7.69043v-9.91016h-196.22v10h8c25 0 57.0303 13.5898 75.7207 49.6494l202 435.09
c10.7305 23.4404 46.8906 101.4 50.4609 130.71h7.82031zM170.389 177.142h151.35l-74.3799 172.65z" />
    <glyph glyph-name="aring" unicode="&#xe5;" horiz-adv-x="632" 
d="M304.37 841.63c66.7998 0 116.858 -37.3301 116.858 -87.0996c0 -52.2803 -50.5596 -91.5 -117.949 -91.5c-67.4199 0 -117.979 38.2695 -117.979 89.2998s51.0303 89.2998 119.07 89.2998zM303.249 811.86c-28.9805 0 -50.71 -25.5098 -50.71 -59.5195
c0 -33.4004 21.7305 -58.4404 50.7207 -58.4404c29.5996 0 51.8096 25.04 51.8096 58.4199c0 34.0303 -22.21 59.54 -51.8203 59.54zM307.6 636.4l282.7 -575.44c18.6904 -37.1797 50.7305 -50.9697 77.8809 -50.9697h7.41992v-10h-351.13v9.91016h7.7998
c22.9102 0 48.5703 17.4502 33.9102 50.96l-28.9199 66.2305h-185.77l-29.96 -68.6504c-12.4199 -31.9297 12.7598 -48.54 35.1094 -48.54h7.7998v-9.91016h-206.45v10h8c25 0 58.0303 13.1904 76.0303 48.5303l205.76 444.86
c11.5498 25.3896 48.2598 103.449 51.9697 133.02h7.84961zM171.3 172.479h146.13l-73.0801 167.36z" />
    <glyph glyph-name="atilde" unicode="&#xe3;" horiz-adv-x="632" 
d="M511.91 819.28l-12.3594 -0.00878906c-6.66016 -16.5195 -46.0801 -49.5996 -90.7705 -43.4893c-72.8896 9.96973 -103.89 53.1494 -162.04 53.0791c-97.8496 -0.110352 -131.85 -108.11 -117.17 -161.78h12.3496c8.96973 21.6699 47.54 58.2598 91.9902 51.1201
c64.9805 -10.4502 98.9805 -53.8604 161.311 -54.0801c100.68 -0.360352 138.68 106.64 116.689 155.159zM307.601 636.392l282.7 -575.44c18.6904 -37.1797 50.7305 -50.9697 77.8809 -50.9697h7.41992v-10h-351.13v9.91016h7.7998
c22.9102 0 48.5703 17.4502 33.9102 50.96l-28.9199 66.2305h-185.77l-29.96 -68.6504c-12.4199 -31.9297 12.7598 -48.54 35.1094 -48.54h7.7998v-9.91016h-206.45v10h8c25 0 58.0303 13.1904 76.0303 48.5303l205.76 444.86
c11.5498 25.3896 48.2598 103.449 51.9697 133.02h7.84961zM171.301 172.471h146.13l-73.0801 167.36z" />
    <glyph glyph-name="ae" unicode="&#xe6;" horiz-adv-x="885" 
d="M867.92 208.85l8.62793 -0.0214844l-31.0596 -208.84h-496.09l0.110352 10h8.37012c23.1504 0 41.9404 17.0703 42.3809 40.04v220.59h-133.82l-131.7 -210.09c-19.04 -33.96 14.4404 -50.4297 35.6904 -50.6201h7.49023v-9.90039h-208.9v10h8
c25.3301 0 46.7305 13.1396 74.8604 52.7695l336.68 483.89c16.4102 24.3496 3.75 43.8193 -18.6396 43.8193h-4.41016v8.57031h355.56c37.0703 0.349609 86.5898 8.88965 102.59 15.5898v-187.24l-8.7002 0.129883v5.92969c0.19043 73.2197 -42.29 117.27 -115.57 120
h-107.78v-237.8h80.9102c56.79 2.61035 96.46 43.5508 96.25 100.281v2.94043l8.37988 0.110352v-251.66l-8.37988 0.110352v2.9502c0.200195 56.2803 -38.8994 97.0205 -94.9092 100.211h-82.25v-225.02h92.1904c84.2305 0 156.87 59.6396 184.12 163.26zM294.688 315.668
h105.57v168.4z" />
    <glyph glyph-name="b" unicode="b" horiz-adv-x="626" 
d="M23 600.07l310.531 0.000976562c126.89 0 237.449 -28.7305 237.449 -149.24c0 -84.6396 -53.9004 -124.609 -109.931 -124.05c78.9902 -2.65039 149.94 -56.6104 149.94 -154.13c0 -121.67 -112.3 -172.65 -270.41 -172.65h-317.58v10h10.9502
c28.71 0 51.5596 22.1699 51.5596 52.4395v475.18c0 30.1504 -22.8496 52.4502 -51.5596 52.4502h-10.9502v10zM278.321 555.081l0.0107422 -508.972c59.4902 1.99023 111.771 37.9707 111.771 141.251c0 74.4697 -18.29 130.34 -83.9902 129.29v7.99023
c52.9004 0 63.96 45.6904 63.96 110.41c0 93.1699 -41.4404 120.03 -89.2705 120.03h-2.48047z" />
    <glyph glyph-name="c" unicode="c" horiz-adv-x="668" 
d="M605.53 249.95h7.06934l26.21 -159.79c-30.7002 -52.6797 -97.4004 -102.149 -235.23 -102.149c-235.52 1 -380.399 111.38 -380.399 312.52c0 196.76 139.52 311.41 380.399 311.41c96.6699 0 172.71 -17.8096 217.94 -35.6895l-12.8398 -170.28h-7.07031
c-36.0098 123.05 -97.9297 160.6 -180.859 160.6c-136.97 0 -193.27 -108.18 -193.27 -262.8c0 -161.32 62.71 -266.21 176.09 -270.45c138.49 0.120117 168.21 54.3896 201.96 216.63z" />
    <glyph glyph-name="cacute" unicode="&#x107;" horiz-adv-x="668" 
d="M360.07 676.27l-6.99023 7.00293c28.25 65.8896 110.5 147.779 154.75 185.659c48.3799 -20.2402 71.7598 -53.4805 85.1396 -99.7207c-63.2998 -41.9805 -159.6 -83.9609 -232.899 -92.9414zM605.54 249.942h7.06934l26.21 -159.79
c-30.7002 -52.6797 -97.4004 -102.149 -235.23 -102.149c-235.52 1 -380.399 111.38 -380.399 312.52c0 196.76 139.52 311.41 380.399 311.41c96.6699 0 172.71 -17.8096 217.94 -35.6895l-12.8398 -170.28h-7.07031c-36.0098 123.05 -97.9297 160.6 -180.859 160.6
c-136.97 0 -193.27 -108.18 -193.27 -262.8c0 -161.32 62.71 -266.21 176.09 -270.45c138.49 0.120117 168.21 54.3896 201.96 216.63z" />
    <glyph glyph-name="ccaron" unicode="&#x10d;" horiz-adv-x="668" 
d="M383.9 679.25l159.3 175.42l-7.20996 8l-157.54 -64.3301l-168.34 64.4297l-7.20996 -8l168.98 -175.52h12.0195zM605.53 249.939l7.06934 0.00976562l26.21 -159.8c-30.7002 -52.6797 -97.4004 -102.149 -235.23 -102.149c-235.52 1 -380.399 111.38 -380.399 312.52
c0 196.76 139.52 311.41 380.399 311.41c96.6699 0 172.71 -17.8096 217.94 -35.6895l-12.8398 -170.28h-7.07031c-36.0098 123.05 -97.9297 160.6 -180.859 160.6c-136.97 0 -193.27 -108.18 -193.27 -262.8c0 -161.32 62.71 -266.21 176.09 -270.45
c138.49 0.120117 168.21 54.3896 201.96 216.63z" />
    <glyph glyph-name="ccedilla" unicode="&#xe7;" horiz-adv-x="668" 
d="M612.61 249.94l26.208 -159.79c-30.6904 -52.6504 -97.3408 -102.15 -235.021 -102.15l-38.9502 -45c35.5898 12 125.189 6 118.84 -63c-6.41016 -70 -105.43 -114 -188.52 -85l0.740234 10c41.7305 0 97.0908 21 103.791 76c5.15039 42 -61.1494 53 -97.3896 38
l-5.08984 10l47.7598 62c-200.71 17.6201 -321.79 125.65 -321.79 309.521c0 196.76 139.52 311.41 380.399 311.41c96.6699 0 172.71 -17.8096 217.94 -35.6895l-12.8398 -170.28h-7.07031c-36.0098 123.05 -97.9297 160.6 -180.859 160.6
c-136.97 0 -193.27 -108.18 -193.27 -262.8c0 -161.32 62.71 -266.21 176.09 -270.45c138.49 0.120117 168.21 54.3896 201.96 216.63h7.07031z" />
    <glyph glyph-name="cdotaccent" unicode="&#x10b;" horiz-adv-x="668" 
d="M377.07 679.27c-40.7002 0 -73.6904 32.9902 -73.6904 73.6904s32.9902 73.6904 73.6904 73.6904s73.6904 -32.9902 73.6904 -73.6904s-32.9902 -73.6904 -73.6904 -73.6904zM605.53 249.939h7.06934l26.21 -159.79
c-30.7002 -52.6797 -97.4004 -102.149 -235.23 -102.149c-235.52 1 -380.399 111.38 -380.399 312.52c0 196.76 139.52 311.41 380.399 311.41c96.6699 0 172.71 -17.8096 217.94 -35.6895l-12.8398 -170.28h-7.07031c-36.0098 123.05 -97.9297 160.6 -180.859 160.6
c-136.97 0 -193.27 -108.18 -193.27 -262.8c0 -161.32 62.71 -266.21 176.09 -270.45c138.49 0.120117 168.21 54.3896 201.96 216.63z" />
    <glyph glyph-name="d" unicode="d" horiz-adv-x="741" 
d="M18 600.07l341.369 0.000976562c225.82 0 357.721 -110.72 357.721 -300.56c0 -189.87 -131.9 -299.521 -357.721 -299.521h-340.29v10h11.8604c30.0801 0 55.7705 24.0303 55.7705 54.2402v474.68c-1.67969 29.5098 -26.1396 51.1494 -56.8799 51.1494h-11.8301v10.0098
zM282.85 554.701v-508.28h56.6904c106.6 0 172.939 93.2002 172.939 253.101c0 160.93 -65.2998 255.18 -172.939 255.18h-56.6904z" />
    <glyph glyph-name="eth" unicode="&#xf0;" horiz-adv-x="741" 
d="M18 600.07l341.34 0.00195312c225.82 0 357.721 -110.72 357.721 -300.56c0 -189.87 -131.9 -299.521 -357.721 -299.521h-340.29v10h11.8604c30.1201 0 55.8398 22.0996 55.8398 52.3691v215.67h-66.7197v45h66.7197v215.72
c-0.589844 29.6396 -26.1201 51.3096 -56.9199 51.3096h-11.8301v10.0098zM282.82 278.032v-231.61h56.6904c106.6 0 172.939 93.2002 172.939 253.101c0 160.93 -65.2998 255.18 -172.939 255.18h-56.6904v-231.67h105.23v-45h-105.23z" />
    <glyph glyph-name="dcaron" unicode="&#x10f;" horiz-adv-x="741" 
d="M366.12 664.92l159.3 175.42l-7.20996 8l-157.54 -64.3301l-168.34 64.4297l-7.20996 -8l168.98 -175.52h12.0195zM18.0098 600.07l341.369 0.000976562c225.82 0 357.71 -110.72 357.71 -300.56c0 -189.87 -131.89 -299.521 -357.71 -299.521h-340.29v10h11.8604
c30.0801 0 55.7705 24.0303 55.7705 54.2402v474.68c-1.67969 29.5098 -26.1396 51.1494 -56.8799 51.1494h-11.8301v10.0098zM282.859 554.701v-508.28h56.6904c106.6 0 172.939 93.2002 172.939 253.101c0 160.93 -65.2998 255.18 -172.939 255.18h-56.6904z" />
    <glyph glyph-name="dcroat" unicode="&#x111;" horiz-adv-x="741" 
d="M217.11 696.3v85h290v-85h-290zM18.0107 600.069l341.369 0.000976562c225.82 0 357.71 -110.72 357.71 -300.56c0 -189.87 -131.89 -299.521 -357.71 -299.521h-340.29v10h11.8604c30.0801 0 55.7705 24.0303 55.7705 54.2402v474.68
c-1.67969 29.5098 -26.1396 51.1494 -56.8799 51.1494h-11.8301v10.0098zM282.86 554.7v-508.28h56.6904c106.6 0 172.939 93.2002 172.939 253.101c0 160.93 -65.2998 255.18 -172.939 255.18h-56.6904z" />
    <glyph glyph-name="e" unicode="e" horiz-adv-x="575" 
d="M561 210.03l-28.2412 -209.989h-511.72v10h10.8496c27.7803 0 51.8604 22.1299 51.8604 52.3896v475.04c0 30.2598 -24.0801 52.4902 -51.8604 52.4902h-10.8496v10h389.76c35.8398 0 84.5801 9.08984 99.4502 15.0801v-189.49h-10v5.38965
c0 76.7803 -41.71 121.57 -117.21 122.61h-103.18v-234.66h76.7803c59.4805 1.0498 99.5508 43.96 99.5508 102.74v2.34961h10v-257.7h-10v3.41992c0 58.7803 -40.0703 101.69 -99.5508 102.74h-76.7803v-226.03h96.5303c76.7803 0 150.87 59.2598 175.71 163.62h8.90039z
" />
    <glyph glyph-name="eacute" unicode="&#xe9;" horiz-adv-x="575" 
d="M270.69 661.44l-6.99023 7.00293c28.25 65.8896 110.5 147.779 154.75 185.659c48.3799 -20.2402 71.7598 -53.4805 85.1396 -99.7207c-63.2998 -41.9805 -159.6 -83.9609 -232.899 -92.9414zM561.01 210.033l-28.2412 -209.989h-511.72v10h10.8496
c27.7803 0 51.8604 22.1299 51.8604 52.3896v475.04c0 30.2598 -24.0801 52.4902 -51.8604 52.4902h-10.8496v10h389.76c35.8398 0 84.5801 9.08984 99.4502 15.0801v-189.49h-10v5.38965c0 76.7803 -41.71 121.57 -117.21 122.61h-103.18v-234.66h76.7803
c59.4805 1.0498 99.5508 43.96 99.5508 102.74v2.34961h10v-257.7h-10v3.41992c0 58.7803 -40.0703 101.69 -99.5508 102.74h-76.7803v-226.03h96.5303c76.7803 0 150.87 59.2598 175.71 163.62h8.90039z" />
    <glyph glyph-name="ecaron" unicode="&#x11b;" horiz-adv-x="575" 
d="M294.51 664.41l159.3 175.42l-7.20996 8l-157.54 -64.3301l-168.34 64.4297l-7.20996 -8l168.98 -175.52h12.0195zM560.989 210.03l-28.2412 -209.989h-511.72v10h10.8496c27.7803 0 51.8604 22.1299 51.8604 52.3896v475.04
c0 30.2598 -24.0801 52.4902 -51.8604 52.4902h-10.8496v10h389.76c35.8398 0 84.5801 9.08984 99.4502 15.0801v-189.49h-10v5.38965c0 76.7803 -41.71 121.57 -117.21 122.61h-103.18v-234.66h76.7803c59.4805 1.0498 99.5508 43.96 99.5508 102.74v2.34961h10v-257.7h-10
v3.41992c0 58.7803 -40.0703 101.69 -99.5508 102.74h-76.7803v-226.03h96.5303c76.7803 0 150.87 59.2598 175.71 163.62h8.90039z" />
    <glyph glyph-name="ecircumflex" unicode="&#xea;" horiz-adv-x="575" 
d="M280.44 832.2l-168.868 -175.42l7.13965 -8l167.12 64.3301l177.81 -64.4297l7.13965 8l-178.44 175.52h-11.9004zM561.002 210.04l-28.2412 -209.989h-511.72v10h10.8496c27.7803 0 51.8604 22.1299 51.8604 52.3896v475.04
c0 30.2598 -24.0801 52.4902 -51.8604 52.4902h-10.8496v10h389.76c35.8398 0 84.5801 9.08984 99.4502 15.0801v-189.49h-10v5.38965c0 76.7803 -41.71 121.57 -117.21 122.61h-103.18v-234.66h76.7803c59.4805 1.0498 99.5508 43.96 99.5508 102.74v2.34961h10v-257.7h-10
v3.41992c0 58.7803 -40.0703 101.69 -99.5508 102.74h-76.7803v-226.03h96.5303c76.7803 0 150.87 59.2598 175.71 163.62h8.90039z" />
    <glyph glyph-name="edieresis" unicode="&#xeb;" horiz-adv-x="575" 
d="M152.85 655.92c-40.7002 0 -73.6904 32.9902 -73.6904 73.6904s32.9902 73.6904 73.6904 73.6904s73.6904 -32.9902 73.6904 -73.6904s-32.9902 -73.6904 -73.6904 -73.6904zM415.449 655.92c-40.7002 0 -73.6904 32.9902 -73.6904 73.6904
s32.9902 73.6904 73.6904 73.6904s73.6904 -32.9902 73.6904 -73.6904s-32.9902 -73.6904 -73.6904 -73.6904zM560.999 210.03l-28.2412 -209.989h-511.72v10h10.8496c27.7803 0 51.8604 22.1299 51.8604 52.3896v475.04c0 30.2598 -24.0801 52.4902 -51.8604 52.4902
h-10.8496v10h389.76c35.8398 0 84.5801 9.08984 99.4502 15.0801v-189.49h-10v5.38965c0 76.7803 -41.71 121.57 -117.21 122.61h-103.18v-234.66h76.7803c59.4805 1.0498 99.5508 43.96 99.5508 102.74v2.34961h10v-257.7h-10v3.41992
c0 58.7803 -40.0703 101.69 -99.5508 102.74h-76.7803v-226.03h96.5303c76.7803 0 150.87 59.2598 175.71 163.62h8.90039z" />
    <glyph glyph-name="edotaccent" unicode="&#x117;" horiz-adv-x="575" 
d="M287.69 664.44c-40.7002 0 -73.6904 32.9902 -73.6904 73.6904s32.9902 73.6904 73.6904 73.6904s73.6904 -32.9902 73.6904 -73.6904s-32.9902 -73.6904 -73.6904 -73.6904zM561 210.03l-28.2412 -209.989h-511.72v10h10.8496
c27.7803 0 51.8604 22.1299 51.8604 52.3896v475.04c0 30.2598 -24.0801 52.4902 -51.8604 52.4902h-10.8496v10h389.76c35.8398 0 84.5801 9.08984 99.4502 15.0801v-189.49h-10v5.38965c0 76.7803 -41.71 121.57 -117.21 122.61h-103.18v-234.66h76.7803
c59.4805 1.0498 99.5508 43.96 99.5508 102.74v2.34961h10v-257.7h-10v3.41992c0 58.7803 -40.0703 101.69 -99.5508 102.74h-76.7803v-226.03h96.5303c76.7803 0 150.87 59.2598 175.71 163.62h8.90039z" />
    <glyph glyph-name="egrave" unicode="&#xe8;" horiz-adv-x="575" 
d="M314.59 671.34l-6.99023 -7.00293c-73.2998 8.98047 -169.6 50.9609 -232.899 92.9414c13.3799 46.2402 36.7598 79.4805 85.1396 99.7207c44.25 -37.8799 126.5 -119.77 154.75 -185.659zM561 210.027l-28.2412 -209.989h-511.72v10h10.8496
c27.7803 0 51.8604 22.1299 51.8604 52.3896v475.04c0 30.2598 -24.0801 52.4902 -51.8604 52.4902h-10.8496v10h389.76c35.8398 0 84.5801 9.08984 99.4502 15.0801v-189.49h-10v5.38965c0 76.7803 -41.71 121.57 -117.21 122.61h-103.18v-234.66h76.7803
c59.4805 1.0498 99.5508 43.96 99.5508 102.74v2.34961h10v-257.7h-10v3.41992c0 58.7803 -40.0703 101.69 -99.5508 102.74h-76.7803v-226.03h96.5303c76.7803 0 150.87 59.2598 175.71 163.62h8.90039z" />
    <glyph glyph-name="emacron" unicode="&#x113;" horiz-adv-x="575" 
d="M145.51 695.8v85h290v-85h-290zM561 210.03l-28.2412 -209.989h-511.72v10h10.8496c27.7803 0 51.8604 22.1299 51.8604 52.3896v475.04c0 30.2598 -24.0801 52.4902 -51.8604 52.4902h-10.8496v10h389.76c35.8398 0 84.5801 9.08984 99.4502 15.0801v-189.49h-10
v5.38965c0 76.7803 -41.71 121.57 -117.21 122.61h-103.18v-234.66h76.7803c59.4805 1.0498 99.5508 43.96 99.5508 102.74v2.34961h10v-257.7h-10v3.41992c0 58.7803 -40.0703 101.69 -99.5508 102.74h-76.7803v-226.03h96.5303c76.7803 0 150.87 59.2598 175.71 163.62
h8.90039z" />
    <glyph glyph-name="eogonek" unicode="&#x119;" horiz-adv-x="575" 
d="M580.06 -120l6.01953 -5.95898c-9.0498 -136 -223.689 -102 -204.05 37c7.42969 53 45.5693 79 86.7998 89h-447.79v10h10.8496c27.7803 0 51.8604 22.1299 51.8604 52.3896v475.04c0 30.2598 -24.0801 52.4902 -51.8604 52.4902h-10.8496v10h389.76
c35.8398 0 84.5801 9.08984 99.4502 15.0801v-189.49h-10v5.38965c0 76.7803 -41.71 121.57 -117.21 122.61h-103.18v-234.66h76.7803c59.4805 1.0498 99.5508 43.96 99.5508 102.74v2.34961h10v-257.7h-10v3.41992c0 58.7803 -40.0703 101.69 -99.5508 102.74h-76.7803
v-226.03h96.5303c76.7803 0 150.87 59.2598 175.71 163.62h8.90039l-28.25 -210.03h-1.84961c-53.1602 -13 -65.8604 -44 -62.8906 -78c6 -61 62 -82 112.05 -42z" />
    <glyph glyph-name="f" unicode="f" horiz-adv-x="542" 
d="M21 599.94l389.569 0.0195312c35.8203 0 84.5205 9.08984 99.3809 15.0801v-190.57h-10v5.40039c0 76.7803 -41.7002 122.65 -119.36 123.69h-100.83v-234.66h76.6299c59.4697 1.0498 99.5293 43.96 99.5293 102.74v2.34961h10v-257.7h-10v3.41992
c0 58.7803 -40.0596 101.69 -99.5293 102.74h-76.6299v-210.04c1.04004 -30.2598 24.0205 -52.3896 52.8604 -52.3896h10.8398v-10h-322.46v10h10.8398c27.7598 0 51.8301 22.1299 51.8301 52.3896v475.04c0 30.2598 -24.0703 52.4902 -51.8301 52.4902h-10.8398v10z" />
    <glyph glyph-name="g" unicode="g" horiz-adv-x="723" 
d="M664.4 240.32l-0.0195312 -142.601c-39.21 -51.9902 -168.19 -109.71 -309.4 -109.71c-201.32 0 -331 115.7 -331 313.601c0 194.6 124.61 310.33 341 310.33c92.4502 0 208.51 -16.9902 257.26 -35.7002l-14.1602 -170.28h-7.00977
c-37 133.15 -118.41 160.601 -185.55 160.601c-131.93 0 -187.3 -98.1797 -187.3 -274.66c0 -160.36 44.5898 -258.561 148.54 -258.561c49.9902 0 102.67 32.79 93.5898 94.3398v112.62c0 25.21 -16.1699 39.3203 -42.4199 39.3203h-14.2197v7.92969h305.27v-7.92969
h-12.0996c-27.3203 0 -42.4805 -14.1201 -42.4805 -39.2998z" />
    <glyph glyph-name="gbreve" unicode="&#x11f;" horiz-adv-x="723" 
d="M491.79 839.58h12.71c19.2998 -86.7305 -51.7002 -163.73 -139.5 -163.641c-90.2002 -0.0898438 -158.2 78.9102 -139.51 163.641h12.7197c15.5898 -35.7305 67.5898 -63.7305 126.59 -63.7305c58 0 111 27 126.99 63.7305zM664.4 240.32l-0.0195312 -142.601
c-39.21 -51.9902 -168.19 -109.71 -309.4 -109.71c-201.32 0 -331 115.7 -331 313.601c0 194.6 124.61 310.33 341 310.33c92.4502 0 208.51 -16.9902 257.26 -35.7002l-14.1602 -170.28h-7.00977c-37 133.15 -118.41 160.601 -185.55 160.601
c-131.93 0 -187.3 -98.1797 -187.3 -274.66c0 -160.36 44.5898 -258.561 148.54 -258.561c49.9902 0 102.67 32.79 93.5898 94.3398v112.62c0 25.21 -16.1699 39.3203 -42.4199 39.3203h-14.2197v7.92969h305.27v-7.92969h-12.0996
c-27.3203 0 -42.4805 -14.1201 -42.4805 -39.2998z" />
    <glyph glyph-name="gcommaaccent" unicode="&#x123;" horiz-adv-x="723" 
d="M664.4 240.32l-0.0195312 -142.601c-39.21 -51.9902 -168.19 -109.71 -309.4 -109.71c-201.32 0 -331 115.7 -331 313.601c0 194.6 124.61 310.33 341 310.33c92.4502 0 208.51 -16.9902 257.26 -35.7002l-14.1602 -170.28h-7.00977
c-37 133.15 -118.41 160.601 -185.55 160.601c-131.93 0 -187.3 -98.1797 -187.3 -274.66c0 -160.36 44.5898 -258.561 148.54 -258.561c49.9902 0 102.67 32.79 93.5898 94.3398v112.62c0 25.21 -16.1699 39.3203 -42.4199 39.3203h-14.2197v7.92969h305.27v-7.92969
h-12.0996c-27.3203 0 -42.4805 -14.1201 -42.4805 -39.2998zM312.19 -272.98l-2.73047 9c25.6504 11 50.5205 48 12.8506 90c-25.6396 29 -21.3193 78 6.40039 98c31.9805 24 83.1504 10 100.92 -29c38.3799 -84 -31.9805 -185 -117.44 -168z" />
    <glyph glyph-name="gdotaccent" unicode="&#x121;" horiz-adv-x="723" 
d="M365 675.93c-40.7002 0 -73.6904 32.9902 -73.6904 73.6904s32.9902 73.6904 73.6904 73.6904s73.6904 -32.9902 73.6904 -73.6904s-32.9902 -73.6904 -73.6904 -73.6904zM664.41 240.319l-0.0195312 -142.601c-39.21 -51.9902 -168.19 -109.71 -309.4 -109.71
c-201.32 0 -331 115.7 -331 313.601c0 194.6 124.61 310.33 341 310.33c92.4502 0 208.51 -16.9902 257.26 -35.7002l-14.1602 -170.28h-7.00977c-37 133.15 -118.41 160.601 -185.55 160.601c-131.93 0 -187.3 -98.1797 -187.3 -274.66
c0 -160.36 44.5898 -258.561 148.54 -258.561c49.9902 0 102.67 32.79 93.5898 94.3398v112.62c0 25.21 -16.1699 39.3203 -42.4199 39.3203h-14.2197v7.92969h305.27v-7.92969h-12.0996c-27.3203 0 -42.4805 -14.1201 -42.4805 -39.2998z" />
    <glyph glyph-name="h" unicode="h" horiz-adv-x="754" 
d="M733.99 590.07l-11.0781 -0.000976562c-28.4199 0 -52.9004 -21.1396 -52.9004 -52.4092v-475.8c0.230469 -29.9902 23.04 -51.8604 51.8096 -51.8604h11.0195v-10h-321.31v10h10.4902c28.9502 0 51.8701 22.1396 52.9102 52.4092v215.75h-194.96v-215.75
c1.04004 -30.2695 23.96 -52.4092 52.9102 -52.4092h10.4902v-10h-322.39v10h11.0195c27.8701 0 51.8701 22.1396 51.8701 52.4092v475.87c-0.280273 29.9502 -24.1406 51.7803 -51.8105 51.7803h-11.0195v10h322.38v-10h-10.4805
c-28.9502 0 -51.8701 -22.1396 -52.9102 -52.4092v-214.12h194.96v214.15c-1.0498 30.2598 -23.96 52.3896 -52.9004 52.3896h-10.4902v10h322.39v-10z" />
    <glyph glyph-name="hbar" unicode="&#x127;" horiz-adv-x="753" 
d="M733.99 590.07l-11.0576 -0.0195312c-28.4199 0 -52.9004 -22.7002 -52.9004 -52.4102v-75.71h60.3496v-45h-60.3496v-355.09c0.230469 -29.9902 23.04 -51.8604 51.8096 -51.8604h11.0195v-10h-321.31v10h10.4902c28.9502 0 51.8701 22.1396 52.9102 52.4092v215.75
h-194.96v-215.75c1.04004 -30.2695 23.96 -52.4092 52.9102 -52.4092h10.4902v-10h-322.4v10h11.0195c27.8701 0 51.8701 22.1396 51.8701 52.4092v354.54h-59.1904v45h59.1904v76.25c-0.240234 30 -24.1201 51.8799 -51.8203 51.8799h-11.0195v10h322.38v-10h-10.4805
c-28.9502 0 -51.8701 -22.1396 -52.9102 -52.4092v-75.71h194.96v75.7402c-1.0498 30.2598 -23.96 52.3896 -52.9004 52.3896h-10.4902v10h322.39v-10zM474.952 323.511v93.4102h-194.96v-93.4102h194.96z" />
    <glyph glyph-name="i" unicode="i" horiz-adv-x="363" 
d="M279.06 537.66l-0.0205078 -475.252c1.03027 -30.2695 23.5801 -52.4092 52.0801 -52.4092h10.8604v-10h-320.95v10h10.8701c27.2998 0 50.8594 21.96 50.9893 52.04v476.36c-0.330078 29.8896 -23.7998 51.6699 -50.9795 51.6699h-10.8701v10h320.42v-10h-10.3096
c-28.5 0 -51.0498 -22.1396 -52.0898 -52.4092z" />
    <glyph glyph-name="dotlessi" unicode="&#x131;" horiz-adv-x="362" 
d="M279.06 537.66l-0.0908203 -475.251c1.03027 -30.2695 23.5801 -52.4092 52.0801 -52.4092h10.8604v-10h-320.95v10h10.8701c27.4102 0 51.0498 22.1396 51.0498 52.4092v476.03c-0.349609 29.8701 -23.8096 51.6299 -50.9795 51.6299h-10.8604v10h320.42v-10h-10.3096
c-28.5 0 -51.0498 -22.1396 -52.0898 -52.4092z" />
    <glyph glyph-name="iacute" unicode="&#xed;" horiz-adv-x="362" 
d="M161.96 661.5l-6.99023 7.00293c28.25 65.8896 110.5 147.779 154.75 185.659c48.3799 -20.2402 71.7598 -53.4805 85.1396 -99.7207c-63.2998 -41.9805 -159.6 -83.9609 -232.899 -92.9414zM279.069 537.663l-0.0908203 -475.251
c1.03027 -30.2695 23.5801 -52.4092 52.0801 -52.4092h10.8604v-10h-320.95v10h10.8701c27.4102 0 51.0498 22.1396 51.0498 52.4092v476.03c-0.349609 29.8701 -23.8096 51.6299 -50.9795 51.6299h-10.8604v10h320.42v-10h-10.3096
c-28.5 0 -51.0498 -22.1396 -52.0898 -52.4092z" />
    <glyph glyph-name="icircumflex" unicode="&#xee;" horiz-adv-x="362" 
d="M171.71 832.26l-168.868 -175.42l7.13965 -8l167.12 64.3301l177.81 -64.4297l7.13965 8l-178.44 175.52h-11.9004zM279.062 537.66l-0.0908203 -475.251c1.03027 -30.2695 23.5801 -52.4092 52.0801 -52.4092h10.8604v-10h-320.95v10h10.8701
c27.4102 0 51.0498 22.1396 51.0498 52.4092v476.03c-0.349609 29.8701 -23.8096 51.6299 -50.9795 51.6299h-10.8604v10h320.42v-10h-10.3096c-28.5 0 -51.0498 -22.1396 -52.0898 -52.4092z" />
    <glyph glyph-name="idieresis" unicode="&#xef;" horiz-adv-x="362" 
d="M44.1104 655.99c-40.7002 0 -74.1201 32.9902 -74.1201 73.6904s33.4199 73.6904 74.1201 73.6904s73.6904 -32.9902 73.6904 -73.6904s-32.9902 -73.6904 -73.6904 -73.6904zM306.71 655.99c-40.7002 0 -73.6904 32.9902 -73.6904 73.6904
s32.9902 73.6904 73.6904 73.6904s73.6904 -32.9902 73.6904 -73.6904s-32.9902 -73.6904 -73.6904 -73.6904zM279.06 537.66l-0.0908203 -475.251c1.03027 -30.2695 23.5801 -52.4092 52.0801 -52.4092h10.8604v-10h-320.95v10h10.8701
c27.4102 0 51.0498 22.1396 51.0498 52.4092v476.03c-0.349609 29.8701 -23.8096 51.6299 -50.9795 51.6299h-10.8604v10h320.42v-10h-10.3096c-28.5 0 -51.0498 -22.1396 -52.0898 -52.4092z" />
    <glyph glyph-name="igrave" unicode="&#xec;" horiz-adv-x="362" 
d="M205.86 671.41l-7.00098 -7.00293c-73.2998 8.98047 -169.6 50.9609 -232.859 92.9414c13 46.2402 36.7305 79.4805 85.1104 99.7207c44.25 -37.8799 126.5 -119.77 154.75 -185.659zM279.06 537.657l-0.0908203 -475.251
c1.03027 -30.2695 23.5801 -52.4092 52.0801 -52.4092h10.8604v-10h-320.95v10h10.8701c27.4102 0 51.0498 22.1396 51.0498 52.4092v476.03c-0.349609 29.8701 -23.8096 51.6299 -50.9795 51.6299h-10.8604v10h320.42v-10h-10.3096
c-28.5 0 -51.0498 -22.1396 -52.0898 -52.4092z" />
    <glyph glyph-name="ij" unicode="&#x133;" horiz-adv-x="724" 
d="M279.06 537.66l-0.0205078 -475.252c1.03027 -30.2695 23.5801 -52.4092 52.0801 -52.4092h10.8604v-10h-320.95v10h10.8701c27.2998 0 50.8594 21.96 50.9893 52.04v476.36c-0.330078 29.8896 -23.7998 51.6699 -50.9795 51.6699h-10.8701v10h320.42v-10h-10.3096
c-28.5 0 -51.0498 -22.1396 -52.0898 -52.4092zM378.429 600.068l325.76 0.00976562l-0.139648 -10.0898h-10.6602c-28.9404 0 -52.5205 -23.4902 -53.9307 -52.9902v-486.33c0 -155.68 -145.38 -242.68 -289.479 -222.68v9c85.3701 41 93.2998 132 93.2402 216.92v481.39
c-0.549805 30.2998 -24.4902 54.7002 -53.9902 54.7002h-10.6602z" />
    <glyph glyph-name="imacron" unicode="&#x12b;" horiz-adv-x="362" 
d="M36.7803 695.86v85h290v-85h-290zM279.061 537.65l-0.0908203 -475.251c1.03027 -30.2695 23.5801 -52.4092 52.0801 -52.4092h10.8604v-10h-320.95v10h10.8701c27.4102 0 51.0498 22.1396 51.0498 52.4092v476.03c-0.349609 29.8701 -23.8096 51.6299 -50.9795 51.6299
h-10.8604v10h320.42v-10h-10.3096c-28.5 0 -51.0498 -22.1396 -52.0898 -52.4092z" />
    <glyph glyph-name="iogonek" unicode="&#x12f;" horiz-adv-x="362" 
d="M341.98 0l-100.71 -0.000976562c-53.1504 -13 -65.8506 -44 -62.8809 -78c6 -61 62 -82 112.05 -42l6 -6c-9.0498 -136 -223.689 -102 -204.05 37c7.42969 53 45.5195 79 86.7197 89h-158.15v9.00977l10.8604 -1.08008c27.4102 0 51.0498 24.2002 51.0498 54.4697v476.03
c-0.349609 29.9004 -23.8096 53.6904 -50.9795 53.6904h-10.8604v7.92969h320.95l-1.08008 -7.92969h-9.76953c-28.5 0 -51.0498 -24.21 -52.0898 -54.4795v-475.24c1.03027 -30.2695 23.5801 -54.4697 52.0801 -54.4697l10.8604 1.08008v-9.00977z" />
    <glyph glyph-name="j" unicode="j" horiz-adv-x="361" 
d="M15.4502 600.07l325.76 0.00976562l-0.139648 -10.0898h-10.6602c-28.9404 0 -52.5205 -23.4902 -53.9307 -52.9902v-486.33c0 -155.68 -145.38 -242.68 -289.479 -222.68v9c85.3701 41 93.2998 132 93.2402 216.92v481.39
c-0.549805 30.2998 -24.4902 54.7002 -53.9902 54.7002h-10.6602z" />
    <glyph glyph-name="k" unicode="k" horiz-adv-x="705" 
d="M281.59 538.29l0.00976562 -475.859c0.549805 -29.96 24.3994 -52.4404 53.5098 -52.4404h9.48047v-10h-321.6v10h9.73047c29.0898 0 52.6094 22.4805 53.1592 52.4404v476.38c-0.879883 29.6299 -24.46 51.7695 -53.1602 51.7695l-10.5703 0.0996094l-0.129883 9.90039
h323.44l-0.139648 -9.90039l-10.2197 -0.0996094c-29.04 0 -52.9004 -22.4004 -53.5107 -52.29zM458.08 387.091l188.691 -309.489c27.9805 -44.5996 58.3809 -68.3301 90.9004 -69.2002v-8.32031h-102.48c-22.9199 0.0195312 -160.74 -7.11035 -231.2 89.8896
c-31.3701 43.2197 -96.9102 176.319 -96.9102 178.52l199.31 283.45c13.75 19.54 3.63965 40 -19.7705 40h-8.03027v8.55957h204.12v-8.76953h-3.63965c-34.2803 -0.0898438 -65.5703 -14.2002 -87 -36.5801z" />
    <glyph glyph-name="kcommaaccent" unicode="&#x137;" horiz-adv-x="705" 
d="M281.59 538.29l0.00976562 -475.85c0.549805 -29.96 24.3994 -52.4297 53.5098 -52.4297h9.48047v-10h-321.6v10h9.73047c29.0898 0 52.6094 22.4697 53.1592 52.4297v476.38c-0.879883 29.6299 -24.46 51.7695 -53.1602 51.7695l-10.5703 0.0996094l-0.129883 9.90039
h323.44l-0.139648 -9.90039l-10.2197 -0.0996094c-29.04 0 -52.9004 -22.4102 -53.5107 -52.2998zM458.08 387.101l188.691 -309.489c27.9805 -44.5996 58.3809 -68.3301 90.9004 -69.2002v-8.32031h-102.48c-22.9199 0.0195312 -160.74 -7.11035 -231.2 89.8896
c-31.3701 43.2197 -96.9102 176.319 -96.9102 178.52l199.31 283.45c13.75 19.54 3.63965 40 -19.7705 40h-8.03027v8.55957h204.12v-8.76953h-3.63965c-34.2803 -0.0898438 -65.5703 -14.2002 -87 -36.5801zM327.791 -274.019l-2.73047 9c25.6504 11 50.5205 48 12.8506 90
c-25.6396 29 -21.3193 78 6.40039 98c31.9805 24 83.1504 10 100.92 -29c38.3799 -84 -31.9805 -185 -117.44 -168z" />
    <glyph glyph-name="l" unicode="l" horiz-adv-x="557" 
d="M561.55 210.05l-28.8203 -210.05h-1.91992h-509.8v10h10.8496c27.7803 0 51.8604 22.1396 51.8604 52.4092v475.87c-0.280273 29.9502 -24.0703 51.79 -51.6602 51.79h-11v10h322.56v-10h-11c-28.8701 0 -51.7197 -22.1396 -52.7598 -52.4092v-491.25h96.5303
c76.7803 0 150.33 59.2695 175.16 163.64h10z" />
    <glyph glyph-name="lacute" unicode="&#x13a;" horiz-adv-x="557" 
d="M168.54 661l-6.99023 7.00293c28.25 65.8896 110.5 147.779 154.75 185.659c48.3799 -20.2402 71.7598 -53.4805 85.1396 -99.7207c-63.2998 -41.9805 -159.6 -83.9609 -232.899 -92.9414zM561.56 210.053l-28.8203 -210.05h-1.91992h-509.8v10h10.8496
c27.7803 0 51.8604 22.1396 51.8604 52.4092v475.87c-0.280273 29.9502 -24.0703 51.79 -51.6602 51.79h-11v10h322.56v-10h-11c-28.8701 0 -51.7197 -22.1396 -52.7598 -52.4092v-491.25h96.5303c76.7803 0 150.33 59.2695 175.16 163.64h10z" />
    <glyph glyph-name="lcaron" unicode="&#x13e;" horiz-adv-x="557" 
d="M394.33 390.27l-2.73047 9c25.6504 11 50.5205 48 12.8506 90c-25.6396 29 -21.3193 78 6.40039 98c31.9805 23.7197 83.1504 10 100.92 -29c38.3799 -84 -31.9805 -185 -117.44 -168zM551.55 210.06l9.97949 0.0107422l-28.79 -210.05h-511.72v10h10.8496
c27.7803 0 51.8604 22.1396 51.8604 52.4092v475.92c-0.30957 29.9199 -24.0898 51.7295 -51.6699 51.7295h-11v10h322.56v-10h-11c-28.8701 0 -51.7197 -22.1396 -52.7598 -52.4092v-491.25h96.5303c76.7803 0 150.33 59.2695 175.16 163.64z" />
    <glyph glyph-name="lcommaaccent" unicode="&#x13c;" horiz-adv-x="557" 
d="M561.55 210.05l-28.8203 -210.05h-1.91992h-509.8v10h10.8496c27.7803 0 51.8604 22.1396 51.8604 52.4092v475.87c-0.280273 29.9502 -24.0703 51.79 -51.6602 51.79h-11v10h322.56v-10h-11c-28.8701 0 -51.7197 -22.1396 -52.7598 -52.4092v-491.25h96.5303
c76.7803 0 150.33 59.2695 175.16 163.64h10zM217.85 -274l-2.73047 9c25.6504 11 50.5205 48 12.8506 90c-25.6396 29 -21.3193 78 6.40039 98c31.9805 24 83.1504 10 100.92 -29c38.3799 -84 -31.9805 -185 -117.44 -168z" />
    <glyph glyph-name="ldot" unicode="&#x140;" horiz-adv-x="557" 
d="M551.55 210.05l9.97949 0.0107422l-28.79 -210.05h-511.72v10h10.8496c27.7803 0 51.8604 22.1396 51.8604 52.4092v475.92c-0.30957 29.9199 -24.0898 51.7295 -51.6699 51.7295h-11v10h322.56v-10h-11c-28.8701 0 -51.7197 -22.1396 -52.7598 -52.4092v-491.25h96.5303
c76.7803 0 150.33 59.2695 175.16 163.64zM433.749 311.521c-40.7002 0 -73.6904 32.9902 -73.6904 73.6904s32.9902 73.6904 73.6904 73.6904s73.6904 -32.9902 73.6904 -73.6904s-32.9902 -73.6904 -73.6904 -73.6904z" />
    <glyph glyph-name="lslash" unicode="&#x142;" 
d="M551.55 210.05l9.96973 0.0107422l-28.79 -210.05h-511.72v10h10.8496c27.7803 0 51.8604 22.1396 51.8604 52.4092v181.63l-49.9199 -26.2598l-26.0195 45.9697l75.9502 39.9502v234.63c-0.30957 29.9199 -24.0898 51.7295 -51.6699 51.7295h-11v10h322.56v-10h-11
c-28.8701 0 -51.7197 -22.1396 -52.7598 -52.4092v-130.76l79.5596 41.8496l26.0195 -45.9697l-105.58 -55.54v-300.83h96.5303c76.7803 0 150.33 59.2695 175.16 163.64z" />
    <glyph glyph-name="m" unicode="m" horiz-adv-x="854" 
d="M873 10l0.00195312 -10.001h-323.81v10h13.54c27.5898 0 34.4395 25.4004 33.3896 37.5107l-32.8701 224.01l-138.42 -192.45s-39.7998 -54.0098 -36.5098 -101.069h-8.32031l-224.69 280.14l-27.1797 -210.16c-0.879883 -10.9297 7.31055 -37.9795 33.3301 -37.9795
h13.54v-10h-193.99v10h13c32.2002 0 59.2598 18.0498 64.4795 52.2295l77.75 549.7h7.25977l298.93 -375.06l267.01 375.08h8.32031l80.3398 -554.76c7.80957 -30.9102 32.6992 -47.1904 61.3691 -47.1904h13.5303z" />
    <glyph glyph-name="n" unicode="n" horiz-adv-x="779" 
d="M428.09 599.95l339.932 0.0107422v-10h-17.1504c-29.71 0 -54.6904 -20.6504 -54.6904 -49.4004v-443.84c0 -73.1699 11.7402 -108.71 11.7402 -108.71h-8.61035l-420.27 352.85v-280.47c1.05957 -29.2598 24.6895 -50.3799 54.7295 -50.3799h16.6299v-10h-338.39v10
h16.0996c30.04 0 54.71 21.1201 54.71 50.3799v446.92c0 67.5098 -11.7402 105.63 -11.7402 105.63h8.62012l419.21 -353.58v280.21c0 29.2598 -23.6299 50.3799 -53.6699 50.3799h-17.1504v10z" />
    <glyph glyph-name="nacute" unicode="&#x144;" horiz-adv-x="779" 
d="M345.16 661l-6.99023 7.00293c28.25 65.8896 110.5 147.779 154.75 185.659c48.3799 -20.2402 71.7598 -53.4805 85.1396 -99.7207c-63.2998 -41.9805 -159.6 -83.9609 -232.899 -92.9414zM428.1 599.953l339.932 0.0107422v-10h-17.1504
c-29.71 0 -54.6904 -20.6504 -54.6904 -49.4004v-443.84c0 -73.1699 11.7402 -108.71 11.7402 -108.71h-8.61035l-420.27 352.85v-280.47c1.05957 -29.2598 24.6895 -50.3799 54.7295 -50.3799h16.6299v-10h-338.39v10h16.0996c30.04 0 54.71 21.1201 54.71 50.3799v446.92
c0 67.5098 -11.7402 105.63 -11.7402 105.63h8.62012l419.21 -353.58v280.21c0 29.2598 -23.6299 50.3799 -53.6699 50.3799h-17.1504v10z" />
    <glyph glyph-name="ncaron" unicode="&#x148;" horiz-adv-x="779" 
d="M368.98 663.98l159.3 175.42l-7.20996 8l-157.54 -64.3301l-168.34 64.4297l-7.20996 -8l168.98 -175.52h12.0195zM428.08 599.95l339.932 0.0107422v-10h-17.1504c-29.71 0 -54.6904 -20.6504 -54.6904 -49.4004v-443.84c0 -73.1699 11.7402 -108.71 11.7402 -108.71
h-8.61035l-420.27 352.85v-280.47c1.05957 -29.2598 24.6895 -50.3799 54.7295 -50.3799h16.6299v-10h-338.39v10h16.0996c30.04 0 54.71 21.1201 54.71 50.3799v446.92c0 67.5098 -11.7402 105.63 -11.7402 105.63h8.62012l419.21 -353.58v280.21
c0 29.2598 -23.6299 50.3799 -53.6699 50.3799h-17.1504v10z" />
    <glyph glyph-name="ncommaaccent" unicode="&#x146;" horiz-adv-x="779" 
d="M428.09 599.95l339.932 0.0107422v-10h-17.1504c-29.71 0 -54.6904 -20.6504 -54.6904 -49.4004v-443.84c0 -73.1699 11.7402 -108.71 11.7402 -108.71h-8.61035l-420.27 352.85v-280.47c1.05957 -29.2598 24.6895 -50.3799 54.7295 -50.3799h16.6299v-10h-338.39v10
h16.0996c30.04 0 54.71 21.1201 54.71 50.3799v446.92c0 67.5098 -11.7402 105.63 -11.7402 105.63h8.62012l419.21 -353.58v280.21c0 29.2598 -23.6299 50.3799 -53.6699 50.3799h-17.1504v10zM401.531 -273.989l-2.73047 9c25.6504 11 50.5205 48 12.8506 90
c-25.6396 29 -21.3193 78 6.40039 98c31.9805 24 83.1504 10 100.92 -29c38.3799 -84 -31.9805 -185 -117.44 -168z" />
    <glyph glyph-name="eng" unicode="&#x14b;" horiz-adv-x="779" 
d="M454.79 600.02l328.551 0.00878906v-10h-17.1504c-33.9102 0 -51.1104 -23.25 -51.1104 -50.3896v-523.64c0 -148 -124.14 -231 -271.68 -195l-5.30957 8c64.9805 53 87.6104 77 87.6006 233v71.79l-254.62 213.78v-287.19
c1.05957 -29.2598 24.6895 -50.3799 54.7295 -50.3799h16.6299v-10h-330.39v10h16.0996c30.04 0 54.71 21.1201 54.71 50.3799v446.92c0 67.5098 -11.7402 105.63 -11.7402 105.63h8.62012l445.88 -375.27v303.54c-0.839844 28.4502 -24.1602 48.8203 -53.6699 48.8203
h-17.1504v10z" />
    <glyph glyph-name="ntilde" unicode="&#xf1;" horiz-adv-x="779" 
d="M569.55 819.29l-12.3594 -0.00878906c-6.66016 -16.5195 -46.0801 -49.5996 -90.7705 -43.4893c-72.8896 9.96973 -103.89 53.1494 -162.04 53.0791c-97.8496 -0.110352 -131.85 -108.11 -117.17 -161.78h12.3496c8.96973 21.6699 47.54 58.2598 91.9902 51.1201
c64.9805 -10.4502 98.9805 -53.8604 161.311 -54.0801c100.68 -0.360352 138.68 106.64 116.689 155.159zM428.08 599.951l339.932 0.0107422v-10h-17.1504c-29.71 0 -54.6904 -20.6504 -54.6904 -49.4004v-443.84c0 -73.1699 11.7402 -108.71 11.7402 -108.71h-8.61035
l-420.27 352.85v-280.47c1.05957 -29.2598 24.6895 -50.3799 54.7295 -50.3799h16.6299v-10h-338.39v10h16.0996c30.04 0 54.71 21.1201 54.71 50.3799v446.92c0 67.5098 -11.7402 105.63 -11.7402 105.63h8.62012l419.21 -353.58v280.21
c0 29.2598 -23.6299 50.3799 -53.6699 50.3799h-17.1504v10z" />
    <glyph glyph-name="o" unicode="o" horiz-adv-x="779" 
d="M388.97 611.93c228.85 0 365.029 -114.03 365.029 -312.49c0 -197.38 -136.18 -311.45 -365.029 -311.45c-227.79 0 -363.97 114.07 -363.97 311.45c0 198.46 136.18 312.49 363.97 312.49zM388.97 33.3994c105.5 0 159.59 97.6904 159.59 266.04
c0 169.42 -54.0898 267.11 -159.59 267.11c-104.44 0 -159.591 -97.6904 -159.591 -267.11c0 -168.35 55.1504 -266.04 159.591 -266.04z" />
    <glyph glyph-name="oacute" unicode="&#xf3;" horiz-adv-x="779" 
d="M372.97 661.93l-6.99023 7.00293c28.25 65.8896 110.5 147.779 154.75 185.659c48.3799 -20.2402 71.7598 -53.4805 85.1396 -99.7207c-63.2998 -41.9805 -159.6 -83.9609 -232.899 -92.9414zM388.979 611.933c228.85 0 365.029 -114.03 365.029 -312.49
c0 -197.38 -136.18 -311.45 -365.029 -311.45c-227.79 0 -363.97 114.07 -363.97 311.45c0 198.46 136.18 312.49 363.97 312.49zM388.979 33.4023c105.5 0 159.59 97.6904 159.59 266.04c0 169.42 -54.0898 267.11 -159.59 267.11
c-104.44 0 -159.591 -97.6904 -159.591 -267.11c0 -168.35 55.1504 -266.04 159.591 -266.04z" />
    <glyph glyph-name="ocircumflex" unicode="&#xf4;" horiz-adv-x="779" 
d="M382.72 832.69l-168.868 -175.42l7.13965 -8l167.12 64.3301l177.81 -64.4297l7.13965 8l-178.44 175.52h-11.9004zM388.972 611.931c228.85 0 365.029 -114.03 365.029 -312.49c0 -197.38 -136.18 -311.45 -365.029 -311.45c-227.79 0 -363.97 114.07 -363.97 311.45
c0 198.46 136.18 312.49 363.97 312.49zM388.972 33.4004c105.5 0 159.59 97.6904 159.59 266.04c0 169.42 -54.0898 267.11 -159.59 267.11c-104.44 0 -159.591 -97.6904 -159.591 -267.11c0 -168.35 55.1504 -266.04 159.591 -266.04z" />
    <glyph glyph-name="odieresis" unicode="&#xf6;" horiz-adv-x="779" 
d="M255.13 656.42c-40.7002 0 -73.6904 32.9902 -73.6904 73.6904s32.9902 73.6904 73.6904 73.6904s73.6904 -32.9902 73.6904 -73.6904s-32.9902 -73.6904 -73.6904 -73.6904zM517.729 656.42c-40.7002 0 -73.6904 32.9902 -73.6904 73.6904
s32.9902 73.6904 73.6904 73.6904s73.6904 -32.9902 73.6904 -73.6904s-32.9902 -73.6904 -73.6904 -73.6904zM388.97 611.93c228.85 0 365.029 -114.03 365.029 -312.49c0 -197.38 -136.18 -311.45 -365.029 -311.45c-227.79 0 -363.97 114.07 -363.97 311.45
c0 198.46 136.18 312.49 363.97 312.49zM388.97 33.3994c105.5 0 159.59 97.6904 159.59 266.04c0 169.42 -54.0898 267.11 -159.59 267.11c-104.44 0 -159.591 -97.6904 -159.591 -267.11c0 -168.35 55.1504 -266.04 159.591 -266.04z" />
    <glyph glyph-name="ograve" unicode="&#xf2;" horiz-adv-x="779" 
d="M416.88 671.84l-6.99023 -7.00293c-73.2998 8.98047 -169.6 50.9609 -232.899 92.9414c13.3799 46.2402 36.7598 79.4805 85.1396 99.7207c44.25 -37.8799 126.5 -119.77 154.75 -185.659zM388.979 611.927c228.85 0 365.029 -114.03 365.029 -312.49
c0 -197.38 -136.18 -311.45 -365.029 -311.45c-227.79 0 -363.97 114.07 -363.97 311.45c0 198.46 136.18 312.49 363.97 312.49zM388.979 33.3965c105.5 0 159.59 97.6904 159.59 266.04c0 169.42 -54.0898 267.11 -159.59 267.11
c-104.44 0 -159.591 -97.6904 -159.591 -267.11c0 -168.35 55.1504 -266.04 159.591 -266.04z" />
    <glyph glyph-name="ohungarumlaut" unicode="&#x151;" horiz-adv-x="779" 
d="M265.49 664.93l-6.99023 7.00293c28.25 65.8896 110.5 147.779 154.75 185.659c48.3799 -20.2402 71.7598 -53.4805 85.1396 -99.7207c-63.2998 -41.9805 -159.6 -83.9609 -232.899 -92.9414zM475.5 664.933l-6.99023 7.00293
c28.25 65.8896 110.5 147.779 154.75 185.659c48.3799 -20.2402 71.7598 -53.4805 85.1396 -99.7207c-63.2998 -41.9805 -159.6 -83.9609 -232.899 -92.9414zM388.99 611.936c228.85 0 365.029 -114.03 365.029 -312.49c0 -197.38 -136.18 -311.45 -365.029 -311.45
c-227.79 0 -363.97 114.07 -363.97 311.45c0 198.46 136.18 312.49 363.97 312.49zM388.99 33.4053c105.5 0 159.59 97.6904 159.59 266.04c0 169.42 -54.0898 267.11 -159.59 267.11c-104.44 0 -159.591 -97.6904 -159.591 -267.11
c0 -168.35 55.1504 -266.04 159.591 -266.04z" />
    <glyph glyph-name="omacron" unicode="&#x14d;" horiz-adv-x="779" 
d="M247.79 696.29v85h290v-85h-290zM388.97 611.93c228.85 0 365.029 -114.03 365.029 -312.49c0 -197.38 -136.18 -311.45 -365.029 -311.45c-227.79 0 -363.97 114.07 -363.97 311.45c0 198.46 136.18 312.49 363.97 312.49zM388.97 33.3994
c105.5 0 159.59 97.6904 159.59 266.04c0 169.42 -54.0898 267.11 -159.59 267.11c-104.44 0 -159.591 -97.6904 -159.591 -267.11c0 -168.35 55.1504 -266.04 159.591 -266.04z" />
    <glyph glyph-name="oslash" unicode="&#xf8;" horiz-adv-x="779" 
d="M683.84 607.78l-51.8096 -61.3604c77.1504 -53.0898 121.971 -137.09 121.971 -246.97c0 -197.38 -136.18 -311.45 -365.029 -311.45c-76.4902 0 -142.65 12.8604 -196.79 37.4199l-49.3203 -58.4199l-44.0098 36l43.1299 50.9199
c-75.4805 53.0098 -116.971 136.569 -116.971 245.52c0 198.46 136.18 312.49 363.97 312.49c73.75 0 139.25 -12.9502 193.68 -37.7197l57.8701 68.3301zM242.78 172.939l268.951 317.53c-26.6699 49.4902 -67.7197 76.0801 -122.76 76.0801
c-104.44 0 -159.591 -97.6904 -159.591 -267.11c0 -48.1602 4.50977 -90.54 13.3994 -126.5zM534.331 430.689l-269.12 -318.771c26.79 -51 68.3398 -78.5195 123.77 -78.5195c105.5 0 159.59 97.6904 159.59 266.04c0 50.2998 -4.76953 94.2803 -14.2393 131.25z" />
    <glyph glyph-name="otilde" unicode="&#xf5;" horiz-adv-x="779" 
d="M597.36 820.22l-12.3594 -0.00878906c-6.66016 -16.5195 -46.0801 -49.5996 -90.7705 -43.4893c-72.8896 9.96973 -103.89 53.1494 -162.04 53.0791c-97.8496 -0.110352 -131.85 -108.11 -117.17 -161.78h12.3496c8.96973 21.6699 47.54 58.2598 91.9902 51.1201
c64.9805 -10.4502 98.9805 -53.8604 161.311 -54.0801c100.68 -0.360352 138.68 106.64 116.689 155.159zM388.961 611.921c228.85 0 365.029 -114.03 365.029 -312.49c0 -197.38 -136.18 -311.45 -365.029 -311.45c-227.79 0 -363.97 114.07 -363.97 311.45
c0 198.46 136.18 312.49 363.97 312.49zM388.961 33.3906c105.5 0 159.59 97.6904 159.59 266.04c0 169.42 -54.0898 267.11 -159.59 267.11c-104.44 0 -159.591 -97.6904 -159.591 -267.11c0 -168.35 55.1504 -266.04 159.591 -266.04z" />
    <glyph glyph-name="oe" unicode="&#x153;" horiz-adv-x="997" 
d="M978.55 206.65l10.0498 -0.0302734l-30.7803 -207.65h-435.99l-14.7695 -1c-46.1104 -4 -66.3701 -10 -121.49 -10c-218.05 0 -360.51 114.92 -360.51 314.93c0 196.14 137.62 311.1 372.11 311.1c41.3496 0 64.7695 -3.70996 96.8691 -8.03027
c17.3496 -2.33984 36.0498 -3.72949 53.4902 -4.00977h286.01c37.0703 0.349609 86.6006 8.91992 102.561 15.6504v-185.99l-10 0.129883v5.65039c0.19043 72.7197 -40.4492 116.319 -113.31 118.899h-118.08v-236.85h86.8604
c58.5996 1.11035 98.3096 42.5605 98.0498 100.431v3l10 0.110352v-252.2l-10 0.110352v3c0.240234 57.5 -39.0098 98.79 -96.9199 100.4h-88v-228.65h103.56c81.4502 0 153.53 58.71 180.29 161zM502.489 93.8799l0.00195312 413.949
c-0.389648 22.5703 -34.5293 61.0107 -102.409 61.0107c-99.7998 0 -177.03 -89.1602 -178.021 -267.88c-0.94043 -170.02 71.4492 -267.88 177.049 -267.88c66.8896 0 102.989 36.0596 103.379 60.7998z" />
    <glyph glyph-name="p" unicode="p" horiz-adv-x="607" 
d="M21 600.07l336.34 0.0302734c173.67 0 229.03 -77.7598 234.61 -162.069c10.7998 -163.07 -156.58 -258.32 -284.9 -156.141v7.96973s58.1904 8.69043 75.9102 101.16c3.65039 18.4805 5.75 38.0703 5 51.9902c-3.62012 67.6797 -37.7598 111.699 -95.7598 111.699
h-12.4199v-492.29c1.03027 -30.2695 21.6406 -52.4092 52.1904 -52.4092h10.5098v-10h-320.48v9.91992h10.6396c28.3896 0 51.04 22.2197 51.04 52.4893v476.78c-0.860352 29.4297 -24.1602 50.8701 -52.04 50.8701h-10.6396v10z" />
    <glyph glyph-name="thorn" unicode="&#xfe;" 
d="M294.5 481l75.5596 0.0107422c178.42 0 240.62 -77.5996 245.95 -164c10.0498 -162.99 -164.16 -256.471 -299.45 -155.791l-0.0996094 8.12988s71.1299 6.83008 93.5498 102.65c4.17969 17.8799 5.59961 37.9199 5 52
c-2.92969 68.4805 -40.9893 111.851 -106.109 111.851h-14.3799v-373.19c0.55957 -29.96 24.9795 -52.6904 55.0791 -52.6904h10.8799l0.139648 -10h-323.61l0.139648 10h10.8799c30.0996 0 54.5195 22.7305 55.0898 52.6904v475.09
c-0.75 29.7803 -25.0996 52.3203 -55.0801 52.3203h-10.8799l-0.139648 10h323.58l-0.139648 -10h-10.8799c-29.9199 0 -54.2295 -22.4502 -55.0791 -52.1406v-56.9297z" />
    <glyph glyph-name="q" unicode="q" horiz-adv-x="760" 
d="M1137.94 -51l6.25 -3.00098c4.66016 -210 -209.109 -292 -467.18 -142c-142.04 82 -199.39 183 -296.449 184h-2.58984c-221.98 0 -352.801 114.36 -352.801 311.44c0 198.46 131.21 312.49 353.79 312.49c223.66 0 354.87 -114.03 354.87 -312.49
c0 -144.04 -69.8799 -243.71 -194.58 -287.06c81.7998 -11.8398 125.22 -28.3799 234.75 -68.3799c175.29 -65 282.97 -52 363.939 5zM230.351 299.439c0 -168.35 49.4697 -266.04 148.62 -266.04c100.23 0 149.7 97.6904 149.7 266.04
c0 169.42 -49.4697 267.11 -149.7 267.11c-99.1504 0 -148.62 -97.6904 -148.62 -267.11z" />
    <glyph glyph-name="r" unicode="r" horiz-adv-x="678" 
d="M32 600.07l343.969 -0.0712891c100.99 0 227.99 -25 227.99 -165c0 -61 -24 -142 -128.11 -159.54c51.1201 -13.46 92.1201 -58.46 109.12 -89.46c14 -25 32 -66 63 -113c38 -58 57 -63 89 -62.9902v-10.0098h-117.7c-107.3 0 -163.3 2 -221.3 101c-29 50 -37 87 -47 136
c-10 47 -28.3203 54.9199 -33.0703 57.3799v7.54004h5.07031c32.4502 0 67 25.0801 76 109.08c0 4 2 14 1 32c-6 114 -84 109 -89 109h-19.7695v-490.37c0.209961 -34.8799 29.9404 -51.6299 52.7705 -51.6299h9.15039v-10h-321.12v10h11c27 0 51 22 51 52.4102v475.15
c0 30.4404 -23 52.4404 -50 52.4404h-12v10.0703z" />
    <glyph glyph-name="racute" unicode="&#x155;" horiz-adv-x="678" 
d="M317.67 661.29l-6.99023 7.00293c28.25 65.8896 110.5 147.779 154.75 185.659c48.3799 -20.2402 71.7598 -53.4805 85.1396 -99.7207c-63.2998 -41.9805 -159.6 -83.9609 -232.899 -92.9414zM32.0293 600.073l343.969 -0.0712891c100.99 0 227.99 -25 227.99 -165
c0 -61 -24 -142 -128.11 -159.54c51.1201 -13.46 92.1201 -58.46 109.12 -89.46c14 -25 32 -66 63 -113c38 -58 57 -63 89 -62.9902v-10.0098h-117.7c-107.3 0 -163.3 2 -221.3 101c-29 50 -37 87 -47 136c-10 47 -28.3203 54.9199 -33.0703 57.3799v7.54004h5.07031
c32.4502 0 67 25.0801 76 109.08c0 4 2 14 1 32c-6 114 -84 109 -89 109h-19.7695v-490.37c0.209961 -34.8799 29.9404 -51.6299 52.7705 -51.6299h9.15039v-10h-321.12v10h11c27 0 51 22 51 52.4102v475.15c0 30.4404 -23 52.4404 -50 52.4404h-12v10.0703z" />
    <glyph glyph-name="rcaron" unicode="&#x159;" horiz-adv-x="678" 
d="M341.49 664.27l159.3 175.42l-7.20996 8l-157.54 -64.3301l-168.34 64.4297l-7.20996 -8l168.98 -175.52h12.0195zM32.0098 600.069l343.969 -0.0712891c100.99 0 227.99 -25 227.99 -165c0 -61 -24 -142 -128.11 -159.54c51.1201 -13.46 92.1201 -58.46 109.12 -89.46
c14 -25 32 -66 63 -113c38 -58 57 -63 89 -62.9902v-10.0098h-117.7c-107.3 0 -163.3 2 -221.3 101c-29 50 -37 87 -47 136c-10 47 -28.3203 54.9199 -33.0703 57.3799v7.54004h5.07031c32.4502 0 67 25.0801 76 109.08c0 4 2 14 1 32c-6 114 -84 109 -89 109h-19.7695
v-490.37c0.209961 -34.8799 29.9404 -51.6299 52.7705 -51.6299h9.15039v-10h-321.12v10h11c27 0 51 22 51 52.4102v475.15c0 30.4404 -23 52.4404 -50 52.4404h-12v10.0703z" />
    <glyph glyph-name="rcommaaccent" unicode="&#x157;" horiz-adv-x="678" 
d="M32 600.07l343.969 -0.0712891c100.99 0 227.99 -25 227.99 -165c0 -61 -24 -142 -128.11 -159.54c51.1201 -13.46 92.1201 -58.46 109.12 -89.46c14 -25 32 -66 63 -113c38 -58 57 -63 89 -62.9902v-10.0098h-117.7c-107.3 0 -163.3 2 -221.3 101c-29 50 -37 87 -47 136
c-10 47 -28.3203 54.9199 -33.0703 57.3799v7.54004h5.07031c32.4502 0 67 25.0801 76 109.08c0 4 2 14 1 32c-6 114 -84 109 -89 109h-19.7695v-490.37c0.209961 -34.8799 29.9404 -51.6299 52.7705 -51.6299h9.15039v-10h-321.12v10h11c27 0 51 22 51 52.4102v475.15
c0 30.4404 -23 52.4404 -50 52.4404h-12v10.0703zM362.409 -274.071l-2.73047 9c25.6504 11 50.5205 48 12.8506 90c-25.6396 29 -21.3193 78 6.40039 98c31.9805 24 83.1504 10 100.92 -29c38.3799 -84 -31.9805 -185 -117.44 -168z" />
    <glyph glyph-name="s" unicode="s" horiz-adv-x="549" 
d="M277.54 419.03l129.45 -59.2588c66.8096 -28.4004 113.869 -85.5508 106.219 -177.771c-10.6602 -128.58 -107.33 -194 -272.54 -194c-103.63 0 -168.22 27.0703 -192.04 57.1504c-21.2402 45.5996 -0.330078 133.17 30.6201 170.39h5.44043
c-3.75 -90.7998 62.6396 -180.68 181.529 -181.55c74.9102 -0.549805 104.41 39.3701 104.41 77.9902c0 36.6602 -28.21 66.1602 -99.4795 96.9502l-105.13 48.5801c-85.7598 36.6104 -127.54 109.17 -114.8 199.479c14.7305 104.38 82.3604 154.93 190.15 154.93
c25.3203 0 96.6104 -3.91016 150.62 -9.06055h67.2402l-24.04 -145.58h-6.58008c0 64.0898 -49.6602 108.17 -129.98 108.17c-62.5 0 -98.0498 -25.9199 -102.41 -66.46c-4.79004 -44.5596 38.3398 -62.2998 81.3203 -79.96z" />
    <glyph glyph-name="sacute" unicode="&#x15b;" horiz-adv-x="549" 
d="M269.89 661l-6.99023 7.00293c28.25 65.8896 110.5 147.779 154.75 185.659c48.3799 -20.2402 71.7598 -53.4805 85.1396 -99.7207c-63.2998 -41.9805 -159.6 -83.9609 -232.899 -92.9414zM277.55 419.033l129.45 -59.2588
c66.8096 -28.4004 113.869 -85.5508 106.219 -177.771c-10.6602 -128.58 -107.33 -194 -272.54 -194c-103.63 0 -168.22 27.0703 -192.04 57.1504c-21.2402 45.5996 -0.330078 133.17 30.6201 170.39h5.44043c-3.75 -90.7998 62.6396 -180.68 181.529 -181.55
c74.9102 -0.549805 104.41 39.3701 104.41 77.9902c0 36.6602 -28.21 66.1602 -99.4795 96.9502l-105.13 48.5801c-85.7598 36.6104 -127.54 109.17 -114.8 199.479c14.7305 104.38 82.3604 154.93 190.15 154.93c25.3203 0 96.6104 -3.91016 150.62 -9.06055h67.2402
l-24.04 -145.58h-6.58008c0 64.0898 -49.6602 108.17 -129.98 108.17c-62.5 0 -98.0498 -25.9199 -102.41 -66.46c-4.79004 -44.5596 38.3398 -62.2998 81.3203 -79.96z" />
    <glyph glyph-name="scaron" unicode="&#x161;" horiz-adv-x="549" 
d="M293.71 663.97l159.3 175.42l-7.20996 8l-157.54 -64.3301l-168.34 64.4297l-7.20996 -8l168.98 -175.52h12.0195zM277.529 419.029l129.45 -59.2588c66.8096 -28.4004 113.869 -85.5508 106.219 -177.771c-10.6602 -128.58 -107.33 -194 -272.54 -194
c-103.63 0 -168.22 27.0703 -192.04 57.1504c-21.2402 45.5996 -0.330078 133.17 30.6201 170.39h5.44043c-3.75 -90.7998 62.6396 -180.68 181.529 -181.55c74.9102 -0.549805 104.41 39.3701 104.41 77.9902c0 36.6602 -28.21 66.1602 -99.4795 96.9502l-105.13 48.5801
c-85.7598 36.6104 -127.54 109.17 -114.8 199.479c14.7305 104.38 82.3604 154.93 190.15 154.93c25.3203 0 96.6104 -3.91016 150.62 -9.06055h67.2402l-24.04 -145.58h-6.58008c0 64.0898 -49.6602 108.17 -129.98 108.17c-62.5 0 -98.0498 -25.9199 -102.41 -66.46
c-4.79004 -44.5596 38.3398 -62.2998 81.3203 -79.96z" />
    <glyph glyph-name="scedilla" unicode="&#x15f;" horiz-adv-x="519" 
d="M266.32 419.03l129.448 -59.2588c66.8096 -28.4004 113.869 -85.5508 106.219 -177.771c-9.38965 -113.24 -85.4893 -177.49 -216.359 -191l-40.4697 -47c35.5898 12 125.189 6 118.859 -63c-6.42969 -70 -105.449 -114 -188.539 -85l0.740234 10
c41.7305 0 97.0908 21 103.811 76c5.12988 42 -61.1699 53 -97.4102 38l-5.08984 10l44.9199 58c-99.54 1 -161.76 27.75 -185.04 57.1504c-21.2402 45.5996 -0.330078 133.17 30.6201 170.39h5.44043c-3.75 -90.7998 62.6396 -180.68 181.529 -181.55
c74.9102 -0.549805 104.41 39.3701 104.41 77.9902c0 36.6602 -28.21 66.1602 -99.4795 96.9502l-105.13 48.5801c-85.7598 36.6104 -127.54 109.17 -114.8 199.479c14.7305 104.38 82.3604 154.93 190.15 154.93c25.3203 0 96.6104 -3.91016 150.62 -9.06055h67.2402
l-24.04 -145.58h-6.58008c0 64.0898 -49.6602 108.17 -129.98 108.17c-62.5 0 -98.0498 -25.9199 -102.41 -66.46c-4.79004 -44.5596 38.3398 -62.2998 81.3203 -79.96z" />
    <glyph glyph-name="scommaaccent" unicode="&#x219;" horiz-adv-x="549" 
d="M277.54 419.03l129.45 -59.2588c66.8096 -28.4004 113.869 -85.5508 106.219 -177.771c-10.6602 -128.58 -107.33 -194 -272.54 -194c-103.63 0 -168.22 27.0703 -192.04 57.1504c-21.2402 45.5996 -0.330078 133.17 30.6201 170.39h5.44043
c-3.75 -90.7998 62.6396 -180.68 181.529 -181.55c74.9102 -0.549805 104.41 39.3701 104.41 77.9902c0 36.6602 -28.21 66.1602 -99.4795 96.9502l-105.13 48.5801c-85.7598 36.6104 -127.54 109.17 -114.8 199.479c14.7305 104.38 82.3604 154.93 190.15 154.93
c25.3203 0 96.6104 -3.91016 150.62 -9.06055h67.2402l-24.04 -145.58h-6.58008c0 64.0898 -49.6602 108.17 -129.98 108.17c-62.5 0 -98.0498 -25.9199 -102.41 -66.46c-4.79004 -44.5596 38.3398 -62.2998 81.3203 -79.96zM222.46 -272.998l-2.73047 9
c25.6504 11 50.5205 48 12.8506 90c-25.6396 29 -21.3193 78 6.40039 98c31.9805 24 83.1504 10 100.92 -29c38.3799 -84 -31.9805 -185 -117.44 -168z" />
    <glyph glyph-name="germandbls" unicode="&#xdf;" horiz-adv-x="1098" 
d="M277.54 419.03l129.45 -59.2588c66.8096 -28.4004 113.869 -85.5508 106.219 -177.771c-10.6602 -128.58 -107.33 -194 -272.54 -194c-103.63 0 -168.22 27.0703 -192.04 57.1504c-21.2402 45.5996 -0.330078 133.17 30.6201 170.39h5.44043
c-3.75 -90.7998 62.6396 -180.68 181.529 -181.55c74.9102 -0.549805 104.41 39.3701 104.41 77.9902c0 36.6602 -28.21 66.1602 -99.4795 96.9502l-105.13 48.5801c-85.7598 36.6104 -127.54 109.17 -114.8 199.479c14.7305 104.38 82.3604 154.93 190.15 154.93
c25.3203 0 96.6104 -3.91016 150.62 -9.06055h67.2402l-24.04 -145.58h-6.58008c0 64.0898 -49.6602 108.17 -129.98 108.17c-62.5 0 -98.0498 -25.9199 -102.41 -66.46c-4.79004 -44.5596 38.3398 -62.2998 81.3203 -79.96zM826.53 419.031l129.47 -59.2588
c66.8096 -28.4004 113.869 -85.5508 106.219 -177.771c-10.6602 -128.58 -107.33 -194 -272.54 -194c-103.63 0 -168.22 27.0703 -192.05 57.1504c-21.2402 45.5996 -0.330078 133.17 30.6201 170.39h5.44043c-3.75977 -90.7998 62.6299 -180.68 181.52 -181.55
c74.9102 -0.549805 104.41 39.3701 104.41 77.9902c0 36.6602 -28.21 66.1602 -99.4795 96.9502l-105.13 48.5801c-85.7598 36.6104 -127.54 109.17 -114.8 199.479c14.7305 104.38 82.3604 154.93 190.15 154.93c25.3203 0 96.6104 -3.91016 150.62 -9.06055h67.2402
l-24.04 -145.58h-6.58008c0 64.0898 -49.6602 108.17 -129.98 108.17c-62.5 0 -98.0498 -25.9199 -102.41 -66.46c-4.79004 -44.5596 38.3398 -62.2998 81.3203 -79.96z" />
    <glyph glyph-name="t" unicode="t" horiz-adv-x="613" 
d="M106.95 600.93h399.038c35.9697 0.150391 90.04 9.14062 99.9502 15.0811v-188.45h-10v5.40039c0.679688 75.7002 -41.7705 120.49 -118.37 121.53h-73.0996v-492.09c0 -30.2598 24.0098 -52.3896 52.9697 -52.3896h9.9502v-10h-321.79v10h9.9502
c28.96 0 51.8799 22.1299 52.9199 52.3896v492.09h-73.0996c-76.5996 -1.04004 -118.369 -45.8301 -118.369 -121.53v-5.40039h-10v188.45c15.8701 -5.94043 64.0801 -14.9307 99.9502 -15.0811z" />
    <glyph glyph-name="tbar" unicode="&#x167;" horiz-adv-x="620" 
d="M106.95 600.93h399.039c35.9697 0.150391 90.04 9.14062 99.9502 15.0811v-188.45h-10v5.40039c0.679688 75.7002 -41.7705 120.49 -118.37 121.53h-73.1104v-208.54h125.89v-45h-125.88v-238.55c0 -30.2598 24.0098 -52.3896 52.9697 -52.3896h9.9502v-10h-321.79v10
h9.9502c28.96 0 51.8799 22.1299 52.9199 52.3896v238.55h-120.8v45h120.8v208.54h-73.0996c-76.5996 -1.04004 -118.369 -45.8301 -118.369 -121.53v-5.40039h-10v188.45c15.8701 -5.94043 64.0801 -14.9307 99.9502 -15.0811z" />
    <glyph glyph-name="tcaron" unicode="&#x165;" horiz-adv-x="612" 
d="M316.77 670.55h-12.0195l-168.98 175.52l7.20996 8l168.34 -64.4297l157.54 64.3301l7.20996 -8zM106.96 600.93h399.028c35.9697 0.150391 90.04 9.14062 99.96 15.0811v-188.45h-10v5.40039c0.679688 75.7002 -41.7705 120.49 -118.37 121.53h-73.0996v-492.09
c0 -30.2598 24.0098 -52.3896 52.9697 -52.3896h9.9502v-10h-321.79v10h9.9502c28.96 0 51.8799 22.1299 52.9199 52.3896v492.09h-73.0996c-76.5996 -1.04004 -118.369 -45.8301 -118.369 -121.53v-5.40039h-10v188.45c15.8701 -5.94043 64.0801 -14.9307 99.9502 -15.0811
z" />
    <glyph glyph-name="tcedilla" unicode="&#x163;" horiz-adv-x="613" 
d="M106.95 600.93h399.016c35.9697 0.150391 90.04 9.14062 99.9502 15.0811v-188.45h-10v5.40039c0.679688 75.7002 -41.7705 120.49 -118.37 121.53h-73.0996v-492.09c0 -30.2598 24.0098 -52.3896 52.9697 -52.3896h9.9502v-10h-138.85l-40.8301 -47
c35.5898 12 125.189 6 118.84 -63c-6.41016 -70 -105.43 -114 -188.52 -85l0.740234 10c41.7305 0 97.0908 21 103.791 76c5.15039 42 -61.1494 53 -97.3896 38l-5.08984 10l47.3701 61h-121.83v10h9.9502c28.96 0 51.8799 22.1299 52.9199 52.3896v492.09h-73.0996
c-76.5996 -1.04004 -118.369 -45.8301 -118.369 -121.53v-5.40039h-10v188.45c15.8701 -5.94043 64.0801 -14.9307 99.9502 -15.0811z" />
    <glyph glyph-name="uni021B" unicode="&#x21b;" horiz-adv-x="612" 
d="M106.95 600.93h399.028c35.9697 0.150391 90.04 9.14062 99.96 15.0811v-188.45h-10v5.40039c0.679688 75.7002 -41.7705 120.49 -118.37 121.53h-73.0996v-492.09c0 -30.2598 24.0098 -52.3896 52.9697 -52.3896h9.9502v-10h-321.79v10h9.9502
c28.96 0 51.8799 22.1299 52.9199 52.3896v492.09h-73.0996c-76.5996 -1.04004 -118.369 -45.8301 -118.369 -121.53v-5.40039h-10v188.45c15.8701 -5.94043 64.0801 -14.9307 99.9502 -15.0811zM256.698 -272l-2.73047 9c25.6504 11 50.5205 48 12.8506 90
c-25.6396 29 -21.3193 78 6.40039 98c31.9805 24 83.1504 10 100.92 -29c38.3799 -84 -31.9805 -185 -117.44 -168z" />
    <glyph glyph-name="u" unicode="u" horiz-adv-x="708" 
d="M504.06 600.07l192.891 -0.00878906v-7.92969h-12.9902c-24.0498 0 -44.1396 -18.1299 -44.1396 -43.3701v-326.16c0 -146.69 -89.3799 -234.61 -253.35 -234.61c-216.81 0 -310.449 86.8799 -310.449 232.56v328.41c0 25.1396 -20.04 43.1699 -44.0303 43.1699h-12.9902
v7.92969h310.34v-7.92969h-14.0703c-23.8203 0 -42.6904 -17.7803 -43.0107 -42.6406v-326.58c0 -118.26 53.3301 -187.16 145.63 -187.16c90.4404 0 142.2 64.8799 143.26 176.07v336.95c-1.04004 25.2402 -20.0498 43.3701 -44.0996 43.3701h-12.9902v7.92969z" />
    <glyph glyph-name="uacute" unicode="&#xfa;" horiz-adv-x="708" 
d="M380.68 661l-6.99023 7.00293c28.25 65.8896 110.5 147.779 154.75 185.659c48.3799 -20.2402 71.7598 -53.4805 85.1396 -99.7207c-63.2998 -41.9805 -159.6 -83.9609 -232.899 -92.9414zM504.069 600.073l192.891 -0.00878906v-7.92969h-12.9902
c-24.0498 0 -44.1396 -18.1299 -44.1396 -43.3701v-326.16c0 -146.69 -89.3799 -234.61 -253.35 -234.61c-216.81 0 -310.449 86.8799 -310.449 232.56v328.41c0 25.1396 -20.04 43.1699 -44.0303 43.1699h-12.9902v7.92969h310.34v-7.92969h-14.0703
c-23.8203 0 -42.6904 -17.7803 -43.0107 -42.6406v-326.58c0 -118.26 53.3301 -187.16 145.63 -187.16c90.4404 0 142.2 64.8799 143.26 176.07v336.95c-1.04004 25.2402 -20.0498 43.3701 -44.0996 43.3701h-12.9902v7.92969z" />
    <glyph glyph-name="ucircumflex" unicode="&#xfb;" horiz-adv-x="708" 
d="M390.43 831.76l-168.868 -175.42l7.13965 -8l167.12 64.3301l177.81 -64.4297l7.13965 8l-178.44 175.52h-11.9004zM504.052 600.07l192.891 -0.00878906v-7.92969h-12.9902c-24.0498 0 -44.1396 -18.1299 -44.1396 -43.3701v-326.16
c0 -146.69 -89.3799 -234.61 -253.35 -234.61c-216.81 0 -310.449 86.8799 -310.449 232.56v328.41c0 25.1396 -20.04 43.1699 -44.0303 43.1699h-12.9902v7.92969h310.34v-7.92969h-14.0703c-23.8203 0 -42.6904 -17.7803 -43.0107 -42.6406v-326.58
c0 -118.26 53.3301 -187.16 145.63 -187.16c90.4404 0 142.2 64.8799 143.26 176.07v336.95c-1.04004 25.2402 -20.0498 43.3701 -44.0996 43.3701h-12.9902v7.92969z" />
    <glyph glyph-name="udieresis" unicode="&#xfc;" horiz-adv-x="708" 
d="M262.84 655.49c-40.7002 0 -73.6904 32.9902 -73.6904 73.6904s32.9902 73.6904 73.6904 73.6904s73.6904 -32.9902 73.6904 -73.6904s-32.9902 -73.6904 -73.6904 -73.6904zM525.439 655.49c-40.7002 0 -73.6904 32.9902 -73.6904 73.6904
s32.9902 73.6904 73.6904 73.6904s73.6904 -32.9902 73.6904 -73.6904s-32.9902 -73.6904 -73.6904 -73.6904zM504.06 600.07l192.891 -0.00878906v-7.92969h-12.9902c-24.0498 0 -44.1396 -18.1299 -44.1396 -43.3701v-326.16c0 -146.69 -89.3799 -234.61 -253.35 -234.61
c-216.81 0 -310.449 86.8799 -310.449 232.56v328.41c0 25.1396 -20.04 43.1699 -44.0303 43.1699h-12.9902v7.92969h310.34v-7.92969h-14.0703c-23.8203 0 -42.6904 -17.7803 -43.0107 -42.6406v-326.58c0 -118.26 53.3301 -187.16 145.63 -187.16
c90.4404 0 142.2 64.8799 143.26 176.07v336.95c-1.04004 25.2402 -20.0498 43.3701 -44.0996 43.3701h-12.9902v7.92969z" />
    <glyph glyph-name="ugrave" unicode="&#xf9;" horiz-adv-x="708" 
d="M424.59 670.91l-6.99023 -7.00293c-73.2998 8.98047 -169.6 50.9609 -232.899 92.9414c13.3799 46.2402 36.7598 79.4805 85.1396 99.7207c44.25 -37.8799 126.5 -119.77 154.75 -185.659zM504.069 600.067l192.891 -0.00878906v-7.92969h-12.9902
c-24.0498 0 -44.1396 -18.1299 -44.1396 -43.3701v-326.16c0 -146.69 -89.3799 -234.61 -253.35 -234.61c-216.81 0 -310.449 86.8799 -310.449 232.56v328.41c0 25.1396 -20.04 43.1699 -44.0303 43.1699h-12.9902v7.92969h310.34v-7.92969h-14.0703
c-23.8203 0 -42.6904 -17.7803 -43.0107 -42.6406v-326.58c0 -118.26 53.3301 -187.16 145.63 -187.16c90.4404 0 142.2 64.8799 143.26 176.07v336.95c-1.04004 25.2402 -20.0498 43.3701 -44.0996 43.3701h-12.9902v7.92969z" />
    <glyph glyph-name="uhungarumlaut" unicode="&#x171;" horiz-adv-x="708" 
d="M273.2 664l-6.99023 7.00293c28.25 65.8896 110.5 147.779 154.75 185.659c48.3799 -20.2402 71.7598 -53.4805 85.1396 -99.7207c-63.2998 -41.9805 -159.6 -83.9609 -232.899 -92.9414zM483.21 664.003l-6.99023 7.00293c28.25 65.8896 110.5 147.779 154.75 185.659
c48.3799 -20.2402 71.7598 -53.4805 85.1396 -99.7207c-63.2998 -41.9805 -159.6 -83.9609 -232.899 -92.9414zM504.08 600.076l192.891 -0.00878906v-7.92969h-12.9902c-24.0498 0 -44.1396 -18.1299 -44.1396 -43.3701v-326.16
c0 -146.69 -89.3799 -234.61 -253.35 -234.61c-216.81 0 -310.449 86.8799 -310.449 232.56v328.41c0 25.1396 -20.04 43.1699 -44.0303 43.1699h-12.9902v7.92969h310.34v-7.92969h-14.0703c-23.8203 0 -42.6904 -17.7803 -43.0107 -42.6406v-326.58
c0 -118.26 53.3301 -187.16 145.63 -187.16c90.4404 0 142.2 64.8799 143.26 176.07v336.95c-1.04004 25.2402 -20.0498 43.3701 -44.0996 43.3701h-12.9902v7.92969z" />
    <glyph glyph-name="umacron" unicode="&#x16b;" horiz-adv-x="708" 
d="M255.5 695.36v85h290v-85h-290zM504.06 600.07l192.891 -0.00878906v-7.92969h-12.9902c-24.0498 0 -44.1396 -18.1299 -44.1396 -43.3701v-326.16c0 -146.69 -89.3799 -234.61 -253.35 -234.61c-216.81 0 -310.449 86.8799 -310.449 232.56v328.41
c0 25.1396 -20.04 43.1699 -44.0303 43.1699h-12.9902v7.92969h310.34v-7.92969h-14.0703c-23.8203 0 -42.6904 -17.7803 -43.0107 -42.6406v-326.58c0 -118.26 53.3301 -187.16 145.63 -187.16c90.4404 0 142.2 64.8799 143.26 176.07v336.95
c-1.04004 25.2402 -20.0498 43.3701 -44.0996 43.3701h-12.9902v7.92969z" />
    <glyph glyph-name="uogonek" unicode="&#x173;" horiz-adv-x="708" 
d="M696.99 600.07l-0.0371094 -7.93066h-12.9902c-24.0498 0 -44.1396 -18.1299 -44.1396 -43.3701v-326.16c0 -134.8 -75.4805 -219.97 -214.961 -232.609c-48.4697 -14 -60.1699 -44 -57.3096 -77c6 -61 62 -82 112.05 -42l6 -6c-9.0498 -136 -223.689 -102 -204.05 37
c6.83008 49 39.6104 75 76.8799 87c-196.86 7 -282.4 92.3203 -282.41 231.551v328.41c0 25.1396 -20.04 43.1699 -44.0303 43.1699h-12.9902v7.92969h310.34v-7.92969h-14.0703c-23.8203 0 -42.6904 -17.7803 -43.0107 -42.6406v-326.58
c0 -118.26 53.3301 -187.16 145.63 -187.16c90.4404 0 142.2 64.8799 143.26 176.07v336.95c-1.04004 25.2402 -20.0498 43.3701 -44.0996 43.3701h-12.9902v7.92969h192.93z" />
    <glyph glyph-name="uring" unicode="&#x16f;" horiz-adv-x="708" 
d="M397.53 841.63c66.7998 0 116.858 -37.3301 116.858 -87.0996c0 -52.2803 -50.5596 -91.5 -117.949 -91.5c-67.4199 0 -117.979 38.2695 -117.979 89.2998s51.0303 89.2998 119.07 89.2998zM396.409 811.86c-28.9805 0 -50.71 -25.5098 -50.71 -59.5195
c0 -33.4004 21.7305 -58.4404 50.7207 -58.4404c29.5996 0 51.8096 25.04 51.8096 58.4199c0 34.0303 -22.21 59.54 -51.8203 59.54zM504.05 600.07l192.891 -0.00878906v-7.92969h-12.9902c-24.0498 0 -44.1396 -18.1299 -44.1396 -43.3701v-326.16
c0 -146.69 -89.3799 -234.61 -253.35 -234.61c-216.81 0 -310.449 86.8799 -310.449 232.56v328.41c0 25.1396 -20.04 43.1699 -44.0303 43.1699h-12.9902v7.92969h310.34v-7.92969h-14.0703c-23.8203 0 -42.6904 -17.7803 -43.0107 -42.6406v-326.58
c0 -118.26 53.3301 -187.16 145.63 -187.16c90.4404 0 142.2 64.8799 143.26 176.07v336.95c-1.04004 25.2402 -20.0498 43.3701 -44.0996 43.3701h-12.9902v7.92969z" />
    <glyph glyph-name="v" unicode="v" horiz-adv-x="620" 
d="M457.94 600.07l204.578 -0.0117188v-10h-7.41992c-25.1699 0 -56.0195 -12.5596 -74.5293 -46.3193l-201.39 -421.59c-11.5596 -24.7998 -48.6191 -103.59 -51.7891 -134.16h-8.48047l-280.62 556.57c-19.1797 33.1504 -48.29 45.5107 -73.29 45.5107h-7v10h350.62
v-8.80957h-7.41992c-22.25 0 -47.6104 -19.1201 -34.0703 -53.0098l115.67 -257.46l116.45 257.46c14.8799 33.8896 -10.5898 53.0098 -32.8398 53.0098h-8.46973v8.80957z" />
    <glyph glyph-name="w" unicode="w" horiz-adv-x="851" 
d="M691.75 599.95l191.289 0.00195312v-9.99023h-7.2998c-23.3701 0 -56.3896 -10.9404 -71.8193 -41.3906l-147.28 -461.12s-16.5703 -49.3799 -12.5303 -97.4395h-8.33984l-205.41 347.63l-134.37 -253.94s-24.0801 -46.3701 -24.0801 -93.6904h-8.33984l-215.09 552.43
c-16.4004 35.1299 -48.3105 47.5303 -73.4805 47.5303h-7v9.99023h328.6v-10h-8.36035c-20.8096 0 -42.5293 -16.5195 -33.1494 -46.9492l91.5 -208.41l145.47 278.3h7.28027l171.69 -287.61l61.4902 213.77c8.28027 33.6797 -9.41016 50.8896 -33.4697 50.8896h-7.2998v10z
" />
    <glyph glyph-name="wacute" unicode="&#x1e83;" horiz-adv-x="851" 
d="M470.74 661l-6.99023 7.00293c28.25 65.8896 110.5 147.779 154.75 185.659c48.3799 -20.2402 71.7598 -53.4805 85.1396 -99.7207c-63.2998 -41.9805 -159.6 -83.9609 -232.899 -92.9414zM691.76 599.953l191.289 0.00195312v-9.99023h-7.2998
c-23.3701 0 -56.3896 -10.9404 -71.8193 -41.3906l-147.28 -461.12s-16.5703 -49.3799 -12.5303 -97.4395h-8.33984l-205.41 347.63l-134.37 -253.94s-24.0801 -46.3701 -24.0801 -93.6904h-8.33984l-215.09 552.43c-16.4004 35.1299 -48.3105 47.5303 -73.4805 47.5303h-7
v9.99023h328.6v-10h-8.36035c-20.8096 0 -42.5293 -16.5195 -33.1494 -46.9492l91.5 -208.41l145.47 278.3h7.28027l171.69 -287.61l61.4902 213.77c8.28027 33.6797 -9.41016 50.8896 -33.4697 50.8896h-7.2998v10z" />
    <glyph glyph-name="wcircumflex" unicode="&#x175;" horiz-adv-x="851" 
d="M480.49 831.76l-168.868 -175.42l7.13965 -8l167.12 64.3301l177.81 -64.4297l7.13965 8l-178.44 175.52h-11.9004zM691.752 599.96l191.289 0.00195312v-9.99023h-7.2998c-23.3701 0 -56.3896 -10.9404 -71.8193 -41.3906l-147.28 -461.12
s-16.5703 -49.3799 -12.5303 -97.4395h-8.33984l-205.41 347.63l-134.37 -253.94s-24.0801 -46.3701 -24.0801 -93.6904h-8.33984l-215.09 552.43c-16.4004 35.1299 -48.3105 47.5303 -73.4805 47.5303h-7v9.99023h328.6v-10h-8.36035
c-20.8096 0 -42.5293 -16.5195 -33.1494 -46.9492l91.5 -208.41l145.47 278.3h7.28027l171.69 -287.61l61.4902 213.77c8.28027 33.6797 -9.41016 50.8896 -33.4697 50.8896h-7.2998v10z" />
    <glyph glyph-name="wdieresis" unicode="&#x1e85;" horiz-adv-x="851" 
d="M352.9 655.49c-40.7002 0 -73.6904 32.9902 -73.6904 73.6904s32.9902 73.6904 73.6904 73.6904s73.6904 -32.9902 73.6904 -73.6904s-32.9902 -73.6904 -73.6904 -73.6904zM615.5 655.49c-40.7002 0 -73.6904 32.9902 -73.6904 73.6904s32.9902 73.6904 73.6904 73.6904
s73.6904 -32.9902 73.6904 -73.6904s-32.9902 -73.6904 -73.6904 -73.6904zM691.76 599.96l191.289 0.00195312v-9.99023h-7.2998c-23.3701 0 -56.3896 -10.9404 -71.8193 -41.3906l-147.28 -461.12s-16.5703 -49.3799 -12.5303 -97.4395h-8.33984l-205.41 347.63
l-134.37 -253.94s-24.0801 -46.3701 -24.0801 -93.6904h-8.33984l-215.09 552.43c-16.4004 35.1299 -48.3105 47.5303 -73.4805 47.5303h-7v9.99023h328.6v-10h-8.36035c-20.8096 0 -42.5293 -16.5195 -33.1494 -46.9492l91.5 -208.41l145.47 278.3h7.28027l171.69 -287.61
l61.4902 213.77c8.28027 33.6797 -9.41016 50.8896 -33.4697 50.8896h-7.2998v10z" />
    <glyph glyph-name="wgrave" unicode="&#x1e81;" horiz-adv-x="851" 
d="M514.65 670.91l-6.99023 -7.00293c-73.2998 8.98047 -169.6 50.9609 -232.899 92.9414c13.3799 46.2402 36.7598 79.4805 85.1396 99.7207c44.25 -37.8799 126.5 -119.77 154.75 -185.659zM691.771 599.957l191.289 0.00195312v-9.99023h-7.2998
c-23.3701 0 -56.3896 -10.9404 -71.8193 -41.3906l-147.28 -461.12s-16.5703 -49.3799 -12.5303 -97.4395h-8.33984l-205.41 347.63l-134.37 -253.94s-24.0801 -46.3701 -24.0801 -93.6904h-8.33984l-215.09 552.43c-16.4004 35.1299 -48.3105 47.5303 -73.4805 47.5303h-7
v9.99023h328.6v-10h-8.36035c-20.8096 0 -42.5293 -16.5195 -33.1494 -46.9492l91.5 -208.41l145.47 278.3h7.28027l171.69 -287.61l61.4902 213.77c8.28027 33.6797 -9.41016 50.8896 -33.4697 50.8896h-7.2998v10z" />
    <glyph glyph-name="x" unicode="x" horiz-adv-x="666" 
d="M679.73 10l11.0117 -0.0195312v-10h-356.61v10h10c23 0 43 26.3301 29.0596 49.9004l-98.1904 161.07l-116.42 -161.07c-17 -23.5703 5 -49.8906 28 -49.8906h10v-10h-220.57v10h12c32.0703 0 59.4404 18.5898 79.2002 41.79l171.1 229.34l-163.05 267.45
c-16.79 23.7803 -48.1396 43.0605 -80.25 43.0605h-11v10h354.71v-10h-10c-23 0 -43 -26.3301 -29.0898 -49.9004l92.5801 -151.03l96.5098 151.04c15 23.5703 -5 49.8906 -28 49.8906h-10v10h216.55v-10h-12c-32.5195 0 -63.21 -19.5898 -80.7002 -43.6396l-144.97 -218.28
l168.36 -274.66c16.3701 -24.6904 47.6396 -45.0508 81.7695 -45.0508z" />
    <glyph glyph-name="y" unicode="y" horiz-adv-x="633" 
d="M466.5 600.07l217.252 -0.00195312v-10h-12.5c-35.9902 0 -67.9102 -21.5898 -85.7402 -47.3496l-168.8 -263.95v-216.37c1.05957 -30.2598 24.9893 -52.3896 55.1797 -52.3896h10.9297v-10h-327.75v10h11.46c29.0898 0 54.0498 22.0703 54.8398 52.2705v215.32
l-172.67 265.48c-16.8799 25.3301 -49.7002 47 -84.7002 47h-12v10h350.33v-10h-10.4004c-24.9404 0 -43.7705 -27.2305 -30.2402 -51.4102l123.96 -209.68l121.45 209.71c13.5195 24.0498 -6.32031 51.3701 -30.2002 51.3701h-10.4004v10z" />
    <glyph glyph-name="yacute" unicode="&#xfd;" horiz-adv-x="633" 
d="M356.4 661l-6.99023 7.00293c28.25 65.8896 110.5 147.779 154.75 185.659c48.3799 -20.2402 71.7598 -53.4805 85.1396 -99.7207c-63.2998 -41.9805 -159.6 -83.9609 -232.899 -92.9414zM466.51 600.073l217.242 0.0185547v-10h-12.5
c-35.9902 0 -67.9102 -21.5898 -85.7402 -47.3594l-168.8 -263.95v-216.37c1.05957 -30.2598 24.9893 -52.3896 55.1797 -52.3896h10.9297v-10h-327.75v10h11.46c29.0898 0 54.0596 22.0703 54.8496 52.2705v215.32l-172.67 265.48
c-16.8799 25.3301 -49.7002 47 -84.7002 47h-12v10h350.33v-10h-10.4004c-24.9404 0 -43.7705 -27.2305 -30.2402 -51.4209l123.96 -209.68l121.45 209.71c13.5195 24.0498 -6.32031 51.3701 -30.2002 51.3701h-10.4004v10z" />
    <glyph glyph-name="ycircumflex" unicode="&#x177;" horiz-adv-x="633" 
d="M366.15 831.76l-168.868 -175.42l7.13965 -8l167.12 64.3301l177.81 -64.4297l7.13965 8l-178.44 175.52h-11.9004zM466.492 600.07l217.252 0.0185547v-10h-12.5c-35.9902 0 -67.9102 -21.5898 -85.7402 -47.3594l-168.8 -263.95v-216.37
c1.05957 -30.2598 24.9893 -52.3896 55.1797 -52.3896h10.9297v-10h-327.75v10h11.46c29.0898 0 54.0498 22.0703 54.8398 52.2705v215.32l-172.67 265.48c-16.8799 25.3301 -49.7002 47 -84.7002 47h-12v10h350.33v-10h-10.4004
c-24.9404 0 -43.7705 -27.2305 -30.2402 -51.4209l123.96 -209.68l121.45 209.71c13.5195 24.0498 -6.32031 51.3701 -30.2002 51.3701h-10.4004v10z" />
    <glyph glyph-name="ydieresis" unicode="&#xff;" horiz-adv-x="633" 
d="M238.56 655.49c-40.7002 0 -73.6904 32.9902 -73.6904 73.6904s32.9902 73.6904 73.6904 73.6904s73.6904 -32.9902 73.6904 -73.6904s-32.9902 -73.6904 -73.6904 -73.6904zM501.159 655.49c-40.7002 0 -73.6904 32.9902 -73.6904 73.6904
s32.9902 73.6904 73.6904 73.6904s73.6904 -32.9902 73.6904 -73.6904s-32.9902 -73.6904 -73.6904 -73.6904zM466.499 600.07l217.242 0.0185547v-10h-12.5c-35.9902 0 -67.9102 -21.5898 -85.7402 -47.3594l-168.8 -263.95v-216.37
c1.05957 -30.2598 24.9893 -52.3896 55.1797 -52.3896h10.9297v-10h-327.75v10h11.46c29.0898 0 54.0596 22.0703 54.8496 52.2705v215.32l-172.67 265.48c-16.8799 25.3301 -49.7002 47 -84.7002 47h-12v10h350.33v-10h-10.4004
c-24.9404 0 -43.7705 -27.2305 -30.2402 -51.4209l123.96 -209.68l121.45 209.71c13.5195 24.0498 -6.32031 51.3701 -30.2002 51.3701h-10.4004v10z" />
    <glyph glyph-name="ygrave" unicode="&#x1ef3;" horiz-adv-x="633" 
d="M400.3 670.91l-6.99023 -7.00293c-73.2998 8.98047 -169.6 50.9609 -232.899 92.9414c13.3799 46.2402 36.7598 79.4805 85.1396 99.7207c44.25 -37.8799 126.5 -119.77 154.75 -185.659zM466.5 600.067l217.242 0.0185547v-10h-12.5
c-35.9902 0 -67.9102 -21.5898 -85.7402 -47.3594l-168.8 -263.95v-216.37c1.05957 -30.2598 24.9893 -52.3896 55.1797 -52.3896h10.9297v-10h-327.75v10h11.46c29.0898 0 54.0596 22.0703 54.8496 52.2705v215.32l-172.67 265.48
c-16.8799 25.3301 -49.7002 47 -84.7002 47h-12v10h350.33v-10h-10.4004c-24.9404 0 -43.7705 -27.2305 -30.2402 -51.4209l123.96 -209.68l121.45 209.71c13.5195 24.0498 -6.32031 51.3701 -30.2002 51.3701h-10.4004v10z" />
    <glyph glyph-name="z" unicode="z" horiz-adv-x="606" 
d="M598.31 210.07l-36.4131 -210.01h-536.89v7.98047l300.76 546.52h-157.54c-77.0996 0 -120.22 -45.8701 -120.22 -122.65v-4.32031h-10v188.45c15.9805 -6.96973 68.6309 -14.9297 106.321 -15.0996h337.45c35.7998 0 84.5898 6 95.4297 10.96v-6.9502l-289.77 -559.58
h108c88.6504 -0.0703125 163.801 60.3398 192.871 164.7h10z" />
    <glyph glyph-name="zacute" unicode="&#x17a;" horiz-adv-x="606" 
d="M301 661l-6.99023 7.00293c28.25 65.8896 110.5 147.779 154.75 185.659c48.3799 -20.2402 71.7598 -53.4805 85.1396 -99.7207c-63.2998 -41.9805 -159.6 -83.9609 -232.899 -92.9414zM598.319 210.073l-36.4229 -210.01h-536.88v7.98047l300.76 546.52h-157.54
c-77.0996 0 -120.22 -45.8701 -120.22 -122.65v-4.32031h-10v188.45c15.9805 -6.96973 68.6309 -14.9297 106.321 -15.0996h337.45c35.7998 0 84.5898 6 95.4297 10.96v-6.9502l-289.77 -559.58h108c88.6504 -0.0703125 163.801 60.3398 192.871 164.7h10z" />
    <glyph glyph-name="zcaron" unicode="&#x17e;" horiz-adv-x="606" 
d="M324.83 663.97l159.3 175.42l-7.20996 8l-157.54 -64.3301l-168.34 64.4297l-7.20996 -8l168.98 -175.52h12.0195zM598.31 210.06l-36.4229 -210.01h-536.88v7.98047l300.76 546.52h-157.54c-77.0996 0 -120.22 -45.8701 -120.22 -122.65v-4.32031h-10v188.45
c15.9805 -6.96973 68.6309 -14.9297 106.321 -15.0996h337.45c35.7998 0 84.5898 6 95.4297 10.96v-6.9502l-289.77 -559.58h108c88.6504 -0.0703125 163.801 60.3398 192.871 164.7h10z" />
    <glyph glyph-name="zdotaccent" unicode="&#x17c;" horiz-adv-x="606" 
d="M318 664c-40.7002 0 -73.6904 32.9902 -73.6904 73.6904s32.9902 73.6904 73.6904 73.6904s73.6904 -32.9902 73.6904 -73.6904s-32.9902 -73.6904 -73.6904 -73.6904zM598.31 210.07l-36.4229 -210.01h-536.88v7.98047l300.76 546.52h-157.54
c-77.0996 0 -120.22 -45.8701 -120.22 -122.65v-4.32031h-10v188.45c15.9805 -6.96973 68.6309 -14.9297 106.321 -15.0996h337.45c35.7998 0 84.5898 6 95.4297 10.96v-6.9502l-289.77 -559.58h108c88.6504 -0.0703125 163.801 60.3398 192.871 164.7h10z" />
    <glyph glyph-name="fi" unicode="&#xfb01;" horiz-adv-x="905" 
d="M21 599.94l389.58 0.0195312c35.8096 0 84.5098 9.08984 99.3701 15.0801v-190.57h-10v5.40039c0 76.7803 -41.7002 122.65 -119.36 123.69h-100.83v-234.66h76.6396c59.4697 1.0498 99.5293 43.96 99.5293 102.74v2.34961h10v-257.7h-10v3.41992
c0 58.7803 -40.0596 101.69 -99.5293 102.74h-76.6396v-210.04c1.04004 -30.2598 24.0205 -52.3896 52.8604 -52.3896h10.8398v-10h-322.46v10h10.8398c27.7598 0 51.8301 22.1299 51.8301 52.3896v475.04c0 30.2598 -24.0703 52.4902 -51.8301 52.4902h-10.8398v10z
M821.01 537.68l-0.0400391 -475.252c1.03027 -30.2695 23.5801 -52.4092 52.0801 -52.4092h10.8701v-10h-320.95v10h10.8701c27.2998 0 50.8594 21.96 50.9893 52.04v476.36c-0.330078 29.8896 -23.7998 51.6699 -50.9795 51.6699h-10.8701v10h320.42v-10h-10.3096
c-28.5 0 -51.0498 -22.1396 -52.0801 -52.4092z" />
    <glyph glyph-name="fl" unicode="&#xfb02;" horiz-adv-x="1099" 
d="M21 599.94l389.58 0.0195312c35.8096 0 84.5098 9.08984 99.3701 15.0801v-190.57h-10v5.40039c0 76.7803 -41.7002 122.65 -119.36 123.69h-100.83v-234.66h76.6396c59.4697 1.0498 99.5293 43.96 99.5293 102.74v2.34961h10v-257.7h-10v3.41992
c0 58.7803 -40.0596 101.69 -99.5293 102.74h-76.6396v-210.04c1.04004 -30.2598 24.0205 -52.3896 52.8604 -52.3896h10.8398v-10h-322.46v10h10.8398c27.7598 0 51.8301 22.1299 51.8301 52.3896v475.04c0 30.2598 -24.0703 52.4902 -51.8301 52.4902h-10.8398v10z
M1103.51 210.08l-28.8398 -210.05h-1.91992h-509.8v10h10.8496c27.7803 0 51.8604 22.1396 51.8604 52.4092v475.87c-0.280273 29.9502 -24.0703 51.79 -51.6602 51.79h-10.9902v10h322.56v-10h-11c-28.8701 0 -51.7197 -22.1396 -52.7598 -52.4092v-491.25h96.5303
c76.7803 0 150.33 59.2695 175.17 163.64h10z" />
    <glyph glyph-name="Delta" unicode="&#x394;" horiz-adv-x="652" 
d="M321 714h10l316 -704v-10h-642v9.58008zM497.79 49.5801l-207.58 481.97l-211.68 -481.97h419.26z" />
    <glyph glyph-name="Omega" unicode="&#x3a9;" horiz-adv-x="879" 
d="M849.56 259.8l9.99902 0.00878906l-47.7197 -259.8h-329.76l-20 175c107.59 36 180.59 110 181.04 253.63c-0.429688 134.5 -86.1895 235.37 -201.449 235.37c-117.76 0 -205.779 -102.49 -205.89 -239.15c-0.110352 -137.85 70.8896 -216.85 179.08 -249.85l-20 -175
h-327.15l-47.7197 259.8h10c35.1797 -63.3799 57.6895 -84.7803 117.119 -84.7998h187.49c-163.93 0 -308.93 95.4004 -308.93 253.601c0 167.43 178.43 285.399 415 285.399c236.83 0 412.45 -122.31 412.45 -285.39c0 -160.6 -141.45 -253.6 -310.63 -253.6h189.95
c59.4297 0 81.9395 21.4004 117.119 84.7803z" />
    <glyph glyph-name="mu" unicode="&#x3bc;" horiz-adv-x="854" 
d="M873 10l0.00195312 -10.001h-323.81v10h13.54c27.5898 0 34.4395 25.4004 33.3896 37.5107l-32.8701 224.01l-138.42 -192.45s-39.7998 -54.0098 -36.5098 -101.069h-8.32031l-224.69 280.14l-27.1797 -210.16c-0.879883 -10.9297 7.31055 -37.9795 33.3301 -37.9795
h13.54v-10h-193.99v10h13c32.2002 0 59.2598 18.0498 64.4795 52.2295l77.75 549.7h7.25977l298.93 -375.06l267.01 375.08h8.32031l80.3398 -554.76c7.80957 -30.9102 32.6992 -47.1904 61.3691 -47.1904h13.5303z" />
    <glyph glyph-name="pi" unicode="&#x3c0;" horiz-adv-x="783" 
d="M758.8 10l0.150391 -9.98926h-336.55l0.139648 10h10.9004c30.1396 0 54.5996 24.1396 55.1797 54.1299v431.7c-0.549805 29.5195 -24.21 54.1895 -53.6904 54.1895h-85.9502c-28.9404 0 -52.2705 -23.7695 -53.6406 -52.5693v-433.98
c0.950195 -29.6797 25.2803 -53.4697 55.2002 -53.4697h10.9004l0.139648 -10h-336.55l0.139648 10h10.9004c30.1396 0 54.5996 24.1396 55.1797 54.1299v471.7c-0.55957 30.0303 -25.04 54.21 -55.21 54.21h-10.9004l-0.139648 10h733.91l-0.139648 -10h-10.9004
c-29.6299 0 -53.7695 -23.3203 -55.1699 -52.6006v-473.98c0.950195 -29.6797 25.2803 -53.4697 55.2002 -53.4697h10.9004z" />
    <glyph glyph-name="zero" unicode="0" horiz-adv-x="690" 
d="M345.09 714c194.91 0 310.09 -145.2 310.09 -364s-115.18 -364 -310.09 -364s-310.09 145.2 -310.09 364s115.18 364 310.09 364zM345.09 664c-68.6299 0 -100.09 -98.6904 -100.09 -314s31.46 -314 100.09 -314s100.09 98.6904 100.09 314s-31.46 314 -100.09 314z" />
    <glyph glyph-name="one" unicode="1" horiz-adv-x="424" 
d="M37.4902 0l356.549 0.0195312l-0.139648 9.98047h-20.9102c-29.9199 0 -55.1895 23.7998 -55.1895 53.5v650.55h-10c-70.9805 -42.3496 -222.79 -60.9795 -277.8 -63.999v-10h17.7305c40.1299 0 66.0195 -16.7998 66.0195 -69v-506.9
c0 -29.9902 -25.0703 -54.1504 -55.21 -54.1504h-20.9102z" />
    <glyph glyph-name="two" unicode="2" horiz-adv-x="658" 
d="M107.35 455.5h-10.0088l-67.3496 180.2c58.7695 51.2998 164.77 78.2998 261.77 78.2998c162 0 286 -76 286 -205c0 -161 -192 -269 -291.04 -332.65h190.14c59.4297 0 101.939 32.1904 137.119 104.78h10l-67.71 -281.13h-520.5v10c142 177 327 354 327 520
c0 86 -49 140 -128 134c-84 -7 -128 -78 -127.42 -208.5z" />
    <glyph glyph-name="three" unicode="3" horiz-adv-x="602" 
d="M87.3496 467.77l-57.3506 173.201c50.9102 42.0303 140.91 71.0303 248.91 71.0303c159 0 254 -63 254 -172c0 -91.7998 -67.8496 -141.95 -135.279 -145.36c75.4102 -14.4902 164.34 -65.9502 164.64 -194.431c-0.360352 -235.21 -302.36 -331.21 -523.36 -232.21l2 10
c164 -4 306 92 306 238c0 122 -99 167 -185.04 168.37l1.82031 10c92.2197 -3.37012 172.22 73.6299 163.22 170.63c-7 74 -62 103 -122 97c-80 -7 -111 -69 -107.56 -194.23h-10z" />
    <glyph glyph-name="four" unicode="4" horiz-adv-x="643" 
d="M597.8 188.76h-87.1504v-125.4c0.360352 -29.7002 25.4902 -53.3604 55.2002 -53.3604h10.9004l0.139648 -10h-337.46l0.139648 10h10.9004c29.4502 0 54.0605 21.9502 55.1807 51.8604v126.9h-320.65v10l516.28 515.24h9.36035v-420.24h43.5098
c36.8398 0 52.6494 14.71 64.6494 40h10zM153.949 293.76h151.7v147.66z" />
    <glyph glyph-name="five" unicode="5" horiz-adv-x="591" 
d="M520.32 739l-42.4111 -207l-306.77 -25l-19.0498 -83.0703c256.79 61.0703 396.68 -59.6094 388.91 -229.93c-11.3096 -248 -346.01 -323 -531.01 -225l2 10c85 -3 301.22 48.3701 310 197c6.70996 113.53 -112.271 160 -263.011 97.7002l-9 6l83.4502 384.3l297.49 25
c41.7002 0 64.0605 20.0996 79.4004 50h10z" />
    <glyph glyph-name="six" unicode="6" horiz-adv-x="675" 
d="M304.83 365.29l-7.28223 8c55.4805 125.71 345.53 117.7 337.511 -144.29c-4.09961 -134.01 -92.8496 -241 -291 -244c-196.22 -3 -303.899 101 -303.999 330c-0.129883 285 170.53 461 519.05 419.43l3.61035 -7.41016
c-284.93 -88.0195 -297.96 -212.02 -297.96 -433.02c0 -166 10.8604 -249 84.5703 -249c74.0498 0 80.6602 82 80.6602 173c0.0800781 114 -21.1699 146.16 -50 158c-29.5996 12.1602 -58.46 0 -75.1602 -10.71z" />
    <glyph glyph-name="seven" unicode="7" horiz-adv-x="572" 
d="M33.2197 698.13l-28.2207 -233.11h10c14.7598 39.6602 34.9795 60 74.96 60h320.28l-52.0195 -110.95c-42.3496 -90.3301 -168.77 -314.5 -230.529 -414.06h170c25.3096 89.2305 95.3594 306.08 137.279 403.48l127.61 294.64h-529.36z" />
    <glyph glyph-name="eight" unicode="8" horiz-adv-x="636" 
d="M429.85 410.42c104.37 -54.5996 180.981 -99.4199 180.981 -210.11c0 -140.86 -124.45 -214.311 -312.521 -214.311c-125.52 0 -273.13 32.2002 -273.13 173.36c0 97.1201 71.4297 144.63 135.18 166.89c-49.6504 38.8096 -92.1904 94.2793 -92.1904 178.51
c0 132.86 106.6 209.23 245.84 209.23c131.5 0 247.82 -68.3896 247.82 -169.88c0 -72.7402 -61.8301 -117.17 -131.98 -133.689zM311.001 663c-49.5703 2.7002 -78.4785 -34.5703 -78.4785 -84.1406c0 -54.1396 32.54 -80.8398 139.79 -138.229
c18.6797 35.4199 25.1992 86.9199 23.6895 120.37c-2.48047 55 -29.9707 99 -85.001 102zM306.003 35.999c64.75 -6.28027 120.519 30.7705 120.519 84.4707c0 43.2402 -35.3799 79.1406 -157.52 141.53c-15.2598 7.79004 -33.2793 16.6602 -52.1689 27.2598
c-14.5596 -25.9102 -22.9199 -59.0605 -22.9199 -100.181c0 -93.2803 42.2998 -146.311 112.09 -153.08z" />
    <glyph glyph-name="nine" unicode="9" horiz-adv-x="675" 
d="M369.93 330.71l7.2793 -7.99902c-55.5195 -125.71 -344.97 -117.7 -337.29 144.29c3.92969 134.01 92.3301 240.979 291 243.999c195.98 2.98047 304 -101 304 -330c0 -285 -170.81 -461 -519.13 -419l-3.59961 7c284.9 88 297.73 212 297.73 433
c0 166 -11.7695 248 -85.3994 248c-73.9805 0 -79.5205 -81 -79.5205 -172c-0.0996094 -114 21.29 -146.18 50 -158c29.5898 -12.1797 58.2695 0 74.9297 10.71z" />
    <glyph glyph-name="fraction" unicode="&#x2044;" 
d="M498.35 723l-478.351 -711.92l47.5098 -31.0801l477.98 711.15z" />
    <glyph glyph-name="onehalf" unicode="&#xbd;" horiz-adv-x="850" 
d="M575.35 723l-478.351 -711.92l47.5098 -31.0801l477.98 711.15zM24.0391 308.25l228.433 0.000976562v5.40039h-11.29c-16.1602 0 -29.8105 12.8496 -29.8105 28.8896v372.3h-5.40039c-46.5703 -21.8398 -155.57 -33.96 -186.051 -34.5596v-5.40039h4.42969
c24.25 0 40.7998 -9.07031 40.7998 -42.4004v-289.58c0 -16.2002 -13.54 -29.25 -29.8203 -29.25h-11.29v-5.40039zM505.491 251.381l-5.38965 -0.0107422l-49.2402 114.55c37.0596 31.1201 101.869 45.6299 162.789 45.6299c95.04 0 171.7 -41.2305 171.7 -112.49
c0 -84.3604 -98.5596 -148.32 -152.109 -172.96h92.3799c32.0898 0 60.1895 20.1602 79.1895 61.7305h5.40039l-41.71 -187.84h-309.38v5.40039c83.1904 113.42 174.091 218.72 174.091 311.45c0 40.6602 -25.3604 66.71 -65.3604 62.1504
c-43.0801 -4.91016 -62.3105 -48.2402 -62.3604 -127.61z" />
    <glyph glyph-name="onequarter" unicode="&#xbc;" horiz-adv-x="769" 
d="M597.35 723l-478.351 -711.92l47.5098 -31.0801l477.98 711.15zM241.249 313.64l11.4277 -0.000976562v-5.40039h-228.57v5.40039h11.29c16.2803 0 29.8203 13.0498 29.8203 29.25v289.58c0 33.3301 -16.5498 42.4004 -40.7998 42.4004h-4.42969v5.40039
c30.4805 0.599609 139.48 12.7197 186.051 34.5596h5.40039v-372.3c0 -16.04 13.6504 -28.8896 29.8105 -28.8896zM719.307 92.2188h-52.1074v-54.1504c0.240234 -17.7998 15.2998 -31.9697 33.1094 -31.9697h6.54004v-6h-223.48v6h6.54004
c17.6699 0 32.4395 13.1699 33.1094 31.1201v54.9902h-194.24v6l332.63 310.29h5.62012v-244h26.0996c22.0996 0 33.4395 10.4297 40.6396 27.7197h6zM447.779 164.509h75.4199v66.4805z" />
    <glyph glyph-name="threequarters" unicode="&#xbe;" horiz-adv-x="839" 
d="M666.35 723l-478.351 -711.92l47.5098 -31.0801l477.98 711.15zM64.4688 564.95l-39.8379 111.301c31.71 24.0303 90.2402 38.7803 155 37.8799c94.29 -1.32031 149.86 -33.7705 149.86 -97.5107c0 -50.5195 -34.8799 -72.8193 -70.8701 -74.1191
c40.3301 -8.19043 89.0098 -34.4502 89.0098 -107.38c0 -145 -192.19 -180 -315.971 -112l1.08008 5c89.6699 -2 167.89 38.6299 167.89 118c0 67.79 -56.7803 90.5996 -95.9199 91.5596l0.990234 5.40039c50.46 -2.48047 89.3799 42.3193 83.9297 92.0391
c-4.74023 43.2803 -38.8701 51.8604 -66 48c-42.4805 -6.0498 -55.3906 -40.3301 -53.7607 -118.17h-5.40039zM799.171 92.2412h-52.1074v-54.1504c0.240234 -17.7998 15.2998 -31.9697 33.1094 -31.9697h6.54004v-6h-223.48v6h6.54004
c17.6699 0 32.4395 13.1699 33.1094 31.1201v54.9902h-194.24v6l332.63 310.29h5.62012v-244h26.0996c22.0996 0 33.4395 10.4297 40.6396 27.7197h6zM527.644 164.531h75.4199v66.4805z" />
    <glyph glyph-name="onesuperior" unicode="&#xb9;" horiz-adv-x="292" 
d="M34.04 308.25l228.433 0.000976562v5.40039h-11.29c-16.1602 0 -29.8105 12.8496 -29.8105 28.8896v372.3h-5.40039c-46.5703 -21.8398 -155.57 -33.96 -186.051 -34.5596v-5.40039h4.42969c24.25 0 40.7998 -9.07031 40.7998 -42.4004v-289.58
c0 -16.2002 -13.54 -29.25 -29.8203 -29.25h-11.29v-5.40039z" />
    <glyph glyph-name="twosuperior" unicode="&#xb2;" horiz-adv-x="419" 
d="M84.6396 559.26l-5.38965 -0.0107422l-49.2402 114.55c37.0596 31.1201 101.869 45.6299 162.789 45.6299c95.04 0 171.7 -41.2305 171.7 -112.49c0 -84.3604 -98.5596 -148.32 -152.109 -172.96h92.3799c32.0898 0 60.1895 20.1602 79.1895 61.7305h5.40039
l-41.71 -187.84h-309.38v5.40039c83.1904 113.42 174.091 218.72 174.091 311.45c0 40.6602 -25.3604 66.71 -65.3604 62.1504c-43.0801 -4.91016 -62.3105 -48.2402 -62.3604 -127.61z" />
    <glyph glyph-name="threesuperior" unicode="&#xb3;" horiz-adv-x="373" 
d="M59.8496 564.95l-39.8379 111.301c31.71 24.0303 90.2402 38.7803 155 37.8799c94.29 -1.32031 149.86 -33.7705 149.86 -97.5107c0 -50.5195 -34.8799 -72.8193 -70.8701 -74.1191c40.3301 -8.19043 89.0098 -34.4502 89.0098 -107.38
c0 -145 -192.19 -180 -315.971 -112l1.08008 5c89.6699 -2 167.89 38.6299 167.89 118c0 67.79 -56.7803 90.5996 -95.9199 91.5596l0.990234 5.40039c50.46 -2.48047 89.3799 42.3193 83.9297 92.0391c-4.74023 43.2803 -38.8701 51.8604 -66 48
c-42.4805 -6.0498 -55.3906 -40.3301 -53.7607 -118.17h-5.40039z" />
    <glyph glyph-name="ordfeminine" unicode="&#xaa;" horiz-adv-x="390" 
d="M390.88 381.38l4.11133 -0.00976562v-4.37988h-204.74v4.33984h4.33008c11.8896 0 25.1592 8.71973 20.1191 24.1895l-16.1201 33.3896h-99.9902l-14.3203 -30.0996c-8.87012 -17.5195 6.20996 -27.4795 18.9199 -27.4795h4.33008v-4.33984h-112.52v4.37988h4
c14.3496 0 30.1699 6.7998 40.71 22.9902l115.41 230.7c7.13965 15.96 27.5498 58.2197 29.71 74.4893h4.26953l161.82 -305.8c11.0195 -15.7402 26.2998 -22.3701 39.96 -22.3701zM111.151 464.79h74.9199l-37.3398 77.3301z" />
    <glyph glyph-name="ordmasculine" unicode="&#xba;" horiz-adv-x="400" 
d="M199.65 709.79c117.73 0 180.351 -59.5703 180.351 -166.84c0 -106.59 -62.6201 -165.96 -180.351 -165.96c-117.02 0 -179.64 59.3701 -179.64 165.96c0 107.27 62.6201 166.84 179.64 166.84zM199.65 402.54c43.6699 0 59.3398 50.5303 59.3398 140.42
c0 90.5703 -15.6699 141.101 -59.3398 141.101c-42.9697 0 -59.3398 -50.5303 -59.3398 -141.101c0 -89.8896 16.3701 -140.42 59.3398 -140.42z" />
    <glyph glyph-name="asterisk" unicode="*" horiz-adv-x="390" 
d="M202.27 605.22l66.6934 -30.9297l58.6396 -57.9199l-34.6504 -42.4805l-51.1104 -19.8301l-37.6104 73.2002l-8.82031 72.96l-8.83008 -72.8799l-36.96 -73.6699l-51.1104 19.8301l-34.6504 42.4805l58 58.3896l66.5 30.8496l-71.8604 -14.0898l-81.4902 12.3896
l3.05957 54.7305l29.6904 46.0801l73.4502 -37.1201l49.8799 -53.6396l-35.5801 63.9404l-13.4004 81.3301l53 14l53 -14l-12.5996 -81.3301l-35.6299 -64.04l49.8496 53.6299l73.21 37.8701l29.6904 -46.0801l3.05957 -54.7305l-81.2402 -13.1504z" />
    <glyph glyph-name="backslash" unicode="\" horiz-adv-x="439" 
d="M10 696.5l59.0908 26.5l360.51 -708.92l-58.6602 -28.0801z" />
    <glyph glyph-name="bullet" unicode="&#x2022;" horiz-adv-x="389" 
d="M214.71 191.59c-14.3496 -4.80957 -25.6006 -4.82031 -39.9502 -0.0107422c-85.1104 28.3301 -92.8301 36.04 -121.15 121.11c-4.79004 14.5195 -4.7998 25.5498 -0.0195312 40.0303c28.3301 85.1104 36.04 92.8301 121.11 121.15
c14.4004 4.83008 25.6699 4.83008 40.0195 0.0205078c85.1104 -28.3301 92.8301 -36.04 121.15 -121.11c4.79004 -14.5195 4.57031 -26.25 -0.839844 -42.5703c-27.6504 -82.7402 -36.0508 -90.5703 -120.32 -118.62z" />
    <glyph glyph-name="colon" unicode=":" horiz-adv-x="250" 
d="M125 368.51c-49.71 0 -90 40.29 -90 90s40.29 90 90 90s90 -40.29 90 -90s-40.29 -90 -90 -90zM125 -14c-49.71 0 -90 40.29 -90 90s40.29 90 90 90s90 -40.29 90 -90s-40.29 -90 -90 -90z" />
    <glyph glyph-name="comma" unicode="," horiz-adv-x="260" 
d="M44.6904 -129l-3.83984 13c36.0898 16 71.0898 67 18.0898 127c-36.0703 40.8398 -30 110 9 138c45 33 117 14 142 -41c54 -118 -45 -260 -165.25 -237z" />
    <glyph glyph-name="ellipsis" unicode="&#x2026;" horiz-adv-x="740" 
d="M125 -14c-49.71 0 -90 40.29 -90 90s40.29 90 90 90s90 -40.29 90 -90s-40.29 -90 -90 -90zM370 -14c-49.71 0 -90 40.29 -90 90s40.29 90 90 90s90 -40.29 90 -90s-40.29 -90 -90 -90zM615 -14c-49.71 0 -90 40.29 -90 90s40.29 90 90 90s90 -40.29 90 -90
s-40.29 -90 -90 -90z" />
    <glyph glyph-name="exclam" unicode="!" horiz-adv-x="295" 
d="M227.49 362.96l-45.3604 -132.96h-70l-44.6396 132.96l-22.4902 338.64h205zM145.229 -14c-49.71 0 -90 40.29 -90 90s40.29 90 90 90s90 -40.29 90 -90s-40.29 -90 -90 -90z" />
    <glyph glyph-name="exclamdown" unicode="&#xa1;" horiz-adv-x="295" 
d="M149.77 715.6c49.71 0 90 -40.29 90 -90s-40.29 -90 -90 -90s-90 40.29 -90 90s40.29 90 90 90zM67.5098 338.64l45.3604 132.96h70l44.6396 -132.96l22.4902 -338.64h-205z" />
    <glyph glyph-name="numbersign" unicode="#" 
d="M546 436.88h-117.92l-28.21 -160h102.13v-60h-112.71l-38.2402 -216.88h-62l38.2402 216.88h-138l-38.2402 -216.88h-62l38.2402 216.88h-107.29v60h117.87l28.21 160h-102.08v60h112.66l35.8203 203.12h62l-35.8203 -203.12h138l35.8203 203.12h62l-35.8203 -203.12
h107.34v-60zM337.87 276.88l28.21 160h-138l-28.21 -160h138z" />
    <glyph glyph-name="period" unicode="." horiz-adv-x="250" 
d="M125 -14c-49.71 0 -90 40.29 -90 90s40.29 90 90 90s90 -40.29 90 -90s-40.29 -90 -90 -90z" />
    <glyph glyph-name="periodcentered" unicode="&#xb7;" horiz-adv-x="250" 
d="M125 265c-49.71 0 -90 40.29 -90 90s40.29 90 90 90s90 -40.29 90 -90s-40.29 -90 -90 -90z" />
    <glyph glyph-name="question" unicode="?" horiz-adv-x="493" 
d="M50 510.23l-50 114.72c30 52.0498 111 89.0498 221 89.0498c157 0 242 -65 242 -177c0 -82 -46 -126 -147 -200c-41 -30 -81 -58 -50.79 -116.04l-9 -6c-58.21 15.04 -107.21 57.04 -100.21 124.04c9 83 94 81 92 207c-1 76 -33 118 -91 118c-61 0 -97 -47 -97 -153.77
h-10zM226 -14c-50 0 -91 40 -90.7695 90c-0.230469 50 40.7695 90 90.7695 90c49 0 89 -40 89.2305 -90c-0.230469 -50 -40.2305 -90 -89.2305 -90z" />
    <glyph glyph-name="questiondown" unicode="&#xbf;" horiz-adv-x="523" 
d="M267 714c50 0 91 -40 90.7695 -90c0.230469 -50 -40.7695 -90 -90.7695 -90c-49 0 -89 40 -89.2305 90c0.230469 50 40.2305 90 89.2305 90zM443 189.77l50 -114.72c-30 -52.0498 -111 -89.0498 -221 -89.0498c-157 0 -242 65 -242 177c0 82 46 126 147 200
c41 30 81 58 50.79 116.04l9 6c58.21 -15.04 107.21 -57.04 100.21 -124.04c-9 -83 -94 -81 -92 -207c1 -76 33 -118 91 -118c61 0 97 47 97 153.77h10z" />
    <glyph glyph-name="quotedbl" unicode="&#x22;" horiz-adv-x="394" 
d="M46.9004 500l-16.9004 5.24023c34.8398 87.6699 39.4697 122.09 29.3301 194.76l131.2 14c3.15039 -51.54 -26.2197 -178.66 -143.63 -214zM220.55 499.99l-16.9004 5.24023c34.8398 87.6699 39.4697 122.09 29.3301 194.76l131.2 14
c3.15039 -51.54 -26.2197 -178.66 -143.63 -214z" />
    <glyph glyph-name="quotesingle" unicode="'" horiz-adv-x="220" 
d="M46.9004 500l-16.9004 5.24023c34.8398 87.6699 39.4697 122.09 29.3301 194.76l131.2 14c3.15039 -51.54 -26.2197 -178.66 -143.63 -214z" />
    <glyph glyph-name="semicolon" unicode=";" horiz-adv-x="260" 
d="M125 397.23c-49.71 0 -90 40.29 -90 90s40.29 90 90 90s90 -40.29 90 -90s-40.29 -90 -90 -90zM44.6904 -129l-3.83984 13c36.0898 16 71.0898 67 18.0898 127c-36.0703 40.8398 -30 110 9 138c45 33 117 14 142 -41c54 -118 -45 -260 -165.25 -237z" />
    <glyph glyph-name="slash" unicode="/" horiz-adv-x="439" 
d="M10 14.0801l360.521 708.92l59.0801 -26.5l-360.94 -710.5z" />
    <glyph glyph-name="underscore" unicode="_" horiz-adv-x="500" 
d="M0 -110v50h500v-50h-500z" />
    <glyph glyph-name="braceleft" unicode="{" horiz-adv-x="407" 
d="M85 314.47l0.00976562 10.0098c17.5801 0.120117 35.1602 0.240234 42.7402 15.3604c10.25 25.1602 -23.75 109.16 -23.75 181.16c0 112 82 212 281.88 211.78l1.67969 -8c-91.5703 -23.7803 -78.5703 -96.7803 -78.1104 -188.57
c-0.459961 -202.21 -62.46 -196.21 -138.89 -219.82c76.4297 -22.3896 138.43 -41.3896 138.89 -206.17c-0.459961 -97.2197 -35.46 -178.22 58.1104 -202.22l-1.67969 -8c-199.88 0 -261.88 101 -261.88 209c0 77 32 154 21 183c-6 16 -24 21 -40 22.4697z" />
    <glyph glyph-name="braceright" unicode="}" horiz-adv-x="407" 
d="M20 724.78l1.68945 7.99023c199.88 0.219727 281.88 -99.7803 281.88 -211.78c0 -72 -34 -156 -23.75 -181.16c7.58008 -15.1201 25.1602 -15.2402 42.7402 -15.3604v-10c-16 -1.46973 -34 -6.46973 -40 -22.4697c-11 -29 21 -106 21 -183c0 -108 -62 -209 -261.88 -209
l-1.67969 8c93.5703 24 58.5703 105 58.1104 202.22c0.459961 164.78 62.46 183.78 138.89 206.17c-76.4297 23.6104 -138.43 17.6104 -138.89 219.82c0.459961 91.79 13.46 164.79 -78.1104 188.57z" />
    <glyph glyph-name="bracketleft" unicode="[" horiz-adv-x="472" 
d="M120 -90v812h309.18v-10l-104.18 -50v-692l107.49 -50v-10h-312.49z" />
    <glyph glyph-name="bracketright" unicode="]" horiz-adv-x="472" 
d="M43.3096 722h309.18v-812h-312.49v10l107.49 50v692l-104.18 50v10z" />
    <glyph glyph-name="parenleft" unicode="(" horiz-adv-x="478" 
d="M442.51 732l6.02051 -8.00781c-106.11 -50.6504 -162.011 -180.551 -158.521 -388.491c3.83008 -228.11 58.5 -357.511 156.71 -426.511l-6 -9c-245.68 59 -350.72 240.52 -350.72 433.72c0 209.17 105.5 371.59 352.51 398.29z" />
    <glyph glyph-name="parenright" unicode=")" horiz-adv-x="478" 
d="M37.79 -100l-5.97949 9.00781c98.21 69 152.88 198.4 156.71 426.511c3.49023 207.94 -52.4102 337.841 -158.521 388.491l6 8c247.01 -26.7002 352.51 -189.12 352.51 -398.29c0 -193.2 -105.04 -374.72 -350.72 -433.72z" />
    <glyph glyph-name="emdash" unicode="&#x2014;" horiz-adv-x="800" 
d="M0 261v60h800v-60h-800z" />
    <glyph glyph-name="endash" unicode="&#x2013;" horiz-adv-x="500" 
d="M0 261v60h500v-60h-500z" />
    <glyph glyph-name="hyphen" unicode="-" horiz-adv-x="380" 
d="M30 291.9l10 40.0996h300l10 -40.0996l-10 -40.9004h-300z" />
    <glyph glyph-name="softhyphen" unicode="&#xad;" horiz-adv-x="380" 
d="M30 291.9l10 40.0996h300l10 -40.0996l-10 -40.9004h-300z" />
    <glyph glyph-name="guillemotleft" unicode="&#xab;" horiz-adv-x="541" 
d="M264.8 489.71l-224.8 -197.96l224.8 -204.04l9 7l-78.7998 197.04l77.7998 192.96zM472.86 489.71l-224.8 -197.96l224.8 -204.04l9 7l-78.7998 197.04l77.7998 192.96z" />
    <glyph glyph-name="guillemotright" unicode="&#xbb;" horiz-adv-x="541" 
d="M69 87.71l224.8 204.04l-224.8 197.96l-8 -5l77.7998 -192.96l-78.7998 -197.04zM277.06 87.71l224.8 204.04l-224.8 197.96l-8 -5l77.7998 -192.96l-78.7998 -197.04z" />
    <glyph glyph-name="guilsinglleft" unicode="&#x2039;" horiz-adv-x="333" 
d="M264.8 489.71l-224.8 -197.96l224.8 -204.04l9 7l-78.7998 197.04l77.7998 192.96z" />
    <glyph glyph-name="guilsinglright" unicode="&#x203a;" horiz-adv-x="333" 
d="M69 87.71l224.8 204.04l-224.8 197.96l-8 -5l77.7998 -192.96l-78.7998 -197.04z" />
    <glyph glyph-name="quotedblbase" unicode="&#x201e;" horiz-adv-x="518" 
d="M45.6104 -148l-4.20117 14c39.5303 18 77.8604 73 19.8105 139.13c-39.5098 44.7305 -32.8594 120.48 9.85059 151.15c49.29 36.1396 128.15 15.3301 155.53 -44.9102c59.1396 -129.37 -49.29 -284.37 -180.99 -259.37zM285.719 -148l-4.20117 14
c39.5303 18 77.8604 73 19.8105 139.13c-39.5098 44.7305 -32.8594 120.48 9.85059 151.15c49.29 36.1396 128.15 15.3301 155.53 -44.9102c59.1396 -129.37 -49.29 -284.37 -180.99 -259.37z" />
    <glyph glyph-name="quotedblleft" unicode="&#x201c;" horiz-adv-x="528" 
d="M232.54 842.71l4.21094 -14.2393c-39.5303 -17.5195 -77.8604 -73.3799 -19.8105 -139.09c39.5098 -44.7305 32.8594 -120.48 -9.85059 -151.15c-49.29 -36.1396 -128.15 -15.3301 -155.53 44.9102c-59.5596 129.24 49.2803 284.76 180.98 259.569zM473.541 842.711
l4.21094 -14.2393c-39.5303 -17.5195 -77.8604 -73.3799 -19.8105 -139.09c39.5098 -44.7305 32.8594 -120.48 -9.85059 -151.15c-49.29 -36.1396 -128.15 -15.3301 -155.53 44.9102c-59.5596 129.24 49.2803 284.76 180.98 259.569z" />
    <glyph glyph-name="quotedblright" unicode="&#x201d;" horiz-adv-x="498" 
d="M45.0996 541.37l-4.01953 13.5703c37.6504 16.6904 74.1602 69.8906 18.8799 132.471c-37.6299 42.5996 -31.29 114.739 9.38965 143.939c46.9404 34.4199 122.04 14.5996 148.12 -42.7705c56.7197 -123.08 -46.9404 -271.2 -172.37 -247.21zM275.09 541.381
l-4.01953 13.5703c37.6504 16.6904 74.1602 69.8906 18.8799 132.471c-37.6299 42.5996 -31.29 114.739 9.38965 143.939c46.9404 34.4199 122.04 14.5996 148.12 -42.7705c56.7197 -123.08 -46.9404 -271.2 -172.37 -247.21z" />
    <glyph glyph-name="quoteleft" unicode="&#x2018;" horiz-adv-x="278" 
d="M232.54 842.71l4.21094 -14.2393c-39.5303 -17.5195 -77.8604 -73.3799 -19.8105 -139.09c39.5098 -44.7305 32.8594 -120.48 -9.85059 -151.15c-49.29 -36.1396 -128.15 -15.3301 -155.53 44.9102c-59.5596 129.24 49.2803 284.76 180.98 259.569z" />
    <glyph glyph-name="quoteright" unicode="&#x2019;" horiz-adv-x="268" 
d="M45.0996 541.37l-4.01953 13.5703c37.6504 16.6904 74.1602 69.8906 18.8799 132.471c-37.6299 42.5996 -31.29 114.739 9.38965 143.939c46.9404 34.4199 122.04 14.5996 148.12 -42.7705c56.7197 -123.08 -46.9404 -271.2 -172.37 -247.21z" />
    <glyph glyph-name="quotesinglbase" unicode="&#x201a;" horiz-adv-x="278" 
d="M45.6104 -141l-4.20117 13.9893c39.5303 18 77.8604 74 19.8105 139.23c-39.5098 44.7305 -32.8594 120.48 9.85059 151.15c49.29 36.1396 128.15 15.3301 155.53 -44.9102c59.1396 -129.46 -49.29 -284.46 -180.99 -259.46z" />
    <glyph glyph-name="space" unicode=" " horiz-adv-x="250" 
 />
    <glyph glyph-name="florin" unicode="&#x192;" horiz-adv-x="578" 
d="M58.6396 599.94l389.622 0.00878906c35.8096 0 84.5098 9.08984 99.3701 15.0801v-190.57h-10v5.40039c0 76.7803 -41.7002 122.65 -119.36 123.69h-92.9902v-234.66h68.79c59.4697 1.0498 99.5293 43.96 99.5488 102.74v4.34961h9.98047v-261.7h-9.98047v5.41992
c-0.00976562 58.7803 -40.0801 101.69 -99.5498 102.74h-68.79v-192.43c0 -209 -161.16 -258 -305.04 -258v10c83.7598 47 100.8 116 101.01 218v488.48c-0.5 29.7803 -24.3301 53.5205 -51.7705 53.5205h-10.8398v7.92969z" />
    <glyph glyph-name="cent" unicode="&#xa2;" horiz-adv-x="578" 
d="M534.17 304.23l22.6699 -138.03c-25.7305 -44.1396 -80.7109 -85.6699 -192.641 -88.1299l-7.16016 -87.0703l-46.0195 3l6.83984 85.1396c-187.6 11.6797 -302.85 108.8 -302.85 268.859c0 233.91 233.23 270 346.03 268.89l6.73047 83.8301l47.5195 -1.0498
l-6.99023 -85c58.0703 -4.91016 105.101 -17.0703 133.57 -28.5801l-11.0898 -147.1h-6.11035c-25.7998 89.6504 -69.0996 122.841 -119.96 131.911l-36.9697 -449.58c107.58 3.51953 132.35 48.46 160.319 182.91h6.11035zM321.58 125.32l36 448.17
c-110.7 -4.92969 -156.53 -86.0996 -156.07 -222.01c-0.419922 -127.51 39.8105 -207.25 120.07 -226.16z" />
    <glyph glyph-name="currency" unicode="&#xa4;" horiz-adv-x="541" 
d="M491.7 153.65l-21.2002 -21.2295l-60.0801 60.0801c-79.8604 -70.7695 -200.15 -71.25 -280.57 -1.44043l-58.6299 -58.6299l-21.21 21.21l58.6104 58.6104c-70.0996 80.4199 -69.7197 200.93 1.15039 280.91l-59.7598 59.7598l21.21 21.21l59.9502 -59.9502
c79.96 68.2803 198.5 67.7998 277.93 -1.44043l61.3896 61.3896l21.21 -21.21l-61.4102 -61.4102c68.9404 -79.4199 69.3203 -197.74 1.14062 -277.59zM139.92 222.631c71.4697 -71.4697 187.34 -71.4697 258.81 0s71.4697 187.34 0 258.81s-187.34 71.4697 -258.81 0
s-71.4697 -187.34 0 -258.81z" />
    <glyph glyph-name="dollar" unicode="$" horiz-adv-x="615" 
d="M357.02 456.85l122.65 -56.5986c74.3896 -34.2197 122.39 -97.2197 115.39 -194.22c-9.28027 -132.65 -108.9 -209 -274.12 -219l-6.86035 -89l-47.9697 3l6.5 85c-111.72 1 -194.399 29.8701 -228.199 64.6396c-22.4502 48.8701 -1.66992 146.57 31.5605 189.41h8.79004
c-6.28027 -98.4902 67.1699 -191.67 191.76 -202.91l17.3398 226.93l-120.24 55.54c-91.5703 42.3896 -134.57 120.39 -122.57 215.39c14 116 99 179 233 179c11.4004 0 26.6807 -0.450195 44.0908 -1.25l5.75 75.2305l48.5195 -1.0498l-5.91016 -76.9404
c25.7002 -1.71973 52.4404 -3.87988 76.3408 -6.25977h77.8096l-21.5801 -162.71h-9.62988c-0.360352 64.5195 -47.3203 111.079 -126.641 120.989zM292.77 486.561l17.4697 -8.06934l14.1504 185.1c-72.6699 -4.19043 -116.59 -37.7607 -120.33 -83.5605
c-4 -48 39 -71 88.71 -93.4697zM340.56 242.501l-15.8096 -205.54c80.4102 6.84961 118.29 50.3096 118.2 97.54c0.0996094 40.8096 -28.8809 73.3896 -102.391 108z" />
    <glyph glyph-name="Euro" unicode="&#x20ac;" horiz-adv-x="693" 
d="M667.48 213.98l8.85156 -0.00195312v-164.92c-42.3096 -44.0703 -152.31 -62.0703 -229.31 -62.0703c-191.94 0 -331.011 112.34 -367.721 276.62h-119.28l19 50h92.46c-1.09961 11.9199 -1.69922 24.0596 -1.7793 36.3896
c0.0195312 11.3604 0.479492 22.5703 1.37988 33.6104h-111.07l18 50h100.34c35 164.82 173.7 280.391 371.66 280.391c76 0 193 -17 226.06 -59.3096l-52.5801 -154.7h-10c4.51953 127 -76.4805 164 -146.48 164c-105.43 0 -163.149 -84.5801 -178.27 -230.38h312.2
l-17.5801 -50h-298.67v-32.6104c0.0195312 -12.8096 0.279297 -25.2793 0.779297 -37.3896h274.68l-16.5801 -50h-254.41c15.8496 -144.3 74.75 -226.609 191.84 -226.609c100 0 154 61 186.48 176.98z" />
    <glyph glyph-name="sterling" unicode="&#xa3;" horiz-adv-x="620" 
d="M605.99 219.4h9.99121l-45.4297 -195.4c-65.5703 -30 -179.57 -39 -232.57 -32c-89 12 -138 34 -201 32c-24 -1 -88 -24 -96.9805 -34h-10v10c24.6602 48.4199 76.8799 145.26 81.8994 318.74h-81.5898l17.2598 55.8604h64.3203
c-3.12988 174.21 57.0303 326.5 276.101 339.39c103 6 174 -21 202.52 -57.2998l-47.3496 -141.2h-10c-4.67969 101.83 -32.8896 150.6 -108.39 148.5c-107.79 -3 -117.521 -114.78 -107.65 -289.38h180.64l-21.2598 -55.8604h-157.98
c-1.33008 -166.73 -57.46 -217.12 -135.12 -239.86c47.46 8.90039 94.4102 -5.45996 156.59 -10.8896c103 -9 206 31 266 151.4z" />
    <glyph glyph-name="yen" unicode="&#xa5;" horiz-adv-x="729" 
d="M525.51 700.02l249.157 -0.0205078v-10.0195h-14c-42 0 -80.5195 -27.9004 -100.81 -58.7705l-130.84 -206.31h93.7305v-50h-125.44l-33.71 -53.1504v-6.83984h159.15v-50h-159.14v-192.04c0.650391 -34.8301 29.0508 -62.8799 64.0508 -62.8799h12.6504l0.160156 -10
h-358.75l0.160156 10h12.6504c34.8096 0 63.0791 27.7402 64.0391 62.2998v192.63h-161.09v50h161.09v7.37012l-32.2305 52.6299h-128.86v50h98.2402l-127.31 207.87c-19.6201 30.2402 -58.5 57.25 -99.4199 57.25h-14v9.96973h386.34v-9.96973h-12.5996
c-29.21 0 -49.6396 -33.5498 -35.0996 -61.8994l137.46 -247.38l142.08 247.32c15.5898 28.3604 -7.83008 61.9199 -35.0605 61.9199h-12.5996v10.0195z" />
    <glyph glyph-name="approxequal" unicode="&#x2248;" horiz-adv-x="482" 
d="M67.7998 329.68l-47.8096 43.3604c5.66992 8.95996 55.6699 79.96 138.67 70.96c61 -6 130 -58 165 -60c34.4697 -1.96973 66 26 93.29 48.1797l45.5303 -43.3799c-26.8203 -26.7998 -72.8203 -79.7998 -146.82 -69.7998c-58 8 -118 56 -164 60
c-33.4199 2.91016 -51 -17 -83.8604 -49.3203zM67.79 159.68l-47.8096 43.3604c5.66992 8.95996 55.6699 79.96 138.67 70.96c61 -6 130 -58 165 -60c34.4697 -1.96973 66 26 93.29 48.1797l45.5303 -43.3799c-26.8203 -26.7998 -72.8203 -79.7998 -146.82 -69.7998
c-58 8 -118 56 -164 60c-33.4199 2.91016 -51 -17 -83.8604 -49.3203z" />
    <glyph glyph-name="asciitilde" unicode="~" horiz-adv-x="494" 
d="M393.39 362.65l67.4189 -0.00976562c30.1299 -108.57 -43.8203 -158.95 -115.12 -158.95c-74.0303 0 -150.96 96.3799 -205.84 98.96c-33.3096 1.57031 -58.6396 -23.9795 -42.5996 -93.96h-65.4102c-23.1201 104.45 40.8799 157.67 108.28 158.95
c74.9199 1.41992 158.53 -97.4805 205.87 -98.9404c39.3398 -1.21973 75.1699 33.0703 47.4004 93.9502z" />
    <glyph glyph-name="divide" unicode="&#xf7;" horiz-adv-x="481" 
d="M240.5 416.07c-28.7695 0 -52.0898 23.3203 -52.0898 52.0898s23.3203 52.0898 52.0898 52.0898s52.0898 -23.3203 52.0898 -52.0898s-23.3203 -52.0898 -52.0898 -52.0898zM40 277.25v65h401.72v-65h-401.72zM240.5 100.02
c-28.7695 0 -52.0898 23.3203 -52.0898 52.0898s23.3203 52.0898 52.0898 52.0898s52.0898 -23.3203 52.0898 -52.0898s-23.3203 -52.0898 -52.0898 -52.0898z" />
    <glyph glyph-name="equal" unicode="=" horiz-adv-x="481" 
d="M40 353.89v65h401.72v-65h-401.72zM40 178.89v65h401.72v-65h-401.72z" />
    <glyph glyph-name="greater" unicode="&#x3e;" horiz-adv-x="481" 
d="M40 526.25l401.72 -186.989v-59l-401.72 -187v71l308.67 145.72l-308.67 145.27v71z" />
    <glyph glyph-name="greaterequal" unicode="&#x2265;" 
d="M40 586.25l401.72 -186.989v-59l-401.72 -187v71l308.67 145.72l-308.67 145.27v71zM40 33.2607v65h401.72v-65h-401.72z" />
    <glyph glyph-name="infinity" unicode="&#x221e;" horiz-adv-x="633" 
d="M316.3 244.63c-34.1699 -48.6797 -91.7793 -90.0996 -154.359 -90.0996c-74.6504 0 -132.87 62.5098 -131.9 142.21c0.980469 80.0098 59.0801 142.72 131.89 142.72c58.1699 0 115.729 -41.7305 155.02 -89.3604c38.1504 46.7998 96.0107 89.3701 154.371 89.3701
c72.8096 0 130.909 -62.71 131.89 -142.72c0.969727 -79.7002 -57.25 -142.21 -131.9 -142.21c-64.2402 0 -121.58 43.3301 -155.01 90.0898zM161.94 217.54c45.0098 0 87.5 39.4111 115.29 79.7207c-30.71 39.7998 -70.4404 79.2002 -115.301 79.2002
c-34.8398 0 -66.8896 -36.1904 -66.8896 -79.8408c0 -43.1602 32.0303 -79.0801 66.9004 -79.0801zM471.341 217.541c34.8701 0 66.9004 35.9092 66.9004 79.0693c0 43.6504 -32.0498 79.8408 -66.8896 79.8408c-44.6797 0 -86.4102 -41.9102 -115.311 -79.21
c29.5996 -43.25 70.0596 -79.7002 115.3 -79.7002z" />
    <glyph glyph-name="integral" unicode="&#x222b;" horiz-adv-x="641" 
d="M436.5 792c18 2 117.011 10.0098 171.011 -26.9902c37 -26 47 -73 13 -104c-34.0596 -31.0596 -80 -14 -101 12c-21.8096 27 -16 62.9902 -46 60.9902c-15.9697 -1.05957 -29 -9 -32 -70c-26 -461 -34 -600 -36 -622c-13 -185 -113 -224 -206 -233
c-40 -4 -123 -7 -169 29c-27 21 -45.5 66 -13 100c32.96 34 79 22 101 -8c20 -28 15.9404 -65 47 -63c17.9297 1 25.9893 16 28.9893 70c17.1104 308.05 31 539 35 622c9 174 120 224 207 233z" />
    <glyph glyph-name="less" unicode="&#x3c;" horiz-adv-x="501" 
d="M441.72 526.25v-71l-308.67 -145.28l308.67 -145.72v-71l-401.72 187v59z" />
    <glyph glyph-name="lessequal" unicode="&#x2264;" horiz-adv-x="501" 
d="M441.72 586.25v-71l-308.67 -145.28l308.67 -145.72v-71l-401.72 187v59zM40 33.25v65h401.72v-65h-401.72z" />
    <glyph glyph-name="logicalnot" unicode="&#xac;" 
d="M40 407.23h521.72v-212.66h-65v147.66h-456.72v65z" />
    <glyph glyph-name="minus" unicode="&#x2212;" horiz-adv-x="481" 
d="M40 277.25v65h401.72v-65h-401.72z" />
    <glyph glyph-name="multiply" unicode="&#xd7;" horiz-adv-x="410" 
d="M370.02 428.8l-119.05 -119.05l119.05 -119.05l-45.96 -45.96l-119.05 119.05l-119.05 -119.05l-45.96 45.96l119.05 119.05l-119.05 119.05l45.96 45.96l119.05 -119.05l119.05 119.05z" />
    <glyph glyph-name="notequal" unicode="&#x2260;" horiz-adv-x="481" 
d="M441.72 353.89h-121.61l-52.6699 -110h174.29v-65h-205.42l-58.0498 -121.23l-61.21 27.5801l45.1104 93.6504h-122.16v65h153.47l52.9902 110h-206.46v65h237.77l52.8301 109.67l59.9404 -27.5596l-39.3203 -82.1104h90.5v-65z" />
    <glyph glyph-name="partialdiff" unicode="&#x2202;" horiz-adv-x="647" 
d="M74.6104 587.39l-8.98926 7c49.3096 97.6104 159.31 131.61 263.31 120.61c189 -20 292 -176 283 -382c-9 -208 -117 -335 -313 -347c-237.03 -15 -304.92 174 -252 307c43.9902 110.41 181.721 197.75 351.57 117.32c-7.03027 96.7598 -34.7207 165.04 -83.5811 198.68
c-53 37 -170 54 -240.31 -21.6104zM399.931 333l-0.000976562 29.7295c-93.8496 22.4902 -136.399 -42.1396 -153.999 -131.729c-20 -102 7.7002 -199.69 53 -195c58 6 96 131 101 297z" />
    <glyph glyph-name="percent" unicode="%" horiz-adv-x="777" 
d="M544.06 709l39.249 -16.9912l-372.35 -711l-44.7002 19l345.66 653.45c-35.9697 -23.6602 -72.7393 -26.46 -103.739 -22.46c-16.6699 2.32031 -31.3604 6.35059 -44.8008 11.1309c13.4805 -27.8896 18.3809 -63.29 13.8008 -105.13
c-12.0996 -110.63 -90.3594 -176 -210.699 -176c-107.24 0 -160.471 69.0898 -143.311 186c15.4102 104.97 92.04 167 206.31 167h1c103.69 1 118.69 -45 178.69 -49c55 -4 102 28 134.89 44zM249.089 536.009c10.0996 86.7402 1.08887 138 -24.2812 138
c-27.7695 0 -51.4297 -50.8896 -63.6992 -137c-12.0596 -85.46 -3.97949 -136 21.7607 -136.08c31.6504 0.799805 56.25 50.9697 66.2197 135.08zM590.138 339.009c102.78 0 157.769 -65.7402 148.059 -177c-9.66016 -110.63 -88.0498 -176 -211.06 -176
c-107.33 0 -160.42 69.0898 -142.939 186c15.7002 104.97 92.1904 167 205.94 167zM603.546 161.009c10.3701 86.7402 1.20898 138.011 -24.6514 138.011c-27.7803 0 -51.2998 -50.8896 -63.3301 -137c-12.0596 -85.46 -4.10938 -136.01 21.4004 -136.09
c31.6904 0.0595703 56.4209 50.2295 66.5811 135.079z" />
    <glyph glyph-name="perthousand" unicode="&#x2030;" horiz-adv-x="1167" 
d="M544.06 709l39.249 -16.9912l-372.35 -711l-44.7002 19l345.66 653.45c-35.9697 -23.6602 -72.7393 -26.46 -103.739 -22.46c-16.6699 2.32031 -31.3604 6.35059 -44.8008 11.1309c13.4805 -27.8896 18.3809 -63.29 13.8008 -105.13
c-12.0996 -110.63 -90.3594 -176 -210.699 -176c-107.24 0 -160.471 69.0898 -143.311 186c15.4102 104.97 92.04 167 206.31 167h1c103.69 1 118.69 -45 178.69 -49c55 -4 102 28 134.89 44zM249.089 536.009c10.0996 86.7402 1.08887 138 -24.2812 138
c-27.7695 0 -51.4297 -50.8896 -63.6992 -137c-12.0596 -85.46 -3.97949 -136 21.7607 -136.08c31.6504 0.799805 56.25 50.9697 66.2197 135.08zM590.138 339.009c102.78 0 157.769 -65.7402 148.059 -177c-9.66016 -110.63 -88.0498 -176 -211.06 -176
c-107.33 0 -160.42 69.0898 -142.939 186c15.7002 104.97 92.1904 167 205.94 167zM981.136 339.009c102.78 0 157.769 -65.7402 148.059 -177c-9.66016 -110.63 -88.0498 -176 -211.06 -176c-107.33 0 -160.42 69.0898 -142.939 186c15.7002 104.97 92.1904 167 205.94 167
zM603.544 161.009c10.3701 86.7402 1.20898 138.011 -24.6514 138.011c-27.7803 0 -51.2998 -50.8896 -63.3301 -137c-12.0596 -85.46 -4.10938 -136.01 21.4004 -136.09c31.6904 0.0595703 56.4209 50.2295 66.5811 135.079zM994.533 161.02
c10.3604 86.7402 1.20898 138.011 -24.6514 138.011c-27.7803 0 -51.2998 -50.8896 -63.3301 -137c-12.0596 -85.46 -4.10938 -136.01 21.4004 -136.09c31.6904 0.0595703 56.4209 50.2295 66.5811 135.079z" />
    <glyph glyph-name="plus" unicode="+" horiz-adv-x="481" 
d="M441.72 342.25v-65h-168.36v-168.36h-65v168.36h-168.36v65h168.36v168.36h65v-168.36h168.36z" />
    <glyph glyph-name="plusminus" unicode="&#xb1;" horiz-adv-x="481" 
d="M273.36 412.25h168.36v-65h-168.36v-168.36h-65v168.36h-168.36v65h168.36v168.36h65v-168.36zM40.001 50v65h401.72v-65h-401.72z" />
    <glyph glyph-name="product" unicode="&#x220f;" horiz-adv-x="853" 
d="M818.8 -190l0.150391 -9.99902h-336.55l0.139648 10h10.9004c30.1396 0 54.5996 24 55.1797 54v731.81c-0.549805 29.5195 -24.21 54.1895 -53.6904 54.1895h-135.95c-28.9404 0 -52.2705 -23.7695 -53.6406 -52.5693v-734.43c0.950195 -29 25.2803 -53 55.2002 -53
h10.9004l0.139648 -10h-336.55l0.139648 10h10.9004c30.1396 0 54.5996 24 55.1797 54v771.81c-0.55957 30.0303 -25.04 54.21 -55.21 54.21h-10.9004l-0.139648 10h783.91l-0.139648 -10h-10.9004c-29.6299 0 -53.7695 -23.3203 -55.1699 -52.6006v-774.42
c0.950195 -29 25.2803 -53 55.2002 -53h10.9004z" />
    <glyph glyph-name="radical" unicode="&#x221a;" horiz-adv-x="591" 
d="M23 378.46l-13.0107 52l234.95 58.7998l75.7695 -257.2l209.51 611.13l55 -2l-327.6 -988.18l-173.31 540.34z" />
    <glyph glyph-name="summation" unicode="&#x2211;" horiz-adv-x="637" 
d="M607.84 175.29l10.0283 -0.00195312l-38.29 -356.29h-554.56v11l277.3 402.39l-271.76 457.61v10h425.12c43.0996 0.410156 100.67 10.3701 119.229 18.1904v-205.77l-10.0996 0.150391v7.82031c0.19043 79.7803 -47.4395 127.98 -128.249 129.61h-158.22l177.35 -305.75
l-244.59 -350.25h202.4c90.0996 6.2998 164.68 72.3799 194.34 181.29z" />
    <glyph glyph-name="ampersand" unicode="&#x26;" horiz-adv-x="911" 
d="M920 11l0.711914 -10.9707c-95.4697 -10.8398 -215.63 -24.1201 -319.78 27.1602c-51.0801 -23.46 -116.36 -37.1699 -199.94 -37.1699c-126 0 -376 31 -376 221c0 110.14 84.5898 165.27 158.71 185.63c-26.5498 42.9805 -42.71 87.8008 -42.71 134.4
c0 138.96 143 182.96 269 182.96c85 0 182 -20 215.38 -70.8496l-47.25 -163.2h-9.12988c-1 86.0498 -22 184.05 -116 184.05c-61 0 -102 -42 -102 -101.4c0 -73.5996 62 -133.6 176 -231.6l133.89 -115.02c12.79 54.96 9.34961 111.89 -9.89062 153.02
c-16 34 -37 46 -59.2402 45.5898h-14.4004v10h255.83v-10h-13.7598c-31.4199 0.410156 -31.4199 -22.5898 -34.4199 -57.5898c-5.99023 -70.2305 -18.6602 -142.851 -51.5498 -204.771c84.3096 -73.4297 140.92 -119.189 186.55 -141.239zM237.992 244.029
c11 -145 133.01 -204 225.01 -204c32.3604 0 60.8301 7.19043 85.46 19.6201c-56.29 41.0098 -154.91 124.14 -181.46 145.38c-43.3701 35.5801 -85.6396 72.9502 -121.67 112.061c-6.12988 -18.9805 -9.58984 -42.9307 -7.33984 -73.0605z" />
    <glyph glyph-name="at" unicode="@" horiz-adv-x="998" 
d="M507.31 189.96l-136.061 0.00292969c-62.9102 -81.2402 -104.92 -113.891 -166.439 -116.971c-138 -7 -233.8 139 -158 322c84 203 327 328 584 293c238 -33 348 -185 343 -374c-8 -307 -311 -561 -765.97 -377l-4 10c335.97 -137 596.97 64 614.97 374
c10 172 -59 290 -194 321c-139 32 -320 -34 -423 -252c-61 -128 -77 -269 3 -272c73 -3 133 109 183.94 173l127.04 173.05s46.3496 57.3398 54.7295 76.8594h6.71973l83.4102 -403.7c6.76953 -33.2402 20.2197 -47.0205 39.9297 -47.0205h5.11035l-1.32031 -7.45996
h-238.67l1.2998 7.38965h6.95996c16.5996 0 46.04 16.9697 41.4502 46.8301zM483.479 345.953l-85.8496 -120.86h104.33z" />
    <glyph glyph-name="bar" unicode="|" horiz-adv-x="265" 
d="M100 -180v880h65v-880h-65z" />
    <glyph glyph-name="brokenbar" unicode="&#xa6;" horiz-adv-x="265" 
d="M100 350v350h65v-350h-65zM100 -180v350h65v-350h-65z" />
    <glyph glyph-name="copyright" unicode="&#xa9;" horiz-adv-x="848" 
d="M424 714c201.03 0 364 -162.97 364 -364s-162.97 -364 -364 -364s-364 162.97 -364 364s162.97 364 364 364zM424 661.83c-172 0.169922 -312 -139.83 -311.83 -311.83c-0.169922 -172 139.83 -312 311.83 -311.83c172 -0.169922 312 139.83 311.83 311.83
c0.169922 172 -139.83 312 -311.83 311.83zM610.08 325.78l5.90137 0.0410156l23.4697 -107.33c-48.5098 -56.8096 -116.6 -91.6299 -205.5 -91.6299c-143.96 1.15039 -248.96 97.1504 -248.95 223.58c-0.00976562 127.57 105.99 222.57 251.021 222.721
c57.9697 -0.150391 131.97 -15.1504 180.989 -43.0107l-5.66016 -120.37h-5.91016c-33.4404 77.2197 -84.4404 122.22 -163.7 122.109c-75.96 -0.110352 -120.74 -67.6807 -120.561 -181.921c-0.179688 -113.75 45.8105 -180.97 123.82 -180.97c89 0 149 55 165.08 156.78z
" />
    <glyph glyph-name="dagger" unicode="&#x2020;" horiz-adv-x="477" 
d="M458 438.41l-23.999 -87.3301l-125.75 42.4404l-64.8604 40.1797l40.4902 -62.4805l42.3398 -216.13l-82.5303 -335.08h-10l-82.4697 335.08l42.6602 216.13l40.1201 62.3203l-65.3701 -40.0801l-124.63 -42.3799l-24 87.3398l24 87.6602l124.63 -42.6201
l65.0596 -39.9199l-39.8096 61.9004l-42.6904 184.56l88.6396 24l86.3604 -24l-42.3096 -184.56l-40.1904 -61.9199l64.5596 39.9902l125.75 42.5596z" />
    <glyph glyph-name="daggerdbl" unicode="&#x2021;" horiz-adv-x="478" 
d="M434.64 182.32l24 -87.3398l-24 -87.6602l-124.63 42.6201l-65.0596 39.9199l39.8096 -61.9004l42.6904 -184.95l-88.6396 -24l-86.3604 24l42.3096 184.95l40.1904 61.9199l-64.5596 -39.9902l-125.75 -42.5596l-24 87.6602l24 87.3398l125.75 -42.4404
l64.8604 -40.1797l-40.4902 62.4805l-42.9404 104.52l42.0596 104.52l40.1201 62.3203l-65.3701 -40.0801l-124.63 -42.3799l-24 87.3398l24 87.6602l124.63 -42.6201l65.0596 -39.9199l-39.8096 61.9004l-42.6904 184.56l88.6396 24l86.3604 -24l-42.3096 -184.56
l-40.1904 -61.9199l64.5596 39.9902l125.75 42.5596l24 -87.6602l-24 -87.3398l-125.75 42.4404l-64.8604 40.1797l40.4902 -62.4805l42.9404 -104.52l-42.0596 -104.52l-40.1201 -62.3203l65.3701 40.0801z" />
    <glyph glyph-name="degree" unicode="&#xb0;" horiz-adv-x="237" 
d="M118.54 664.35c54.4199 0 98.54 -44.1201 98.54 -98.54s-44.1201 -98.54 -98.54 -98.54s-98.54 44.1201 -98.54 98.54s44.1201 98.54 98.54 98.54zM118.54 605.89c-22.4404 0 -40.0703 -17.6299 -40.0703 -40.0703s17.6299 -40.0703 40.0703 -40.0703
s40.0703 17.6299 40.0703 40.0703s-17.6299 40.0703 -40.0703 40.0703z" />
    <glyph glyph-name="lozenge" unicode="&#x25ca;" horiz-adv-x="510" 
d="M470.97 349.79l-221.82 364.21l-209.15 -364.21l209.15 -363.79zM106.479 349.8l143.53 255.01l154.47 -255.01l-154.47 -254.99z" />
    <glyph glyph-name="paragraph" unicode="&#xb6;" horiz-adv-x="540" 
d="M523.37 742.62l7.00977 -6.0166c-6.33008 -34.8604 -42.8301 -81.2607 -98.3301 -86.041v-503.49c0 -77.0195 -28.8799 -132.47 -68 -160.08l-9 8c28.7598 49.46 27 83.7598 27 149.63v505.56h-83.46v-650.19c0 -77 -23.4902 -164 -105.98 -199l-7 9
c56.2402 58 63.6299 93 60.71 190v333.14c-110.55 0 -197.55 69.9297 -196.31 184.029c1.23047 112.96 88.2305 182.51 196.311 183.029h181.18c21.9502 0 54.9404 -4.71973 95.8701 42.4307z" />
    <glyph glyph-name="registered" unicode="&#xae;" horiz-adv-x="245" 
d="M122.86 700.86c62.3301 0 112.86 -50.5303 112.86 -112.86s-50.5303 -112.86 -112.86 -112.86s-112.86 50.5303 -112.86 112.86s50.5303 112.86 112.86 112.86zM122.86 498.75c51.2803 0 89.25 37.9697 89.25 89.25s-37.9697 89.25 -89.25 89.25
s-89.25 -37.9697 -89.25 -89.25s37.9697 -89.25 89.25 -89.25zM106.601 649.7l19.8652 0.0722656c23.5996 0 43.46 -12.1797 43.46 -32.3701c0 -21.9502 -13.5098 -31.1104 -30.5293 -32.9102c8.82031 -1.98047 22.3906 -21.3008 30.1309 -33.5508
c2.73047 -4.33008 9.27051 -15.1602 20.7705 -19.0898v-2h-19.6797c-33.8398 0 -40.6396 24.2598 -49.8896 44.9395c-3.01953 6.75977 -5.91992 13.4795 -9.21973 13.4795v1.84961h10.5596c5.62988 0.280273 12.0195 4.56055 14.1895 16.041
c0.549805 2.87988 1.34961 9.09961 1.20996 12.4795c-0.530273 12.9697 -5.83008 21.8594 -20.7998 21.6797l-10.0195 0.179688v-97.9004c0.110352 -6 4.65039 -10.8301 10.6807 -10.8301h2.53027v-2h-57.29v2h2.53027c5.94043 0 10.4307 4.69043 10.6709 10.5703v94.9297
c-0.179688 5.94043 -4.69922 10.4307 -10.6895 10.4307h-2.53027v2h44.0498z" />
    <glyph glyph-name="section" unicode="&#xa7;" horiz-adv-x="536" 
d="M330.85 716c112.35 0 185.162 -61.4287 145.152 -122.999c-73.96 -113.83 -157.42 106.49 -228.01 54c-58.8096 -43.7305 87.2803 -163.091 136.99 -220.001c228.1 -261.09 132.949 -586 -163.911 -586c-114.81 0 -209.29 59 -168.09 127
c73.6299 121.01 177.689 -111 247.999 -54c47.1699 39 -43.2803 110.08 -156 222c-247.98 246.08 -74.9805 580 185.869 580zM145.401 582.921c-69.3398 -151.92 14.4297 -237.88 100.609 -325.92c80.2305 -81.96 165.61 -170 148.54 -278
c65.5996 133 -20.79 229.3 -111.54 327c-103.39 111.3 -138.399 149 -137.609 276.92z" />
    <glyph glyph-name="trademark" unicode="&#x2122;" horiz-adv-x="512" 
d="M207.19 642.98l0.000976562 1.7998c0.360352 25.2998 -14.3193 40.2695 -39.8789 40.6191h-24.4697v-164.45c0 -10.1104 8.01953 -18.2002 17.6992 -18.2002l3.33008 0.360352v-3.00977h-107.54v3.00977l3.32031 -0.360352c9.67969 0 17.3398 8.08984 17.6895 18.2002
v164.45h-24.4297c-25.5996 -0.349609 -40.2793 -15.3193 -40.2793 -40.6191v-1.7998h-2.62988v62.9805c5.34961 -2 21.6895 -5.04004 33.709 -5.04004h132.76c12.0195 0 28.3594 3.04004 33.709 5.04004v-62.9805h-2.99023zM498.401 502.74l4.5293 0.360352v-3.00977
h-90.2002l-0.349609 2.41992v-2.41992h-17.3896v2.66016h4.51953c5.76953 0 10.8799 5.75977 11.1201 11.6494l-11.21 76.4297l-46.2598 -64.3096s-13.2998 -18.0498 -12.2002 -33.7803h-2.78027l-75.0898 93.6201l-9.37012 -72.4805
c0.509766 -5.7002 5.49023 -11.1299 11.0898 -11.1299h4.51953v-2.66016h-64.1602v3.00977l4.33984 -0.360352c9.74023 0 18.1504 5.65039 20.8301 15.3906l26.3701 186.46h2.41992l99.9004 -125.34l89.2305 125.35h2.78027l26.8496 -185.41
c2.61035 -10.3896 10.9307 -16.4492 20.5107 -16.4492z" />
    <glyph glyph-name="asciicircum" unicode="^" horiz-adv-x="572" 
d="M253.34 380.64l-218.351 -208.75h88.8799l163.44 153.25l161.63 -153.25h88.75l-216.3 208.75h-68.0498z" />
    <glyph glyph-name="commaaccentcomb" unicode="&#x326;" horiz-adv-x="0" 
d="M36.8799 -209l-2.73047 9c25.6504 11 50.5205 48 12.8506 90c-25.6396 29 -21.3193 78 6.40039 98c31.9805 23.7197 83.1504 10 100.92 -29c38.3799 -84 -31.9805 -185 -117.44 -168z" />
    <glyph glyph-name="acute" unicode="&#xb4;" 
d="M210.67 742.97l-6.99023 7.00293c28.25 65.8896 110.5 147.779 154.75 185.659c48.3799 -20.2402 71.7598 -53.4805 85.1396 -99.7207c-63.2998 -41.9805 -159.6 -83.9609 -232.899 -92.9414z" />
    <glyph glyph-name="breve" unicode="&#x2d8;" 
d="M346.99 873.73h12.71c19.2998 -86.7305 -51.7002 -163.73 -139.5 -163.641c-90.2002 -0.0898438 -158.2 78.9102 -139.51 163.641h12.7197c15.5898 -35.7305 67.5898 -63.7305 126.59 -63.7305c58 0 111 27 126.99 63.7305z" />
    <glyph glyph-name="caron" unicode="&#x2c7;" 
d="M291.77 670.55l159.3 175.42l-7.20996 8l-157.54 -64.3301l-168.34 64.4297l-7.20996 -8l168.98 -175.52h12.0195z" />
    <glyph glyph-name="cedilla" unicode="&#xb8;" 
d="M216.52 -62l48.7383 62.7803h61.2695l-42.3799 -48.7803c35.5898 12 125.189 6 118.84 -63c-6.41016 -70 -105.43 -114 -188.52 -85l0.740234 10c41.7305 0 97.0908 21 103.791 76c5.15039 42 -61.1494 53 -97.3896 38z" />
    <glyph glyph-name="circumflex" unicode="&#x2c6;" 
d="M270.18 844.07l-168.868 -175.42l7.13965 -8l167.12 64.3301l177.81 -64.4297l7.13965 8l-178.44 175.52h-11.9004z" />
    <glyph glyph-name="dieresis" unicode="&#xa8;" 
d="M149.2 665.49c-40.7002 0 -73.6904 32.9902 -73.6904 73.6904s32.9902 73.6904 73.6904 73.6904s73.6904 -32.9902 73.6904 -73.6904s-32.9902 -73.6904 -73.6904 -73.6904zM411.8 665.49c-40.7002 0 -73.6904 32.9902 -73.6904 73.6904s32.9902 73.6904 73.6904 73.6904
s73.6904 -32.9902 73.6904 -73.6904s-32.9902 -73.6904 -73.6904 -73.6904z" />
    <glyph glyph-name="dotaccent" unicode="&#x2d9;" 
d="M293.92 665.49c-40.7002 0 -73.6904 32.9902 -73.6904 73.6904s32.9902 73.6904 73.6904 73.6904s73.6904 -32.9902 73.6904 -73.6904s-32.9902 -73.6904 -73.6904 -73.6904z" />
    <glyph glyph-name="grave" unicode="`" 
d="M293.67 749.97l-6.99023 -7.00293c-73.2998 8.98047 -169.6 50.9609 -232.899 92.9414c13.3799 46.2402 36.7598 79.4805 85.1396 99.7207c44.25 -37.8799 126.5 -119.77 154.75 -185.659z" />
    <glyph glyph-name="hungarumlaut" unicode="&#x2dd;" 
d="M140.67 742.97l-6.99023 7.00293c28.25 65.8896 110.5 147.779 154.75 185.659c48.3799 -20.2402 71.7598 -53.4805 85.1396 -99.7207c-63.2998 -41.9805 -159.6 -83.9609 -232.899 -92.9414zM350.68 742.973l-6.99023 7.00293
c28.25 65.8896 110.5 147.779 154.75 185.659c48.3799 -20.2402 71.7598 -53.4805 85.1396 -99.7207c-63.2998 -41.9805 -159.6 -83.9609 -232.899 -92.9414z" />
    <glyph glyph-name="macron" unicode="&#xaf;" 
d="M150.23 702.94v85h290v-85h-290z" />
    <glyph glyph-name="ogonek" unicode="&#x2db;" 
d="M425.05 -107l6 -6c-9.0498 -136 -223.689 -102 -204.05 37c10.7002 76 85 98 140.58 92.4902l10 -3c-54.5801 -12.4902 -67.5801 -44.4902 -64.5801 -78.4902c6 -61 62 -82 112.05 -42z" />
    </font>
</defs>
</svg>
